<svg id="svg161" xmlns="http://www.w3.org/2000/svg" xmlns:xlink="http://www.w3.org/1999/xlink" viewBox="0 0 929.55 482.34"><defs><style>.cls-1{fill:#f4f4f4;}.cls-2{fill:url(#linear-gradient);}.cls-3{fill:url(#linear-gradient-2);}.cls-4,.cls-9{font-size:11px;}.cls-4{fill:#b2b2b2;}.cls-15,.cls-19,.cls-4,.cls-9{font-family:Roboto-Bold, Roboto;font-weight:700;}.cls-5{letter-spacing:-0.03em;}.cls-6{letter-spacing:0em;}.cls-7{letter-spacing:-0.01em;}.cls-8{letter-spacing:0em;}.cls-9{fill:#777;}.cls-10{letter-spacing:0em;}.cls-11{letter-spacing:0.01em;}.cls-12{letter-spacing:-0.06em;}.cls-13{letter-spacing:-0.01em;}.cls-14{letter-spacing:-0.06em;}.cls-15,.cls-19{font-size:9px;}.cls-15,.cls-26{fill:#425066;}.cls-16{letter-spacing:-0.03em;}.cls-17{letter-spacing:0em;}.cls-18{letter-spacing:0em;}.cls-19{fill:#b8baba;}.cls-20{letter-spacing:0em;}.cls-21{letter-spacing:-0.03em;}.cls-22{letter-spacing:0em;}.cls-23{fill:#ffa800;}.cls-24{fill:#ff8f00;}.cls-25{fill:#ff6f00;}.cls-27{font-size:14px;fill:#fff;font-family:Roboto-Regular, Roboto;}.cls-28{letter-spacing:-0.02em;}.cls-29{letter-spacing:-0.01em;}.cls-30{fill:#ced0d1;}.cls-31,.cls-32,.cls-37{fill:none;stroke-miterlimit:10;stroke-width:0.96px;}.cls-31{stroke:#c1c1c1;}.cls-32{stroke:#425066;}.cls-32,.cls-37{stroke-dasharray:3 3;}.cls-33{letter-spacing:-0.03em;}.cls-34{letter-spacing:-0.02em;}.cls-35{letter-spacing:-0.01em;}.cls-36{letter-spacing:-0.01em;}.cls-37{stroke:#a3a3a3;}.cls-38{fill:#a3a3a3;}</style><linearGradient id="linear-gradient" x1="498.21" y1="45.51" x2="505.29" y2="463.47" gradientUnits="userSpaceOnUse"><stop offset="0" stop-color="#e6e6e6"/><stop offset="1" stop-color="#fff"/></linearGradient><linearGradient id="linear-gradient-2" x1="94.45" y1="36.36" x2="203.91" y2="36.36" gradientUnits="userSpaceOnUse"><stop offset="0" stop-color="#e6e6e6"/><stop offset="1" stop-color="#e6e6e6"/></linearGradient></defs><title>all_diagrams</title><rect class="cls-1" x="321.39" y="16.73" width="109.47" height="39.27"/><rect class="cls-1" x="208.16" y="16.73" width="109.47" height="39.27"/><rect class="cls-2" x="94.45" y="54.52" width="814.66" height="403.14"/><rect class="cls-3" x="94.45" y="16.73" width="109.47" height="39.27"/><text class="cls-4" transform="translate(636.1 433.63)">TENSORF<tspan class="cls-5" x="48.16" y="0">L</tspan><tspan class="cls-6" x="53.75" y="0">OW</tspan><tspan x="12.73" y="13.2">SE</tspan><tspan class="cls-7" x="25.68" y="13.2">R</tspan><tspan class="cls-8" x="32.58" y="13.2">VING</tspan></text><text class="cls-9" transform="translate(14.46 222.2)">T<tspan class="cls-10" x="6.81" y="0">R</tspan><tspan class="cls-8" x="13.86" y="0">AINING &amp; </tspan><tspan class="cls-11" x="3.66" y="13.2">E</tspan><tspan class="cls-12" x="10" y="13.2">V</tspan><tspan class="cls-8" x="16.52" y="13.2">A</tspan><tspan class="cls-7" x="23.92" y="13.2">L</tspan><tspan x="29.76" y="13.2"> </tspan><tspan class="cls-13" x="32.5" y="13.2">D</tspan><tspan class="cls-14" x="39.5" y="13.2">AT</tspan><tspan x="52.34" y="13.2">A</tspan></text><text class="cls-15" transform="translate(109.49 39.64)">AIRF<tspan class="cls-16" x="19.35" y="0">L</tspan><tspan x="23.92" y="0">OW RU</tspan><tspan class="cls-17" x="51.92" y="0">N</tspan><tspan class="cls-18" x="58.24" y="0">TIME</tspan></text><text class="cls-19" transform="translate(219.65 39.64)">KUBEF<tspan class="cls-16" x="27.37" y="0">L</tspan><tspan class="cls-18" x="31.94" y="0">OW RU</tspan><tspan class="cls-20" x="59.94" y="0">N</tspan><tspan class="cls-18" x="66.26" y="0">TIME</tspan></text><text class="cls-19" transform="translate(361.78 39.64)"><tspan class="cls-21">O</tspan><tspan x="5.96" y="0">THER</tspan></text><text class="cls-4" transform="translate(725.58 433.63)">TENSORF<tspan class="cls-5" x="48.16" y="0">L</tspan><tspan class="cls-6" x="53.75" y="0">OW</tspan><tspan x="29.03" y="13.2">JS</tspan></text><text class="cls-4" transform="translate(815.06 433.63)">TENSORF<tspan class="cls-5" x="48.16" y="0">L</tspan><tspan class="cls-6" x="53.75" y="0">OW</tspan><tspan x="24.42" y="13.2">L</tspan><tspan class="cls-22" x="30.38" y="13.2">I</tspan><tspan class="cls-8" x="33.54" y="13.2">TE</tspan></text><polygon class="cls-23" points="21.23 161.47 46.16 147.08 71.09 161.47 46.16 175.86 21.23 161.47"/><polygon class="cls-24" points="21.23 161.47 21.23 190.26 46.16 204.65 46.16 175.86 21.23 161.47"/><polygon class="cls-25" points="71.09 161.47 71.09 190.26 46.16 204.65 46.16 175.86 71.09 161.47"/><path class="cls-25" d="M810.32,123.68v1.78H799.74V108.81h10.47v1.8H802V116h7.2v1.78H802v5.93Z"/><path class="cls-25" d="M819.61,113.09h2.49l-4,6.11,4.16,6.27h-2.46l-2.85-4.66-2.84,4.66h-2.49l4.18-6.27-4-6.11h2.47l2.7,4.52Z"/><path class="cls-25" d="M829.6,125.46a5.47,5.47,0,0,1-1.64.23,2.82,2.82,0,0,1-2.08-.78,3.46,3.46,0,0,1-.78-2.53V114.7h-2.25v-1.61h2.25v-3h2.14v3h2.31v1.61h-2.31v7.7a1.5,1.5,0,0,0,.37,1.18,1.51,1.51,0,0,0,1,.3,3.8,3.8,0,0,0,.53,0l.46-.09Z"/><path class="cls-25" d="M842,119.86h-8.37a5.18,5.18,0,0,0,.48,2.09,3.58,3.58,0,0,0,1.26,1.48,3.38,3.38,0,0,0,1.92.54,3.77,3.77,0,0,0,1.86-.43,4.53,4.53,0,0,0,1.4-1.25l1.29,1A5.4,5.4,0,0,1,840,125a5.54,5.54,0,0,1-2.84.67,5.74,5.74,0,0,1-3-.77,5.19,5.19,0,0,1-2-2.13,6.63,6.63,0,0,1-.7-3.09v-.49a7.21,7.21,0,0,1,.76-3.38,5.54,5.54,0,0,1,2-2.21,5.34,5.34,0,0,1,5.53,0,4.57,4.57,0,0,1,1.69,2.13,8.37,8.37,0,0,1,.55,3.15ZM839.85,118a4.63,4.63,0,0,0-.78-2.43,2.49,2.49,0,0,0-2.18-1,2.77,2.77,0,0,0-2.13.93,4.69,4.69,0,0,0-1.07,2.64h6.17Z"/><path class="cls-25" d="M854.19,117.35v8.11h-2.14v-8.13a2.91,2.91,0,0,0-.61-2.06,2.44,2.44,0,0,0-1.85-.64,3.05,3.05,0,0,0-1.77.54,3.78,3.78,0,0,0-1.24,1.44v8.85h-2.14V113.09h2l.07,1.52a4.71,4.71,0,0,1,1.61-1.29,4.66,4.66,0,0,1,2.07-.46Q854.19,112.86,854.19,117.35Z"/><path class="cls-25" d="M867.33,107.89v17.57h-2l-.1-1.32a4.29,4.29,0,0,1-3.52,1.54,4.19,4.19,0,0,1-2.54-.81,5.27,5.27,0,0,1-1.72-2.24,8.12,8.12,0,0,1-.61-3.23v-.24a8.41,8.41,0,0,1,.61-3.31,5.07,5.07,0,0,1,1.72-2.22,4.33,4.33,0,0,1,2.57-.79,4.25,4.25,0,0,1,3.42,1.45v-6.42Zm-2.14,14.22v-5.73A3.44,3.44,0,0,0,864,115.1a3.11,3.11,0,0,0-1.74-.47,2.83,2.83,0,0,0-1.85.6,3.48,3.48,0,0,0-1.09,1.63,7.17,7.17,0,0,0-.35,2.31v.24a7,7,0,0,0,.35,2.29,3.47,3.47,0,0,0,1.08,1.61,2.81,2.81,0,0,0,1.83.59A3.09,3.09,0,0,0,865.19,122.11Z"/><path class="cls-25" d="M880.59,119.86h-8.37a5.18,5.18,0,0,0,.48,2.09,3.58,3.58,0,0,0,1.26,1.48,3.38,3.38,0,0,0,1.92.54,3.77,3.77,0,0,0,1.86-.43,4.53,4.53,0,0,0,1.4-1.25l1.29,1A5.4,5.4,0,0,1,878.6,125a5.54,5.54,0,0,1-2.84.67,5.74,5.74,0,0,1-3-.77,5.19,5.19,0,0,1-2-2.13,6.63,6.63,0,0,1-.7-3.09v-.49a7.21,7.21,0,0,1,.76-3.38,5.54,5.54,0,0,1,2-2.21,5.34,5.34,0,0,1,5.53,0,4.57,4.57,0,0,1,1.69,2.13,8.37,8.37,0,0,1,.55,3.15ZM878.45,118a4.63,4.63,0,0,0-.78-2.43,2.49,2.49,0,0,0-2.18-1,2.77,2.77,0,0,0-2.13.93,4.69,4.69,0,0,0-1.07,2.64h6.17Z"/><path class="cls-25" d="M893,107.89v17.57h-2l-.1-1.32a4.29,4.29,0,0,1-3.52,1.54,4.19,4.19,0,0,1-2.54-.81,5.27,5.27,0,0,1-1.72-2.24,8.12,8.12,0,0,1-.61-3.23v-.24a8.41,8.41,0,0,1,.61-3.31,5.07,5.07,0,0,1,1.72-2.22,4.33,4.33,0,0,1,2.57-.79,4.25,4.25,0,0,1,3.42,1.45v-6.42Zm-2.14,14.22v-5.73a3.44,3.44,0,0,0-1.15-1.28,3.11,3.11,0,0,0-1.74-.47,2.83,2.83,0,0,0-1.85.6,3.48,3.48,0,0,0-1.09,1.63,7.17,7.17,0,0,0-.35,2.31v.24a7,7,0,0,0,.35,2.29,3.47,3.47,0,0,0,1.08,1.61,2.81,2.81,0,0,0,1.83.59A3.09,3.09,0,0,0,890.85,122.11Z"/><path class="cls-26" d="M749.26,81.79h-7v19.28h-4V81.79h-6.93V78.56h17.92Z"/><path class="cls-26" d="M761.54,93.91h-10.9a5.52,5.52,0,0,0,.66,2.27,4.06,4.06,0,0,0,1.51,1.55,4.31,4.31,0,0,0,2.22.56,5,5,0,0,0,4.17-2l2.06,2a7.19,7.19,0,0,1-2.54,2.24,8,8,0,0,1-3.93.9,8.35,8.35,0,0,1-4.27-1.06,7.17,7.17,0,0,1-2.8-2.9,8.68,8.68,0,0,1-1-4.13v-.63a9.92,9.92,0,0,1,1-4.54,7.36,7.36,0,0,1,2.72-3,7.28,7.28,0,0,1,3.9-1.07,7.19,7.19,0,0,1,4,1,6.3,6.3,0,0,1,2.4,2.9,10.92,10.92,0,0,1,.8,4.32Zm-3.8-3.08a4.62,4.62,0,0,0-.88-2.67,3,3,0,0,0-2.5-1,3.1,3.1,0,0,0-2.44,1.05,5.5,5.5,0,0,0-1.19,3h7Z"/><path class="cls-26" d="M778.15,85.51q1.38,1.48,1.38,4.77v10.79h-3.85V90.25a3.23,3.23,0,0,0-.72-2.37,3,3,0,0,0-2.2-.7,3.6,3.6,0,0,0-1.93.53,3.83,3.83,0,0,0-1.36,1.47v11.91h-3.85V84.34h3.62l.12,1.93a6.12,6.12,0,0,1,2.13-1.66,6.33,6.33,0,0,1,2.72-.58A5.13,5.13,0,0,1,778.15,85.51Z"/><path class="cls-26" d="M784.63,92.31a3.78,3.78,0,0,1-1.56-3.19,4.42,4.42,0,0,1,.8-2.54,5.46,5.46,0,0,1,2.27-1.86,8,8,0,0,1,3.41-.69,8.55,8.55,0,0,1,3.58.7,5.5,5.5,0,0,1,2.34,1.91,4.77,4.77,0,0,1,.82,2.73h-3.85a2.35,2.35,0,0,0-1.31-2.13,3.36,3.36,0,0,0-1.58-.34,3.1,3.1,0,0,0-2,.59,1.83,1.83,0,0,0-.71,1.47,1.49,1.49,0,0,0,.3.94,2.54,2.54,0,0,0,1,.7,12,12,0,0,0,2.06.59,16.32,16.32,0,0,1,3.39,1.05,5.19,5.19,0,0,1,2.07,1.61,4.07,4.07,0,0,1,.73,2.47,4.36,4.36,0,0,1-.84,2.63,5.44,5.44,0,0,1-2.39,1.8,9.27,9.27,0,0,1-3.57.64,8.41,8.41,0,0,1-3.8-.8,6.05,6.05,0,0,1-2.44-2.09,4.88,4.88,0,0,1-.83-2.71h3.73a2.47,2.47,0,0,0,1,2.07,4.13,4.13,0,0,0,2.37.66,3.76,3.76,0,0,0,2.19-.55,1.7,1.7,0,0,0,.78-1.46,1.77,1.77,0,0,0-.28-1,2.48,2.48,0,0,0-1.06-.77,10.81,10.81,0,0,0-2.22-.65A11.21,11.21,0,0,1,784.63,92.31Z"/><path class="cls-26" d="M800.5,88.18a7.21,7.21,0,0,1,2.7-3A7.64,7.64,0,0,1,807.35,84a7.73,7.73,0,0,1,4.18,1.11,7.2,7.2,0,0,1,2.71,3,9.92,9.92,0,0,1,.94,4.38v.32a9.92,9.92,0,0,1-.94,4.38,7.16,7.16,0,0,1-2.7,3,8.44,8.44,0,0,1-8.33,0,7.14,7.14,0,0,1-2.71-3,9.91,9.91,0,0,1-.94-4.38v-.32A9.91,9.91,0,0,1,800.5,88.18Zm3.9,8.6a3.31,3.31,0,0,0,3,1.52,3.39,3.39,0,0,0,2.2-.72,4.2,4.2,0,0,0,1.31-1.94,8.34,8.34,0,0,0,.43-2.75v-.32a8.36,8.36,0,0,0-.43-2.74,4.23,4.23,0,0,0-1.32-2,3.42,3.42,0,0,0-2.23-.73,3.34,3.34,0,0,0-2.2.73,4.28,4.28,0,0,0-1.31,2,8.35,8.35,0,0,0-.43,2.74v.32A7,7,0,0,0,804.41,96.77Z"/><path class="cls-26" d="M826.54,84.1a3.14,3.14,0,0,1,.61.14l0,3.63a9.68,9.68,0,0,0-1.53-.12,3.43,3.43,0,0,0-3.46,1.93v11.4h-3.85V84.34h3.66l.11,1.89a4.67,4.67,0,0,1,1.58-1.62,4.12,4.12,0,0,1,2.18-.57A5,5,0,0,1,826.54,84.1Z"/><path class="cls-26" d="M835.1,81.79v6.57h9v3.22h-9v9.49h-4V78.56h14.35v3.23Z"/><path class="cls-26" d="M849,101.07V78.56h3.85v22.51Z"/><path class="cls-26" d="M855.87,88.18a7.21,7.21,0,0,1,2.7-3A7.64,7.64,0,0,1,862.71,84a7.73,7.73,0,0,1,4.18,1.11,7.2,7.2,0,0,1,2.71,3,9.92,9.92,0,0,1,.94,4.38v.32a9.92,9.92,0,0,1-.94,4.38,7.16,7.16,0,0,1-2.7,3,8.44,8.44,0,0,1-8.33,0,7.14,7.14,0,0,1-2.71-3,9.91,9.91,0,0,1-.94-4.38v-.32A9.91,9.91,0,0,1,855.87,88.18Zm3.9,8.6a3.31,3.31,0,0,0,3,1.52,3.39,3.39,0,0,0,2.2-.72,4.2,4.2,0,0,0,1.31-1.94,8.34,8.34,0,0,0,.43-2.75v-.32a8.36,8.36,0,0,0-.43-2.74,4.23,4.23,0,0,0-1.32-2,3.42,3.42,0,0,0-2.23-.73,3.34,3.34,0,0,0-2.2.73,4.28,4.28,0,0,0-1.31,2,8.35,8.35,0,0,0-.43,2.74v.32A7,7,0,0,0,859.78,96.77Z"/><path class="cls-26" d="M894,84.34l-4.53,16.73h-3.17L882.8,89.72l-3.48,11.35h-3.17l-4.53-16.73h3.74L878,95.64l3.39-11.3h2.88l3.42,11.44,2.61-11.44Z"/><rect class="cls-25" x="239.48" y="148.33" width="117.83" height="55.6"/><text class="cls-27" transform="translate(254.54 181.32)">StatisticsGen</text><rect class="cls-25" x="369.77" y="148.33" width="117.83" height="55.6"/><text class="cls-27" transform="translate(388.6 180.52)">SchemaGen</text><rect class="cls-25" x="369.95" y="80.37" width="117.83" height="55.6"/><text class="cls-27" transform="translate(399.72 103.86)">Example<tspan class="cls-28" x="-1.08" y="16.8">V</tspan><tspan x="7.51" y="16.8">alida</tspan><tspan class="cls-29" x="37.43" y="16.8">t</tspan><tspan x="41.81" y="16.8">or</tspan></text><rect class="cls-30" x="759.94" y="283.54" width="117.83" height="55.6"/><text class="cls-27" transform="translate(794.18 315.72)">Pusher</text><polyline class="cls-31" points="873.1 396.2 878.14 399.11 845.72 417.83 821.41 403.79 826.45 400.88"/><polyline class="cls-31" points="873.1 390.38 878.14 393.29 845.72 412.01 821.41 397.97 826.45 395.06"/><polygon class="cls-31" points="821.41 392.14 853.83 373.43 878.14 387.47 845.72 406.18 821.41 392.14"/><line class="cls-31" x1="845.72" y1="380.39" x2="861.93" y2="389.75"/><line class="cls-31" x1="837.62" y1="385.07" x2="849.78" y2="392.09"/><line class="cls-31" x1="829.51" y1="389.75" x2="837.62" y2="394.43"/><line class="cls-31" x1="849.78" y1="378.05" x2="853.83" y2="380.39"/><polyline class="cls-31" points="787.66 396.2 792.7 399.11 760.28 417.83 735.97 403.79 741.01 400.88"/><polyline class="cls-31" points="787.66 390.38 792.7 393.29 760.28 412.01 735.97 397.97 741.01 395.06"/><polygon class="cls-31" points="735.97 392.14 768.39 373.43 792.7 387.47 760.28 406.18 735.97 392.14"/><line class="cls-31" x1="760.28" y1="380.39" x2="776.49" y2="389.75"/><line class="cls-31" x1="752.18" y1="385.07" x2="764.33" y2="392.09"/><line class="cls-31" x1="744.07" y1="389.75" x2="752.18" y2="394.43"/><polyline class="cls-31" points="695.59 396.2 700.63 399.11 668.21 417.83 643.89 403.79 648.93 400.88"/><polyline class="cls-31" points="695.59 390.38 700.63 393.29 668.21 412.01 643.89 397.97 648.93 395.06"/><polygon class="cls-31" points="643.89 392.14 676.31 373.43 700.63 387.47 668.21 406.18 643.89 392.14"/><line class="cls-31" x1="668.21" y1="380.39" x2="684.42" y2="389.75"/><line class="cls-31" x1="660.1" y1="385.07" x2="672.26" y2="392.09"/><line class="cls-31" x1="652" y1="389.75" x2="660.1" y2="394.43"/><line class="cls-31" x1="672.26" y1="378.05" x2="676.31" y2="380.39"/><line class="cls-32" x1="71.09" y1="176.13" x2="109.35" y2="176.13"/><rect class="cls-25" x="369.67" y="216.05" width="117.83" height="55.6"/><text class="cls-27" transform="translate(396.47 248.23)"><tspan class="cls-33">T</tspan><tspan class="cls-34" x="7.9" y="0">r</tspan><tspan x="12.43" y="0">ansform</tspan></text><rect class="cls-30" x="630.07" y="216.05" width="117.83" height="55.6"/><text class="cls-27" transform="translate(659.48 248.23)"><tspan class="cls-35">E</tspan><tspan class="cls-36" x="7.78" y="0">v</tspan><tspan x="14.46" y="0">alua</tspan><tspan class="cls-29" x="40.8" y="0">t</tspan><tspan x="45.18" y="0">or</tspan></text><polyline class="cls-37" points="558.81 271.37 558.81 311.72 761.75 311.72"/><rect class="cls-30" x="630.25" y="283.54" width="117.83" height="55.6"/><text class="cls-27" transform="translate(669.15 308.12)">Model<tspan class="cls-28" x="-8.35" y="16.8">V</tspan><tspan x="0.25" y="16.8">alida</tspan><tspan class="cls-29" x="30.17" y="16.8">t</tspan><tspan x="34.54" y="16.8">or</tspan></text><polyline class="cls-32" points="370.45 244.13 168.27 244.13 168.27 203.33"/><line class="cls-32" x1="222.31" y1="176.13" x2="236.16" y2="176.13"/><line class="cls-32" x1="357.31" y1="176.13" x2="365.82" y2="176.13"/><circle class="cls-26" cx="239.48" cy="176.13" r="3.4"/><circle class="cls-26" cx="369.22" cy="176.13" r="3.4"/><circle class="cls-26" cx="429.85" cy="135.97" r="3.4"/><circle class="cls-26" cx="369.22" cy="243.85" r="3.4"/><circle class="cls-26" cx="428.59" cy="217.05" r="3.4"/><circle class="cls-38" cx="630.07" cy="243.85" r="3.4"/><circle class="cls-38" cx="630.07" cy="311.34" r="3.4"/><circle class="cls-38" cx="676.31" cy="374.19" r="3.4"/><circle class="cls-38" cx="768.39" cy="374.19" r="3.4"/><circle class="cls-38" cx="853.83" cy="374.19" r="3.4"/><circle class="cls-38" cx="759.94" cy="311.34" r="3.4"/><rect class="cls-25" x="109.35" y="148.33" width="117.83" height="55.6"/><text class="cls-27" transform="translate(127.3 180.52)">ExampleGen</text><circle class="cls-26" cx="109.35" cy="176.13" r="3.4"/><polyline class="cls-37" points="818.86 337.14 818.86 359.27 853.83 359.27 853.83 373.43"/><polyline class="cls-37" points="768.37 373.43 768.37 359.27 818.86 359.27"/><polyline class="cls-37" points="676.31 373.43 676.31 359.27 768.37 359.27"/><line class="cls-32" x1="429.85" y1="148.12" x2="429.85" y2="139.37"/><line class="cls-32" x1="428.89" y1="215.27" x2="428.89" y2="203.72"/><line class="cls-37" x1="630.07" y1="243.85" x2="487.5" y2="243.85"/><rect class="cls-30" x="500.09" y="216.05" width="117.83" height="55.6"/><text class="cls-27" transform="translate(537.41 248.23)"><tspan class="cls-33">T</tspan><tspan class="cls-34" x="7.9" y="0">r</tspan><tspan x="12.43" y="0">ainer</tspan></text><circle class="cls-38" cx="500" cy="243.85" r="3.4"/><circle class="cls-26" cx="369.56" cy="108.19" r="3.4"/><polyline class="cls-32" points="297.51 148.35 297.51 107.91 369.06 107.91"/></svg>