<svg id="svg161" xmlns="http://www.w3.org/2000/svg" viewBox="0 0 960 350"><defs><style>.cls-1,.cls-2{fill:none;stroke:#4b5a71;stroke-miterlimit:10;stroke-width:1.06px;}.cls-1{stroke-dasharray:4 4;}.cls-3{fill:#ff6f00;}.cls-4{font-size:12px;fill:#777;font-family:Roboto-Bold, Roboto;font-weight:700;}.cls-5{letter-spacing:-0.01em;}.cls-6{letter-spacing:-0.06em;}.cls-7{letter-spacing:-0.03em;}.cls-8{letter-spacing:-0.06em;}.cls-9{letter-spacing:0em;}.cls-10{letter-spacing:0em;}.cls-11{letter-spacing:-0.02em;}.cls-12{letter-spacing:-0.01em;}.cls-13{letter-spacing:-0.13em;}.cls-14{letter-spacing:-0.01em;}.cls-15{font-size:14px;fill:#fff;font-family:Roboto-Regular, Roboto;}.cls-16{letter-spacing:-0.03em;}.cls-17{letter-spacing:-0.02em;}.cls-18{letter-spacing:-0.01em;}.cls-19{letter-spacing:-0.01em;}.cls-20{letter-spacing:-0.01em;}.cls-21{letter-spacing:0.01em;}.cls-22{letter-spacing:-0.01em;}.cls-23{letter-spacing:-0.02em;}</style></defs><title>all_diagrams</title><rect class="cls-1" x="14.71" y="28.62" width="118.09" height="50"/><path id="path57" class="cls-2" d="M285.64,29.92H403.47V78.62H285.64Z"/><path id="path63" class="cls-2" d="M420.89,29.72H539.21v48.9H420.89Z"/><path id="path69" class="cls-2" d="M556,29.51H674.86V78.62H556Z"/><rect class="cls-2" x="149.84" y="29.59" width="118.63" height="49.02"/><path id="path75" class="cls-1" d="M691.38,29.47H810.31V78.62H691.38Z"/><path id="path89" class="cls-2" d="M827,29.55H945.71V78.62H827Z"/><line class="cls-2" x1="74.37" y1="78.69" x2="74.37" y2="322"/><line class="cls-2" x1="206.6" y1="78.69" x2="206.6" y2="322"/><line class="cls-2" x1="344.85" y1="78.69" x2="344.85" y2="322"/><line class="cls-2" x1="480" y1="78.69" x2="480" y2="322"/><line class="cls-2" x1="615.4" y1="78.69" x2="615.4" y2="322"/><line class="cls-2" x1="748.53" y1="78.69" x2="748.53" y2="322"/><line class="cls-2" x1="885.7" y1="78.69" x2="885.7" y2="322"/><rect class="cls-3" x="150.63" y="98.77" width="117.83" height="55.6"/><rect class="cls-3" x="14.97" y="98.77" width="117.83" height="55.6"/><rect class="cls-3" x="150.63" y="171.71" width="117.83" height="55.6"/><rect class="cls-3" x="285.63" y="171.71" width="117.83" height="55.6"/><rect class="cls-3" x="421.38" y="171.71" width="117.83" height="55.6"/><rect class="cls-3" x="557.03" y="171.71" width="117.83" height="55.6"/><rect class="cls-3" x="692.48" y="171.71" width="117.83" height="55.6"/><rect class="cls-3" x="827.88" y="171.71" width="117.83" height="55.6"/><rect class="cls-3" x="150.63" y="245.23" width="117.83" height="55.6"/><rect class="cls-3" x="557.03" y="245.23" width="117.83" height="55.6"/><text class="cls-4" transform="translate(27.05 58.44)"><tspan class="cls-5">D</tspan><tspan class="cls-6" x="7.63" y="0">AT</tspan><tspan x="21.64" y="0">A INGESTION</tspan></text><text class="cls-4" transform="translate(168.05 51.24)">TENSORF<tspan class="cls-7" x="52.54" y="0">L</tspan><tspan x="58.63" y="0">OW</tspan><tspan class="cls-5" x="-11.56" y="14.4">D</tspan><tspan class="cls-6" x="-3.93" y="14.4">AT</tspan><tspan x="10.08" y="14.4">A </tspan><tspan class="cls-8" x="21.15" y="14.4">V</tspan><tspan x="28.26" y="14.4">ALI</tspan><tspan class="cls-5" x="46.33" y="14.4">D</tspan><tspan class="cls-6" x="53.96" y="14.4">A</tspan><tspan x="61.29" y="14.4">TION</tspan></text><text class="cls-4" transform="translate(305.64 51.24)">TENSORF<tspan class="cls-7" x="52.54" y="0">L</tspan><tspan x="58.63" y="0">OW</tspan><tspan x="2.67" y="14.4">T</tspan><tspan class="cls-9" x="10.09" y="14.4">R</tspan><tspan x="17.79" y="14.4">ANSFORM</tspan></text><text class="cls-4" transform="translate(437.88 51.24)">ESTI<tspan class="cls-10" x="25.05" y="0">M</tspan><tspan class="cls-6" x="35.59" y="0">A</tspan><tspan class="cls-11" x="42.92" y="0">T</tspan><tspan x="50.09" y="0">OR OR</tspan><tspan x="2.37" y="14.4">KE</tspan><tspan class="cls-9" x="16.74" y="14.4">R</tspan><tspan x="24.44" y="14.4">AS MODE</tspan><tspan class="cls-12" x="76.22" y="14.4">L</tspan></text><text class="cls-4" transform="translate(577.24 51.24)">TENSORF<tspan class="cls-7" x="52.54" y="0">L</tspan><tspan x="58.63" y="0">OW</tspan><tspan x="-10.22" y="14.4">MODE</tspan><tspan class="cls-12" x="23.13" y="14.4">L</tspan><tspan x="29.5" y="14.4" xml:space="preserve"> A</tspan><tspan class="cls-10" x="40.56" y="14.4">N</tspan><tspan x="49.06" y="14.4">A</tspan><tspan class="cls-13" x="57.14" y="14.4">L</tspan><tspan class="cls-14" x="62.07" y="14.4">Y</tspan><tspan x="69.38" y="14.4">SIS</tspan></text><text class="cls-4" transform="translate(714.62 51.24)"><tspan class="cls-8">V</tspan><tspan x="7.11" y="0">ALI</tspan><tspan class="cls-5" x="25.18" y="0">D</tspan><tspan class="cls-6" x="32.82" y="0">A</tspan><tspan x="40.15" y="0">TION</tspan><tspan x="1.85" y="14.4">OU</tspan><tspan class="cls-11" x="18.04" y="14.4">T</tspan><tspan x="25.2" y="14.4">COMES</tspan></text><text class="cls-4" transform="translate(846.99 51.24)">TENSORF<tspan class="cls-7" x="52.54" y="0">L</tspan><tspan x="58.63" y="0">OW</tspan><tspan x="13.88" y="14.4">SE</tspan><tspan class="cls-12" x="28.01" y="14.4">R</tspan><tspan x="35.54" y="14.4">VING</tspan></text><text class="cls-15" transform="translate(32.92 130.95)">ExampleGen</text><text class="cls-15" transform="translate(169.47 203.9)">SchemaGen</text><text class="cls-15" transform="translate(312.43 203.9)"><tspan class="cls-16">T</tspan><tspan class="cls-17" x="7.9" y="0">r</tspan><tspan x="12.43" y="0">ansform</tspan></text><text class="cls-15" transform="translate(458.7 203.9)"><tspan class="cls-16">T</tspan><tspan class="cls-17" x="7.9" y="0">r</tspan><tspan x="12.43" y="0">ainer</tspan></text><text class="cls-15" transform="translate(586.45 203.9)"><tspan class="cls-18">E</tspan><tspan class="cls-19" x="7.78" y="0">v</tspan><tspan x="14.46" y="0">alua</tspan><tspan class="cls-20" x="40.8" y="0">t</tspan><tspan x="45.18" y="0">or</tspan></text><text class="cls-15" transform="translate(726.72 203.9)">Pusher</text><text class="cls-15" transform="translate(845.49 203.9)">Model Se<tspan class="cls-21" x="58.11" y="0">r</tspan><tspan class="cls-22" x="62.97" y="0">v</tspan><tspan x="69.66" y="0">er</tspan></text><text class="cls-15" transform="translate(595.94 269.81)">Model<tspan class="cls-23" x="-8.35" y="16.8">V</tspan><tspan x="0.25" y="16.8">alida</tspan><tspan class="cls-20" x="30.17" y="16.8">t</tspan><tspan x="34.54" y="16.8">or</tspan></text><text class="cls-15" transform="translate(165.69 131.75)">StatisticsGen</text><text class="cls-15" transform="translate(180.4 269.81)">Example<tspan class="cls-23" x="-1.08" y="16.8">V</tspan><tspan x="7.51" y="16.8">alida</tspan><tspan class="cls-20" x="37.43" y="16.8">t</tspan><tspan x="41.81" y="16.8">or</tspan></text></svg>