<svg id="Layer_1" data-name="Layer 1" xmlns="http://www.w3.org/2000/svg" viewBox="0 0 800 800"><defs><style>.cls-1{fill:#f9ab00;}.cls-2{fill:#e8710a;}</style></defs><path class="cls-1" d="M548,203.5c-109.08,0-197.5,88.42-197.5,197.5S438.92,598.5,548,598.5,745.5,510.08,745.5,401,657.08,203.5,548,203.5ZM548,504A103,103,0,1,1,651,401,103,103,0,0,1,548,504Z"/><path class="cls-1" d="M324.78,473.88a103,103,0,1,1,3.38-142.23l51.67-81.11A196.69,196.69,0,0,0,252.5,204C143.42,204,55,292.42,55,401.5S143.42,599,252.5,599a196.72,196.72,0,0,0,128.07-47.16Z"/><path class="cls-2" d="M194.63,486.55a103,103,0,0,1,2.9-173L129.9,246.66a197.5,197.5,0,0,0-2.37,307.77Z"/><path class="cls-2" d="M548,598.5c109.08,0,197.5-88.42,197.5-197.5a196.85,196.85,0,0,0-56.34-138.11l-66.62,67A103,103,0,0,1,477.36,476l-66.63,67A196.8,196.8,0,0,0,548,598.5Z"/></svg>
