<svg xmlns="http://www.w3.org/2000/svg" xmlns:xlink="http://www.w3.org/1999/xlink" width="1632" height="384" version="1.1" viewBox="0 0 1224 288"><defs><style type="text/css">*{stroke-linecap:butt;stroke-linejoin:round}</style></defs><g id="figure_1"><g id="patch_1"><path d="M 0 288 L 1224 288 L 1224 0 L 0 0 z" style="fill:#fff"/></g><g id="axes_1"><g id="patch_2"><path d="M 153 88.92 L 1101.6 88.92 L 1101.6 34.56 L 153 34.56 z" style="fill:#fff"/></g><g id="BrokenBarHCollection_1"><path d="M 213.482813 88.92 L 213.482813 34.56 L 306.144348 34.56 L 306.144348 88.92 L 213.482813 88.92 z" clip-path="url(#p42de03a332)" style="fill:#0d0887;fill-opacity:.66;stroke:#0d0887;stroke-opacity:.66"/><path d="M 655.748438 88.92 L 655.748438 34.56 L 748.144356 34.56 L 748.144356 88.92 L 655.748438 88.92 z" clip-path="url(#p42de03a332)" style="fill:#0d0887;fill-opacity:.66;stroke:#0d0887;stroke-opacity:.66"/></g><g id="matplotlib.axis_1"><g id="xtick_1"><g id="line2d_1"><path d="M 183.6 88.92 L 183.6 34.56" clip-path="url(#p42de03a332)" style="fill:none;stroke:#000;stroke-dasharray:.8,1.32;stroke-dashoffset:0;stroke-width:.8"/></g><g id="line2d_2"><defs><path id="mdb4140a99c" d="M 0 0 L 0 3.5" style="stroke:#000;stroke-width:.8"/></defs><g><use style="stroke:#000;stroke-width:.8" x="183.6" y="88.92" xlink:href="#mdb4140a99c"/></g></g></g><g id="xtick_2"><g id="line2d_3"><path d="M 336.6 88.92 L 336.6 34.56" clip-path="url(#p42de03a332)" style="fill:none;stroke:#000;stroke-dasharray:.8,1.32;stroke-dashoffset:0;stroke-width:.8"/></g><g id="line2d_4"><g><use style="stroke:#000;stroke-width:.8" x="336.6" y="88.92" xlink:href="#mdb4140a99c"/></g></g></g><g id="xtick_3"><g id="line2d_5"><path d="M 489.6 88.92 L 489.6 34.56" clip-path="url(#p42de03a332)" style="fill:none;stroke:#000;stroke-dasharray:.8,1.32;stroke-dashoffset:0;stroke-width:.8"/></g><g id="line2d_6"><g><use style="stroke:#000;stroke-width:.8" x="489.6" y="88.92" xlink:href="#mdb4140a99c"/></g></g></g><g id="xtick_4"><g id="line2d_7"><path d="M 642.6 88.92 L 642.6 34.56" clip-path="url(#p42de03a332)" style="fill:none;stroke:#000;stroke-dasharray:.8,1.32;stroke-dashoffset:0;stroke-width:.8"/></g><g id="line2d_8"><g><use style="stroke:#000;stroke-width:.8" x="642.6" y="88.92" xlink:href="#mdb4140a99c"/></g></g></g><g id="xtick_5"><g id="line2d_9"><path d="M 795.6 88.92 L 795.6 34.56" clip-path="url(#p42de03a332)" style="fill:none;stroke:#000;stroke-dasharray:.8,1.32;stroke-dashoffset:0;stroke-width:.8"/></g><g id="line2d_10"><g><use style="stroke:#000;stroke-width:.8" x="795.6" y="88.92" xlink:href="#mdb4140a99c"/></g></g></g><g id="xtick_6"><g id="line2d_11"><path d="M 948.6 88.92 L 948.6 34.56" clip-path="url(#p42de03a332)" style="fill:none;stroke:#000;stroke-dasharray:.8,1.32;stroke-dashoffset:0;stroke-width:.8"/></g><g id="line2d_12"><g><use style="stroke:#000;stroke-width:.8" x="948.6" y="88.92" xlink:href="#mdb4140a99c"/></g></g></g><g id="xtick_7"><g id="line2d_13"><path d="M 1101.6 88.92 L 1101.6 34.56" clip-path="url(#p42de03a332)" style="fill:none;stroke:#000;stroke-dasharray:.8,1.32;stroke-dashoffset:0;stroke-width:.8"/></g><g id="line2d_14"><g><use style="stroke:#000;stroke-width:.8" x="1101.6" y="88.92" xlink:href="#mdb4140a99c"/></g></g></g><g id="text_1"><defs><path id="DejaVuSans-116" d="M 18.3125 70.21875 L 18.3125 54.6875 L 36.8125 54.6875 L 36.8125 47.703125 L 18.3125 47.703125 L 18.3125 18.015625 Q 18.3125 11.328125 20.140625 9.421875 Q 21.96875 7.515625 27.59375 7.515625 L 36.8125 7.515625 L 36.8125 0 L 27.59375 0 Q 17.1875 0 13.234375 3.875 Q 9.28125 7.765625 9.28125 18.015625 L 9.28125 47.703125 L 2.6875 47.703125 L 2.6875 54.6875 L 9.28125 54.6875 L 9.28125 70.21875 z"/><path id="DejaVuSans-105" d="M 9.421875 54.6875 L 18.40625 54.6875 L 18.40625 0 L 9.421875 0 z M 9.421875 75.984375 L 18.40625 75.984375 L 18.40625 64.59375 L 9.421875 64.59375 z"/><path id="DejaVuSans-109" d="M 52 44.1875 Q 55.375 50.25 60.0625 53.125 Q 64.75 56 71.09375 56 Q 79.640625 56 84.28125 50.015625 Q 88.921875 44.046875 88.921875 33.015625 L 88.921875 0 L 79.890625 0 L 79.890625 32.71875 Q 79.890625 40.578125 77.09375 44.375 Q 74.3125 48.1875 68.609375 48.1875 Q 61.625 48.1875 57.5625 43.546875 Q 53.515625 38.921875 53.515625 30.90625 L 53.515625 0 L 44.484375 0 L 44.484375 32.71875 Q 44.484375 40.625 41.703125 44.40625 Q 38.921875 48.1875 33.109375 48.1875 Q 26.21875 48.1875 22.15625 43.53125 Q 18.109375 38.875 18.109375 30.90625 L 18.109375 0 L 9.078125 0 L 9.078125 54.6875 L 18.109375 54.6875 L 18.109375 46.1875 Q 21.1875 51.21875 25.484375 53.609375 Q 29.78125 56 35.6875 56 Q 41.65625 56 45.828125 52.96875 Q 50 49.953125 52 44.1875 z"/><path id="DejaVuSans-101" d="M 56.203125 29.59375 L 56.203125 25.203125 L 14.890625 25.203125 Q 15.484375 15.921875 20.484375 11.0625 Q 25.484375 6.203125 34.421875 6.203125 Q 39.59375 6.203125 44.453125 7.46875 Q 49.3125 8.734375 54.109375 11.28125 L 54.109375 2.78125 Q 49.265625 0.734375 44.1875 -0.34375 Q 39.109375 -1.421875 33.890625 -1.421875 Q 20.796875 -1.421875 13.15625 6.1875 Q 5.515625 13.8125 5.515625 26.8125 Q 5.515625 40.234375 12.765625 48.109375 Q 20.015625 56 32.328125 56 Q 43.359375 56 49.78125 48.890625 Q 56.203125 41.796875 56.203125 29.59375 z M 47.21875 32.234375 Q 47.125 39.59375 43.09375 43.984375 Q 39.0625 48.390625 32.421875 48.390625 Q 24.90625 48.390625 20.390625 44.140625 Q 15.875 39.890625 15.1875 32.171875 z"/><path id="DejaVuSans-32"/><path id="DejaVuSans-40" d="M 31 75.875 Q 24.46875 64.65625 21.28125 53.65625 Q 18.109375 42.671875 18.109375 31.390625 Q 18.109375 20.125 21.3125 9.0625 Q 24.515625 -2 31 -13.1875 L 23.1875 -13.1875 Q 15.875 -1.703125 12.234375 9.375 Q 8.59375 20.453125 8.59375 31.390625 Q 8.59375 42.28125 12.203125 53.3125 Q 15.828125 64.359375 23.1875 75.875 z"/><path id="DejaVuSans-115" d="M 44.28125 53.078125 L 44.28125 44.578125 Q 40.484375 46.53125 36.375 47.5 Q 32.28125 48.484375 27.875 48.484375 Q 21.1875 48.484375 17.84375 46.4375 Q 14.5 44.390625 14.5 40.28125 Q 14.5 37.15625 16.890625 35.375 Q 19.28125 33.59375 26.515625 31.984375 L 29.59375 31.296875 Q 39.15625 29.25 43.1875 25.515625 Q 47.21875 21.78125 47.21875 15.09375 Q 47.21875 7.46875 41.1875 3.015625 Q 35.15625 -1.421875 24.609375 -1.421875 Q 20.21875 -1.421875 15.453125 -0.5625 Q 10.6875 0.296875 5.421875 2 L 5.421875 11.28125 Q 10.40625 8.6875 15.234375 7.390625 Q 20.0625 6.109375 24.8125 6.109375 Q 31.15625 6.109375 34.5625 8.28125 Q 37.984375 10.453125 37.984375 14.40625 Q 37.984375 18.0625 35.515625 20.015625 Q 33.0625 21.96875 24.703125 23.78125 L 21.578125 24.515625 Q 13.234375 26.265625 9.515625 29.90625 Q 5.8125 33.546875 5.8125 39.890625 Q 5.8125 47.609375 11.28125 51.796875 Q 16.75 56 26.8125 56 Q 31.78125 56 36.171875 55.265625 Q 40.578125 54.546875 44.28125 53.078125 z"/><path id="DejaVuSans-41" d="M 8.015625 75.875 L 15.828125 75.875 Q 23.140625 64.359375 26.78125 53.3125 Q 30.421875 42.28125 30.421875 31.390625 Q 30.421875 20.453125 26.78125 9.375 Q 23.140625 -1.703125 15.828125 -13.1875 L 8.015625 -13.1875 Q 14.5 -2 17.703125 9.0625 Q 20.90625 20.125 20.90625 31.390625 Q 20.90625 42.671875 17.703125 53.65625 Q 14.5 64.65625 8.015625 75.875 z"/></defs><g transform="translate(607.908594 100.518437)scale(0.1 -0.1)"><use xlink:href="#DejaVuSans-116"/><use x="39.209" xlink:href="#DejaVuSans-105"/><use x="66.992" xlink:href="#DejaVuSans-109"/><use x="164.404" xlink:href="#DejaVuSans-101"/><use x="225.928" xlink:href="#DejaVuSans-32"/><use x="257.715" xlink:href="#DejaVuSans-40"/><use x="296.729" xlink:href="#DejaVuSans-115"/><use x="348.828" xlink:href="#DejaVuSans-41"/></g></g></g><g id="matplotlib.axis_2"><g id="text_2"><defs><path id="DejaVuSans-79" d="M 39.40625 66.21875 Q 28.65625 66.21875 22.328125 58.203125 Q 16.015625 50.203125 16.015625 36.375 Q 16.015625 22.609375 22.328125 14.59375 Q 28.65625 6.59375 39.40625 6.59375 Q 50.140625 6.59375 56.421875 14.59375 Q 62.703125 22.609375 62.703125 36.375 Q 62.703125 50.203125 56.421875 58.203125 Q 50.140625 66.21875 39.40625 66.21875 z M 39.40625 74.21875 Q 54.734375 74.21875 63.90625 63.9375 Q 73.09375 53.65625 73.09375 36.375 Q 73.09375 19.140625 63.90625 8.859375 Q 54.734375 -1.421875 39.40625 -1.421875 Q 24.03125 -1.421875 14.8125 8.828125 Q 5.609375 19.09375 5.609375 36.375 Q 5.609375 53.65625 14.8125 63.9375 Q 24.03125 74.21875 39.40625 74.21875 z"/><path id="DejaVuSans-112" d="M 18.109375 8.203125 L 18.109375 -20.796875 L 9.078125 -20.796875 L 9.078125 54.6875 L 18.109375 54.6875 L 18.109375 46.390625 Q 20.953125 51.265625 25.265625 53.625 Q 29.59375 56 35.59375 56 Q 45.5625 56 51.78125 48.09375 Q 58.015625 40.1875 58.015625 27.296875 Q 58.015625 14.40625 51.78125 6.484375 Q 45.5625 -1.421875 35.59375 -1.421875 Q 29.59375 -1.421875 25.265625 0.953125 Q 20.953125 3.328125 18.109375 8.203125 z M 48.6875 27.296875 Q 48.6875 37.203125 44.609375 42.84375 Q 40.53125 48.484375 33.40625 48.484375 Q 26.265625 48.484375 22.1875 42.84375 Q 18.109375 37.203125 18.109375 27.296875 Q 18.109375 17.390625 22.1875 11.75 Q 26.265625 6.109375 33.40625 6.109375 Q 40.53125 6.109375 44.609375 11.75 Q 48.6875 17.390625 48.6875 27.296875 z"/><path id="DejaVuSans-110" d="M 54.890625 33.015625 L 54.890625 0 L 45.90625 0 L 45.90625 32.71875 Q 45.90625 40.484375 42.875 44.328125 Q 39.84375 48.1875 33.796875 48.1875 Q 26.515625 48.1875 22.3125 43.546875 Q 18.109375 38.921875 18.109375 30.90625 L 18.109375 0 L 9.078125 0 L 9.078125 54.6875 L 18.109375 54.6875 L 18.109375 46.1875 Q 21.34375 51.125 25.703125 53.5625 Q 30.078125 56 35.796875 56 Q 45.21875 56 50.046875 50.171875 Q 54.890625 44.34375 54.890625 33.015625 z"/></defs><g transform="translate(146.920312 75.095469)rotate(-90)scale(0.1 -0.1)"><use xlink:href="#DejaVuSans-79"/><use x="78.711" xlink:href="#DejaVuSans-112"/><use x="142.188" xlink:href="#DejaVuSans-101"/><use x="203.711" xlink:href="#DejaVuSans-110"/></g></g></g><g id="patch_3"><path d="M 153 88.92 L 153 34.56" style="fill:none;stroke:#000;stroke-linecap:square;stroke-linejoin:miter;stroke-width:.8"/></g><g id="patch_4"><path d="M 1101.6 88.92 L 1101.6 34.56" style="fill:none;stroke:#000;stroke-linecap:square;stroke-linejoin:miter;stroke-width:.8"/></g><g id="patch_5"><path d="M 153 88.92 L 1101.6 88.92" style="fill:none;stroke:#000;stroke-linecap:square;stroke-linejoin:miter;stroke-width:.8"/></g><g id="patch_6"><path d="M 153 34.56 L 1101.6 34.56" style="fill:none;stroke:#000;stroke-linecap:square;stroke-linejoin:miter;stroke-width:.8"/></g></g><g id="axes_2"><g id="patch_7"><path d="M 153 143.28 L 1101.6 143.28 L 1101.6 88.92 L 153 88.92 z" style="fill:#fff"/></g><g id="BrokenBarHCollection_2"><path d="M 303.13125 143.28 L 303.13125 88.92 L 349.835273 88.92 L 349.835273 143.28 L 303.13125 143.28 z" clip-path="url(#pf299bda9f6)" style="fill:#7e03a8;fill-opacity:.66;stroke:#7e03a8;stroke-opacity:.66"/><path d="M 392.779688 143.28 L 392.779688 88.92 L 439.184773 88.92 L 439.184773 143.28 L 392.779688 143.28 z" clip-path="url(#pf299bda9f6)" style="fill:#7e03a8;fill-opacity:.66;stroke:#7e03a8;stroke-opacity:.66"/><path d="M 482.428125 143.28 L 482.428125 88.92 L 528.841487 88.92 L 528.841487 143.28 L 482.428125 143.28 z" clip-path="url(#pf299bda9f6)" style="fill:#7e03a8;fill-opacity:.66;stroke:#7e03a8;stroke-opacity:.66"/><path d="M 745.396875 143.28 L 745.396875 88.92 L 792.196973 88.92 L 792.196973 143.28 L 745.396875 143.28 z" clip-path="url(#pf299bda9f6)" style="fill:#7e03a8;fill-opacity:.66;stroke:#7e03a8;stroke-opacity:.66"/><path d="M 829.06875 143.28 L 829.06875 88.92 L 875.366773 88.92 L 875.366773 143.28 L 829.06875 143.28 z" clip-path="url(#pf299bda9f6)" style="fill:#7e03a8;fill-opacity:.66;stroke:#7e03a8;stroke-opacity:.66"/><path d="M 924.69375 143.28 L 924.69375 88.92 L 970.94727 88.92 L 970.94727 143.28 L 924.69375 143.28 z" clip-path="url(#pf299bda9f6)" style="fill:#7e03a8;fill-opacity:.66;stroke:#7e03a8;stroke-opacity:.66"/></g><g id="matplotlib.axis_3"><g id="xtick_8"><g id="line2d_15"><path d="M 183.6 143.28 L 183.6 88.92" clip-path="url(#pf299bda9f6)" style="fill:none;stroke:#000;stroke-dasharray:.8,1.32;stroke-dashoffset:0;stroke-width:.8"/></g><g id="line2d_16"><g><use style="stroke:#000;stroke-width:.8" x="183.6" y="143.28" xlink:href="#mdb4140a99c"/></g></g></g><g id="xtick_9"><g id="line2d_17"><path d="M 336.6 143.28 L 336.6 88.92" clip-path="url(#pf299bda9f6)" style="fill:none;stroke:#000;stroke-dasharray:.8,1.32;stroke-dashoffset:0;stroke-width:.8"/></g><g id="line2d_18"><g><use style="stroke:#000;stroke-width:.8" x="336.6" y="143.28" xlink:href="#mdb4140a99c"/></g></g></g><g id="xtick_10"><g id="line2d_19"><path d="M 489.6 143.28 L 489.6 88.92" clip-path="url(#pf299bda9f6)" style="fill:none;stroke:#000;stroke-dasharray:.8,1.32;stroke-dashoffset:0;stroke-width:.8"/></g><g id="line2d_20"><g><use style="stroke:#000;stroke-width:.8" x="489.6" y="143.28" xlink:href="#mdb4140a99c"/></g></g></g><g id="xtick_11"><g id="line2d_21"><path d="M 642.6 143.28 L 642.6 88.92" clip-path="url(#pf299bda9f6)" style="fill:none;stroke:#000;stroke-dasharray:.8,1.32;stroke-dashoffset:0;stroke-width:.8"/></g><g id="line2d_22"><g><use style="stroke:#000;stroke-width:.8" x="642.6" y="143.28" xlink:href="#mdb4140a99c"/></g></g></g><g id="xtick_12"><g id="line2d_23"><path d="M 795.6 143.28 L 795.6 88.92" clip-path="url(#pf299bda9f6)" style="fill:none;stroke:#000;stroke-dasharray:.8,1.32;stroke-dashoffset:0;stroke-width:.8"/></g><g id="line2d_24"><g><use style="stroke:#000;stroke-width:.8" x="795.6" y="143.28" xlink:href="#mdb4140a99c"/></g></g></g><g id="xtick_13"><g id="line2d_25"><path d="M 948.6 143.28 L 948.6 88.92" clip-path="url(#pf299bda9f6)" style="fill:none;stroke:#000;stroke-dasharray:.8,1.32;stroke-dashoffset:0;stroke-width:.8"/></g><g id="line2d_26"><g><use style="stroke:#000;stroke-width:.8" x="948.6" y="143.28" xlink:href="#mdb4140a99c"/></g></g></g><g id="xtick_14"><g id="line2d_27"><path d="M 1101.6 143.28 L 1101.6 88.92" clip-path="url(#pf299bda9f6)" style="fill:none;stroke:#000;stroke-dasharray:.8,1.32;stroke-dashoffset:0;stroke-width:.8"/></g><g id="line2d_28"><g><use style="stroke:#000;stroke-width:.8" x="1101.6" y="143.28" xlink:href="#mdb4140a99c"/></g></g></g><g id="text_3"><g transform="translate(607.908594 154.878438)scale(0.1 -0.1)"><use xlink:href="#DejaVuSans-116"/><use x="39.209" xlink:href="#DejaVuSans-105"/><use x="66.992" xlink:href="#DejaVuSans-109"/><use x="164.404" xlink:href="#DejaVuSans-101"/><use x="225.928" xlink:href="#DejaVuSans-32"/><use x="257.715" xlink:href="#DejaVuSans-40"/><use x="296.729" xlink:href="#DejaVuSans-115"/><use x="348.828" xlink:href="#DejaVuSans-41"/></g></g></g><g id="matplotlib.axis_4"><g id="text_4"><defs><path id="DejaVuSans-82" d="M 44.390625 34.1875 Q 47.5625 33.109375 50.5625 29.59375 Q 53.5625 26.078125 56.59375 19.921875 L 66.609375 0 L 56 0 L 46.6875 18.703125 Q 43.0625 26.03125 39.671875 28.421875 Q 36.28125 30.8125 30.421875 30.8125 L 19.671875 30.8125 L 19.671875 0 L 9.8125 0 L 9.8125 72.90625 L 32.078125 72.90625 Q 44.578125 72.90625 50.734375 67.671875 Q 56.890625 62.453125 56.890625 51.90625 Q 56.890625 45.015625 53.6875 40.46875 Q 50.484375 35.9375 44.390625 34.1875 z M 19.671875 64.796875 L 19.671875 38.921875 L 32.078125 38.921875 Q 39.203125 38.921875 42.84375 42.21875 Q 46.484375 45.515625 46.484375 51.90625 Q 46.484375 58.296875 42.84375 61.546875 Q 39.203125 64.796875 32.078125 64.796875 z"/><path id="DejaVuSans-97" d="M 34.28125 27.484375 Q 23.390625 27.484375 19.1875 25 Q 14.984375 22.515625 14.984375 16.5 Q 14.984375 11.71875 18.140625 8.90625 Q 21.296875 6.109375 26.703125 6.109375 Q 34.1875 6.109375 38.703125 11.40625 Q 43.21875 16.703125 43.21875 25.484375 L 43.21875 27.484375 z M 52.203125 31.203125 L 52.203125 0 L 43.21875 0 L 43.21875 8.296875 Q 40.140625 3.328125 35.546875 0.953125 Q 30.953125 -1.421875 24.3125 -1.421875 Q 15.921875 -1.421875 10.953125 3.296875 Q 6 8.015625 6 15.921875 Q 6 25.140625 12.171875 29.828125 Q 18.359375 34.515625 30.609375 34.515625 L 43.21875 34.515625 L 43.21875 35.40625 Q 43.21875 41.609375 39.140625 45 Q 35.0625 48.390625 27.6875 48.390625 Q 23 48.390625 18.546875 47.265625 Q 14.109375 46.140625 10.015625 43.890625 L 10.015625 52.203125 Q 14.9375 54.109375 19.578125 55.046875 Q 24.21875 56 28.609375 56 Q 40.484375 56 46.34375 49.84375 Q 52.203125 43.703125 52.203125 31.203125 z"/><path id="DejaVuSans-100" d="M 45.40625 46.390625 L 45.40625 75.984375 L 54.390625 75.984375 L 54.390625 0 L 45.40625 0 L 45.40625 8.203125 Q 42.578125 3.328125 38.25 0.953125 Q 33.9375 -1.421875 27.875 -1.421875 Q 17.96875 -1.421875 11.734375 6.484375 Q 5.515625 14.40625 5.515625 27.296875 Q 5.515625 40.1875 11.734375 48.09375 Q 17.96875 56 27.875 56 Q 33.9375 56 38.25 53.625 Q 42.578125 51.265625 45.40625 46.390625 z M 14.796875 27.296875 Q 14.796875 17.390625 18.875 11.75 Q 22.953125 6.109375 30.078125 6.109375 Q 37.203125 6.109375 41.296875 11.75 Q 45.40625 17.390625 45.40625 27.296875 Q 45.40625 37.203125 41.296875 42.84375 Q 37.203125 48.484375 30.078125 48.484375 Q 22.953125 48.484375 18.875 42.84375 Q 14.796875 37.203125 14.796875 27.296875 z"/></defs><g transform="translate(146.920312 128.885938)rotate(-90)scale(0.1 -0.1)"><use xlink:href="#DejaVuSans-82"/><use x="69.42" xlink:href="#DejaVuSans-101"/><use x="130.943" xlink:href="#DejaVuSans-97"/><use x="192.223" xlink:href="#DejaVuSans-100"/></g></g></g><g id="patch_8"><path d="M 153 143.28 L 153 88.92" style="fill:none;stroke:#000;stroke-linecap:square;stroke-linejoin:miter;stroke-width:.8"/></g><g id="patch_9"><path d="M 1101.6 143.28 L 1101.6 88.92" style="fill:none;stroke:#000;stroke-linecap:square;stroke-linejoin:miter;stroke-width:.8"/></g><g id="patch_10"><path d="M 153 143.28 L 1101.6 143.28" style="fill:none;stroke:#000;stroke-linecap:square;stroke-linejoin:miter;stroke-width:.8"/></g><g id="patch_11"><path d="M 153 88.92 L 1101.6 88.92" style="fill:none;stroke:#000;stroke-linecap:square;stroke-linejoin:miter;stroke-width:.8"/></g></g><g id="axes_3"><g id="patch_12"><path d="M 153 197.64 L 1101.6 197.64 L 1101.6 143.28 L 153 143.28 z" style="fill:#fff"/></g><g id="BrokenBarHCollection_3"><path d="M 350.94375 197.64 L 350.94375 143.28 L 382.155936 143.28 L 382.155936 197.64 L 350.94375 197.64 z" clip-path="url(#p6d685016b1)" style="fill:#cc4778;fill-opacity:.66;stroke:#cc4778;stroke-opacity:.66"/><path d="M 446.56875 197.64 L 446.56875 143.28 L 477.994515 143.28 L 477.994515 197.64 L 446.56875 197.64 z" clip-path="url(#p6d685016b1)" style="fill:#cc4778;fill-opacity:.66;stroke:#cc4778;stroke-opacity:.66"/><path d="M 536.217188 197.64 L 536.217188 143.28 L 567.278104 143.28 L 567.278104 197.64 L 536.217188 197.64 z" clip-path="url(#p6d685016b1)" style="fill:#cc4778;fill-opacity:.66;stroke:#cc4778;stroke-opacity:.66"/><path d="M 799.185938 197.64 L 799.185938 143.28 L 830.303349 143.28 L 830.303349 197.64 L 799.185938 197.64 z" clip-path="url(#p6d685016b1)" style="fill:#cc4778;fill-opacity:.66;stroke:#cc4778;stroke-opacity:.66"/><path d="M 882.857813 197.64 L 882.857813 143.28 L 914.283145 143.28 L 914.283145 197.64 L 882.857813 197.64 z" clip-path="url(#p6d685016b1)" style="fill:#cc4778;fill-opacity:.66;stroke:#cc4778;stroke-opacity:.66"/><path d="M 978.482813 197.64 L 978.482813 143.28 L 1009.881744 143.28 L 1009.881744 197.64 L 978.482813 197.64 z" clip-path="url(#p6d685016b1)" style="fill:#cc4778;fill-opacity:.66;stroke:#cc4778;stroke-opacity:.66"/></g><g id="matplotlib.axis_5"><g id="xtick_15"><g id="line2d_29"><path d="M 183.6 197.64 L 183.6 143.28" clip-path="url(#p6d685016b1)" style="fill:none;stroke:#000;stroke-dasharray:.8,1.32;stroke-dashoffset:0;stroke-width:.8"/></g><g id="line2d_30"><g><use style="stroke:#000;stroke-width:.8" x="183.6" y="197.64" xlink:href="#mdb4140a99c"/></g></g></g><g id="xtick_16"><g id="line2d_31"><path d="M 336.6 197.64 L 336.6 143.28" clip-path="url(#p6d685016b1)" style="fill:none;stroke:#000;stroke-dasharray:.8,1.32;stroke-dashoffset:0;stroke-width:.8"/></g><g id="line2d_32"><g><use style="stroke:#000;stroke-width:.8" x="336.6" y="197.64" xlink:href="#mdb4140a99c"/></g></g></g><g id="xtick_17"><g id="line2d_33"><path d="M 489.6 197.64 L 489.6 143.28" clip-path="url(#p6d685016b1)" style="fill:none;stroke:#000;stroke-dasharray:.8,1.32;stroke-dashoffset:0;stroke-width:.8"/></g><g id="line2d_34"><g><use style="stroke:#000;stroke-width:.8" x="489.6" y="197.64" xlink:href="#mdb4140a99c"/></g></g></g><g id="xtick_18"><g id="line2d_35"><path d="M 642.6 197.64 L 642.6 143.28" clip-path="url(#p6d685016b1)" style="fill:none;stroke:#000;stroke-dasharray:.8,1.32;stroke-dashoffset:0;stroke-width:.8"/></g><g id="line2d_36"><g><use style="stroke:#000;stroke-width:.8" x="642.6" y="197.64" xlink:href="#mdb4140a99c"/></g></g></g><g id="xtick_19"><g id="line2d_37"><path d="M 795.6 197.64 L 795.6 143.28" clip-path="url(#p6d685016b1)" style="fill:none;stroke:#000;stroke-dasharray:.8,1.32;stroke-dashoffset:0;stroke-width:.8"/></g><g id="line2d_38"><g><use style="stroke:#000;stroke-width:.8" x="795.6" y="197.64" xlink:href="#mdb4140a99c"/></g></g></g><g id="xtick_20"><g id="line2d_39"><path d="M 948.6 197.64 L 948.6 143.28" clip-path="url(#p6d685016b1)" style="fill:none;stroke:#000;stroke-dasharray:.8,1.32;stroke-dashoffset:0;stroke-width:.8"/></g><g id="line2d_40"><g><use style="stroke:#000;stroke-width:.8" x="948.6" y="197.64" xlink:href="#mdb4140a99c"/></g></g></g><g id="xtick_21"><g id="line2d_41"><path d="M 1101.6 197.64 L 1101.6 143.28" clip-path="url(#p6d685016b1)" style="fill:none;stroke:#000;stroke-dasharray:.8,1.32;stroke-dashoffset:0;stroke-width:.8"/></g><g id="line2d_42"><g><use style="stroke:#000;stroke-width:.8" x="1101.6" y="197.64" xlink:href="#mdb4140a99c"/></g></g></g><g id="text_5"><g transform="translate(607.908594 209.238438)scale(0.1 -0.1)"><use xlink:href="#DejaVuSans-116"/><use x="39.209" xlink:href="#DejaVuSans-105"/><use x="66.992" xlink:href="#DejaVuSans-109"/><use x="164.404" xlink:href="#DejaVuSans-101"/><use x="225.928" xlink:href="#DejaVuSans-32"/><use x="257.715" xlink:href="#DejaVuSans-40"/><use x="296.729" xlink:href="#DejaVuSans-115"/><use x="348.828" xlink:href="#DejaVuSans-41"/></g></g></g><g id="matplotlib.axis_6"><g id="text_6"><defs><path id="DejaVuSans-84" d="M -0.296875 72.90625 L 61.375 72.90625 L 61.375 64.59375 L 35.5 64.59375 L 35.5 0 L 25.59375 0 L 25.59375 64.59375 L -0.296875 64.59375 z"/><path id="DejaVuSans-114" d="M 41.109375 46.296875 Q 39.59375 47.171875 37.8125 47.578125 Q 36.03125 48 33.890625 48 Q 26.265625 48 22.1875 43.046875 Q 18.109375 38.09375 18.109375 28.8125 L 18.109375 0 L 9.078125 0 L 9.078125 54.6875 L 18.109375 54.6875 L 18.109375 46.1875 Q 20.953125 51.171875 25.484375 53.578125 Q 30.03125 56 36.53125 56 Q 37.453125 56 38.578125 55.875 Q 39.703125 55.765625 41.0625 55.515625 z"/></defs><g transform="translate(146.920312 183.180313)rotate(-90)scale(0.1 -0.1)"><use xlink:href="#DejaVuSans-84"/><use x="60.865" xlink:href="#DejaVuSans-114"/><use x="101.979" xlink:href="#DejaVuSans-97"/><use x="163.258" xlink:href="#DejaVuSans-105"/><use x="191.041" xlink:href="#DejaVuSans-110"/></g></g></g><g id="patch_13"><path d="M 153 197.64 L 153 143.28" style="fill:none;stroke:#000;stroke-linecap:square;stroke-linejoin:miter;stroke-width:.8"/></g><g id="patch_14"><path d="M 1101.6 197.64 L 1101.6 143.28" style="fill:none;stroke:#000;stroke-linecap:square;stroke-linejoin:miter;stroke-width:.8"/></g><g id="patch_15"><path d="M 153 197.64 L 1101.6 197.64" style="fill:none;stroke:#000;stroke-linecap:square;stroke-linejoin:miter;stroke-width:.8"/></g><g id="patch_16"><path d="M 153 143.28 L 1101.6 143.28" style="fill:none;stroke:#000;stroke-linecap:square;stroke-linejoin:miter;stroke-width:.8"/></g></g><g id="axes_4"><g id="patch_17"><path d="M 153 252 L 1101.6 252 L 1101.6 197.64 L 153 197.64 z" style="fill:#fff"/></g><g id="BrokenBarHCollection_4"><path d="M 183.6 252 L 183.6 197.64 L 586.297527 197.64 L 586.297527 252 L 183.6 252 z" clip-path="url(#p090687a2f0)" style="fill:#f89540;fill-opacity:.66;stroke:#f89540;stroke-opacity:.66"/><path d="M 595.982813 252 L 595.982813 197.64 L 1027.878277 197.64 L 1027.878277 252 L 595.982813 252 z" clip-path="url(#p090687a2f0)" style="fill:#f89540;fill-opacity:.66;stroke:#f89540;stroke-opacity:.66"/></g><g id="matplotlib.axis_7"><g id="xtick_22"><g id="line2d_43"><path d="M 183.6 252 L 183.6 197.64" clip-path="url(#p090687a2f0)" style="fill:none;stroke:#000;stroke-dasharray:.8,1.32;stroke-dashoffset:0;stroke-width:.8"/></g><g id="line2d_44"><g><use style="stroke:#000;stroke-width:.8" x="183.6" y="252" xlink:href="#mdb4140a99c"/></g></g></g><g id="xtick_23"><g id="line2d_45"><path d="M 336.6 252 L 336.6 197.64" clip-path="url(#p090687a2f0)" style="fill:none;stroke:#000;stroke-dasharray:.8,1.32;stroke-dashoffset:0;stroke-width:.8"/></g><g id="line2d_46"><g><use style="stroke:#000;stroke-width:.8" x="336.6" y="252" xlink:href="#mdb4140a99c"/></g></g></g><g id="xtick_24"><g id="line2d_47"><path d="M 489.6 252 L 489.6 197.64" clip-path="url(#p090687a2f0)" style="fill:none;stroke:#000;stroke-dasharray:.8,1.32;stroke-dashoffset:0;stroke-width:.8"/></g><g id="line2d_48"><g><use style="stroke:#000;stroke-width:.8" x="489.6" y="252" xlink:href="#mdb4140a99c"/></g></g></g><g id="xtick_25"><g id="line2d_49"><path d="M 642.6 252 L 642.6 197.64" clip-path="url(#p090687a2f0)" style="fill:none;stroke:#000;stroke-dasharray:.8,1.32;stroke-dashoffset:0;stroke-width:.8"/></g><g id="line2d_50"><g><use style="stroke:#000;stroke-width:.8" x="642.6" y="252" xlink:href="#mdb4140a99c"/></g></g></g><g id="xtick_26"><g id="line2d_51"><path d="M 795.6 252 L 795.6 197.64" clip-path="url(#p090687a2f0)" style="fill:none;stroke:#000;stroke-dasharray:.8,1.32;stroke-dashoffset:0;stroke-width:.8"/></g><g id="line2d_52"><g><use style="stroke:#000;stroke-width:.8" x="795.6" y="252" xlink:href="#mdb4140a99c"/></g></g></g><g id="xtick_27"><g id="line2d_53"><path d="M 948.6 252 L 948.6 197.64" clip-path="url(#p090687a2f0)" style="fill:none;stroke:#000;stroke-dasharray:.8,1.32;stroke-dashoffset:0;stroke-width:.8"/></g><g id="line2d_54"><g><use style="stroke:#000;stroke-width:.8" x="948.6" y="252" xlink:href="#mdb4140a99c"/></g></g></g><g id="xtick_28"><g id="line2d_55"><path d="M 1101.6 252 L 1101.6 197.64" clip-path="url(#p090687a2f0)" style="fill:none;stroke:#000;stroke-dasharray:.8,1.32;stroke-dashoffset:0;stroke-width:.8"/></g><g id="line2d_56"><g><use style="stroke:#000;stroke-width:.8" x="1101.6" y="252" xlink:href="#mdb4140a99c"/></g></g></g><g id="text_7"><g transform="translate(607.908594 270.598437)scale(0.1 -0.1)"><use xlink:href="#DejaVuSans-116"/><use x="39.209" xlink:href="#DejaVuSans-105"/><use x="66.992" xlink:href="#DejaVuSans-109"/><use x="164.404" xlink:href="#DejaVuSans-101"/><use x="225.928" xlink:href="#DejaVuSans-32"/><use x="257.715" xlink:href="#DejaVuSans-40"/><use x="296.729" xlink:href="#DejaVuSans-115"/><use x="348.828" xlink:href="#DejaVuSans-41"/></g></g></g><g id="matplotlib.axis_8"><g id="text_8"><defs><path id="DejaVuSans-69" d="M 9.8125 72.90625 L 55.90625 72.90625 L 55.90625 64.59375 L 19.671875 64.59375 L 19.671875 43.015625 L 54.390625 43.015625 L 54.390625 34.71875 L 19.671875 34.71875 L 19.671875 8.296875 L 56.78125 8.296875 L 56.78125 0 L 9.8125 0 z"/><path id="DejaVuSans-111" d="M 30.609375 48.390625 Q 23.390625 48.390625 19.1875 42.75 Q 14.984375 37.109375 14.984375 27.296875 Q 14.984375 17.484375 19.15625 11.84375 Q 23.34375 6.203125 30.609375 6.203125 Q 37.796875 6.203125 41.984375 11.859375 Q 46.1875 17.53125 46.1875 27.296875 Q 46.1875 37.015625 41.984375 42.703125 Q 37.796875 48.390625 30.609375 48.390625 z M 30.609375 56 Q 42.328125 56 49.015625 48.375 Q 55.71875 40.765625 55.71875 27.296875 Q 55.71875 13.875 49.015625 6.21875 Q 42.328125 -1.421875 30.609375 -1.421875 Q 18.84375 -1.421875 12.171875 6.21875 Q 5.515625 13.875 5.515625 27.296875 Q 5.515625 40.765625 12.171875 48.375 Q 18.84375 56 30.609375 56 z"/><path id="DejaVuSans-99" d="M 48.78125 52.59375 L 48.78125 44.1875 Q 44.96875 46.296875 41.140625 47.34375 Q 37.3125 48.390625 33.40625 48.390625 Q 24.65625 48.390625 19.8125 42.84375 Q 14.984375 37.3125 14.984375 27.296875 Q 14.984375 17.28125 19.8125 11.734375 Q 24.65625 6.203125 33.40625 6.203125 Q 37.3125 6.203125 41.140625 7.25 Q 44.96875 8.296875 48.78125 10.40625 L 48.78125 2.09375 Q 45.015625 0.34375 40.984375 -0.53125 Q 36.96875 -1.421875 32.421875 -1.421875 Q 20.0625 -1.421875 12.78125 6.34375 Q 5.515625 14.109375 5.515625 27.296875 Q 5.515625 40.671875 12.859375 48.328125 Q 20.21875 56 33.015625 56 Q 37.15625 56 41.109375 55.140625 Q 45.0625 54.296875 48.78125 52.59375 z"/><path id="DejaVuSans-104" d="M 54.890625 33.015625 L 54.890625 0 L 45.90625 0 L 45.90625 32.71875 Q 45.90625 40.484375 42.875 44.328125 Q 39.84375 48.1875 33.796875 48.1875 Q 26.515625 48.1875 22.3125 43.546875 Q 18.109375 38.921875 18.109375 30.90625 L 18.109375 0 L 9.078125 0 L 9.078125 75.984375 L 18.109375 75.984375 L 18.109375 46.1875 Q 21.34375 51.125 25.703125 53.5625 Q 30.078125 56 35.796875 56 Q 45.21875 56 50.046875 50.171875 Q 54.890625 44.34375 54.890625 33.015625 z"/></defs><g transform="translate(146.920312 240.130938)rotate(-90)scale(0.1 -0.1)"><use xlink:href="#DejaVuSans-69"/><use x="63.184" xlink:href="#DejaVuSans-112"/><use x="126.66" xlink:href="#DejaVuSans-111"/><use x="187.842" xlink:href="#DejaVuSans-99"/><use x="242.822" xlink:href="#DejaVuSans-104"/></g></g></g><g id="patch_18"><path d="M 153 252 L 153 197.64" style="fill:none;stroke:#000;stroke-linecap:square;stroke-linejoin:miter;stroke-width:.8"/></g><g id="patch_19"><path d="M 1101.6 252 L 1101.6 197.64" style="fill:none;stroke:#000;stroke-linecap:square;stroke-linejoin:miter;stroke-width:.8"/></g><g id="patch_20"><path d="M 153 252 L 1101.6 252" style="fill:none;stroke:#000;stroke-linecap:square;stroke-linejoin:miter;stroke-width:.8"/></g><g id="patch_21"><path d="M 153 197.64 L 1101.6 197.64" style="fill:none;stroke:#000;stroke-linecap:square;stroke-linejoin:miter;stroke-width:.8"/></g></g><g id="text_9"><defs><path id="DejaVuSans-78" d="M 9.8125 72.90625 L 23.09375 72.90625 L 55.421875 11.921875 L 55.421875 72.90625 L 64.984375 72.90625 L 64.984375 0 L 51.703125 0 L 19.390625 60.984375 L 19.390625 0 L 9.8125 0 z"/><path id="DejaVuSans-118" d="M 2.984375 54.6875 L 12.5 54.6875 L 29.59375 8.796875 L 46.6875 54.6875 L 56.203125 54.6875 L 35.6875 0 L 23.484375 0 z"/></defs><g transform="translate(594.924375 14.878125)scale(0.12 -0.12)"><use xlink:href="#DejaVuSans-78"/><use x="74.805" xlink:href="#DejaVuSans-97"/><use x="136.084" xlink:href="#DejaVuSans-105"/><use x="163.867" xlink:href="#DejaVuSans-118"/><use x="223.047" xlink:href="#DejaVuSans-101"/></g></g></g><defs><clipPath id="p42de03a332"><rect width="948.6" height="54.36" x="153" y="34.56"/></clipPath><clipPath id="pf299bda9f6"><rect width="948.6" height="54.36" x="153" y="88.92"/></clipPath><clipPath id="p6d685016b1"><rect width="948.6" height="54.36" x="153" y="143.28"/></clipPath><clipPath id="p090687a2f0"><rect width="948.6" height="54.36" x="153" y="197.64"/></clipPath></defs></svg>