<svg xmlns="http://www.w3.org/2000/svg" xmlns:xlink="http://www.w3.org/1999/xlink" width="1632" height="480" version="1.1" viewBox="0 0 1224 360"><defs><style type="text/css">*{stroke-linecap:butt;stroke-linejoin:round}</style></defs><g id="figure_1"><g id="patch_1"><path d="M 0 360 L 1224 360 L 1224 0 L 0 0 z" style="fill:#fff"/></g><g id="axes_1"><g id="patch_2"><path d="M 153 97.56 L 1101.6 97.56 L 1101.6 43.2 L 153 43.2 z" style="fill:#fff"/></g><g id="BrokenBarHCollection_1"><path d="M 207.182068 97.56 L 207.182068 43.2 L 262.434344 43.2 L 262.434344 97.56 L 207.182068 97.56 z" clip-path="url(#p4efdf1b60d)" style="fill:#0d0887;fill-opacity:.66;stroke:#0d0887;stroke-opacity:.66"/><path d="M 665.866238 97.56 L 665.866238 43.2 L 721.397995 43.2 L 721.397995 97.56 L 665.866238 97.56 z" clip-path="url(#p4efdf1b60d)" style="fill:#0d0887;fill-opacity:.66;stroke:#0d0887;stroke-opacity:.66"/></g><g id="matplotlib.axis_1"><g id="xtick_1"><g id="line2d_1"><path d="M 171.347367 97.56 L 171.347367 43.2" clip-path="url(#p4efdf1b60d)" style="fill:none;stroke:#000;stroke-dasharray:.8,1.32;stroke-dashoffset:0;stroke-width:.8"/></g><g id="line2d_2"><defs><path id="mbacfa79e93" d="M 0 0 L 0 3.5" style="stroke:#000;stroke-width:.8"/></defs><g><use style="stroke:#000;stroke-width:.8" x="171.347" y="97.56" xlink:href="#mbacfa79e93"/></g></g></g><g id="xtick_2"><g id="line2d_3"><path d="M 354.821035 97.56 L 354.821035 43.2" clip-path="url(#p4efdf1b60d)" style="fill:none;stroke:#000;stroke-dasharray:.8,1.32;stroke-dashoffset:0;stroke-width:.8"/></g><g id="line2d_4"><g><use style="stroke:#000;stroke-width:.8" x="354.821" y="97.56" xlink:href="#mbacfa79e93"/></g></g></g><g id="xtick_3"><g id="line2d_5"><path d="M 538.294703 97.56 L 538.294703 43.2" clip-path="url(#p4efdf1b60d)" style="fill:none;stroke:#000;stroke-dasharray:.8,1.32;stroke-dashoffset:0;stroke-width:.8"/></g><g id="line2d_6"><g><use style="stroke:#000;stroke-width:.8" x="538.295" y="97.56" xlink:href="#mbacfa79e93"/></g></g></g><g id="xtick_4"><g id="line2d_7"><path d="M 721.768372 97.56 L 721.768372 43.2" clip-path="url(#p4efdf1b60d)" style="fill:none;stroke:#000;stroke-dasharray:.8,1.32;stroke-dashoffset:0;stroke-width:.8"/></g><g id="line2d_8"><g><use style="stroke:#000;stroke-width:.8" x="721.768" y="97.56" xlink:href="#mbacfa79e93"/></g></g></g><g id="xtick_5"><g id="line2d_9"><path d="M 905.24204 97.56 L 905.24204 43.2" clip-path="url(#p4efdf1b60d)" style="fill:none;stroke:#000;stroke-dasharray:.8,1.32;stroke-dashoffset:0;stroke-width:.8"/></g><g id="line2d_10"><g><use style="stroke:#000;stroke-width:.8" x="905.242" y="97.56" xlink:href="#mbacfa79e93"/></g></g></g><g id="xtick_6"><g id="line2d_11"><path d="M 1088.715708 97.56 L 1088.715708 43.2" clip-path="url(#p4efdf1b60d)" style="fill:none;stroke:#000;stroke-dasharray:.8,1.32;stroke-dashoffset:0;stroke-width:.8"/></g><g id="line2d_12"><g><use style="stroke:#000;stroke-width:.8" x="1088.716" y="97.56" xlink:href="#mbacfa79e93"/></g></g></g><g id="text_1"><defs><path id="DejaVuSans-116" d="M 18.3125 70.21875 L 18.3125 54.6875 L 36.8125 54.6875 L 36.8125 47.703125 L 18.3125 47.703125 L 18.3125 18.015625 Q 18.3125 11.328125 20.140625 9.421875 Q 21.96875 7.515625 27.59375 7.515625 L 36.8125 7.515625 L 36.8125 0 L 27.59375 0 Q 17.1875 0 13.234375 3.875 Q 9.28125 7.765625 9.28125 18.015625 L 9.28125 47.703125 L 2.6875 47.703125 L 2.6875 54.6875 L 9.28125 54.6875 L 9.28125 70.21875 z"/><path id="DejaVuSans-105" d="M 9.421875 54.6875 L 18.40625 54.6875 L 18.40625 0 L 9.421875 0 z M 9.421875 75.984375 L 18.40625 75.984375 L 18.40625 64.59375 L 9.421875 64.59375 z"/><path id="DejaVuSans-109" d="M 52 44.1875 Q 55.375 50.25 60.0625 53.125 Q 64.75 56 71.09375 56 Q 79.640625 56 84.28125 50.015625 Q 88.921875 44.046875 88.921875 33.015625 L 88.921875 0 L 79.890625 0 L 79.890625 32.71875 Q 79.890625 40.578125 77.09375 44.375 Q 74.3125 48.1875 68.609375 48.1875 Q 61.625 48.1875 57.5625 43.546875 Q 53.515625 38.921875 53.515625 30.90625 L 53.515625 0 L 44.484375 0 L 44.484375 32.71875 Q 44.484375 40.625 41.703125 44.40625 Q 38.921875 48.1875 33.109375 48.1875 Q 26.21875 48.1875 22.15625 43.53125 Q 18.109375 38.875 18.109375 30.90625 L 18.109375 0 L 9.078125 0 L 9.078125 54.6875 L 18.109375 54.6875 L 18.109375 46.1875 Q 21.1875 51.21875 25.484375 53.609375 Q 29.78125 56 35.6875 56 Q 41.65625 56 45.828125 52.96875 Q 50 49.953125 52 44.1875 z"/><path id="DejaVuSans-101" d="M 56.203125 29.59375 L 56.203125 25.203125 L 14.890625 25.203125 Q 15.484375 15.921875 20.484375 11.0625 Q 25.484375 6.203125 34.421875 6.203125 Q 39.59375 6.203125 44.453125 7.46875 Q 49.3125 8.734375 54.109375 11.28125 L 54.109375 2.78125 Q 49.265625 0.734375 44.1875 -0.34375 Q 39.109375 -1.421875 33.890625 -1.421875 Q 20.796875 -1.421875 13.15625 6.1875 Q 5.515625 13.8125 5.515625 26.8125 Q 5.515625 40.234375 12.765625 48.109375 Q 20.015625 56 32.328125 56 Q 43.359375 56 49.78125 48.890625 Q 56.203125 41.796875 56.203125 29.59375 z M 47.21875 32.234375 Q 47.125 39.59375 43.09375 43.984375 Q 39.0625 48.390625 32.421875 48.390625 Q 24.90625 48.390625 20.390625 44.140625 Q 15.875 39.890625 15.1875 32.171875 z"/><path id="DejaVuSans-32"/><path id="DejaVuSans-40" d="M 31 75.875 Q 24.46875 64.65625 21.28125 53.65625 Q 18.109375 42.671875 18.109375 31.390625 Q 18.109375 20.125 21.3125 9.0625 Q 24.515625 -2 31 -13.1875 L 23.1875 -13.1875 Q 15.875 -1.703125 12.234375 9.375 Q 8.59375 20.453125 8.59375 31.390625 Q 8.59375 42.28125 12.203125 53.3125 Q 15.828125 64.359375 23.1875 75.875 z"/><path id="DejaVuSans-115" d="M 44.28125 53.078125 L 44.28125 44.578125 Q 40.484375 46.53125 36.375 47.5 Q 32.28125 48.484375 27.875 48.484375 Q 21.1875 48.484375 17.84375 46.4375 Q 14.5 44.390625 14.5 40.28125 Q 14.5 37.15625 16.890625 35.375 Q 19.28125 33.59375 26.515625 31.984375 L 29.59375 31.296875 Q 39.15625 29.25 43.1875 25.515625 Q 47.21875 21.78125 47.21875 15.09375 Q 47.21875 7.46875 41.1875 3.015625 Q 35.15625 -1.421875 24.609375 -1.421875 Q 20.21875 -1.421875 15.453125 -0.5625 Q 10.6875 0.296875 5.421875 2 L 5.421875 11.28125 Q 10.40625 8.6875 15.234375 7.390625 Q 20.0625 6.109375 24.8125 6.109375 Q 31.15625 6.109375 34.5625 8.28125 Q 37.984375 10.453125 37.984375 14.40625 Q 37.984375 18.0625 35.515625 20.015625 Q 33.0625 21.96875 24.703125 23.78125 L 21.578125 24.515625 Q 13.234375 26.265625 9.515625 29.90625 Q 5.8125 33.546875 5.8125 39.890625 Q 5.8125 47.609375 11.28125 51.796875 Q 16.75 56 26.8125 56 Q 31.78125 56 36.171875 55.265625 Q 40.578125 54.546875 44.28125 53.078125 z"/><path id="DejaVuSans-41" d="M 8.015625 75.875 L 15.828125 75.875 Q 23.140625 64.359375 26.78125 53.3125 Q 30.421875 42.28125 30.421875 31.390625 Q 30.421875 20.453125 26.78125 9.375 Q 23.140625 -1.703125 15.828125 -13.1875 L 8.015625 -13.1875 Q 14.5 -2 17.703125 9.0625 Q 20.90625 20.125 20.90625 31.390625 Q 20.90625 42.671875 17.703125 53.65625 Q 14.5 64.65625 8.015625 75.875 z"/></defs><g transform="translate(607.908594 109.158437)scale(0.1 -0.1)"><use xlink:href="#DejaVuSans-116"/><use x="39.209" xlink:href="#DejaVuSans-105"/><use x="66.992" xlink:href="#DejaVuSans-109"/><use x="164.404" xlink:href="#DejaVuSans-101"/><use x="225.928" xlink:href="#DejaVuSans-32"/><use x="257.715" xlink:href="#DejaVuSans-40"/><use x="296.729" xlink:href="#DejaVuSans-115"/><use x="348.828" xlink:href="#DejaVuSans-41"/></g></g></g><g id="matplotlib.axis_2"><g id="text_2"><defs><path id="DejaVuSans-79" d="M 39.40625 66.21875 Q 28.65625 66.21875 22.328125 58.203125 Q 16.015625 50.203125 16.015625 36.375 Q 16.015625 22.609375 22.328125 14.59375 Q 28.65625 6.59375 39.40625 6.59375 Q 50.140625 6.59375 56.421875 14.59375 Q 62.703125 22.609375 62.703125 36.375 Q 62.703125 50.203125 56.421875 58.203125 Q 50.140625 66.21875 39.40625 66.21875 z M 39.40625 74.21875 Q 54.734375 74.21875 63.90625 63.9375 Q 73.09375 53.65625 73.09375 36.375 Q 73.09375 19.140625 63.90625 8.859375 Q 54.734375 -1.421875 39.40625 -1.421875 Q 24.03125 -1.421875 14.8125 8.828125 Q 5.609375 19.09375 5.609375 36.375 Q 5.609375 53.65625 14.8125 63.9375 Q 24.03125 74.21875 39.40625 74.21875 z"/><path id="DejaVuSans-112" d="M 18.109375 8.203125 L 18.109375 -20.796875 L 9.078125 -20.796875 L 9.078125 54.6875 L 18.109375 54.6875 L 18.109375 46.390625 Q 20.953125 51.265625 25.265625 53.625 Q 29.59375 56 35.59375 56 Q 45.5625 56 51.78125 48.09375 Q 58.015625 40.1875 58.015625 27.296875 Q 58.015625 14.40625 51.78125 6.484375 Q 45.5625 -1.421875 35.59375 -1.421875 Q 29.59375 -1.421875 25.265625 0.953125 Q 20.953125 3.328125 18.109375 8.203125 z M 48.6875 27.296875 Q 48.6875 37.203125 44.609375 42.84375 Q 40.53125 48.484375 33.40625 48.484375 Q 26.265625 48.484375 22.1875 42.84375 Q 18.109375 37.203125 18.109375 27.296875 Q 18.109375 17.390625 22.1875 11.75 Q 26.265625 6.109375 33.40625 6.109375 Q 40.53125 6.109375 44.609375 11.75 Q 48.6875 17.390625 48.6875 27.296875 z"/><path id="DejaVuSans-110" d="M 54.890625 33.015625 L 54.890625 0 L 45.90625 0 L 45.90625 32.71875 Q 45.90625 40.484375 42.875 44.328125 Q 39.84375 48.1875 33.796875 48.1875 Q 26.515625 48.1875 22.3125 43.546875 Q 18.109375 38.921875 18.109375 30.90625 L 18.109375 0 L 9.078125 0 L 9.078125 54.6875 L 18.109375 54.6875 L 18.109375 46.1875 Q 21.34375 51.125 25.703125 53.5625 Q 30.078125 56 35.796875 56 Q 45.21875 56 50.046875 50.171875 Q 54.890625 44.34375 54.890625 33.015625 z"/></defs><g transform="translate(146.920312 83.735469)rotate(-90)scale(0.1 -0.1)"><use xlink:href="#DejaVuSans-79"/><use x="78.711" xlink:href="#DejaVuSans-112"/><use x="142.188" xlink:href="#DejaVuSans-101"/><use x="203.711" xlink:href="#DejaVuSans-110"/></g></g></g><g id="patch_3"><path d="M 153 97.56 L 153 43.2" style="fill:none;stroke:#000;stroke-linecap:square;stroke-linejoin:miter;stroke-width:.8"/></g><g id="patch_4"><path d="M 1101.6 97.56 L 1101.6 43.2" style="fill:none;stroke:#000;stroke-linecap:square;stroke-linejoin:miter;stroke-width:.8"/></g><g id="patch_5"><path d="M 153 97.56 L 1101.6 97.56" style="fill:none;stroke:#000;stroke-linecap:square;stroke-linejoin:miter;stroke-width:.8"/></g><g id="patch_6"><path d="M 153 43.2 L 1101.6 43.2" style="fill:none;stroke:#000;stroke-linecap:square;stroke-linejoin:miter;stroke-width:.8"/></g></g><g id="axes_2"><g id="patch_7"><path d="M 153 151.92 L 1101.6 151.92 L 1101.6 97.56 L 153 97.56 z" style="fill:#fff"/></g><g id="BrokenBarHCollection_2"><path d="M 264.517589 151.92 L 264.517589 97.56 L 292.242417 97.56 L 292.242417 151.92 L 264.517589 151.92 z" clip-path="url(#pd2f6692773)" style="fill:#6a00a8;fill-opacity:.66;stroke:#6a00a8;stroke-opacity:.66"/><path d="M 372.021691 151.92 L 372.021691 97.56 L 399.660016 97.56 L 399.660016 151.92 L 372.021691 151.92 z" clip-path="url(#pd2f6692773)" style="fill:#6a00a8;fill-opacity:.66;stroke:#6a00a8;stroke-opacity:.66"/><path d="M 479.525794 151.92 L 479.525794 97.56 L 507.577974 97.56 L 507.577974 151.92 L 479.525794 151.92 z" clip-path="url(#pd2f6692773)" style="fill:#6a00a8;fill-opacity:.66;stroke:#6a00a8;stroke-opacity:.66"/><path d="M 723.20176 151.92 L 723.20176 97.56 L 751.028715 97.56 L 751.028715 151.92 L 723.20176 151.92 z" clip-path="url(#pd2f6692773)" style="fill:#6a00a8;fill-opacity:.66;stroke:#6a00a8;stroke-opacity:.66"/><path d="M 845.039742 151.92 L 845.039742 97.56 L 873.076229 97.56 L 873.076229 151.92 L 845.039742 151.92 z" clip-path="url(#pd2f6692773)" style="fill:#6a00a8;fill-opacity:.66;stroke:#6a00a8;stroke-opacity:.66"/><path d="M 959.710785 151.92 L 959.710785 97.56 L 987.529484 97.56 L 987.529484 151.92 L 959.710785 151.92 z" clip-path="url(#pd2f6692773)" style="fill:#6a00a8;fill-opacity:.66;stroke:#6a00a8;stroke-opacity:.66"/></g><g id="matplotlib.axis_3"><g id="xtick_7"><g id="line2d_13"><path d="M 171.347367 151.92 L 171.347367 97.56" clip-path="url(#pd2f6692773)" style="fill:none;stroke:#000;stroke-dasharray:.8,1.32;stroke-dashoffset:0;stroke-width:.8"/></g><g id="line2d_14"><g><use style="stroke:#000;stroke-width:.8" x="171.347" y="151.92" xlink:href="#mbacfa79e93"/></g></g></g><g id="xtick_8"><g id="line2d_15"><path d="M 354.821035 151.92 L 354.821035 97.56" clip-path="url(#pd2f6692773)" style="fill:none;stroke:#000;stroke-dasharray:.8,1.32;stroke-dashoffset:0;stroke-width:.8"/></g><g id="line2d_16"><g><use style="stroke:#000;stroke-width:.8" x="354.821" y="151.92" xlink:href="#mbacfa79e93"/></g></g></g><g id="xtick_9"><g id="line2d_17"><path d="M 538.294703 151.92 L 538.294703 97.56" clip-path="url(#pd2f6692773)" style="fill:none;stroke:#000;stroke-dasharray:.8,1.32;stroke-dashoffset:0;stroke-width:.8"/></g><g id="line2d_18"><g><use style="stroke:#000;stroke-width:.8" x="538.295" y="151.92" xlink:href="#mbacfa79e93"/></g></g></g><g id="xtick_10"><g id="line2d_19"><path d="M 721.768372 151.92 L 721.768372 97.56" clip-path="url(#pd2f6692773)" style="fill:none;stroke:#000;stroke-dasharray:.8,1.32;stroke-dashoffset:0;stroke-width:.8"/></g><g id="line2d_20"><g><use style="stroke:#000;stroke-width:.8" x="721.768" y="151.92" xlink:href="#mbacfa79e93"/></g></g></g><g id="xtick_11"><g id="line2d_21"><path d="M 905.24204 151.92 L 905.24204 97.56" clip-path="url(#pd2f6692773)" style="fill:none;stroke:#000;stroke-dasharray:.8,1.32;stroke-dashoffset:0;stroke-width:.8"/></g><g id="line2d_22"><g><use style="stroke:#000;stroke-width:.8" x="905.242" y="151.92" xlink:href="#mbacfa79e93"/></g></g></g><g id="xtick_12"><g id="line2d_23"><path d="M 1088.715708 151.92 L 1088.715708 97.56" clip-path="url(#pd2f6692773)" style="fill:none;stroke:#000;stroke-dasharray:.8,1.32;stroke-dashoffset:0;stroke-width:.8"/></g><g id="line2d_24"><g><use style="stroke:#000;stroke-width:.8" x="1088.716" y="151.92" xlink:href="#mbacfa79e93"/></g></g></g><g id="text_3"><g transform="translate(607.908594 163.518437)scale(0.1 -0.1)"><use xlink:href="#DejaVuSans-116"/><use x="39.209" xlink:href="#DejaVuSans-105"/><use x="66.992" xlink:href="#DejaVuSans-109"/><use x="164.404" xlink:href="#DejaVuSans-101"/><use x="225.928" xlink:href="#DejaVuSans-32"/><use x="257.715" xlink:href="#DejaVuSans-40"/><use x="296.729" xlink:href="#DejaVuSans-115"/><use x="348.828" xlink:href="#DejaVuSans-41"/></g></g></g><g id="matplotlib.axis_4"><g id="text_4"><defs><path id="DejaVuSans-82" d="M 44.390625 34.1875 Q 47.5625 33.109375 50.5625 29.59375 Q 53.5625 26.078125 56.59375 19.921875 L 66.609375 0 L 56 0 L 46.6875 18.703125 Q 43.0625 26.03125 39.671875 28.421875 Q 36.28125 30.8125 30.421875 30.8125 L 19.671875 30.8125 L 19.671875 0 L 9.8125 0 L 9.8125 72.90625 L 32.078125 72.90625 Q 44.578125 72.90625 50.734375 67.671875 Q 56.890625 62.453125 56.890625 51.90625 Q 56.890625 45.015625 53.6875 40.46875 Q 50.484375 35.9375 44.390625 34.1875 z M 19.671875 64.796875 L 19.671875 38.921875 L 32.078125 38.921875 Q 39.203125 38.921875 42.84375 42.21875 Q 46.484375 45.515625 46.484375 51.90625 Q 46.484375 58.296875 42.84375 61.546875 Q 39.203125 64.796875 32.078125 64.796875 z"/><path id="DejaVuSans-97" d="M 34.28125 27.484375 Q 23.390625 27.484375 19.1875 25 Q 14.984375 22.515625 14.984375 16.5 Q 14.984375 11.71875 18.140625 8.90625 Q 21.296875 6.109375 26.703125 6.109375 Q 34.1875 6.109375 38.703125 11.40625 Q 43.21875 16.703125 43.21875 25.484375 L 43.21875 27.484375 z M 52.203125 31.203125 L 52.203125 0 L 43.21875 0 L 43.21875 8.296875 Q 40.140625 3.328125 35.546875 0.953125 Q 30.953125 -1.421875 24.3125 -1.421875 Q 15.921875 -1.421875 10.953125 3.296875 Q 6 8.015625 6 15.921875 Q 6 25.140625 12.171875 29.828125 Q 18.359375 34.515625 30.609375 34.515625 L 43.21875 34.515625 L 43.21875 35.40625 Q 43.21875 41.609375 39.140625 45 Q 35.0625 48.390625 27.6875 48.390625 Q 23 48.390625 18.546875 47.265625 Q 14.109375 46.140625 10.015625 43.890625 L 10.015625 52.203125 Q 14.9375 54.109375 19.578125 55.046875 Q 24.21875 56 28.609375 56 Q 40.484375 56 46.34375 49.84375 Q 52.203125 43.703125 52.203125 31.203125 z"/><path id="DejaVuSans-100" d="M 45.40625 46.390625 L 45.40625 75.984375 L 54.390625 75.984375 L 54.390625 0 L 45.40625 0 L 45.40625 8.203125 Q 42.578125 3.328125 38.25 0.953125 Q 33.9375 -1.421875 27.875 -1.421875 Q 17.96875 -1.421875 11.734375 6.484375 Q 5.515625 14.40625 5.515625 27.296875 Q 5.515625 40.1875 11.734375 48.09375 Q 17.96875 56 27.875 56 Q 33.9375 56 38.25 53.625 Q 42.578125 51.265625 45.40625 46.390625 z M 14.796875 27.296875 Q 14.796875 17.390625 18.875 11.75 Q 22.953125 6.109375 30.078125 6.109375 Q 37.203125 6.109375 41.296875 11.75 Q 45.40625 17.390625 45.40625 27.296875 Q 45.40625 37.203125 41.296875 42.84375 Q 37.203125 48.484375 30.078125 48.484375 Q 22.953125 48.484375 18.875 42.84375 Q 14.796875 37.203125 14.796875 27.296875 z"/></defs><g transform="translate(146.920312 137.525937)rotate(-90)scale(0.1 -0.1)"><use xlink:href="#DejaVuSans-82"/><use x="69.42" xlink:href="#DejaVuSans-101"/><use x="130.943" xlink:href="#DejaVuSans-97"/><use x="192.223" xlink:href="#DejaVuSans-100"/></g></g></g><g id="patch_8"><path d="M 153 151.92 L 153 97.56" style="fill:none;stroke:#000;stroke-linecap:square;stroke-linejoin:miter;stroke-width:.8"/></g><g id="patch_9"><path d="M 1101.6 151.92 L 1101.6 97.56" style="fill:none;stroke:#000;stroke-linecap:square;stroke-linejoin:miter;stroke-width:.8"/></g><g id="patch_10"><path d="M 153 151.92 L 1101.6 151.92" style="fill:none;stroke:#000;stroke-linecap:square;stroke-linejoin:miter;stroke-width:.8"/></g><g id="patch_11"><path d="M 153 97.56 L 1101.6 97.56" style="fill:none;stroke:#000;stroke-linecap:square;stroke-linejoin:miter;stroke-width:.8"/></g></g><g id="axes_3"><g id="patch_12"><path d="M 153 206.28 L 1101.6 206.28 L 1101.6 151.92 L 153 151.92 z" style="fill:#fff"/></g><g id="BrokenBarHCollection_3"><path d="M 293.18535 206.28 L 293.18535 151.92 L 348.431598 151.92 L 348.431598 206.28 L 293.18535 206.28 z" clip-path="url(#p21263bd94a)" style="fill:#b12a90;fill-opacity:.66;stroke:#b12a90;stroke-opacity:.66"/><path d="M 400.689452 206.28 L 400.689452 151.92 L 456.27094 151.92 L 456.27094 206.28 L 400.689452 206.28 z" clip-path="url(#p21263bd94a)" style="fill:#b12a90;fill-opacity:.66;stroke:#b12a90;stroke-opacity:.66"/><path d="M 508.193555 206.28 L 508.193555 151.92 L 563.543475 151.92 L 563.543475 206.28 L 508.193555 206.28 z" clip-path="url(#p21263bd94a)" style="fill:#b12a90;fill-opacity:.66;stroke:#b12a90;stroke-opacity:.66"/><path d="M 751.86952 206.28 L 751.86952 151.92 L 807.464487 151.92 L 807.464487 206.28 L 751.86952 206.28 z" clip-path="url(#p21263bd94a)" style="fill:#b12a90;fill-opacity:.66;stroke:#b12a90;stroke-opacity:.66"/><path d="M 873.707503 206.28 L 873.707503 151.92 L 929.304438 151.92 L 929.304438 206.28 L 873.707503 206.28 z" clip-path="url(#p21263bd94a)" style="fill:#b12a90;fill-opacity:.66;stroke:#b12a90;stroke-opacity:.66"/><path d="M 988.378546 206.28 L 988.378546 151.92 L 1043.650849 151.92 L 1043.650849 206.28 L 988.378546 206.28 z" clip-path="url(#p21263bd94a)" style="fill:#b12a90;fill-opacity:.66;stroke:#b12a90;stroke-opacity:.66"/></g><g id="matplotlib.axis_5"><g id="xtick_13"><g id="line2d_25"><path d="M 171.347367 206.28 L 171.347367 151.92" clip-path="url(#p21263bd94a)" style="fill:none;stroke:#000;stroke-dasharray:.8,1.32;stroke-dashoffset:0;stroke-width:.8"/></g><g id="line2d_26"><g><use style="stroke:#000;stroke-width:.8" x="171.347" y="206.28" xlink:href="#mbacfa79e93"/></g></g></g><g id="xtick_14"><g id="line2d_27"><path d="M 354.821035 206.28 L 354.821035 151.92" clip-path="url(#p21263bd94a)" style="fill:none;stroke:#000;stroke-dasharray:.8,1.32;stroke-dashoffset:0;stroke-width:.8"/></g><g id="line2d_28"><g><use style="stroke:#000;stroke-width:.8" x="354.821" y="206.28" xlink:href="#mbacfa79e93"/></g></g></g><g id="xtick_15"><g id="line2d_29"><path d="M 538.294703 206.28 L 538.294703 151.92" clip-path="url(#p21263bd94a)" style="fill:none;stroke:#000;stroke-dasharray:.8,1.32;stroke-dashoffset:0;stroke-width:.8"/></g><g id="line2d_30"><g><use style="stroke:#000;stroke-width:.8" x="538.295" y="206.28" xlink:href="#mbacfa79e93"/></g></g></g><g id="xtick_16"><g id="line2d_31"><path d="M 721.768372 206.28 L 721.768372 151.92" clip-path="url(#p21263bd94a)" style="fill:none;stroke:#000;stroke-dasharray:.8,1.32;stroke-dashoffset:0;stroke-width:.8"/></g><g id="line2d_32"><g><use style="stroke:#000;stroke-width:.8" x="721.768" y="206.28" xlink:href="#mbacfa79e93"/></g></g></g><g id="xtick_17"><g id="line2d_33"><path d="M 905.24204 206.28 L 905.24204 151.92" clip-path="url(#p21263bd94a)" style="fill:none;stroke:#000;stroke-dasharray:.8,1.32;stroke-dashoffset:0;stroke-width:.8"/></g><g id="line2d_34"><g><use style="stroke:#000;stroke-width:.8" x="905.242" y="206.28" xlink:href="#mbacfa79e93"/></g></g></g><g id="xtick_18"><g id="line2d_35"><path d="M 1088.715708 206.28 L 1088.715708 151.92" clip-path="url(#p21263bd94a)" style="fill:none;stroke:#000;stroke-dasharray:.8,1.32;stroke-dashoffset:0;stroke-width:.8"/></g><g id="line2d_36"><g><use style="stroke:#000;stroke-width:.8" x="1088.716" y="206.28" xlink:href="#mbacfa79e93"/></g></g></g><g id="text_5"><g transform="translate(607.908594 217.878437)scale(0.1 -0.1)"><use xlink:href="#DejaVuSans-116"/><use x="39.209" xlink:href="#DejaVuSans-105"/><use x="66.992" xlink:href="#DejaVuSans-109"/><use x="164.404" xlink:href="#DejaVuSans-101"/><use x="225.928" xlink:href="#DejaVuSans-32"/><use x="257.715" xlink:href="#DejaVuSans-40"/><use x="296.729" xlink:href="#DejaVuSans-115"/><use x="348.828" xlink:href="#DejaVuSans-41"/></g></g></g><g id="matplotlib.axis_6"><g id="text_6"><defs><path id="DejaVuSans-77" d="M 9.8125 72.90625 L 24.515625 72.90625 L 43.109375 23.296875 L 61.8125 72.90625 L 76.515625 72.90625 L 76.515625 0 L 66.890625 0 L 66.890625 64.015625 L 48.09375 14.015625 L 38.1875 14.015625 L 19.390625 64.015625 L 19.390625 0 L 9.8125 0 z"/></defs><g transform="translate(146.920312 189.652344)rotate(-90)scale(0.1 -0.1)"><use xlink:href="#DejaVuSans-77"/><use x="86.279" xlink:href="#DejaVuSans-97"/><use x="147.559" xlink:href="#DejaVuSans-112"/></g></g></g><g id="patch_13"><path d="M 153 206.28 L 153 151.92" style="fill:none;stroke:#000;stroke-linecap:square;stroke-linejoin:miter;stroke-width:.8"/></g><g id="patch_14"><path d="M 1101.6 206.28 L 1101.6 151.92" style="fill:none;stroke:#000;stroke-linecap:square;stroke-linejoin:miter;stroke-width:.8"/></g><g id="patch_15"><path d="M 153 206.28 L 1101.6 206.28" style="fill:none;stroke:#000;stroke-linecap:square;stroke-linejoin:miter;stroke-width:.8"/></g><g id="patch_16"><path d="M 153 151.92 L 1101.6 151.92" style="fill:none;stroke:#000;stroke-linecap:square;stroke-linejoin:miter;stroke-width:.8"/></g></g><g id="axes_4"><g id="patch_17"><path d="M 153 260.64 L 1101.6 260.64 L 1101.6 206.28 L 153 206.28 z" style="fill:#fff"/></g><g id="BrokenBarHCollection_4"><path d="M 350.520871 260.64 L 350.520871 206.28 L 369.048375 206.28 L 369.048375 260.64 L 350.520871 260.64 z" clip-path="url(#p93b625c447)" style="fill:#e16462;fill-opacity:.66;stroke:#e16462;stroke-opacity:.66"/><path d="M 458.024973 260.64 L 458.024973 206.28 L 476.863016 206.28 L 476.863016 260.64 L 458.024973 260.64 z" clip-path="url(#p93b625c447)" style="fill:#e16462;fill-opacity:.66;stroke:#e16462;stroke-opacity:.66"/><path d="M 572.696016 260.64 L 572.696016 206.28 L 591.542889 206.28 L 591.542889 260.64 L 572.696016 260.64 z" clip-path="url(#p93b625c447)" style="fill:#e16462;fill-opacity:.66;stroke:#e16462;stroke-opacity:.66"/><path d="M 816.371982 260.64 L 816.371982 206.28 L 835.008093 206.28 L 835.008093 260.64 L 816.371982 260.64 z" clip-path="url(#p93b625c447)" style="fill:#e16462;fill-opacity:.66;stroke:#e16462;stroke-opacity:.66"/><path d="M 938.209965 260.64 L 938.209965 206.28 L 957.136642 206.28 L 957.136642 260.64 L 938.209965 260.64 z" clip-path="url(#p93b625c447)" style="fill:#e16462;fill-opacity:.66;stroke:#e16462;stroke-opacity:.66"/><path d="M 1052.881007 260.64 L 1052.881007 206.28 L 1071.552715 206.28 L 1071.552715 260.64 L 1052.881007 260.64 z" clip-path="url(#p93b625c447)" style="fill:#e16462;fill-opacity:.66;stroke:#e16462;stroke-opacity:.66"/></g><g id="matplotlib.axis_7"><g id="xtick_19"><g id="line2d_37"><path d="M 171.347367 260.64 L 171.347367 206.28" clip-path="url(#p93b625c447)" style="fill:none;stroke:#000;stroke-dasharray:.8,1.32;stroke-dashoffset:0;stroke-width:.8"/></g><g id="line2d_38"><g><use style="stroke:#000;stroke-width:.8" x="171.347" y="260.64" xlink:href="#mbacfa79e93"/></g></g></g><g id="xtick_20"><g id="line2d_39"><path d="M 354.821035 260.64 L 354.821035 206.28" clip-path="url(#p93b625c447)" style="fill:none;stroke:#000;stroke-dasharray:.8,1.32;stroke-dashoffset:0;stroke-width:.8"/></g><g id="line2d_40"><g><use style="stroke:#000;stroke-width:.8" x="354.821" y="260.64" xlink:href="#mbacfa79e93"/></g></g></g><g id="xtick_21"><g id="line2d_41"><path d="M 538.294703 260.64 L 538.294703 206.28" clip-path="url(#p93b625c447)" style="fill:none;stroke:#000;stroke-dasharray:.8,1.32;stroke-dashoffset:0;stroke-width:.8"/></g><g id="line2d_42"><g><use style="stroke:#000;stroke-width:.8" x="538.295" y="260.64" xlink:href="#mbacfa79e93"/></g></g></g><g id="xtick_22"><g id="line2d_43"><path d="M 721.768372 260.64 L 721.768372 206.28" clip-path="url(#p93b625c447)" style="fill:none;stroke:#000;stroke-dasharray:.8,1.32;stroke-dashoffset:0;stroke-width:.8"/></g><g id="line2d_44"><g><use style="stroke:#000;stroke-width:.8" x="721.768" y="260.64" xlink:href="#mbacfa79e93"/></g></g></g><g id="xtick_23"><g id="line2d_45"><path d="M 905.24204 260.64 L 905.24204 206.28" clip-path="url(#p93b625c447)" style="fill:none;stroke:#000;stroke-dasharray:.8,1.32;stroke-dashoffset:0;stroke-width:.8"/></g><g id="line2d_46"><g><use style="stroke:#000;stroke-width:.8" x="905.242" y="260.64" xlink:href="#mbacfa79e93"/></g></g></g><g id="xtick_24"><g id="line2d_47"><path d="M 1088.715708 260.64 L 1088.715708 206.28" clip-path="url(#p93b625c447)" style="fill:none;stroke:#000;stroke-dasharray:.8,1.32;stroke-dashoffset:0;stroke-width:.8"/></g><g id="line2d_48"><g><use style="stroke:#000;stroke-width:.8" x="1088.716" y="260.64" xlink:href="#mbacfa79e93"/></g></g></g><g id="text_7"><g transform="translate(607.908594 272.238437)scale(0.1 -0.1)"><use xlink:href="#DejaVuSans-116"/><use x="39.209" xlink:href="#DejaVuSans-105"/><use x="66.992" xlink:href="#DejaVuSans-109"/><use x="164.404" xlink:href="#DejaVuSans-101"/><use x="225.928" xlink:href="#DejaVuSans-32"/><use x="257.715" xlink:href="#DejaVuSans-40"/><use x="296.729" xlink:href="#DejaVuSans-115"/><use x="348.828" xlink:href="#DejaVuSans-41"/></g></g></g><g id="matplotlib.axis_8"><g id="text_8"><defs><path id="DejaVuSans-84" d="M -0.296875 72.90625 L 61.375 72.90625 L 61.375 64.59375 L 35.5 64.59375 L 35.5 0 L 25.59375 0 L 25.59375 64.59375 L -0.296875 64.59375 z"/><path id="DejaVuSans-114" d="M 41.109375 46.296875 Q 39.59375 47.171875 37.8125 47.578125 Q 36.03125 48 33.890625 48 Q 26.265625 48 22.1875 43.046875 Q 18.109375 38.09375 18.109375 28.8125 L 18.109375 0 L 9.078125 0 L 9.078125 54.6875 L 18.109375 54.6875 L 18.109375 46.1875 Q 20.953125 51.171875 25.484375 53.578125 Q 30.03125 56 36.53125 56 Q 37.453125 56 38.578125 55.875 Q 39.703125 55.765625 41.0625 55.515625 z"/></defs><g transform="translate(146.920312 246.180312)rotate(-90)scale(0.1 -0.1)"><use xlink:href="#DejaVuSans-84"/><use x="60.865" xlink:href="#DejaVuSans-114"/><use x="101.979" xlink:href="#DejaVuSans-97"/><use x="163.258" xlink:href="#DejaVuSans-105"/><use x="191.041" xlink:href="#DejaVuSans-110"/></g></g></g><g id="patch_18"><path d="M 153 260.64 L 153 206.28" style="fill:none;stroke:#000;stroke-linecap:square;stroke-linejoin:miter;stroke-width:.8"/></g><g id="patch_19"><path d="M 1101.6 260.64 L 1101.6 206.28" style="fill:none;stroke:#000;stroke-linecap:square;stroke-linejoin:miter;stroke-width:.8"/></g><g id="patch_20"><path d="M 153 260.64 L 1101.6 260.64" style="fill:none;stroke:#000;stroke-linecap:square;stroke-linejoin:miter;stroke-width:.8"/></g><g id="patch_21"><path d="M 153 206.28 L 1101.6 206.28" style="fill:none;stroke:#000;stroke-linecap:square;stroke-linejoin:miter;stroke-width:.8"/></g></g><g id="axes_5"><g id="patch_22"><path d="M 153 315 L 1101.6 315 L 1101.6 260.64 L 153 260.64 z" style="fill:#fff"/></g><g id="BrokenBarHCollection_5"><path d="M 171.347367 315 L 171.347367 260.64 L 600.476139 260.64 L 600.476139 315 L 171.347367 315 z" clip-path="url(#p74a7ab5c68)" style="fill:#fca636;fill-opacity:.66;stroke:#fca636;stroke-opacity:.66"/><path d="M 601.363777 315 L 601.363777 260.64 L 1083.252633 260.64 L 1083.252633 315 L 601.363777 315 z" clip-path="url(#p74a7ab5c68)" style="fill:#fca636;fill-opacity:.66;stroke:#fca636;stroke-opacity:.66"/></g><g id="matplotlib.axis_9"><g id="xtick_25"><g id="line2d_49"><path d="M 171.347367 315 L 171.347367 260.64" clip-path="url(#p74a7ab5c68)" style="fill:none;stroke:#000;stroke-dasharray:.8,1.32;stroke-dashoffset:0;stroke-width:.8"/></g><g id="line2d_50"><g><use style="stroke:#000;stroke-width:.8" x="171.347" y="315" xlink:href="#mbacfa79e93"/></g></g></g><g id="xtick_26"><g id="line2d_51"><path d="M 354.821035 315 L 354.821035 260.64" clip-path="url(#p74a7ab5c68)" style="fill:none;stroke:#000;stroke-dasharray:.8,1.32;stroke-dashoffset:0;stroke-width:.8"/></g><g id="line2d_52"><g><use style="stroke:#000;stroke-width:.8" x="354.821" y="315" xlink:href="#mbacfa79e93"/></g></g></g><g id="xtick_27"><g id="line2d_53"><path d="M 538.294703 315 L 538.294703 260.64" clip-path="url(#p74a7ab5c68)" style="fill:none;stroke:#000;stroke-dasharray:.8,1.32;stroke-dashoffset:0;stroke-width:.8"/></g><g id="line2d_54"><g><use style="stroke:#000;stroke-width:.8" x="538.295" y="315" xlink:href="#mbacfa79e93"/></g></g></g><g id="xtick_28"><g id="line2d_55"><path d="M 721.768372 315 L 721.768372 260.64" clip-path="url(#p74a7ab5c68)" style="fill:none;stroke:#000;stroke-dasharray:.8,1.32;stroke-dashoffset:0;stroke-width:.8"/></g><g id="line2d_56"><g><use style="stroke:#000;stroke-width:.8" x="721.768" y="315" xlink:href="#mbacfa79e93"/></g></g></g><g id="xtick_29"><g id="line2d_57"><path d="M 905.24204 315 L 905.24204 260.64" clip-path="url(#p74a7ab5c68)" style="fill:none;stroke:#000;stroke-dasharray:.8,1.32;stroke-dashoffset:0;stroke-width:.8"/></g><g id="line2d_58"><g><use style="stroke:#000;stroke-width:.8" x="905.242" y="315" xlink:href="#mbacfa79e93"/></g></g></g><g id="xtick_30"><g id="line2d_59"><path d="M 1088.715708 315 L 1088.715708 260.64" clip-path="url(#p74a7ab5c68)" style="fill:none;stroke:#000;stroke-dasharray:.8,1.32;stroke-dashoffset:0;stroke-width:.8"/></g><g id="line2d_60"><g><use style="stroke:#000;stroke-width:.8" x="1088.716" y="315" xlink:href="#mbacfa79e93"/></g></g></g><g id="text_9"><g transform="translate(607.908594 333.598437)scale(0.1 -0.1)"><use xlink:href="#DejaVuSans-116"/><use x="39.209" xlink:href="#DejaVuSans-105"/><use x="66.992" xlink:href="#DejaVuSans-109"/><use x="164.404" xlink:href="#DejaVuSans-101"/><use x="225.928" xlink:href="#DejaVuSans-32"/><use x="257.715" xlink:href="#DejaVuSans-40"/><use x="296.729" xlink:href="#DejaVuSans-115"/><use x="348.828" xlink:href="#DejaVuSans-41"/></g></g></g><g id="matplotlib.axis_10"><g id="text_10"><defs><path id="DejaVuSans-69" d="M 9.8125 72.90625 L 55.90625 72.90625 L 55.90625 64.59375 L 19.671875 64.59375 L 19.671875 43.015625 L 54.390625 43.015625 L 54.390625 34.71875 L 19.671875 34.71875 L 19.671875 8.296875 L 56.78125 8.296875 L 56.78125 0 L 9.8125 0 z"/><path id="DejaVuSans-111" d="M 30.609375 48.390625 Q 23.390625 48.390625 19.1875 42.75 Q 14.984375 37.109375 14.984375 27.296875 Q 14.984375 17.484375 19.15625 11.84375 Q 23.34375 6.203125 30.609375 6.203125 Q 37.796875 6.203125 41.984375 11.859375 Q 46.1875 17.53125 46.1875 27.296875 Q 46.1875 37.015625 41.984375 42.703125 Q 37.796875 48.390625 30.609375 48.390625 z M 30.609375 56 Q 42.328125 56 49.015625 48.375 Q 55.71875 40.765625 55.71875 27.296875 Q 55.71875 13.875 49.015625 6.21875 Q 42.328125 -1.421875 30.609375 -1.421875 Q 18.84375 -1.421875 12.171875 6.21875 Q 5.515625 13.875 5.515625 27.296875 Q 5.515625 40.765625 12.171875 48.375 Q 18.84375 56 30.609375 56 z"/><path id="DejaVuSans-99" d="M 48.78125 52.59375 L 48.78125 44.1875 Q 44.96875 46.296875 41.140625 47.34375 Q 37.3125 48.390625 33.40625 48.390625 Q 24.65625 48.390625 19.8125 42.84375 Q 14.984375 37.3125 14.984375 27.296875 Q 14.984375 17.28125 19.8125 11.734375 Q 24.65625 6.203125 33.40625 6.203125 Q 37.3125 6.203125 41.140625 7.25 Q 44.96875 8.296875 48.78125 10.40625 L 48.78125 2.09375 Q 45.015625 0.34375 40.984375 -0.53125 Q 36.96875 -1.421875 32.421875 -1.421875 Q 20.0625 -1.421875 12.78125 6.34375 Q 5.515625 14.109375 5.515625 27.296875 Q 5.515625 40.671875 12.859375 48.328125 Q 20.21875 56 33.015625 56 Q 37.15625 56 41.109375 55.140625 Q 45.0625 54.296875 48.78125 52.59375 z"/><path id="DejaVuSans-104" d="M 54.890625 33.015625 L 54.890625 0 L 45.90625 0 L 45.90625 32.71875 Q 45.90625 40.484375 42.875 44.328125 Q 39.84375 48.1875 33.796875 48.1875 Q 26.515625 48.1875 22.3125 43.546875 Q 18.109375 38.921875 18.109375 30.90625 L 18.109375 0 L 9.078125 0 L 9.078125 75.984375 L 18.109375 75.984375 L 18.109375 46.1875 Q 21.34375 51.125 25.703125 53.5625 Q 30.078125 56 35.796875 56 Q 45.21875 56 50.046875 50.171875 Q 54.890625 44.34375 54.890625 33.015625 z"/></defs><g transform="translate(146.920312 303.130938)rotate(-90)scale(0.1 -0.1)"><use xlink:href="#DejaVuSans-69"/><use x="63.184" xlink:href="#DejaVuSans-112"/><use x="126.66" xlink:href="#DejaVuSans-111"/><use x="187.842" xlink:href="#DejaVuSans-99"/><use x="242.822" xlink:href="#DejaVuSans-104"/></g></g></g><g id="patch_23"><path d="M 153 315 L 153 260.64" style="fill:none;stroke:#000;stroke-linecap:square;stroke-linejoin:miter;stroke-width:.8"/></g><g id="patch_24"><path d="M 1101.6 315 L 1101.6 260.64" style="fill:none;stroke:#000;stroke-linecap:square;stroke-linejoin:miter;stroke-width:.8"/></g><g id="patch_25"><path d="M 153 315 L 1101.6 315" style="fill:none;stroke:#000;stroke-linecap:square;stroke-linejoin:miter;stroke-width:.8"/></g><g id="patch_26"><path d="M 153 260.64 L 1101.6 260.64" style="fill:none;stroke:#000;stroke-linecap:square;stroke-linejoin:miter;stroke-width:.8"/></g></g><g id="text_11"><defs><path id="DejaVuSans-83" d="M 53.515625 70.515625 L 53.515625 60.890625 Q 47.90625 63.578125 42.921875 64.890625 Q 37.9375 66.21875 33.296875 66.21875 Q 25.25 66.21875 20.875 63.09375 Q 16.5 59.96875 16.5 54.203125 Q 16.5 49.359375 19.40625 46.890625 Q 22.3125 44.4375 30.421875 42.921875 L 36.375 41.703125 Q 47.40625 39.59375 52.65625 34.296875 Q 57.90625 29 57.90625 20.125 Q 57.90625 9.515625 50.796875 4.046875 Q 43.703125 -1.421875 29.984375 -1.421875 Q 24.8125 -1.421875 18.96875 -0.25 Q 13.140625 0.921875 6.890625 3.21875 L 6.890625 13.375 Q 12.890625 10.015625 18.65625 8.296875 Q 24.421875 6.59375 29.984375 6.59375 Q 38.421875 6.59375 43.015625 9.90625 Q 47.609375 13.234375 47.609375 19.390625 Q 47.609375 24.75 44.3125 27.78125 Q 41.015625 30.8125 33.5 32.328125 L 27.484375 33.5 Q 16.453125 35.6875 11.515625 40.375 Q 6.59375 45.0625 6.59375 53.421875 Q 6.59375 63.09375 13.40625 68.65625 Q 20.21875 74.21875 32.171875 74.21875 Q 37.3125 74.21875 42.625 73.28125 Q 47.953125 72.359375 53.515625 70.515625 z"/><path id="DejaVuSans-113" d="M 14.796875 27.296875 Q 14.796875 17.390625 18.875 11.75 Q 22.953125 6.109375 30.078125 6.109375 Q 37.203125 6.109375 41.296875 11.75 Q 45.40625 17.390625 45.40625 27.296875 Q 45.40625 37.203125 41.296875 42.84375 Q 37.203125 48.484375 30.078125 48.484375 Q 22.953125 48.484375 18.875 42.84375 Q 14.796875 37.203125 14.796875 27.296875 z M 45.40625 8.203125 Q 42.578125 3.328125 38.25 0.953125 Q 33.9375 -1.421875 27.875 -1.421875 Q 17.96875 -1.421875 11.734375 6.484375 Q 5.515625 14.40625 5.515625 27.296875 Q 5.515625 40.1875 11.734375 48.09375 Q 17.96875 56 27.875 56 Q 33.9375 56 38.25 53.625 Q 42.578125 51.265625 45.40625 46.390625 L 45.40625 54.6875 L 54.390625 54.6875 L 54.390625 -20.796875 L 45.40625 -20.796875 z"/><path id="DejaVuSans-117" d="M 8.5 21.578125 L 8.5 54.6875 L 17.484375 54.6875 L 17.484375 21.921875 Q 17.484375 14.15625 20.5 10.265625 Q 23.53125 6.390625 29.59375 6.390625 Q 36.859375 6.390625 41.078125 11.03125 Q 45.3125 15.671875 45.3125 23.6875 L 45.3125 54.6875 L 54.296875 54.6875 L 54.296875 0 L 45.3125 0 L 45.3125 8.40625 Q 42.046875 3.421875 37.71875 1 Q 33.40625 -1.421875 27.6875 -1.421875 Q 18.265625 -1.421875 13.375 4.4375 Q 8.5 10.296875 8.5 21.578125 z M 31.109375 56 z"/><path id="DejaVuSans-108" d="M 9.421875 75.984375 L 18.40625 75.984375 L 18.40625 0 L 9.421875 0 z"/></defs><g transform="translate(564.793125 16.318125)scale(0.12 -0.12)"><use xlink:href="#DejaVuSans-83"/><use x="63.477" xlink:href="#DejaVuSans-101"/><use x="125" xlink:href="#DejaVuSans-113"/><use x="188.477" xlink:href="#DejaVuSans-117"/><use x="251.855" xlink:href="#DejaVuSans-101"/><use x="313.379" xlink:href="#DejaVuSans-110"/><use x="376.758" xlink:href="#DejaVuSans-116"/><use x="415.967" xlink:href="#DejaVuSans-105"/><use x="443.75" xlink:href="#DejaVuSans-97"/><use x="505.029" xlink:href="#DejaVuSans-108"/><use x="532.813" xlink:href="#DejaVuSans-32"/><use x="564.6" xlink:href="#DejaVuSans-109"/><use x="662.012" xlink:href="#DejaVuSans-97"/><use x="723.291" xlink:href="#DejaVuSans-112"/></g></g></g><defs><clipPath id="p4efdf1b60d"><rect width="948.6" height="54.36" x="153" y="43.2"/></clipPath><clipPath id="pd2f6692773"><rect width="948.6" height="54.36" x="153" y="97.56"/></clipPath><clipPath id="p21263bd94a"><rect width="948.6" height="54.36" x="153" y="151.92"/></clipPath><clipPath id="p93b625c447"><rect width="948.6" height="54.36" x="153" y="206.28"/></clipPath><clipPath id="p74a7ab5c68"><rect width="948.6" height="54.36" x="153" y="260.64"/></clipPath></defs></svg>