<?xml version="1.0" encoding="utf-8" standalone="no"?>
<!DOCTYPE svg PUBLIC "-//W3C//DTD SVG 1.1//EN"
  "http://www.w3.org/Graphics/SVG/1.1/DTD/svg11.dtd">
<!-- Created with matplotlib (https://matplotlib.org/) -->
<svg height="360pt" version="1.1" viewBox="0 0 1224 360" width="1224pt" xmlns="http://www.w3.org/2000/svg" xmlns:xlink="http://www.w3.org/1999/xlink">
 <defs>
  <style type="text/css">
*{stroke-linecap:butt;stroke-linejoin:round;}
  </style>
 </defs>
 <g id="figure_1">
  <g id="patch_1">
   <path d="M 0 360 
L 1224 360 
L 1224 0 
L 0 0 
z
" style="fill:#ffffff;"/>
  </g>
  <g id="axes_1">
   <g id="patch_2">
    <path d="M 153 97.56 
L 1101.6 97.56 
L 1101.6 43.2 
L 153 43.2 
z
" style="fill:#ffffff;"/>
   </g>
   <g id="BrokenBarHCollection_1">
    <path clip-path="url(#pbc880ddb1d)" d="M 159.985871 97.56 
L 159.985871 43.2 
L 167.149922 43.2 
L 167.149922 97.56 
L 159.985871 97.56 
z
" style="fill:#0d0887;fill-opacity:0.66;stroke:#0d0887;stroke-opacity:0.66;"/>
    <path clip-path="url(#pbc880ddb1d)" d="M 534.228974 97.56 
L 534.228974 43.2 
L 541.352826 43.2 
L 541.352826 97.56 
L 534.228974 97.56 
z
" style="fill:#0d0887;fill-opacity:0.66;stroke:#0d0887;stroke-opacity:0.66;"/>
   </g>
   <g id="matplotlib.axis_1">
    <g id="xtick_1">
     <g id="line2d_1">
      <path clip-path="url(#pbc880ddb1d)" d="M 155.365586 97.56 
L 155.365586 43.2 
" style="fill:none;stroke:#000000;stroke-dasharray:0.8,1.32;stroke-dashoffset:0;stroke-width:0.8;"/>
     </g>
     <g id="line2d_2">
      <defs>
       <path d="M 0 0 
L 0 3.5 
" id="mcd4be8ce71" style="stroke:#000000;stroke-width:0.8;"/>
      </defs>
      <g>
       <use style="stroke:#000000;stroke-width:0.8;" x="155.365586" xlink:href="#mcd4be8ce71" y="97.56"/>
      </g>
     </g>
    </g>
    <g id="xtick_2">
     <g id="line2d_3">
      <path clip-path="url(#pbc880ddb1d)" d="M 273.644888 97.56 
L 273.644888 43.2 
" style="fill:none;stroke:#000000;stroke-dasharray:0.8,1.32;stroke-dashoffset:0;stroke-width:0.8;"/>
     </g>
     <g id="line2d_4">
      <g>
       <use style="stroke:#000000;stroke-width:0.8;" x="273.644888" xlink:href="#mcd4be8ce71" y="97.56"/>
      </g>
     </g>
    </g>
    <g id="xtick_3">
     <g id="line2d_5">
      <path clip-path="url(#pbc880ddb1d)" d="M 391.92419 97.56 
L 391.92419 43.2 
" style="fill:none;stroke:#000000;stroke-dasharray:0.8,1.32;stroke-dashoffset:0;stroke-width:0.8;"/>
     </g>
     <g id="line2d_6">
      <g>
       <use style="stroke:#000000;stroke-width:0.8;" x="391.92419" xlink:href="#mcd4be8ce71" y="97.56"/>
      </g>
     </g>
    </g>
    <g id="xtick_4">
     <g id="line2d_7">
      <path clip-path="url(#pbc880ddb1d)" d="M 510.203491 97.56 
L 510.203491 43.2 
" style="fill:none;stroke:#000000;stroke-dasharray:0.8,1.32;stroke-dashoffset:0;stroke-width:0.8;"/>
     </g>
     <g id="line2d_8">
      <g>
       <use style="stroke:#000000;stroke-width:0.8;" x="510.203491" xlink:href="#mcd4be8ce71" y="97.56"/>
      </g>
     </g>
    </g>
    <g id="xtick_5">
     <g id="line2d_9">
      <path clip-path="url(#pbc880ddb1d)" d="M 628.482793 97.56 
L 628.482793 43.2 
" style="fill:none;stroke:#000000;stroke-dasharray:0.8,1.32;stroke-dashoffset:0;stroke-width:0.8;"/>
     </g>
     <g id="line2d_10">
      <g>
       <use style="stroke:#000000;stroke-width:0.8;" x="628.482793" xlink:href="#mcd4be8ce71" y="97.56"/>
      </g>
     </g>
    </g>
    <g id="xtick_6">
     <g id="line2d_11">
      <path clip-path="url(#pbc880ddb1d)" d="M 746.762095 97.56 
L 746.762095 43.2 
" style="fill:none;stroke:#000000;stroke-dasharray:0.8,1.32;stroke-dashoffset:0;stroke-width:0.8;"/>
     </g>
     <g id="line2d_12">
      <g>
       <use style="stroke:#000000;stroke-width:0.8;" x="746.762095" xlink:href="#mcd4be8ce71" y="97.56"/>
      </g>
     </g>
    </g>
    <g id="xtick_7">
     <g id="line2d_13">
      <path clip-path="url(#pbc880ddb1d)" d="M 865.041397 97.56 
L 865.041397 43.2 
" style="fill:none;stroke:#000000;stroke-dasharray:0.8,1.32;stroke-dashoffset:0;stroke-width:0.8;"/>
     </g>
     <g id="line2d_14">
      <g>
       <use style="stroke:#000000;stroke-width:0.8;" x="865.041397" xlink:href="#mcd4be8ce71" y="97.56"/>
      </g>
     </g>
    </g>
    <g id="xtick_8">
     <g id="line2d_15">
      <path clip-path="url(#pbc880ddb1d)" d="M 983.320698 97.56 
L 983.320698 43.2 
" style="fill:none;stroke:#000000;stroke-dasharray:0.8,1.32;stroke-dashoffset:0;stroke-width:0.8;"/>
     </g>
     <g id="line2d_16">
      <g>
       <use style="stroke:#000000;stroke-width:0.8;" x="983.320698" xlink:href="#mcd4be8ce71" y="97.56"/>
      </g>
     </g>
    </g>
    <g id="xtick_9">
     <g id="line2d_17">
      <path clip-path="url(#pbc880ddb1d)" d="M 1101.6 97.56 
L 1101.6 43.2 
" style="fill:none;stroke:#000000;stroke-dasharray:0.8,1.32;stroke-dashoffset:0;stroke-width:0.8;"/>
     </g>
     <g id="line2d_18">
      <g>
       <use style="stroke:#000000;stroke-width:0.8;" x="1101.6" xlink:href="#mcd4be8ce71" y="97.56"/>
      </g>
     </g>
    </g>
    <g id="text_1">
     <!-- time (s) -->
     <defs>
      <path d="M 18.3125 70.21875 
L 18.3125 54.6875 
L 36.8125 54.6875 
L 36.8125 47.703125 
L 18.3125 47.703125 
L 18.3125 18.015625 
Q 18.3125 11.328125 20.140625 9.421875 
Q 21.96875 7.515625 27.59375 7.515625 
L 36.8125 7.515625 
L 36.8125 0 
L 27.59375 0 
Q 17.1875 0 13.234375 3.875 
Q 9.28125 7.765625 9.28125 18.015625 
L 9.28125 47.703125 
L 2.6875 47.703125 
L 2.6875 54.6875 
L 9.28125 54.6875 
L 9.28125 70.21875 
z
" id="DejaVuSans-116"/>
      <path d="M 9.421875 54.6875 
L 18.40625 54.6875 
L 18.40625 0 
L 9.421875 0 
z
M 9.421875 75.984375 
L 18.40625 75.984375 
L 18.40625 64.59375 
L 9.421875 64.59375 
z
" id="DejaVuSans-105"/>
      <path d="M 52 44.1875 
Q 55.375 50.25 60.0625 53.125 
Q 64.75 56 71.09375 56 
Q 79.640625 56 84.28125 50.015625 
Q 88.921875 44.046875 88.921875 33.015625 
L 88.921875 0 
L 79.890625 0 
L 79.890625 32.71875 
Q 79.890625 40.578125 77.09375 44.375 
Q 74.3125 48.1875 68.609375 48.1875 
Q 61.625 48.1875 57.5625 43.546875 
Q 53.515625 38.921875 53.515625 30.90625 
L 53.515625 0 
L 44.484375 0 
L 44.484375 32.71875 
Q 44.484375 40.625 41.703125 44.40625 
Q 38.921875 48.1875 33.109375 48.1875 
Q 26.21875 48.1875 22.15625 43.53125 
Q 18.109375 38.875 18.109375 30.90625 
L 18.109375 0 
L 9.078125 0 
L 9.078125 54.6875 
L 18.109375 54.6875 
L 18.109375 46.1875 
Q 21.1875 51.21875 25.484375 53.609375 
Q 29.78125 56 35.6875 56 
Q 41.65625 56 45.828125 52.96875 
Q 50 49.953125 52 44.1875 
z
" id="DejaVuSans-109"/>
      <path d="M 56.203125 29.59375 
L 56.203125 25.203125 
L 14.890625 25.203125 
Q 15.484375 15.921875 20.484375 11.0625 
Q 25.484375 6.203125 34.421875 6.203125 
Q 39.59375 6.203125 44.453125 7.46875 
Q 49.3125 8.734375 54.109375 11.28125 
L 54.109375 2.78125 
Q 49.265625 0.734375 44.1875 -0.34375 
Q 39.109375 -1.421875 33.890625 -1.421875 
Q 20.796875 -1.421875 13.15625 6.1875 
Q 5.515625 13.8125 5.515625 26.8125 
Q 5.515625 40.234375 12.765625 48.109375 
Q 20.015625 56 32.328125 56 
Q 43.359375 56 49.78125 48.890625 
Q 56.203125 41.796875 56.203125 29.59375 
z
M 47.21875 32.234375 
Q 47.125 39.59375 43.09375 43.984375 
Q 39.0625 48.390625 32.421875 48.390625 
Q 24.90625 48.390625 20.390625 44.140625 
Q 15.875 39.890625 15.1875 32.171875 
z
" id="DejaVuSans-101"/>
      <path id="DejaVuSans-32"/>
      <path d="M 31 75.875 
Q 24.46875 64.65625 21.28125 53.65625 
Q 18.109375 42.671875 18.109375 31.390625 
Q 18.109375 20.125 21.3125 9.0625 
Q 24.515625 -2 31 -13.1875 
L 23.1875 -13.1875 
Q 15.875 -1.703125 12.234375 9.375 
Q 8.59375 20.453125 8.59375 31.390625 
Q 8.59375 42.28125 12.203125 53.3125 
Q 15.828125 64.359375 23.1875 75.875 
z
" id="DejaVuSans-40"/>
      <path d="M 44.28125 53.078125 
L 44.28125 44.578125 
Q 40.484375 46.53125 36.375 47.5 
Q 32.28125 48.484375 27.875 48.484375 
Q 21.1875 48.484375 17.84375 46.4375 
Q 14.5 44.390625 14.5 40.28125 
Q 14.5 37.15625 16.890625 35.375 
Q 19.28125 33.59375 26.515625 31.984375 
L 29.59375 31.296875 
Q 39.15625 29.25 43.1875 25.515625 
Q 47.21875 21.78125 47.21875 15.09375 
Q 47.21875 7.46875 41.1875 3.015625 
Q 35.15625 -1.421875 24.609375 -1.421875 
Q 20.21875 -1.421875 15.453125 -0.5625 
Q 10.6875 0.296875 5.421875 2 
L 5.421875 11.28125 
Q 10.40625 8.6875 15.234375 7.390625 
Q 20.0625 6.109375 24.8125 6.109375 
Q 31.15625 6.109375 34.5625 8.28125 
Q 37.984375 10.453125 37.984375 14.40625 
Q 37.984375 18.0625 35.515625 20.015625 
Q 33.0625 21.96875 24.703125 23.78125 
L 21.578125 24.515625 
Q 13.234375 26.265625 9.515625 29.90625 
Q 5.8125 33.546875 5.8125 39.890625 
Q 5.8125 47.609375 11.28125 51.796875 
Q 16.75 56 26.8125 56 
Q 31.78125 56 36.171875 55.265625 
Q 40.578125 54.546875 44.28125 53.078125 
z
" id="DejaVuSans-115"/>
      <path d="M 8.015625 75.875 
L 15.828125 75.875 
Q 23.140625 64.359375 26.78125 53.3125 
Q 30.421875 42.28125 30.421875 31.390625 
Q 30.421875 20.453125 26.78125 9.375 
Q 23.140625 -1.703125 15.828125 -13.1875 
L 8.015625 -13.1875 
Q 14.5 -2 17.703125 9.0625 
Q 20.90625 20.125 20.90625 31.390625 
Q 20.90625 42.671875 17.703125 53.65625 
Q 14.5 64.65625 8.015625 75.875 
z
" id="DejaVuSans-41"/>
     </defs>
     <g transform="translate(607.908594 109.158437)scale(0.1 -0.1)">
      <use xlink:href="#DejaVuSans-116"/>
      <use x="39.208984" xlink:href="#DejaVuSans-105"/>
      <use x="66.992188" xlink:href="#DejaVuSans-109"/>
      <use x="164.404297" xlink:href="#DejaVuSans-101"/>
      <use x="225.927734" xlink:href="#DejaVuSans-32"/>
      <use x="257.714844" xlink:href="#DejaVuSans-40"/>
      <use x="296.728516" xlink:href="#DejaVuSans-115"/>
      <use x="348.828125" xlink:href="#DejaVuSans-41"/>
     </g>
    </g>
   </g>
   <g id="matplotlib.axis_2">
    <g id="text_2">
     <!-- Open -->
     <defs>
      <path d="M 39.40625 66.21875 
Q 28.65625 66.21875 22.328125 58.203125 
Q 16.015625 50.203125 16.015625 36.375 
Q 16.015625 22.609375 22.328125 14.59375 
Q 28.65625 6.59375 39.40625 6.59375 
Q 50.140625 6.59375 56.421875 14.59375 
Q 62.703125 22.609375 62.703125 36.375 
Q 62.703125 50.203125 56.421875 58.203125 
Q 50.140625 66.21875 39.40625 66.21875 
z
M 39.40625 74.21875 
Q 54.734375 74.21875 63.90625 63.9375 
Q 73.09375 53.65625 73.09375 36.375 
Q 73.09375 19.140625 63.90625 8.859375 
Q 54.734375 -1.421875 39.40625 -1.421875 
Q 24.03125 -1.421875 14.8125 8.828125 
Q 5.609375 19.09375 5.609375 36.375 
Q 5.609375 53.65625 14.8125 63.9375 
Q 24.03125 74.21875 39.40625 74.21875 
z
" id="DejaVuSans-79"/>
      <path d="M 18.109375 8.203125 
L 18.109375 -20.796875 
L 9.078125 -20.796875 
L 9.078125 54.6875 
L 18.109375 54.6875 
L 18.109375 46.390625 
Q 20.953125 51.265625 25.265625 53.625 
Q 29.59375 56 35.59375 56 
Q 45.5625 56 51.78125 48.09375 
Q 58.015625 40.1875 58.015625 27.296875 
Q 58.015625 14.40625 51.78125 6.484375 
Q 45.5625 -1.421875 35.59375 -1.421875 
Q 29.59375 -1.421875 25.265625 0.953125 
Q 20.953125 3.328125 18.109375 8.203125 
z
M 48.6875 27.296875 
Q 48.6875 37.203125 44.609375 42.84375 
Q 40.53125 48.484375 33.40625 48.484375 
Q 26.265625 48.484375 22.1875 42.84375 
Q 18.109375 37.203125 18.109375 27.296875 
Q 18.109375 17.390625 22.1875 11.75 
Q 26.265625 6.109375 33.40625 6.109375 
Q 40.53125 6.109375 44.609375 11.75 
Q 48.6875 17.390625 48.6875 27.296875 
z
" id="DejaVuSans-112"/>
      <path d="M 54.890625 33.015625 
L 54.890625 0 
L 45.90625 0 
L 45.90625 32.71875 
Q 45.90625 40.484375 42.875 44.328125 
Q 39.84375 48.1875 33.796875 48.1875 
Q 26.515625 48.1875 22.3125 43.546875 
Q 18.109375 38.921875 18.109375 30.90625 
L 18.109375 0 
L 9.078125 0 
L 9.078125 54.6875 
L 18.109375 54.6875 
L 18.109375 46.1875 
Q 21.34375 51.125 25.703125 53.5625 
Q 30.078125 56 35.796875 56 
Q 45.21875 56 50.046875 50.171875 
Q 54.890625 44.34375 54.890625 33.015625 
z
" id="DejaVuSans-110"/>
     </defs>
     <g transform="translate(146.920312 83.735469)rotate(-90)scale(0.1 -0.1)">
      <use xlink:href="#DejaVuSans-79"/>
      <use x="78.710938" xlink:href="#DejaVuSans-112"/>
      <use x="142.1875" xlink:href="#DejaVuSans-101"/>
      <use x="203.710938" xlink:href="#DejaVuSans-110"/>
     </g>
    </g>
   </g>
   <g id="patch_3">
    <path d="M 153 97.56 
L 153 43.2 
" style="fill:none;stroke:#000000;stroke-linecap:square;stroke-linejoin:miter;stroke-width:0.8;"/>
   </g>
   <g id="patch_4">
    <path d="M 1101.6 97.56 
L 1101.6 43.2 
" style="fill:none;stroke:#000000;stroke-linecap:square;stroke-linejoin:miter;stroke-width:0.8;"/>
   </g>
   <g id="patch_5">
    <path d="M 153 97.56 
L 1101.6 97.56 
" style="fill:none;stroke:#000000;stroke-linecap:square;stroke-linejoin:miter;stroke-width:0.8;"/>
   </g>
   <g id="patch_6">
    <path d="M 153 43.2 
L 1101.6 43.2 
" style="fill:none;stroke:#000000;stroke-linecap:square;stroke-linejoin:miter;stroke-width:0.8;"/>
   </g>
  </g>
  <g id="axes_2">
   <g id="patch_7">
    <path d="M 153 151.92 
L 1101.6 151.92 
L 1101.6 97.56 
L 153 97.56 
z
" style="fill:#ffffff;"/>
   </g>
   <g id="BrokenBarHCollection_2">
    <path clip-path="url(#p547c7d0687)" d="M 167.378328 151.92 
L 167.378328 97.56 
L 171.009308 97.56 
L 171.009308 151.92 
L 167.378328 151.92 
z
" style="fill:#6a00a8;fill-opacity:0.66;stroke:#6a00a8;stroke-opacity:0.66;"/>
    <path clip-path="url(#p547c7d0687)" d="M 171.074556 151.92 
L 171.074556 97.56 
L 174.660684 97.56 
L 174.660684 151.92 
L 171.074556 151.92 
z
" style="fill:#6a00a8;fill-opacity:0.66;stroke:#6a00a8;stroke-opacity:0.66;"/>
    <path clip-path="url(#p547c7d0687)" d="M 174.770784 151.92 
L 174.770784 97.56 
L 178.344656 97.56 
L 178.344656 151.92 
L 174.770784 151.92 
z
" style="fill:#6a00a8;fill-opacity:0.66;stroke:#6a00a8;stroke-opacity:0.66;"/>
    <path clip-path="url(#p547c7d0687)" d="M 178.467012 151.92 
L 178.467012 97.56 
L 182.082098 97.56 
L 182.082098 151.92 
L 178.467012 151.92 
z
" style="fill:#6a00a8;fill-opacity:0.66;stroke:#6a00a8;stroke-opacity:0.66;"/>
    <path clip-path="url(#p547c7d0687)" d="M 182.16324 151.92 
L 182.16324 97.56 
L 185.745319 97.56 
L 185.745319 151.92 
L 182.16324 151.92 
z
" style="fill:#6a00a8;fill-opacity:0.66;stroke:#6a00a8;stroke-opacity:0.66;"/>
    <path clip-path="url(#p547c7d0687)" d="M 185.859469 151.92 
L 185.859469 97.56 
L 189.473973 97.56 
L 189.473973 151.92 
L 185.859469 151.92 
z
" style="fill:#6a00a8;fill-opacity:0.66;stroke:#6a00a8;stroke-opacity:0.66;"/>
    <path clip-path="url(#p547c7d0687)" d="M 190.479754 151.92 
L 190.479754 97.56 
L 194.09429 97.56 
L 194.09429 151.92 
L 190.479754 151.92 
z
" style="fill:#6a00a8;fill-opacity:0.66;stroke:#6a00a8;stroke-opacity:0.66;"/>
    <path clip-path="url(#p547c7d0687)" d="M 194.175982 151.92 
L 194.175982 97.56 
L 197.758568 97.56 
L 197.758568 151.92 
L 194.175982 151.92 
z
" style="fill:#6a00a8;fill-opacity:0.66;stroke:#6a00a8;stroke-opacity:0.66;"/>
    <path clip-path="url(#p547c7d0687)" d="M 197.87221 151.92 
L 197.87221 97.56 
L 201.459815 97.56 
L 201.459815 151.92 
L 197.87221 151.92 
z
" style="fill:#6a00a8;fill-opacity:0.66;stroke:#6a00a8;stroke-opacity:0.66;"/>
    <path clip-path="url(#p547c7d0687)" d="M 201.568438 151.92 
L 201.568438 97.56 
L 205.143318 97.56 
L 205.143318 151.92 
L 201.568438 151.92 
z
" style="fill:#6a00a8;fill-opacity:0.66;stroke:#6a00a8;stroke-opacity:0.66;"/>
    <path clip-path="url(#p547c7d0687)" d="M 205.264666 151.92 
L 205.264666 97.56 
L 208.879132 97.56 
L 208.879132 151.92 
L 205.264666 151.92 
z
" style="fill:#6a00a8;fill-opacity:0.66;stroke:#6a00a8;stroke-opacity:0.66;"/>
    <path clip-path="url(#p547c7d0687)" d="M 208.960895 151.92 
L 208.960895 97.56 
L 212.570982 97.56 
L 212.570982 151.92 
L 208.960895 151.92 
z
" style="fill:#6a00a8;fill-opacity:0.66;stroke:#6a00a8;stroke-opacity:0.66;"/>
    <path clip-path="url(#p547c7d0687)" d="M 212.657123 151.92 
L 212.657123 97.56 
L 216.249032 97.56 
L 216.249032 151.92 
L 212.657123 151.92 
z
" style="fill:#6a00a8;fill-opacity:0.66;stroke:#6a00a8;stroke-opacity:0.66;"/>
    <path clip-path="url(#p547c7d0687)" d="M 217.277408 151.92 
L 217.277408 97.56 
L 220.891313 97.56 
L 220.891313 151.92 
L 217.277408 151.92 
z
" style="fill:#6a00a8;fill-opacity:0.66;stroke:#6a00a8;stroke-opacity:0.66;"/>
    <path clip-path="url(#p547c7d0687)" d="M 220.973636 151.92 
L 220.973636 97.56 
L 224.562176 97.56 
L 224.562176 151.92 
L 220.973636 151.92 
z
" style="fill:#6a00a8;fill-opacity:0.66;stroke:#6a00a8;stroke-opacity:0.66;"/>
    <path clip-path="url(#p547c7d0687)" d="M 224.669864 151.92 
L 224.669864 97.56 
L 228.288014 97.56 
L 228.288014 151.92 
L 224.669864 151.92 
z
" style="fill:#6a00a8;fill-opacity:0.66;stroke:#6a00a8;stroke-opacity:0.66;"/>
    <path clip-path="url(#p547c7d0687)" d="M 228.366093 151.92 
L 228.366093 97.56 
L 231.964883 97.56 
L 231.964883 151.92 
L 228.366093 151.92 
z
" style="fill:#6a00a8;fill-opacity:0.66;stroke:#6a00a8;stroke-opacity:0.66;"/>
    <path clip-path="url(#p547c7d0687)" d="M 232.062321 151.92 
L 232.062321 97.56 
L 235.650635 97.56 
L 235.650635 151.92 
L 232.062321 151.92 
z
" style="fill:#6a00a8;fill-opacity:0.66;stroke:#6a00a8;stroke-opacity:0.66;"/>
    <path clip-path="url(#p547c7d0687)" d="M 235.758549 151.92 
L 235.758549 97.56 
L 239.370177 97.56 
L 239.370177 151.92 
L 235.758549 151.92 
z
" style="fill:#6a00a8;fill-opacity:0.66;stroke:#6a00a8;stroke-opacity:0.66;"/>
    <path clip-path="url(#p547c7d0687)" d="M 239.454777 151.92 
L 239.454777 97.56 
L 243.064601 97.56 
L 243.064601 151.92 
L 239.454777 151.92 
z
" style="fill:#6a00a8;fill-opacity:0.66;stroke:#6a00a8;stroke-opacity:0.66;"/>
    <path clip-path="url(#p547c7d0687)" d="M 244.075062 151.92 
L 244.075062 97.56 
L 247.662326 97.56 
L 247.662326 151.92 
L 244.075062 151.92 
z
" style="fill:#6a00a8;fill-opacity:0.66;stroke:#6a00a8;stroke-opacity:0.66;"/>
    <path clip-path="url(#p547c7d0687)" d="M 247.771291 151.92 
L 247.771291 97.56 
L 251.360528 97.56 
L 251.360528 151.92 
L 247.771291 151.92 
z
" style="fill:#6a00a8;fill-opacity:0.66;stroke:#6a00a8;stroke-opacity:0.66;"/>
    <path clip-path="url(#p547c7d0687)" d="M 251.467519 151.92 
L 251.467519 97.56 
L 255.049692 97.56 
L 255.049692 151.92 
L 251.467519 151.92 
z
" style="fill:#6a00a8;fill-opacity:0.66;stroke:#6a00a8;stroke-opacity:0.66;"/>
    <path clip-path="url(#p547c7d0687)" d="M 255.163747 151.92 
L 255.163747 97.56 
L 258.786014 97.56 
L 258.786014 151.92 
L 255.163747 151.92 
z
" style="fill:#6a00a8;fill-opacity:0.66;stroke:#6a00a8;stroke-opacity:0.66;"/>
    <path clip-path="url(#p547c7d0687)" d="M 258.859975 151.92 
L 258.859975 97.56 
L 262.477772 97.56 
L 262.477772 151.92 
L 258.859975 151.92 
z
" style="fill:#6a00a8;fill-opacity:0.66;stroke:#6a00a8;stroke-opacity:0.66;"/>
    <path clip-path="url(#p547c7d0687)" d="M 262.556203 151.92 
L 262.556203 97.56 
L 266.146604 97.56 
L 266.146604 151.92 
L 262.556203 151.92 
z
" style="fill:#6a00a8;fill-opacity:0.66;stroke:#6a00a8;stroke-opacity:0.66;"/>
    <path clip-path="url(#p547c7d0687)" d="M 266.252431 151.92 
L 266.252431 97.56 
L 269.868854 97.56 
L 269.868854 151.92 
L 266.252431 151.92 
z
" style="fill:#6a00a8;fill-opacity:0.66;stroke:#6a00a8;stroke-opacity:0.66;"/>
    <path clip-path="url(#p547c7d0687)" d="M 270.872717 151.92 
L 270.872717 97.56 
L 274.48904 97.56 
L 274.48904 151.92 
L 270.872717 151.92 
z
" style="fill:#6a00a8;fill-opacity:0.66;stroke:#6a00a8;stroke-opacity:0.66;"/>
    <path clip-path="url(#p547c7d0687)" d="M 274.568945 151.92 
L 274.568945 97.56 
L 278.18125 97.56 
L 278.18125 151.92 
L 274.568945 151.92 
z
" style="fill:#6a00a8;fill-opacity:0.66;stroke:#6a00a8;stroke-opacity:0.66;"/>
    <path clip-path="url(#p547c7d0687)" d="M 278.265173 151.92 
L 278.265173 97.56 
L 281.854185 97.56 
L 281.854185 151.92 
L 278.265173 151.92 
z
" style="fill:#6a00a8;fill-opacity:0.66;stroke:#6a00a8;stroke-opacity:0.66;"/>
    <path clip-path="url(#p547c7d0687)" d="M 281.961401 151.92 
L 281.961401 97.56 
L 285.588159 97.56 
L 285.588159 151.92 
L 281.961401 151.92 
z
" style="fill:#6a00a8;fill-opacity:0.66;stroke:#6a00a8;stroke-opacity:0.66;"/>
    <path clip-path="url(#p547c7d0687)" d="M 285.657629 151.92 
L 285.657629 97.56 
L 289.278775 97.56 
L 289.278775 151.92 
L 285.657629 151.92 
z
" style="fill:#6a00a8;fill-opacity:0.66;stroke:#6a00a8;stroke-opacity:0.66;"/>
    <path clip-path="url(#p547c7d0687)" d="M 289.353858 151.92 
L 289.353858 97.56 
L 292.943377 97.56 
L 292.943377 151.92 
L 289.353858 151.92 
z
" style="fill:#6a00a8;fill-opacity:0.66;stroke:#6a00a8;stroke-opacity:0.66;"/>
    <path clip-path="url(#p547c7d0687)" d="M 293.974143 151.92 
L 293.974143 97.56 
L 297.556781 97.56 
L 297.556781 151.92 
L 293.974143 151.92 
z
" style="fill:#6a00a8;fill-opacity:0.66;stroke:#6a00a8;stroke-opacity:0.66;"/>
    <path clip-path="url(#p547c7d0687)" d="M 297.670371 151.92 
L 297.670371 97.56 
L 301.284072 97.56 
L 301.284072 151.92 
L 297.670371 151.92 
z
" style="fill:#6a00a8;fill-opacity:0.66;stroke:#6a00a8;stroke-opacity:0.66;"/>
    <path clip-path="url(#p547c7d0687)" d="M 301.366599 151.92 
L 301.366599 97.56 
L 304.954257 97.56 
L 304.954257 151.92 
L 301.366599 151.92 
z
" style="fill:#6a00a8;fill-opacity:0.66;stroke:#6a00a8;stroke-opacity:0.66;"/>
    <path clip-path="url(#p547c7d0687)" d="M 305.062827 151.92 
L 305.062827 97.56 
L 308.633537 97.56 
L 308.633537 151.92 
L 305.062827 151.92 
z
" style="fill:#6a00a8;fill-opacity:0.66;stroke:#6a00a8;stroke-opacity:0.66;"/>
    <path clip-path="url(#p547c7d0687)" d="M 308.759055 151.92 
L 308.759055 97.56 
L 312.331317 97.56 
L 312.331317 151.92 
L 308.759055 151.92 
z
" style="fill:#6a00a8;fill-opacity:0.66;stroke:#6a00a8;stroke-opacity:0.66;"/>
    <path clip-path="url(#p547c7d0687)" d="M 312.455284 151.92 
L 312.455284 97.56 
L 316.021256 97.56 
L 316.021256 151.92 
L 312.455284 151.92 
z
" style="fill:#6a00a8;fill-opacity:0.66;stroke:#6a00a8;stroke-opacity:0.66;"/>
    <path clip-path="url(#p547c7d0687)" d="M 316.151512 151.92 
L 316.151512 97.56 
L 319.744655 97.56 
L 319.744655 151.92 
L 316.151512 151.92 
z
" style="fill:#6a00a8;fill-opacity:0.66;stroke:#6a00a8;stroke-opacity:0.66;"/>
    <path clip-path="url(#p547c7d0687)" d="M 319.84774 151.92 
L 319.84774 97.56 
L 323.462104 97.56 
L 323.462104 151.92 
L 319.84774 151.92 
z
" style="fill:#6a00a8;fill-opacity:0.66;stroke:#6a00a8;stroke-opacity:0.66;"/>
    <path clip-path="url(#p547c7d0687)" d="M 323.543968 151.92 
L 323.543968 97.56 
L 327.153552 97.56 
L 327.153552 151.92 
L 323.543968 151.92 
z
" style="fill:#6a00a8;fill-opacity:0.66;stroke:#6a00a8;stroke-opacity:0.66;"/>
    <path clip-path="url(#p547c7d0687)" d="M 327.240196 151.92 
L 327.240196 97.56 
L 330.835793 97.56 
L 330.835793 151.92 
L 327.240196 151.92 
z
" style="fill:#6a00a8;fill-opacity:0.66;stroke:#6a00a8;stroke-opacity:0.66;"/>
    <path clip-path="url(#p547c7d0687)" d="M 330.936425 151.92 
L 330.936425 97.56 
L 334.511252 97.56 
L 334.511252 151.92 
L 330.936425 151.92 
z
" style="fill:#6a00a8;fill-opacity:0.66;stroke:#6a00a8;stroke-opacity:0.66;"/>
    <path clip-path="url(#p547c7d0687)" d="M 335.55671 151.92 
L 335.55671 97.56 
L 339.170016 97.56 
L 339.170016 151.92 
L 335.55671 151.92 
z
" style="fill:#6a00a8;fill-opacity:0.66;stroke:#6a00a8;stroke-opacity:0.66;"/>
    <path clip-path="url(#p547c7d0687)" d="M 339.252938 151.92 
L 339.252938 97.56 
L 342.865539 97.56 
L 342.865539 151.92 
L 339.252938 151.92 
z
" style="fill:#6a00a8;fill-opacity:0.66;stroke:#6a00a8;stroke-opacity:0.66;"/>
    <path clip-path="url(#p547c7d0687)" d="M 342.949166 151.92 
L 342.949166 97.56 
L 346.537219 97.56 
L 346.537219 151.92 
L 342.949166 151.92 
z
" style="fill:#6a00a8;fill-opacity:0.66;stroke:#6a00a8;stroke-opacity:0.66;"/>
    <path clip-path="url(#p547c7d0687)" d="M 346.645394 151.92 
L 346.645394 97.56 
L 350.232545 97.56 
L 350.232545 151.92 
L 346.645394 151.92 
z
" style="fill:#6a00a8;fill-opacity:0.66;stroke:#6a00a8;stroke-opacity:0.66;"/>
    <path clip-path="url(#p547c7d0687)" d="M 350.341623 151.92 
L 350.341623 97.56 
L 353.951756 97.56 
L 353.951756 151.92 
L 350.341623 151.92 
z
" style="fill:#6a00a8;fill-opacity:0.66;stroke:#6a00a8;stroke-opacity:0.66;"/>
    <path clip-path="url(#p547c7d0687)" d="M 354.037851 151.92 
L 354.037851 97.56 
L 357.65808 97.56 
L 357.65808 151.92 
L 354.037851 151.92 
z
" style="fill:#6a00a8;fill-opacity:0.66;stroke:#6a00a8;stroke-opacity:0.66;"/>
    <path clip-path="url(#p547c7d0687)" d="M 540.697374 151.92 
L 540.697374 97.56 
L 544.314473 97.56 
L 544.314473 151.92 
L 540.697374 151.92 
z
" style="fill:#6a00a8;fill-opacity:0.66;stroke:#6a00a8;stroke-opacity:0.66;"/>
    <path clip-path="url(#p547c7d0687)" d="M 545.317659 151.92 
L 545.317659 97.56 
L 548.93253 97.56 
L 548.93253 151.92 
L 545.317659 151.92 
z
" style="fill:#6a00a8;fill-opacity:0.66;stroke:#6a00a8;stroke-opacity:0.66;"/>
    <path clip-path="url(#p547c7d0687)" d="M 549.013887 151.92 
L 549.013887 97.56 
L 552.593198 97.56 
L 552.593198 151.92 
L 549.013887 151.92 
z
" style="fill:#6a00a8;fill-opacity:0.66;stroke:#6a00a8;stroke-opacity:0.66;"/>
    <path clip-path="url(#p547c7d0687)" d="M 552.710115 151.92 
L 552.710115 97.56 
L 556.321377 97.56 
L 556.321377 151.92 
L 552.710115 151.92 
z
" style="fill:#6a00a8;fill-opacity:0.66;stroke:#6a00a8;stroke-opacity:0.66;"/>
    <path clip-path="url(#p547c7d0687)" d="M 556.406344 151.92 
L 556.406344 97.56 
L 559.993156 97.56 
L 559.993156 151.92 
L 556.406344 151.92 
z
" style="fill:#6a00a8;fill-opacity:0.66;stroke:#6a00a8;stroke-opacity:0.66;"/>
    <path clip-path="url(#p547c7d0687)" d="M 560.102572 151.92 
L 560.102572 97.56 
L 563.684195 97.56 
L 563.684195 151.92 
L 560.102572 151.92 
z
" style="fill:#6a00a8;fill-opacity:0.66;stroke:#6a00a8;stroke-opacity:0.66;"/>
    <path clip-path="url(#p547c7d0687)" d="M 563.7988 151.92 
L 563.7988 97.56 
L 567.415476 97.56 
L 567.415476 151.92 
L 563.7988 151.92 
z
" style="fill:#6a00a8;fill-opacity:0.66;stroke:#6a00a8;stroke-opacity:0.66;"/>
    <path clip-path="url(#p547c7d0687)" d="M 568.419085 151.92 
L 568.419085 97.56 
L 572.008182 97.56 
L 572.008182 151.92 
L 568.419085 151.92 
z
" style="fill:#6a00a8;fill-opacity:0.66;stroke:#6a00a8;stroke-opacity:0.66;"/>
    <path clip-path="url(#p547c7d0687)" d="M 572.115313 151.92 
L 572.115313 97.56 
L 575.727562 97.56 
L 575.727562 151.92 
L 572.115313 151.92 
z
" style="fill:#6a00a8;fill-opacity:0.66;stroke:#6a00a8;stroke-opacity:0.66;"/>
    <path clip-path="url(#p547c7d0687)" d="M 575.811541 151.92 
L 575.811541 97.56 
L 579.42661 97.56 
L 579.42661 151.92 
L 575.811541 151.92 
z
" style="fill:#6a00a8;fill-opacity:0.66;stroke:#6a00a8;stroke-opacity:0.66;"/>
    <path clip-path="url(#p547c7d0687)" d="M 579.50777 151.92 
L 579.50777 97.56 
L 583.122641 97.56 
L 583.122641 151.92 
L 579.50777 151.92 
z
" style="fill:#6a00a8;fill-opacity:0.66;stroke:#6a00a8;stroke-opacity:0.66;"/>
    <path clip-path="url(#p547c7d0687)" d="M 583.203998 151.92 
L 583.203998 97.56 
L 586.815175 97.56 
L 586.815175 151.92 
L 583.203998 151.92 
z
" style="fill:#6a00a8;fill-opacity:0.66;stroke:#6a00a8;stroke-opacity:0.66;"/>
    <path clip-path="url(#p547c7d0687)" d="M 587.824283 151.92 
L 587.824283 97.56 
L 591.411321 97.56 
L 591.411321 151.92 
L 587.824283 151.92 
z
" style="fill:#6a00a8;fill-opacity:0.66;stroke:#6a00a8;stroke-opacity:0.66;"/>
    <path clip-path="url(#p547c7d0687)" d="M 591.520511 151.92 
L 591.520511 97.56 
L 595.10989 97.56 
L 595.10989 151.92 
L 591.520511 151.92 
z
" style="fill:#6a00a8;fill-opacity:0.66;stroke:#6a00a8;stroke-opacity:0.66;"/>
    <path clip-path="url(#p547c7d0687)" d="M 595.216739 151.92 
L 595.216739 97.56 
L 598.805949 97.56 
L 598.805949 151.92 
L 595.216739 151.92 
z
" style="fill:#6a00a8;fill-opacity:0.66;stroke:#6a00a8;stroke-opacity:0.66;"/>
    <path clip-path="url(#p547c7d0687)" d="M 598.912968 151.92 
L 598.912968 97.56 
L 602.490615 97.56 
L 602.490615 151.92 
L 598.912968 151.92 
z
" style="fill:#6a00a8;fill-opacity:0.66;stroke:#6a00a8;stroke-opacity:0.66;"/>
    <path clip-path="url(#p547c7d0687)" d="M 602.609196 151.92 
L 602.609196 97.56 
L 606.23326 97.56 
L 606.23326 151.92 
L 602.609196 151.92 
z
" style="fill:#6a00a8;fill-opacity:0.66;stroke:#6a00a8;stroke-opacity:0.66;"/>
    <path clip-path="url(#p547c7d0687)" d="M 606.305424 151.92 
L 606.305424 97.56 
L 609.914373 97.56 
L 609.914373 151.92 
L 606.305424 151.92 
z
" style="fill:#6a00a8;fill-opacity:0.66;stroke:#6a00a8;stroke-opacity:0.66;"/>
    <path clip-path="url(#p547c7d0687)" d="M 610.925709 151.92 
L 610.925709 97.56 
L 614.546587 97.56 
L 614.546587 151.92 
L 610.925709 151.92 
z
" style="fill:#6a00a8;fill-opacity:0.66;stroke:#6a00a8;stroke-opacity:0.66;"/>
    <path clip-path="url(#p547c7d0687)" d="M 614.621937 151.92 
L 614.621937 97.56 
L 618.210667 97.56 
L 618.210667 151.92 
L 614.621937 151.92 
z
" style="fill:#6a00a8;fill-opacity:0.66;stroke:#6a00a8;stroke-opacity:0.66;"/>
    <path clip-path="url(#p547c7d0687)" d="M 618.318166 151.92 
L 618.318166 97.56 
L 621.93408 97.56 
L 621.93408 151.92 
L 618.318166 151.92 
z
" style="fill:#6a00a8;fill-opacity:0.66;stroke:#6a00a8;stroke-opacity:0.66;"/>
    <path clip-path="url(#p547c7d0687)" d="M 622.014394 151.92 
L 622.014394 97.56 
L 625.628757 97.56 
L 625.628757 151.92 
L 622.014394 151.92 
z
" style="fill:#6a00a8;fill-opacity:0.66;stroke:#6a00a8;stroke-opacity:0.66;"/>
    <path clip-path="url(#p547c7d0687)" d="M 625.710622 151.92 
L 625.710622 97.56 
L 629.321968 97.56 
L 629.321968 151.92 
L 625.710622 151.92 
z
" style="fill:#6a00a8;fill-opacity:0.66;stroke:#6a00a8;stroke-opacity:0.66;"/>
    <path clip-path="url(#p547c7d0687)" d="M 630.330907 151.92 
L 630.330907 97.56 
L 633.919355 97.56 
L 633.919355 151.92 
L 630.330907 151.92 
z
" style="fill:#6a00a8;fill-opacity:0.66;stroke:#6a00a8;stroke-opacity:0.66;"/>
    <path clip-path="url(#p547c7d0687)" d="M 634.027135 151.92 
L 634.027135 97.56 
L 637.604021 97.56 
L 637.604021 151.92 
L 634.027135 151.92 
z
" style="fill:#6a00a8;fill-opacity:0.66;stroke:#6a00a8;stroke-opacity:0.66;"/>
    <path clip-path="url(#p547c7d0687)" d="M 637.723363 151.92 
L 637.723363 97.56 
L 641.312657 97.56 
L 641.312657 151.92 
L 637.723363 151.92 
z
" style="fill:#6a00a8;fill-opacity:0.66;stroke:#6a00a8;stroke-opacity:0.66;"/>
    <path clip-path="url(#p547c7d0687)" d="M 641.419592 151.92 
L 641.419592 97.56 
L 645.003809 97.56 
L 645.003809 151.92 
L 641.419592 151.92 
z
" style="fill:#6a00a8;fill-opacity:0.66;stroke:#6a00a8;stroke-opacity:0.66;"/>
    <path clip-path="url(#p547c7d0687)" d="M 645.11582 151.92 
L 645.11582 97.56 
L 648.727392 97.56 
L 648.727392 151.92 
L 645.11582 151.92 
z
" style="fill:#6a00a8;fill-opacity:0.66;stroke:#6a00a8;stroke-opacity:0.66;"/>
    <path clip-path="url(#p547c7d0687)" d="M 649.736105 151.92 
L 649.736105 97.56 
L 653.353035 97.56 
L 653.353035 151.92 
L 649.736105 151.92 
z
" style="fill:#6a00a8;fill-opacity:0.66;stroke:#6a00a8;stroke-opacity:0.66;"/>
    <path clip-path="url(#p547c7d0687)" d="M 653.432333 151.92 
L 653.432333 97.56 
L 657.019089 97.56 
L 657.019089 151.92 
L 653.432333 151.92 
z
" style="fill:#6a00a8;fill-opacity:0.66;stroke:#6a00a8;stroke-opacity:0.66;"/>
    <path clip-path="url(#p547c7d0687)" d="M 657.128561 151.92 
L 657.128561 97.56 
L 660.724567 97.56 
L 660.724567 151.92 
L 657.128561 151.92 
z
" style="fill:#6a00a8;fill-opacity:0.66;stroke:#6a00a8;stroke-opacity:0.66;"/>
    <path clip-path="url(#p547c7d0687)" d="M 660.82479 151.92 
L 660.82479 97.56 
L 664.436756 97.56 
L 664.436756 151.92 
L 660.82479 151.92 
z
" style="fill:#6a00a8;fill-opacity:0.66;stroke:#6a00a8;stroke-opacity:0.66;"/>
    <path clip-path="url(#p547c7d0687)" d="M 664.521018 151.92 
L 664.521018 97.56 
L 668.133266 97.56 
L 668.133266 151.92 
L 664.521018 151.92 
z
" style="fill:#6a00a8;fill-opacity:0.66;stroke:#6a00a8;stroke-opacity:0.66;"/>
    <path clip-path="url(#p547c7d0687)" d="M 668.217246 151.92 
L 668.217246 97.56 
L 671.794414 97.56 
L 671.794414 151.92 
L 668.217246 151.92 
z
" style="fill:#6a00a8;fill-opacity:0.66;stroke:#6a00a8;stroke-opacity:0.66;"/>
    <path clip-path="url(#p547c7d0687)" d="M 672.837531 151.92 
L 672.837531 97.56 
L 676.424795 97.56 
L 676.424795 151.92 
L 672.837531 151.92 
z
" style="fill:#6a00a8;fill-opacity:0.66;stroke:#6a00a8;stroke-opacity:0.66;"/>
    <path clip-path="url(#p547c7d0687)" d="M 676.533759 151.92 
L 676.533759 97.56 
L 680.122207 97.56 
L 680.122207 151.92 
L 676.533759 151.92 
z
" style="fill:#6a00a8;fill-opacity:0.66;stroke:#6a00a8;stroke-opacity:0.66;"/>
    <path clip-path="url(#p547c7d0687)" d="M 680.229988 151.92 
L 680.229988 97.56 
L 683.841559 97.56 
L 683.841559 151.92 
L 680.229988 151.92 
z
" style="fill:#6a00a8;fill-opacity:0.66;stroke:#6a00a8;stroke-opacity:0.66;"/>
    <path clip-path="url(#p547c7d0687)" d="M 683.926216 151.92 
L 683.926216 97.56 
L 687.540608 97.56 
L 687.540608 151.92 
L 683.926216 151.92 
z
" style="fill:#6a00a8;fill-opacity:0.66;stroke:#6a00a8;stroke-opacity:0.66;"/>
    <path clip-path="url(#p547c7d0687)" d="M 687.622444 151.92 
L 687.622444 97.56 
L 691.234749 97.56 
L 691.234749 151.92 
L 687.622444 151.92 
z
" style="fill:#6a00a8;fill-opacity:0.66;stroke:#6a00a8;stroke-opacity:0.66;"/>
    <path clip-path="url(#p547c7d0687)" d="M 692.242729 151.92 
L 692.242729 97.56 
L 695.851312 97.56 
L 695.851312 151.92 
L 692.242729 151.92 
z
" style="fill:#6a00a8;fill-opacity:0.66;stroke:#6a00a8;stroke-opacity:0.66;"/>
    <path clip-path="url(#p547c7d0687)" d="M 695.938957 151.92 
L 695.938957 97.56 
L 699.552898 97.56 
L 699.552898 151.92 
L 695.938957 151.92 
z
" style="fill:#6a00a8;fill-opacity:0.66;stroke:#6a00a8;stroke-opacity:0.66;"/>
    <path clip-path="url(#p547c7d0687)" d="M 699.635185 151.92 
L 699.635185 97.56 
L 703.249972 97.56 
L 703.249972 151.92 
L 699.635185 151.92 
z
" style="fill:#6a00a8;fill-opacity:0.66;stroke:#6a00a8;stroke-opacity:0.66;"/>
    <path clip-path="url(#p547c7d0687)" d="M 703.331414 151.92 
L 703.331414 97.56 
L 706.945636 97.56 
L 706.945636 151.92 
L 703.331414 151.92 
z
" style="fill:#6a00a8;fill-opacity:0.66;stroke:#6a00a8;stroke-opacity:0.66;"/>
    <path clip-path="url(#p547c7d0687)" d="M 707.027642 151.92 
L 707.027642 97.56 
L 710.637522 97.56 
L 710.637522 151.92 
L 707.027642 151.92 
z
" style="fill:#6a00a8;fill-opacity:0.66;stroke:#6a00a8;stroke-opacity:0.66;"/>
    <path clip-path="url(#p547c7d0687)" d="M 711.647927 151.92 
L 711.647927 97.56 
L 715.259612 97.56 
L 715.259612 151.92 
L 711.647927 151.92 
z
" style="fill:#6a00a8;fill-opacity:0.66;stroke:#6a00a8;stroke-opacity:0.66;"/>
    <path clip-path="url(#p547c7d0687)" d="M 715.344155 151.92 
L 715.344155 97.56 
L 718.933731 97.56 
L 718.933731 151.92 
L 715.344155 151.92 
z
" style="fill:#6a00a8;fill-opacity:0.66;stroke:#6a00a8;stroke-opacity:0.66;"/>
    <path clip-path="url(#p547c7d0687)" d="M 719.040383 151.92 
L 719.040383 97.56 
L 722.628042 97.56 
L 722.628042 151.92 
L 719.040383 151.92 
z
" style="fill:#6a00a8;fill-opacity:0.66;stroke:#6a00a8;stroke-opacity:0.66;"/>
    <path clip-path="url(#p547c7d0687)" d="M 722.736612 151.92 
L 722.736612 97.56 
L 726.315415 97.56 
L 726.315415 151.92 
L 722.736612 151.92 
z
" style="fill:#6a00a8;fill-opacity:0.66;stroke:#6a00a8;stroke-opacity:0.66;"/>
    <path clip-path="url(#p547c7d0687)" d="M 726.43284 151.92 
L 726.43284 97.56 
L 730.020667 97.56 
L 730.020667 151.92 
L 726.43284 151.92 
z
" style="fill:#6a00a8;fill-opacity:0.66;stroke:#6a00a8;stroke-opacity:0.66;"/>
    <path clip-path="url(#p547c7d0687)" d="M 730.129068 151.92 
L 730.129068 97.56 
L 733.984175 97.56 
L 733.984175 151.92 
L 730.129068 151.92 
z
" style="fill:#6a00a8;fill-opacity:0.66;stroke:#6a00a8;stroke-opacity:0.66;"/>
   </g>
   <g id="matplotlib.axis_3">
    <g id="xtick_10">
     <g id="line2d_19">
      <path clip-path="url(#p547c7d0687)" d="M 155.365586 151.92 
L 155.365586 97.56 
" style="fill:none;stroke:#000000;stroke-dasharray:0.8,1.32;stroke-dashoffset:0;stroke-width:0.8;"/>
     </g>
     <g id="line2d_20">
      <g>
       <use style="stroke:#000000;stroke-width:0.8;" x="155.365586" xlink:href="#mcd4be8ce71" y="151.92"/>
      </g>
     </g>
    </g>
    <g id="xtick_11">
     <g id="line2d_21">
      <path clip-path="url(#p547c7d0687)" d="M 273.644888 151.92 
L 273.644888 97.56 
" style="fill:none;stroke:#000000;stroke-dasharray:0.8,1.32;stroke-dashoffset:0;stroke-width:0.8;"/>
     </g>
     <g id="line2d_22">
      <g>
       <use style="stroke:#000000;stroke-width:0.8;" x="273.644888" xlink:href="#mcd4be8ce71" y="151.92"/>
      </g>
     </g>
    </g>
    <g id="xtick_12">
     <g id="line2d_23">
      <path clip-path="url(#p547c7d0687)" d="M 391.92419 151.92 
L 391.92419 97.56 
" style="fill:none;stroke:#000000;stroke-dasharray:0.8,1.32;stroke-dashoffset:0;stroke-width:0.8;"/>
     </g>
     <g id="line2d_24">
      <g>
       <use style="stroke:#000000;stroke-width:0.8;" x="391.92419" xlink:href="#mcd4be8ce71" y="151.92"/>
      </g>
     </g>
    </g>
    <g id="xtick_13">
     <g id="line2d_25">
      <path clip-path="url(#p547c7d0687)" d="M 510.203491 151.92 
L 510.203491 97.56 
" style="fill:none;stroke:#000000;stroke-dasharray:0.8,1.32;stroke-dashoffset:0;stroke-width:0.8;"/>
     </g>
     <g id="line2d_26">
      <g>
       <use style="stroke:#000000;stroke-width:0.8;" x="510.203491" xlink:href="#mcd4be8ce71" y="151.92"/>
      </g>
     </g>
    </g>
    <g id="xtick_14">
     <g id="line2d_27">
      <path clip-path="url(#p547c7d0687)" d="M 628.482793 151.92 
L 628.482793 97.56 
" style="fill:none;stroke:#000000;stroke-dasharray:0.8,1.32;stroke-dashoffset:0;stroke-width:0.8;"/>
     </g>
     <g id="line2d_28">
      <g>
       <use style="stroke:#000000;stroke-width:0.8;" x="628.482793" xlink:href="#mcd4be8ce71" y="151.92"/>
      </g>
     </g>
    </g>
    <g id="xtick_15">
     <g id="line2d_29">
      <path clip-path="url(#p547c7d0687)" d="M 746.762095 151.92 
L 746.762095 97.56 
" style="fill:none;stroke:#000000;stroke-dasharray:0.8,1.32;stroke-dashoffset:0;stroke-width:0.8;"/>
     </g>
     <g id="line2d_30">
      <g>
       <use style="stroke:#000000;stroke-width:0.8;" x="746.762095" xlink:href="#mcd4be8ce71" y="151.92"/>
      </g>
     </g>
    </g>
    <g id="xtick_16">
     <g id="line2d_31">
      <path clip-path="url(#p547c7d0687)" d="M 865.041397 151.92 
L 865.041397 97.56 
" style="fill:none;stroke:#000000;stroke-dasharray:0.8,1.32;stroke-dashoffset:0;stroke-width:0.8;"/>
     </g>
     <g id="line2d_32">
      <g>
       <use style="stroke:#000000;stroke-width:0.8;" x="865.041397" xlink:href="#mcd4be8ce71" y="151.92"/>
      </g>
     </g>
    </g>
    <g id="xtick_17">
     <g id="line2d_33">
      <path clip-path="url(#p547c7d0687)" d="M 983.320698 151.92 
L 983.320698 97.56 
" style="fill:none;stroke:#000000;stroke-dasharray:0.8,1.32;stroke-dashoffset:0;stroke-width:0.8;"/>
     </g>
     <g id="line2d_34">
      <g>
       <use style="stroke:#000000;stroke-width:0.8;" x="983.320698" xlink:href="#mcd4be8ce71" y="151.92"/>
      </g>
     </g>
    </g>
    <g id="xtick_18">
     <g id="line2d_35">
      <path clip-path="url(#p547c7d0687)" d="M 1101.6 151.92 
L 1101.6 97.56 
" style="fill:none;stroke:#000000;stroke-dasharray:0.8,1.32;stroke-dashoffset:0;stroke-width:0.8;"/>
     </g>
     <g id="line2d_36">
      <g>
       <use style="stroke:#000000;stroke-width:0.8;" x="1101.6" xlink:href="#mcd4be8ce71" y="151.92"/>
      </g>
     </g>
    </g>
    <g id="text_3">
     <!-- time (s) -->
     <g transform="translate(607.908594 163.518437)scale(0.1 -0.1)">
      <use xlink:href="#DejaVuSans-116"/>
      <use x="39.208984" xlink:href="#DejaVuSans-105"/>
      <use x="66.992188" xlink:href="#DejaVuSans-109"/>
      <use x="164.404297" xlink:href="#DejaVuSans-101"/>
      <use x="225.927734" xlink:href="#DejaVuSans-32"/>
      <use x="257.714844" xlink:href="#DejaVuSans-40"/>
      <use x="296.728516" xlink:href="#DejaVuSans-115"/>
      <use x="348.828125" xlink:href="#DejaVuSans-41"/>
     </g>
    </g>
   </g>
   <g id="matplotlib.axis_4">
    <g id="text_4">
     <!-- Read -->
     <defs>
      <path d="M 44.390625 34.1875 
Q 47.5625 33.109375 50.5625 29.59375 
Q 53.5625 26.078125 56.59375 19.921875 
L 66.609375 0 
L 56 0 
L 46.6875 18.703125 
Q 43.0625 26.03125 39.671875 28.421875 
Q 36.28125 30.8125 30.421875 30.8125 
L 19.671875 30.8125 
L 19.671875 0 
L 9.8125 0 
L 9.8125 72.90625 
L 32.078125 72.90625 
Q 44.578125 72.90625 50.734375 67.671875 
Q 56.890625 62.453125 56.890625 51.90625 
Q 56.890625 45.015625 53.6875 40.46875 
Q 50.484375 35.9375 44.390625 34.1875 
z
M 19.671875 64.796875 
L 19.671875 38.921875 
L 32.078125 38.921875 
Q 39.203125 38.921875 42.84375 42.21875 
Q 46.484375 45.515625 46.484375 51.90625 
Q 46.484375 58.296875 42.84375 61.546875 
Q 39.203125 64.796875 32.078125 64.796875 
z
" id="DejaVuSans-82"/>
      <path d="M 34.28125 27.484375 
Q 23.390625 27.484375 19.1875 25 
Q 14.984375 22.515625 14.984375 16.5 
Q 14.984375 11.71875 18.140625 8.90625 
Q 21.296875 6.109375 26.703125 6.109375 
Q 34.1875 6.109375 38.703125 11.40625 
Q 43.21875 16.703125 43.21875 25.484375 
L 43.21875 27.484375 
z
M 52.203125 31.203125 
L 52.203125 0 
L 43.21875 0 
L 43.21875 8.296875 
Q 40.140625 3.328125 35.546875 0.953125 
Q 30.953125 -1.421875 24.3125 -1.421875 
Q 15.921875 -1.421875 10.953125 3.296875 
Q 6 8.015625 6 15.921875 
Q 6 25.140625 12.171875 29.828125 
Q 18.359375 34.515625 30.609375 34.515625 
L 43.21875 34.515625 
L 43.21875 35.40625 
Q 43.21875 41.609375 39.140625 45 
Q 35.0625 48.390625 27.6875 48.390625 
Q 23 48.390625 18.546875 47.265625 
Q 14.109375 46.140625 10.015625 43.890625 
L 10.015625 52.203125 
Q 14.9375 54.109375 19.578125 55.046875 
Q 24.21875 56 28.609375 56 
Q 40.484375 56 46.34375 49.84375 
Q 52.203125 43.703125 52.203125 31.203125 
z
" id="DejaVuSans-97"/>
      <path d="M 45.40625 46.390625 
L 45.40625 75.984375 
L 54.390625 75.984375 
L 54.390625 0 
L 45.40625 0 
L 45.40625 8.203125 
Q 42.578125 3.328125 38.25 0.953125 
Q 33.9375 -1.421875 27.875 -1.421875 
Q 17.96875 -1.421875 11.734375 6.484375 
Q 5.515625 14.40625 5.515625 27.296875 
Q 5.515625 40.1875 11.734375 48.09375 
Q 17.96875 56 27.875 56 
Q 33.9375 56 38.25 53.625 
Q 42.578125 51.265625 45.40625 46.390625 
z
M 14.796875 27.296875 
Q 14.796875 17.390625 18.875 11.75 
Q 22.953125 6.109375 30.078125 6.109375 
Q 37.203125 6.109375 41.296875 11.75 
Q 45.40625 17.390625 45.40625 27.296875 
Q 45.40625 37.203125 41.296875 42.84375 
Q 37.203125 48.484375 30.078125 48.484375 
Q 22.953125 48.484375 18.875 42.84375 
Q 14.796875 37.203125 14.796875 27.296875 
z
" id="DejaVuSans-100"/>
     </defs>
     <g transform="translate(146.920312 137.525937)rotate(-90)scale(0.1 -0.1)">
      <use xlink:href="#DejaVuSans-82"/>
      <use x="69.419922" xlink:href="#DejaVuSans-101"/>
      <use x="130.943359" xlink:href="#DejaVuSans-97"/>
      <use x="192.222656" xlink:href="#DejaVuSans-100"/>
     </g>
    </g>
   </g>
   <g id="patch_8">
    <path d="M 153 151.92 
L 153 97.56 
" style="fill:none;stroke:#000000;stroke-linecap:square;stroke-linejoin:miter;stroke-width:0.8;"/>
   </g>
   <g id="patch_9">
    <path d="M 1101.6 151.92 
L 1101.6 97.56 
" style="fill:none;stroke:#000000;stroke-linecap:square;stroke-linejoin:miter;stroke-width:0.8;"/>
   </g>
   <g id="patch_10">
    <path d="M 153 151.92 
L 1101.6 151.92 
" style="fill:none;stroke:#000000;stroke-linecap:square;stroke-linejoin:miter;stroke-width:0.8;"/>
   </g>
   <g id="patch_11">
    <path d="M 153 97.56 
L 1101.6 97.56 
" style="fill:none;stroke:#000000;stroke-linecap:square;stroke-linejoin:miter;stroke-width:0.8;"/>
   </g>
  </g>
  <g id="axes_3">
   <g id="patch_12">
    <path d="M 153 206.28 
L 1101.6 206.28 
L 1101.6 151.92 
L 153 151.92 
z
" style="fill:#ffffff;"/>
   </g>
   <g id="BrokenBarHCollection_3">
    <path clip-path="url(#pf66fdb4ceb)" d="M 358.658136 206.28 
L 358.658136 151.92 
L 359.885145 151.92 
L 359.885145 206.28 
L 358.658136 206.28 
z
" style="fill:#b12a90;fill-opacity:0.66;stroke:#b12a90;stroke-opacity:0.66;"/>
    <path clip-path="url(#pf66fdb4ceb)" d="M 734.749353 206.28 
L 734.749353 151.92 
L 735.978365 151.92 
L 735.978365 206.28 
L 734.749353 206.28 
z
" style="fill:#b12a90;fill-opacity:0.66;stroke:#b12a90;stroke-opacity:0.66;"/>
   </g>
   <g id="matplotlib.axis_5">
    <g id="xtick_19">
     <g id="line2d_37">
      <path clip-path="url(#pf66fdb4ceb)" d="M 155.365586 206.28 
L 155.365586 151.92 
" style="fill:none;stroke:#000000;stroke-dasharray:0.8,1.32;stroke-dashoffset:0;stroke-width:0.8;"/>
     </g>
     <g id="line2d_38">
      <g>
       <use style="stroke:#000000;stroke-width:0.8;" x="155.365586" xlink:href="#mcd4be8ce71" y="206.28"/>
      </g>
     </g>
    </g>
    <g id="xtick_20">
     <g id="line2d_39">
      <path clip-path="url(#pf66fdb4ceb)" d="M 273.644888 206.28 
L 273.644888 151.92 
" style="fill:none;stroke:#000000;stroke-dasharray:0.8,1.32;stroke-dashoffset:0;stroke-width:0.8;"/>
     </g>
     <g id="line2d_40">
      <g>
       <use style="stroke:#000000;stroke-width:0.8;" x="273.644888" xlink:href="#mcd4be8ce71" y="206.28"/>
      </g>
     </g>
    </g>
    <g id="xtick_21">
     <g id="line2d_41">
      <path clip-path="url(#pf66fdb4ceb)" d="M 391.92419 206.28 
L 391.92419 151.92 
" style="fill:none;stroke:#000000;stroke-dasharray:0.8,1.32;stroke-dashoffset:0;stroke-width:0.8;"/>
     </g>
     <g id="line2d_42">
      <g>
       <use style="stroke:#000000;stroke-width:0.8;" x="391.92419" xlink:href="#mcd4be8ce71" y="206.28"/>
      </g>
     </g>
    </g>
    <g id="xtick_22">
     <g id="line2d_43">
      <path clip-path="url(#pf66fdb4ceb)" d="M 510.203491 206.28 
L 510.203491 151.92 
" style="fill:none;stroke:#000000;stroke-dasharray:0.8,1.32;stroke-dashoffset:0;stroke-width:0.8;"/>
     </g>
     <g id="line2d_44">
      <g>
       <use style="stroke:#000000;stroke-width:0.8;" x="510.203491" xlink:href="#mcd4be8ce71" y="206.28"/>
      </g>
     </g>
    </g>
    <g id="xtick_23">
     <g id="line2d_45">
      <path clip-path="url(#pf66fdb4ceb)" d="M 628.482793 206.28 
L 628.482793 151.92 
" style="fill:none;stroke:#000000;stroke-dasharray:0.8,1.32;stroke-dashoffset:0;stroke-width:0.8;"/>
     </g>
     <g id="line2d_46">
      <g>
       <use style="stroke:#000000;stroke-width:0.8;" x="628.482793" xlink:href="#mcd4be8ce71" y="206.28"/>
      </g>
     </g>
    </g>
    <g id="xtick_24">
     <g id="line2d_47">
      <path clip-path="url(#pf66fdb4ceb)" d="M 746.762095 206.28 
L 746.762095 151.92 
" style="fill:none;stroke:#000000;stroke-dasharray:0.8,1.32;stroke-dashoffset:0;stroke-width:0.8;"/>
     </g>
     <g id="line2d_48">
      <g>
       <use style="stroke:#000000;stroke-width:0.8;" x="746.762095" xlink:href="#mcd4be8ce71" y="206.28"/>
      </g>
     </g>
    </g>
    <g id="xtick_25">
     <g id="line2d_49">
      <path clip-path="url(#pf66fdb4ceb)" d="M 865.041397 206.28 
L 865.041397 151.92 
" style="fill:none;stroke:#000000;stroke-dasharray:0.8,1.32;stroke-dashoffset:0;stroke-width:0.8;"/>
     </g>
     <g id="line2d_50">
      <g>
       <use style="stroke:#000000;stroke-width:0.8;" x="865.041397" xlink:href="#mcd4be8ce71" y="206.28"/>
      </g>
     </g>
    </g>
    <g id="xtick_26">
     <g id="line2d_51">
      <path clip-path="url(#pf66fdb4ceb)" d="M 983.320698 206.28 
L 983.320698 151.92 
" style="fill:none;stroke:#000000;stroke-dasharray:0.8,1.32;stroke-dashoffset:0;stroke-width:0.8;"/>
     </g>
     <g id="line2d_52">
      <g>
       <use style="stroke:#000000;stroke-width:0.8;" x="983.320698" xlink:href="#mcd4be8ce71" y="206.28"/>
      </g>
     </g>
    </g>
    <g id="xtick_27">
     <g id="line2d_53">
      <path clip-path="url(#pf66fdb4ceb)" d="M 1101.6 206.28 
L 1101.6 151.92 
" style="fill:none;stroke:#000000;stroke-dasharray:0.8,1.32;stroke-dashoffset:0;stroke-width:0.8;"/>
     </g>
     <g id="line2d_54">
      <g>
       <use style="stroke:#000000;stroke-width:0.8;" x="1101.6" xlink:href="#mcd4be8ce71" y="206.28"/>
      </g>
     </g>
    </g>
    <g id="text_5">
     <!-- time (s) -->
     <g transform="translate(607.908594 217.878437)scale(0.1 -0.1)">
      <use xlink:href="#DejaVuSans-116"/>
      <use x="39.208984" xlink:href="#DejaVuSans-105"/>
      <use x="66.992188" xlink:href="#DejaVuSans-109"/>
      <use x="164.404297" xlink:href="#DejaVuSans-101"/>
      <use x="225.927734" xlink:href="#DejaVuSans-32"/>
      <use x="257.714844" xlink:href="#DejaVuSans-40"/>
      <use x="296.728516" xlink:href="#DejaVuSans-115"/>
      <use x="348.828125" xlink:href="#DejaVuSans-41"/>
     </g>
    </g>
   </g>
   <g id="matplotlib.axis_6">
    <g id="text_6">
     <!-- Map -->
     <defs>
      <path d="M 9.8125 72.90625 
L 24.515625 72.90625 
L 43.109375 23.296875 
L 61.8125 72.90625 
L 76.515625 72.90625 
L 76.515625 0 
L 66.890625 0 
L 66.890625 64.015625 
L 48.09375 14.015625 
L 38.1875 14.015625 
L 19.390625 64.015625 
L 19.390625 0 
L 9.8125 0 
z
" id="DejaVuSans-77"/>
     </defs>
     <g transform="translate(146.920312 189.652344)rotate(-90)scale(0.1 -0.1)">
      <use xlink:href="#DejaVuSans-77"/>
      <use x="86.279297" xlink:href="#DejaVuSans-97"/>
      <use x="147.558594" xlink:href="#DejaVuSans-112"/>
     </g>
    </g>
   </g>
   <g id="patch_13">
    <path d="M 153 206.28 
L 153 151.92 
" style="fill:none;stroke:#000000;stroke-linecap:square;stroke-linejoin:miter;stroke-width:0.8;"/>
   </g>
   <g id="patch_14">
    <path d="M 1101.6 206.28 
L 1101.6 151.92 
" style="fill:none;stroke:#000000;stroke-linecap:square;stroke-linejoin:miter;stroke-width:0.8;"/>
   </g>
   <g id="patch_15">
    <path d="M 153 206.28 
L 1101.6 206.28 
" style="fill:none;stroke:#000000;stroke-linecap:square;stroke-linejoin:miter;stroke-width:0.8;"/>
   </g>
   <g id="patch_16">
    <path d="M 153 151.92 
L 1101.6 151.92 
" style="fill:none;stroke:#000000;stroke-linecap:square;stroke-linejoin:miter;stroke-width:0.8;"/>
   </g>
  </g>
  <g id="axes_4">
   <g id="patch_17">
    <path d="M 153 260.64 
L 1101.6 260.64 
L 1101.6 206.28 
L 153 206.28 
z
" style="fill:#ffffff;"/>
   </g>
   <g id="BrokenBarHCollection_4">
    <path clip-path="url(#p55d6d1fd23)" d="M 361.430307 260.64 
L 361.430307 206.28 
L 363.861949 206.28 
L 363.861949 260.64 
L 361.430307 260.64 
z
" style="fill:#e16462;fill-opacity:0.66;stroke:#e16462;stroke-opacity:0.66;"/>
    <path clip-path="url(#p55d6d1fd23)" d="M 364.202478 260.64 
L 364.202478 206.28 
L 366.606865 206.28 
L 366.606865 260.64 
L 364.202478 260.64 
z
" style="fill:#e16462;fill-opacity:0.66;stroke:#e16462;stroke-opacity:0.66;"/>
    <path clip-path="url(#p55d6d1fd23)" d="M 367.898706 260.64 
L 367.898706 206.28 
L 370.300823 206.28 
L 370.300823 260.64 
L 367.898706 260.64 
z
" style="fill:#e16462;fill-opacity:0.66;stroke:#e16462;stroke-opacity:0.66;"/>
    <path clip-path="url(#p55d6d1fd23)" d="M 371.594935 260.64 
L 371.594935 206.28 
L 374.022981 206.28 
L 374.022981 260.64 
L 371.594935 260.64 
z
" style="fill:#e16462;fill-opacity:0.66;stroke:#e16462;stroke-opacity:0.66;"/>
    <path clip-path="url(#p55d6d1fd23)" d="M 374.367106 260.64 
L 374.367106 206.28 
L 376.807476 206.28 
L 376.807476 260.64 
L 374.367106 260.64 
z
" style="fill:#e16462;fill-opacity:0.66;stroke:#e16462;stroke-opacity:0.66;"/>
    <path clip-path="url(#p55d6d1fd23)" d="M 378.063334 260.64 
L 378.063334 206.28 
L 380.468708 206.28 
L 380.468708 260.64 
L 378.063334 260.64 
z
" style="fill:#e16462;fill-opacity:0.66;stroke:#e16462;stroke-opacity:0.66;"/>
    <path clip-path="url(#p55d6d1fd23)" d="M 381.759562 260.64 
L 381.759562 206.28 
L 384.155461 206.28 
L 384.155461 260.64 
L 381.759562 260.64 
z
" style="fill:#e16462;fill-opacity:0.66;stroke:#e16462;stroke-opacity:0.66;"/>
    <path clip-path="url(#p55d6d1fd23)" d="M 384.531733 260.64 
L 384.531733 206.28 
L 386.923557 206.28 
L 386.923557 260.64 
L 384.531733 260.64 
z
" style="fill:#e16462;fill-opacity:0.66;stroke:#e16462;stroke-opacity:0.66;"/>
    <path clip-path="url(#p55d6d1fd23)" d="M 388.227961 260.64 
L 388.227961 206.28 
L 390.632405 206.28 
L 390.632405 260.64 
L 388.227961 260.64 
z
" style="fill:#e16462;fill-opacity:0.66;stroke:#e16462;stroke-opacity:0.66;"/>
    <path clip-path="url(#p55d6d1fd23)" d="M 391.92419 260.64 
L 391.92419 206.28 
L 394.353956 206.28 
L 394.353956 260.64 
L 391.92419 260.64 
z
" style="fill:#e16462;fill-opacity:0.66;stroke:#e16462;stroke-opacity:0.66;"/>
    <path clip-path="url(#p55d6d1fd23)" d="M 394.696361 260.64 
L 394.696361 206.28 
L 397.0957 206.28 
L 397.0957 260.64 
L 394.696361 260.64 
z
" style="fill:#e16462;fill-opacity:0.66;stroke:#e16462;stroke-opacity:0.66;"/>
    <path clip-path="url(#p55d6d1fd23)" d="M 398.392589 260.64 
L 398.392589 206.28 
L 400.819592 206.28 
L 400.819592 260.64 
L 398.392589 260.64 
z
" style="fill:#e16462;fill-opacity:0.66;stroke:#e16462;stroke-opacity:0.66;"/>
    <path clip-path="url(#p55d6d1fd23)" d="M 402.088817 260.64 
L 402.088817 206.28 
L 404.493204 206.28 
L 404.493204 260.64 
L 402.088817 260.64 
z
" style="fill:#e16462;fill-opacity:0.66;stroke:#e16462;stroke-opacity:0.66;"/>
    <path clip-path="url(#p55d6d1fd23)" d="M 404.860988 260.64 
L 404.860988 206.28 
L 407.293575 206.28 
L 407.293575 260.64 
L 404.860988 260.64 
z
" style="fill:#e16462;fill-opacity:0.66;stroke:#e16462;stroke-opacity:0.66;"/>
    <path clip-path="url(#p55d6d1fd23)" d="M 408.557216 260.64 
L 408.557216 206.28 
L 410.980215 206.28 
L 410.980215 260.64 
L 408.557216 260.64 
z
" style="fill:#e16462;fill-opacity:0.66;stroke:#e16462;stroke-opacity:0.66;"/>
    <path clip-path="url(#p55d6d1fd23)" d="M 411.329387 260.64 
L 411.329387 206.28 
L 413.722917 206.28 
L 413.722917 260.64 
L 411.329387 260.64 
z
" style="fill:#e16462;fill-opacity:0.66;stroke:#e16462;stroke-opacity:0.66;"/>
    <path clip-path="url(#p55d6d1fd23)" d="M 415.025616 260.64 
L 415.025616 206.28 
L 417.429495 206.28 
L 417.429495 260.64 
L 415.025616 260.64 
z
" style="fill:#e16462;fill-opacity:0.66;stroke:#e16462;stroke-opacity:0.66;"/>
    <path clip-path="url(#p55d6d1fd23)" d="M 418.721844 260.64 
L 418.721844 206.28 
L 421.114189 206.28 
L 421.114189 260.64 
L 418.721844 260.64 
z
" style="fill:#e16462;fill-opacity:0.66;stroke:#e16462;stroke-opacity:0.66;"/>
    <path clip-path="url(#p55d6d1fd23)" d="M 421.494015 260.64 
L 421.494015 206.28 
L 423.927589 206.28 
L 423.927589 260.64 
L 421.494015 260.64 
z
" style="fill:#e16462;fill-opacity:0.66;stroke:#e16462;stroke-opacity:0.66;"/>
    <path clip-path="url(#p55d6d1fd23)" d="M 425.190243 260.64 
L 425.190243 206.28 
L 427.584704 206.28 
L 427.584704 260.64 
L 425.190243 260.64 
z
" style="fill:#e16462;fill-opacity:0.66;stroke:#e16462;stroke-opacity:0.66;"/>
    <path clip-path="url(#p55d6d1fd23)" d="M 428.886471 260.64 
L 428.886471 206.28 
L 431.291535 206.28 
L 431.291535 260.64 
L 428.886471 260.64 
z
" style="fill:#e16462;fill-opacity:0.66;stroke:#e16462;stroke-opacity:0.66;"/>
    <path clip-path="url(#p55d6d1fd23)" d="M 431.658642 260.64 
L 431.658642 206.28 
L 434.068669 206.28 
L 434.068669 260.64 
L 431.658642 260.64 
z
" style="fill:#e16462;fill-opacity:0.66;stroke:#e16462;stroke-opacity:0.66;"/>
    <path clip-path="url(#p55d6d1fd23)" d="M 435.354871 260.64 
L 435.354871 206.28 
L 437.75624 206.28 
L 437.75624 260.64 
L 435.354871 260.64 
z
" style="fill:#e16462;fill-opacity:0.66;stroke:#e16462;stroke-opacity:0.66;"/>
    <path clip-path="url(#p55d6d1fd23)" d="M 438.127042 260.64 
L 438.127042 206.28 
L 440.522828 206.28 
L 440.522828 260.64 
L 438.127042 260.64 
z
" style="fill:#e16462;fill-opacity:0.66;stroke:#e16462;stroke-opacity:0.66;"/>
    <path clip-path="url(#p55d6d1fd23)" d="M 441.82327 260.64 
L 441.82327 206.28 
L 444.254052 206.28 
L 444.254052 260.64 
L 441.82327 260.64 
z
" style="fill:#e16462;fill-opacity:0.66;stroke:#e16462;stroke-opacity:0.66;"/>
    <path clip-path="url(#p55d6d1fd23)" d="M 445.519498 260.64 
L 445.519498 206.28 
L 447.951634 206.28 
L 447.951634 260.64 
L 445.519498 260.64 
z
" style="fill:#e16462;fill-opacity:0.66;stroke:#e16462;stroke-opacity:0.66;"/>
    <path clip-path="url(#p55d6d1fd23)" d="M 449.215726 260.64 
L 449.215726 206.28 
L 451.628291 206.28 
L 451.628291 260.64 
L 449.215726 260.64 
z
" style="fill:#e16462;fill-opacity:0.66;stroke:#e16462;stroke-opacity:0.66;"/>
    <path clip-path="url(#p55d6d1fd23)" d="M 451.987897 260.64 
L 451.987897 206.28 
L 454.391044 206.28 
L 454.391044 260.64 
L 451.987897 260.64 
z
" style="fill:#e16462;fill-opacity:0.66;stroke:#e16462;stroke-opacity:0.66;"/>
    <path clip-path="url(#p55d6d1fd23)" d="M 455.684126 260.64 
L 455.684126 206.28 
L 458.11488 206.28 
L 458.11488 260.64 
L 455.684126 260.64 
z
" style="fill:#e16462;fill-opacity:0.66;stroke:#e16462;stroke-opacity:0.66;"/>
    <path clip-path="url(#p55d6d1fd23)" d="M 458.456297 260.64 
L 458.456297 206.28 
L 460.860458 206.28 
L 460.860458 260.64 
L 458.456297 260.64 
z
" style="fill:#e16462;fill-opacity:0.66;stroke:#e16462;stroke-opacity:0.66;"/>
    <path clip-path="url(#p55d6d1fd23)" d="M 462.152525 260.64 
L 462.152525 206.28 
L 464.551215 206.28 
L 464.551215 260.64 
L 462.152525 260.64 
z
" style="fill:#e16462;fill-opacity:0.66;stroke:#e16462;stroke-opacity:0.66;"/>
    <path clip-path="url(#p55d6d1fd23)" d="M 465.848753 260.64 
L 465.848753 206.28 
L 468.255058 206.28 
L 468.255058 260.64 
L 465.848753 260.64 
z
" style="fill:#e16462;fill-opacity:0.66;stroke:#e16462;stroke-opacity:0.66;"/>
    <path clip-path="url(#p55d6d1fd23)" d="M 468.620924 260.64 
L 468.620924 206.28 
L 471.049027 206.28 
L 471.049027 260.64 
L 468.620924 260.64 
z
" style="fill:#e16462;fill-opacity:0.66;stroke:#e16462;stroke-opacity:0.66;"/>
    <path clip-path="url(#p55d6d1fd23)" d="M 472.317152 260.64 
L 472.317152 206.28 
L 474.748837 206.28 
L 474.748837 260.64 
L 472.317152 260.64 
z
" style="fill:#e16462;fill-opacity:0.66;stroke:#e16462;stroke-opacity:0.66;"/>
    <path clip-path="url(#p55d6d1fd23)" d="M 476.013381 260.64 
L 476.013381 206.28 
L 478.414637 206.28 
L 478.414637 260.64 
L 476.013381 260.64 
z
" style="fill:#e16462;fill-opacity:0.66;stroke:#e16462;stroke-opacity:0.66;"/>
    <path clip-path="url(#p55d6d1fd23)" d="M 478.785552 260.64 
L 478.785552 206.28 
L 481.189572 206.28 
L 481.189572 260.64 
L 478.785552 260.64 
z
" style="fill:#e16462;fill-opacity:0.66;stroke:#e16462;stroke-opacity:0.66;"/>
    <path clip-path="url(#p55d6d1fd23)" d="M 482.48178 260.64 
L 482.48178 206.28 
L 484.885236 206.28 
L 484.885236 260.64 
L 482.48178 260.64 
z
" style="fill:#e16462;fill-opacity:0.66;stroke:#e16462;stroke-opacity:0.66;"/>
    <path clip-path="url(#p55d6d1fd23)" d="M 486.178008 260.64 
L 486.178008 206.28 
L 488.573286 206.28 
L 488.573286 260.64 
L 486.178008 260.64 
z
" style="fill:#e16462;fill-opacity:0.66;stroke:#e16462;stroke-opacity:0.66;"/>
    <path clip-path="url(#p55d6d1fd23)" d="M 489.874236 260.64 
L 489.874236 206.28 
L 492.277185 206.28 
L 492.277185 260.64 
L 489.874236 260.64 
z
" style="fill:#e16462;fill-opacity:0.66;stroke:#e16462;stroke-opacity:0.66;"/>
    <path clip-path="url(#p55d6d1fd23)" d="M 492.646407 260.64 
L 492.646407 206.28 
L 495.048087 206.28 
L 495.048087 260.64 
L 492.646407 260.64 
z
" style="fill:#e16462;fill-opacity:0.66;stroke:#e16462;stroke-opacity:0.66;"/>
    <path clip-path="url(#p55d6d1fd23)" d="M 496.342636 260.64 
L 496.342636 206.28 
L 498.735996 206.28 
L 498.735996 260.64 
L 496.342636 260.64 
z
" style="fill:#e16462;fill-opacity:0.66;stroke:#e16462;stroke-opacity:0.66;"/>
    <path clip-path="url(#p55d6d1fd23)" d="M 499.114807 260.64 
L 499.114807 206.28 
L 501.504107 206.28 
L 501.504107 260.64 
L 499.114807 260.64 
z
" style="fill:#e16462;fill-opacity:0.66;stroke:#e16462;stroke-opacity:0.66;"/>
    <path clip-path="url(#p55d6d1fd23)" d="M 500.962921 260.64 
L 500.962921 206.28 
L 503.356705 206.28 
L 503.356705 260.64 
L 500.962921 260.64 
z
" style="fill:#e16462;fill-opacity:0.66;stroke:#e16462;stroke-opacity:0.66;"/>
    <path clip-path="url(#p55d6d1fd23)" d="M 503.735092 260.64 
L 503.735092 206.28 
L 506.147206 206.28 
L 506.147206 260.64 
L 503.735092 260.64 
z
" style="fill:#e16462;fill-opacity:0.66;stroke:#e16462;stroke-opacity:0.66;"/>
    <path clip-path="url(#p55d6d1fd23)" d="M 506.507263 260.64 
L 506.507263 206.28 
L 508.941655 206.28 
L 508.941655 260.64 
L 506.507263 260.64 
z
" style="fill:#e16462;fill-opacity:0.66;stroke:#e16462;stroke-opacity:0.66;"/>
    <path clip-path="url(#p55d6d1fd23)" d="M 509.279434 260.64 
L 509.279434 206.28 
L 511.683934 206.28 
L 511.683934 260.64 
L 509.279434 260.64 
z
" style="fill:#e16462;fill-opacity:0.66;stroke:#e16462;stroke-opacity:0.66;"/>
    <path clip-path="url(#p55d6d1fd23)" d="M 512.051605 260.64 
L 512.051605 206.28 
L 514.481231 206.28 
L 514.481231 260.64 
L 512.051605 260.64 
z
" style="fill:#e16462;fill-opacity:0.66;stroke:#e16462;stroke-opacity:0.66;"/>
    <path clip-path="url(#p55d6d1fd23)" d="M 514.823776 260.64 
L 514.823776 206.28 
L 517.223003 206.28 
L 517.223003 260.64 
L 514.823776 260.64 
z
" style="fill:#e16462;fill-opacity:0.66;stroke:#e16462;stroke-opacity:0.66;"/>
    <path clip-path="url(#p55d6d1fd23)" d="M 518.520005 260.64 
L 518.520005 206.28 
L 520.933162 206.28 
L 520.933162 260.64 
L 518.520005 260.64 
z
" style="fill:#e16462;fill-opacity:0.66;stroke:#e16462;stroke-opacity:0.66;"/>
    <path clip-path="url(#p55d6d1fd23)" d="M 521.292176 260.64 
L 521.292176 206.28 
L 523.714836 206.28 
L 523.714836 260.64 
L 521.292176 260.64 
z
" style="fill:#e16462;fill-opacity:0.66;stroke:#e16462;stroke-opacity:0.66;"/>
    <path clip-path="url(#p55d6d1fd23)" d="M 737.521524 260.64 
L 737.521524 206.28 
L 739.946836 206.28 
L 739.946836 260.64 
L 737.521524 260.64 
z
" style="fill:#e16462;fill-opacity:0.66;stroke:#e16462;stroke-opacity:0.66;"/>
    <path clip-path="url(#p55d6d1fd23)" d="M 741.217752 260.64 
L 741.217752 206.28 
L 743.624001 206.28 
L 743.624001 260.64 
L 741.217752 260.64 
z
" style="fill:#e16462;fill-opacity:0.66;stroke:#e16462;stroke-opacity:0.66;"/>
    <path clip-path="url(#p55d6d1fd23)" d="M 743.989924 260.64 
L 743.989924 206.28 
L 746.419634 206.28 
L 746.419634 260.64 
L 743.989924 260.64 
z
" style="fill:#e16462;fill-opacity:0.66;stroke:#e16462;stroke-opacity:0.66;"/>
    <path clip-path="url(#p55d6d1fd23)" d="M 747.686152 260.64 
L 747.686152 206.28 
L 750.082192 206.28 
L 750.082192 260.64 
L 747.686152 260.64 
z
" style="fill:#e16462;fill-opacity:0.66;stroke:#e16462;stroke-opacity:0.66;"/>
    <path clip-path="url(#p55d6d1fd23)" d="M 751.38238 260.64 
L 751.38238 206.28 
L 753.785583 206.28 
L 753.785583 260.64 
L 751.38238 260.64 
z
" style="fill:#e16462;fill-opacity:0.66;stroke:#e16462;stroke-opacity:0.66;"/>
    <path clip-path="url(#p55d6d1fd23)" d="M 754.154551 260.64 
L 754.154551 206.28 
L 756.588943 206.28 
L 756.588943 260.64 
L 754.154551 260.64 
z
" style="fill:#e16462;fill-opacity:0.66;stroke:#e16462;stroke-opacity:0.66;"/>
    <path clip-path="url(#p55d6d1fd23)" d="M 757.850779 260.64 
L 757.850779 206.28 
L 760.283592 206.28 
L 760.283592 260.64 
L 757.850779 260.64 
z
" style="fill:#e16462;fill-opacity:0.66;stroke:#e16462;stroke-opacity:0.66;"/>
    <path clip-path="url(#p55d6d1fd23)" d="M 761.547007 260.64 
L 761.547007 206.28 
L 763.953763 206.28 
L 763.953763 260.64 
L 761.547007 260.64 
z
" style="fill:#e16462;fill-opacity:0.66;stroke:#e16462;stroke-opacity:0.66;"/>
    <path clip-path="url(#p55d6d1fd23)" d="M 764.319179 260.64 
L 764.319179 206.28 
L 766.747648 206.28 
L 766.747648 260.64 
L 764.319179 260.64 
z
" style="fill:#e16462;fill-opacity:0.66;stroke:#e16462;stroke-opacity:0.66;"/>
    <path clip-path="url(#p55d6d1fd23)" d="M 768.015407 260.64 
L 768.015407 206.28 
L 770.427295 206.28 
L 770.427295 260.64 
L 768.015407 260.64 
z
" style="fill:#e16462;fill-opacity:0.66;stroke:#e16462;stroke-opacity:0.66;"/>
    <path clip-path="url(#p55d6d1fd23)" d="M 771.711635 260.64 
L 771.711635 206.28 
L 774.103558 206.28 
L 774.103558 260.64 
L 771.711635 260.64 
z
" style="fill:#e16462;fill-opacity:0.66;stroke:#e16462;stroke-opacity:0.66;"/>
    <path clip-path="url(#p55d6d1fd23)" d="M 774.483806 260.64 
L 774.483806 206.28 
L 776.907877 206.28 
L 776.907877 260.64 
L 774.483806 260.64 
z
" style="fill:#e16462;fill-opacity:0.66;stroke:#e16462;stroke-opacity:0.66;"/>
    <path clip-path="url(#p55d6d1fd23)" d="M 778.180034 260.64 
L 778.180034 206.28 
L 780.612226 206.28 
L 780.612226 260.64 
L 778.180034 260.64 
z
" style="fill:#e16462;fill-opacity:0.66;stroke:#e16462;stroke-opacity:0.66;"/>
    <path clip-path="url(#p55d6d1fd23)" d="M 781.876262 260.64 
L 781.876262 206.28 
L 784.268862 206.28 
L 784.268862 260.64 
L 781.876262 260.64 
z
" style="fill:#e16462;fill-opacity:0.66;stroke:#e16462;stroke-opacity:0.66;"/>
    <path clip-path="url(#p55d6d1fd23)" d="M 784.648434 260.64 
L 784.648434 206.28 
L 787.053103 206.28 
L 787.053103 260.64 
L 784.648434 260.64 
z
" style="fill:#e16462;fill-opacity:0.66;stroke:#e16462;stroke-opacity:0.66;"/>
    <path clip-path="url(#p55d6d1fd23)" d="M 788.344662 260.64 
L 788.344662 206.28 
L 790.732749 206.28 
L 790.732749 260.64 
L 788.344662 260.64 
z
" style="fill:#e16462;fill-opacity:0.66;stroke:#e16462;stroke-opacity:0.66;"/>
    <path clip-path="url(#p55d6d1fd23)" d="M 791.116833 260.64 
L 791.116833 206.28 
L 793.51479 206.28 
L 793.51479 260.64 
L 791.116833 260.64 
z
" style="fill:#e16462;fill-opacity:0.66;stroke:#e16462;stroke-opacity:0.66;"/>
    <path clip-path="url(#p55d6d1fd23)" d="M 794.813061 260.64 
L 794.813061 206.28 
L 797.205604 206.28 
L 797.205604 260.64 
L 794.813061 260.64 
z
" style="fill:#e16462;fill-opacity:0.66;stroke:#e16462;stroke-opacity:0.66;"/>
    <path clip-path="url(#p55d6d1fd23)" d="M 797.585232 260.64 
L 797.585232 206.28 
L 799.975237 206.28 
L 799.975237 260.64 
L 797.585232 260.64 
z
" style="fill:#e16462;fill-opacity:0.66;stroke:#e16462;stroke-opacity:0.66;"/>
    <path clip-path="url(#p55d6d1fd23)" d="M 800.357403 260.64 
L 800.357403 206.28 
L 802.748536 206.28 
L 802.748536 260.64 
L 800.357403 260.64 
z
" style="fill:#e16462;fill-opacity:0.66;stroke:#e16462;stroke-opacity:0.66;"/>
    <path clip-path="url(#p55d6d1fd23)" d="M 803.129575 260.64 
L 803.129575 206.28 
L 805.518057 206.28 
L 805.518057 260.64 
L 803.129575 260.64 
z
" style="fill:#e16462;fill-opacity:0.66;stroke:#e16462;stroke-opacity:0.66;"/>
    <path clip-path="url(#p55d6d1fd23)" d="M 805.901746 260.64 
L 805.901746 206.28 
L 808.313972 206.28 
L 808.313972 260.64 
L 805.901746 260.64 
z
" style="fill:#e16462;fill-opacity:0.66;stroke:#e16462;stroke-opacity:0.66;"/>
    <path clip-path="url(#p55d6d1fd23)" d="M 808.673917 260.64 
L 808.673917 206.28 
L 811.086595 206.28 
L 811.086595 260.64 
L 808.673917 260.64 
z
" style="fill:#e16462;fill-opacity:0.66;stroke:#e16462;stroke-opacity:0.66;"/>
    <path clip-path="url(#p55d6d1fd23)" d="M 810.522031 260.64 
L 810.522031 206.28 
L 812.925515 206.28 
L 812.925515 260.64 
L 810.522031 260.64 
z
" style="fill:#e16462;fill-opacity:0.66;stroke:#e16462;stroke-opacity:0.66;"/>
    <path clip-path="url(#p55d6d1fd23)" d="M 813.294202 260.64 
L 813.294202 206.28 
L 815.678567 206.28 
L 815.678567 260.64 
L 813.294202 260.64 
z
" style="fill:#e16462;fill-opacity:0.66;stroke:#e16462;stroke-opacity:0.66;"/>
    <path clip-path="url(#p55d6d1fd23)" d="M 816.066373 260.64 
L 816.066373 206.28 
L 818.459988 206.28 
L 818.459988 260.64 
L 816.066373 260.64 
z
" style="fill:#e16462;fill-opacity:0.66;stroke:#e16462;stroke-opacity:0.66;"/>
    <path clip-path="url(#p55d6d1fd23)" d="M 818.838544 260.64 
L 818.838544 206.28 
L 821.23182 206.28 
L 821.23182 260.64 
L 818.838544 260.64 
z
" style="fill:#e16462;fill-opacity:0.66;stroke:#e16462;stroke-opacity:0.66;"/>
    <path clip-path="url(#p55d6d1fd23)" d="M 821.610715 260.64 
L 821.610715 206.28 
L 824.007094 206.28 
L 824.007094 260.64 
L 821.610715 260.64 
z
" style="fill:#e16462;fill-opacity:0.66;stroke:#e16462;stroke-opacity:0.66;"/>
    <path clip-path="url(#p55d6d1fd23)" d="M 825.306944 260.64 
L 825.306944 206.28 
L 827.697343 206.28 
L 827.697343 260.64 
L 825.306944 260.64 
z
" style="fill:#e16462;fill-opacity:0.66;stroke:#e16462;stroke-opacity:0.66;"/>
    <path clip-path="url(#p55d6d1fd23)" d="M 828.079115 260.64 
L 828.079115 206.28 
L 830.483389 206.28 
L 830.483389 260.64 
L 828.079115 260.64 
z
" style="fill:#e16462;fill-opacity:0.66;stroke:#e16462;stroke-opacity:0.66;"/>
    <path clip-path="url(#p55d6d1fd23)" d="M 831.775343 260.64 
L 831.775343 206.28 
L 834.204377 206.28 
L 834.204377 260.64 
L 831.775343 260.64 
z
" style="fill:#e16462;fill-opacity:0.66;stroke:#e16462;stroke-opacity:0.66;"/>
    <path clip-path="url(#p55d6d1fd23)" d="M 835.471571 260.64 
L 835.471571 206.28 
L 837.876184 206.28 
L 837.876184 260.64 
L 835.471571 260.64 
z
" style="fill:#e16462;fill-opacity:0.66;stroke:#e16462;stroke-opacity:0.66;"/>
    <path clip-path="url(#p55d6d1fd23)" d="M 838.243742 260.64 
L 838.243742 206.28 
L 840.645084 206.28 
L 840.645084 260.64 
L 838.243742 260.64 
z
" style="fill:#e16462;fill-opacity:0.66;stroke:#e16462;stroke-opacity:0.66;"/>
    <path clip-path="url(#p55d6d1fd23)" d="M 841.93997 260.64 
L 841.93997 206.28 
L 844.340917 206.28 
L 844.340917 260.64 
L 841.93997 260.64 
z
" style="fill:#e16462;fill-opacity:0.66;stroke:#e16462;stroke-opacity:0.66;"/>
    <path clip-path="url(#p55d6d1fd23)" d="M 844.712142 260.64 
L 844.712142 206.28 
L 847.116246 206.28 
L 847.116246 260.64 
L 844.712142 260.64 
z
" style="fill:#e16462;fill-opacity:0.66;stroke:#e16462;stroke-opacity:0.66;"/>
    <path clip-path="url(#p55d6d1fd23)" d="M 848.40837 260.64 
L 848.40837 206.28 
L 850.797134 206.28 
L 850.797134 260.64 
L 848.40837 260.64 
z
" style="fill:#e16462;fill-opacity:0.66;stroke:#e16462;stroke-opacity:0.66;"/>
    <path clip-path="url(#p55d6d1fd23)" d="M 852.104598 260.64 
L 852.104598 206.28 
L 854.492967 206.28 
L 854.492967 260.64 
L 852.104598 260.64 
z
" style="fill:#e16462;fill-opacity:0.66;stroke:#e16462;stroke-opacity:0.66;"/>
    <path clip-path="url(#p55d6d1fd23)" d="M 854.876769 260.64 
L 854.876769 206.28 
L 857.266097 206.28 
L 857.266097 260.64 
L 854.876769 260.64 
z
" style="fill:#e16462;fill-opacity:0.66;stroke:#e16462;stroke-opacity:0.66;"/>
    <path clip-path="url(#p55d6d1fd23)" d="M 858.572997 260.64 
L 858.572997 206.28 
L 860.982968 206.28 
L 860.982968 260.64 
L 858.572997 260.64 
z
" style="fill:#e16462;fill-opacity:0.66;stroke:#e16462;stroke-opacity:0.66;"/>
    <path clip-path="url(#p55d6d1fd23)" d="M 861.345168 260.64 
L 861.345168 206.28 
L 863.75621 206.28 
L 863.75621 260.64 
L 861.345168 260.64 
z
" style="fill:#e16462;fill-opacity:0.66;stroke:#e16462;stroke-opacity:0.66;"/>
    <path clip-path="url(#p55d6d1fd23)" d="M 865.041397 260.64 
L 865.041397 206.28 
L 867.458361 206.28 
L 867.458361 260.64 
L 865.041397 260.64 
z
" style="fill:#e16462;fill-opacity:0.66;stroke:#e16462;stroke-opacity:0.66;"/>
    <path clip-path="url(#p55d6d1fd23)" d="M 868.737625 260.64 
L 868.737625 206.28 
L 871.14235 206.28 
L 871.14235 260.64 
L 868.737625 260.64 
z
" style="fill:#e16462;fill-opacity:0.66;stroke:#e16462;stroke-opacity:0.66;"/>
    <path clip-path="url(#p55d6d1fd23)" d="M 871.509796 260.64 
L 871.509796 206.28 
L 873.934938 206.28 
L 873.934938 260.64 
L 871.509796 260.64 
z
" style="fill:#e16462;fill-opacity:0.66;stroke:#e16462;stroke-opacity:0.66;"/>
    <path clip-path="url(#p55d6d1fd23)" d="M 875.206024 260.64 
L 875.206024 206.28 
L 877.639626 206.28 
L 877.639626 260.64 
L 875.206024 260.64 
z
" style="fill:#e16462;fill-opacity:0.66;stroke:#e16462;stroke-opacity:0.66;"/>
    <path clip-path="url(#p55d6d1fd23)" d="M 878.902252 260.64 
L 878.902252 206.28 
L 881.329425 206.28 
L 881.329425 260.64 
L 878.902252 260.64 
z
" style="fill:#e16462;fill-opacity:0.66;stroke:#e16462;stroke-opacity:0.66;"/>
    <path clip-path="url(#p55d6d1fd23)" d="M 882.59848 260.64 
L 882.59848 206.28 
L 885.02131 206.28 
L 885.02131 260.64 
L 882.59848 260.64 
z
" style="fill:#e16462;fill-opacity:0.66;stroke:#e16462;stroke-opacity:0.66;"/>
    <path clip-path="url(#p55d6d1fd23)" d="M 885.370651 260.64 
L 885.370651 206.28 
L 887.776618 206.28 
L 887.776618 260.64 
L 885.370651 260.64 
z
" style="fill:#e16462;fill-opacity:0.66;stroke:#e16462;stroke-opacity:0.66;"/>
    <path clip-path="url(#p55d6d1fd23)" d="M 889.06688 260.64 
L 889.06688 206.28 
L 891.473579 206.28 
L 891.473579 260.64 
L 889.06688 260.64 
z
" style="fill:#e16462;fill-opacity:0.66;stroke:#e16462;stroke-opacity:0.66;"/>
    <path clip-path="url(#p55d6d1fd23)" d="M 892.763108 260.64 
L 892.763108 206.28 
L 895.171274 206.28 
L 895.171274 260.64 
L 892.763108 260.64 
z
" style="fill:#e16462;fill-opacity:0.66;stroke:#e16462;stroke-opacity:0.66;"/>
    <path clip-path="url(#p55d6d1fd23)" d="M 895.535279 260.64 
L 895.535279 206.28 
L 897.930473 206.28 
L 897.930473 260.64 
L 895.535279 260.64 
z
" style="fill:#e16462;fill-opacity:0.66;stroke:#e16462;stroke-opacity:0.66;"/>
   </g>
   <g id="matplotlib.axis_7">
    <g id="xtick_28">
     <g id="line2d_55">
      <path clip-path="url(#p55d6d1fd23)" d="M 155.365586 260.64 
L 155.365586 206.28 
" style="fill:none;stroke:#000000;stroke-dasharray:0.8,1.32;stroke-dashoffset:0;stroke-width:0.8;"/>
     </g>
     <g id="line2d_56">
      <g>
       <use style="stroke:#000000;stroke-width:0.8;" x="155.365586" xlink:href="#mcd4be8ce71" y="260.64"/>
      </g>
     </g>
    </g>
    <g id="xtick_29">
     <g id="line2d_57">
      <path clip-path="url(#p55d6d1fd23)" d="M 273.644888 260.64 
L 273.644888 206.28 
" style="fill:none;stroke:#000000;stroke-dasharray:0.8,1.32;stroke-dashoffset:0;stroke-width:0.8;"/>
     </g>
     <g id="line2d_58">
      <g>
       <use style="stroke:#000000;stroke-width:0.8;" x="273.644888" xlink:href="#mcd4be8ce71" y="260.64"/>
      </g>
     </g>
    </g>
    <g id="xtick_30">
     <g id="line2d_59">
      <path clip-path="url(#p55d6d1fd23)" d="M 391.92419 260.64 
L 391.92419 206.28 
" style="fill:none;stroke:#000000;stroke-dasharray:0.8,1.32;stroke-dashoffset:0;stroke-width:0.8;"/>
     </g>
     <g id="line2d_60">
      <g>
       <use style="stroke:#000000;stroke-width:0.8;" x="391.92419" xlink:href="#mcd4be8ce71" y="260.64"/>
      </g>
     </g>
    </g>
    <g id="xtick_31">
     <g id="line2d_61">
      <path clip-path="url(#p55d6d1fd23)" d="M 510.203491 260.64 
L 510.203491 206.28 
" style="fill:none;stroke:#000000;stroke-dasharray:0.8,1.32;stroke-dashoffset:0;stroke-width:0.8;"/>
     </g>
     <g id="line2d_62">
      <g>
       <use style="stroke:#000000;stroke-width:0.8;" x="510.203491" xlink:href="#mcd4be8ce71" y="260.64"/>
      </g>
     </g>
    </g>
    <g id="xtick_32">
     <g id="line2d_63">
      <path clip-path="url(#p55d6d1fd23)" d="M 628.482793 260.64 
L 628.482793 206.28 
" style="fill:none;stroke:#000000;stroke-dasharray:0.8,1.32;stroke-dashoffset:0;stroke-width:0.8;"/>
     </g>
     <g id="line2d_64">
      <g>
       <use style="stroke:#000000;stroke-width:0.8;" x="628.482793" xlink:href="#mcd4be8ce71" y="260.64"/>
      </g>
     </g>
    </g>
    <g id="xtick_33">
     <g id="line2d_65">
      <path clip-path="url(#p55d6d1fd23)" d="M 746.762095 260.64 
L 746.762095 206.28 
" style="fill:none;stroke:#000000;stroke-dasharray:0.8,1.32;stroke-dashoffset:0;stroke-width:0.8;"/>
     </g>
     <g id="line2d_66">
      <g>
       <use style="stroke:#000000;stroke-width:0.8;" x="746.762095" xlink:href="#mcd4be8ce71" y="260.64"/>
      </g>
     </g>
    </g>
    <g id="xtick_34">
     <g id="line2d_67">
      <path clip-path="url(#p55d6d1fd23)" d="M 865.041397 260.64 
L 865.041397 206.28 
" style="fill:none;stroke:#000000;stroke-dasharray:0.8,1.32;stroke-dashoffset:0;stroke-width:0.8;"/>
     </g>
     <g id="line2d_68">
      <g>
       <use style="stroke:#000000;stroke-width:0.8;" x="865.041397" xlink:href="#mcd4be8ce71" y="260.64"/>
      </g>
     </g>
    </g>
    <g id="xtick_35">
     <g id="line2d_69">
      <path clip-path="url(#p55d6d1fd23)" d="M 983.320698 260.64 
L 983.320698 206.28 
" style="fill:none;stroke:#000000;stroke-dasharray:0.8,1.32;stroke-dashoffset:0;stroke-width:0.8;"/>
     </g>
     <g id="line2d_70">
      <g>
       <use style="stroke:#000000;stroke-width:0.8;" x="983.320698" xlink:href="#mcd4be8ce71" y="260.64"/>
      </g>
     </g>
    </g>
    <g id="xtick_36">
     <g id="line2d_71">
      <path clip-path="url(#p55d6d1fd23)" d="M 1101.6 260.64 
L 1101.6 206.28 
" style="fill:none;stroke:#000000;stroke-dasharray:0.8,1.32;stroke-dashoffset:0;stroke-width:0.8;"/>
     </g>
     <g id="line2d_72">
      <g>
       <use style="stroke:#000000;stroke-width:0.8;" x="1101.6" xlink:href="#mcd4be8ce71" y="260.64"/>
      </g>
     </g>
    </g>
    <g id="text_7">
     <!-- time (s) -->
     <g transform="translate(607.908594 272.238437)scale(0.1 -0.1)">
      <use xlink:href="#DejaVuSans-116"/>
      <use x="39.208984" xlink:href="#DejaVuSans-105"/>
      <use x="66.992188" xlink:href="#DejaVuSans-109"/>
      <use x="164.404297" xlink:href="#DejaVuSans-101"/>
      <use x="225.927734" xlink:href="#DejaVuSans-32"/>
      <use x="257.714844" xlink:href="#DejaVuSans-40"/>
      <use x="296.728516" xlink:href="#DejaVuSans-115"/>
      <use x="348.828125" xlink:href="#DejaVuSans-41"/>
     </g>
    </g>
   </g>
   <g id="matplotlib.axis_8">
    <g id="text_8">
     <!-- Train -->
     <defs>
      <path d="M -0.296875 72.90625 
L 61.375 72.90625 
L 61.375 64.59375 
L 35.5 64.59375 
L 35.5 0 
L 25.59375 0 
L 25.59375 64.59375 
L -0.296875 64.59375 
z
" id="DejaVuSans-84"/>
      <path d="M 41.109375 46.296875 
Q 39.59375 47.171875 37.8125 47.578125 
Q 36.03125 48 33.890625 48 
Q 26.265625 48 22.1875 43.046875 
Q 18.109375 38.09375 18.109375 28.8125 
L 18.109375 0 
L 9.078125 0 
L 9.078125 54.6875 
L 18.109375 54.6875 
L 18.109375 46.1875 
Q 20.953125 51.171875 25.484375 53.578125 
Q 30.03125 56 36.53125 56 
Q 37.453125 56 38.578125 55.875 
Q 39.703125 55.765625 41.0625 55.515625 
z
" id="DejaVuSans-114"/>
     </defs>
     <g transform="translate(146.920312 246.180312)rotate(-90)scale(0.1 -0.1)">
      <use xlink:href="#DejaVuSans-84"/>
      <use x="60.865234" xlink:href="#DejaVuSans-114"/>
      <use x="101.978516" xlink:href="#DejaVuSans-97"/>
      <use x="163.257812" xlink:href="#DejaVuSans-105"/>
      <use x="191.041016" xlink:href="#DejaVuSans-110"/>
     </g>
    </g>
   </g>
   <g id="patch_18">
    <path d="M 153 260.64 
L 153 206.28 
" style="fill:none;stroke:#000000;stroke-linecap:square;stroke-linejoin:miter;stroke-width:0.8;"/>
   </g>
   <g id="patch_19">
    <path d="M 1101.6 260.64 
L 1101.6 206.28 
" style="fill:none;stroke:#000000;stroke-linecap:square;stroke-linejoin:miter;stroke-width:0.8;"/>
   </g>
   <g id="patch_20">
    <path d="M 153 260.64 
L 1101.6 260.64 
" style="fill:none;stroke:#000000;stroke-linecap:square;stroke-linejoin:miter;stroke-width:0.8;"/>
   </g>
   <g id="patch_21">
    <path d="M 153 206.28 
L 1101.6 206.28 
" style="fill:none;stroke:#000000;stroke-linecap:square;stroke-linejoin:miter;stroke-width:0.8;"/>
   </g>
  </g>
  <g id="axes_5">
   <g id="patch_22">
    <path d="M 153 315 
L 1101.6 315 
L 1101.6 260.64 
L 153 260.64 
z
" style="fill:#ffffff;"/>
   </g>
   <g id="BrokenBarHCollection_5">
    <path clip-path="url(#pfe90d3cf5c)" d="M 155.365586 315 
L 155.365586 260.64 
L 525.176921 260.64 
L 525.176921 315 
L 155.365586 315 
z
" style="fill:#fca636;fill-opacity:0.66;stroke:#fca636;stroke-opacity:0.66;"/>
    <path clip-path="url(#pfe90d3cf5c)" d="M 525.912461 315 
L 525.912461 260.64 
L 899.435675 260.64 
L 899.435675 315 
L 525.912461 315 
z
" style="fill:#fca636;fill-opacity:0.66;stroke:#fca636;stroke-opacity:0.66;"/>
   </g>
   <g id="matplotlib.axis_9">
    <g id="xtick_37">
     <g id="line2d_73">
      <path clip-path="url(#pfe90d3cf5c)" d="M 155.365586 315 
L 155.365586 260.64 
" style="fill:none;stroke:#000000;stroke-dasharray:0.8,1.32;stroke-dashoffset:0;stroke-width:0.8;"/>
     </g>
     <g id="line2d_74">
      <g>
       <use style="stroke:#000000;stroke-width:0.8;" x="155.365586" xlink:href="#mcd4be8ce71" y="315"/>
      </g>
     </g>
    </g>
    <g id="xtick_38">
     <g id="line2d_75">
      <path clip-path="url(#pfe90d3cf5c)" d="M 273.644888 315 
L 273.644888 260.64 
" style="fill:none;stroke:#000000;stroke-dasharray:0.8,1.32;stroke-dashoffset:0;stroke-width:0.8;"/>
     </g>
     <g id="line2d_76">
      <g>
       <use style="stroke:#000000;stroke-width:0.8;" x="273.644888" xlink:href="#mcd4be8ce71" y="315"/>
      </g>
     </g>
    </g>
    <g id="xtick_39">
     <g id="line2d_77">
      <path clip-path="url(#pfe90d3cf5c)" d="M 391.92419 315 
L 391.92419 260.64 
" style="fill:none;stroke:#000000;stroke-dasharray:0.8,1.32;stroke-dashoffset:0;stroke-width:0.8;"/>
     </g>
     <g id="line2d_78">
      <g>
       <use style="stroke:#000000;stroke-width:0.8;" x="391.92419" xlink:href="#mcd4be8ce71" y="315"/>
      </g>
     </g>
    </g>
    <g id="xtick_40">
     <g id="line2d_79">
      <path clip-path="url(#pfe90d3cf5c)" d="M 510.203491 315 
L 510.203491 260.64 
" style="fill:none;stroke:#000000;stroke-dasharray:0.8,1.32;stroke-dashoffset:0;stroke-width:0.8;"/>
     </g>
     <g id="line2d_80">
      <g>
       <use style="stroke:#000000;stroke-width:0.8;" x="510.203491" xlink:href="#mcd4be8ce71" y="315"/>
      </g>
     </g>
    </g>
    <g id="xtick_41">
     <g id="line2d_81">
      <path clip-path="url(#pfe90d3cf5c)" d="M 628.482793 315 
L 628.482793 260.64 
" style="fill:none;stroke:#000000;stroke-dasharray:0.8,1.32;stroke-dashoffset:0;stroke-width:0.8;"/>
     </g>
     <g id="line2d_82">
      <g>
       <use style="stroke:#000000;stroke-width:0.8;" x="628.482793" xlink:href="#mcd4be8ce71" y="315"/>
      </g>
     </g>
    </g>
    <g id="xtick_42">
     <g id="line2d_83">
      <path clip-path="url(#pfe90d3cf5c)" d="M 746.762095 315 
L 746.762095 260.64 
" style="fill:none;stroke:#000000;stroke-dasharray:0.8,1.32;stroke-dashoffset:0;stroke-width:0.8;"/>
     </g>
     <g id="line2d_84">
      <g>
       <use style="stroke:#000000;stroke-width:0.8;" x="746.762095" xlink:href="#mcd4be8ce71" y="315"/>
      </g>
     </g>
    </g>
    <g id="xtick_43">
     <g id="line2d_85">
      <path clip-path="url(#pfe90d3cf5c)" d="M 865.041397 315 
L 865.041397 260.64 
" style="fill:none;stroke:#000000;stroke-dasharray:0.8,1.32;stroke-dashoffset:0;stroke-width:0.8;"/>
     </g>
     <g id="line2d_86">
      <g>
       <use style="stroke:#000000;stroke-width:0.8;" x="865.041397" xlink:href="#mcd4be8ce71" y="315"/>
      </g>
     </g>
    </g>
    <g id="xtick_44">
     <g id="line2d_87">
      <path clip-path="url(#pfe90d3cf5c)" d="M 983.320698 315 
L 983.320698 260.64 
" style="fill:none;stroke:#000000;stroke-dasharray:0.8,1.32;stroke-dashoffset:0;stroke-width:0.8;"/>
     </g>
     <g id="line2d_88">
      <g>
       <use style="stroke:#000000;stroke-width:0.8;" x="983.320698" xlink:href="#mcd4be8ce71" y="315"/>
      </g>
     </g>
    </g>
    <g id="xtick_45">
     <g id="line2d_89">
      <path clip-path="url(#pfe90d3cf5c)" d="M 1101.6 315 
L 1101.6 260.64 
" style="fill:none;stroke:#000000;stroke-dasharray:0.8,1.32;stroke-dashoffset:0;stroke-width:0.8;"/>
     </g>
     <g id="line2d_90">
      <g>
       <use style="stroke:#000000;stroke-width:0.8;" x="1101.6" xlink:href="#mcd4be8ce71" y="315"/>
      </g>
     </g>
    </g>
    <g id="text_9">
     <!-- time (s) -->
     <g transform="translate(607.908594 333.598437)scale(0.1 -0.1)">
      <use xlink:href="#DejaVuSans-116"/>
      <use x="39.208984" xlink:href="#DejaVuSans-105"/>
      <use x="66.992188" xlink:href="#DejaVuSans-109"/>
      <use x="164.404297" xlink:href="#DejaVuSans-101"/>
      <use x="225.927734" xlink:href="#DejaVuSans-32"/>
      <use x="257.714844" xlink:href="#DejaVuSans-40"/>
      <use x="296.728516" xlink:href="#DejaVuSans-115"/>
      <use x="348.828125" xlink:href="#DejaVuSans-41"/>
     </g>
    </g>
   </g>
   <g id="matplotlib.axis_10">
    <g id="text_10">
     <!-- Epoch -->
     <defs>
      <path d="M 9.8125 72.90625 
L 55.90625 72.90625 
L 55.90625 64.59375 
L 19.671875 64.59375 
L 19.671875 43.015625 
L 54.390625 43.015625 
L 54.390625 34.71875 
L 19.671875 34.71875 
L 19.671875 8.296875 
L 56.78125 8.296875 
L 56.78125 0 
L 9.8125 0 
z
" id="DejaVuSans-69"/>
      <path d="M 30.609375 48.390625 
Q 23.390625 48.390625 19.1875 42.75 
Q 14.984375 37.109375 14.984375 27.296875 
Q 14.984375 17.484375 19.15625 11.84375 
Q 23.34375 6.203125 30.609375 6.203125 
Q 37.796875 6.203125 41.984375 11.859375 
Q 46.1875 17.53125 46.1875 27.296875 
Q 46.1875 37.015625 41.984375 42.703125 
Q 37.796875 48.390625 30.609375 48.390625 
z
M 30.609375 56 
Q 42.328125 56 49.015625 48.375 
Q 55.71875 40.765625 55.71875 27.296875 
Q 55.71875 13.875 49.015625 6.21875 
Q 42.328125 -1.421875 30.609375 -1.421875 
Q 18.84375 -1.421875 12.171875 6.21875 
Q 5.515625 13.875 5.515625 27.296875 
Q 5.515625 40.765625 12.171875 48.375 
Q 18.84375 56 30.609375 56 
z
" id="DejaVuSans-111"/>
      <path d="M 48.78125 52.59375 
L 48.78125 44.1875 
Q 44.96875 46.296875 41.140625 47.34375 
Q 37.3125 48.390625 33.40625 48.390625 
Q 24.65625 48.390625 19.8125 42.84375 
Q 14.984375 37.3125 14.984375 27.296875 
Q 14.984375 17.28125 19.8125 11.734375 
Q 24.65625 6.203125 33.40625 6.203125 
Q 37.3125 6.203125 41.140625 7.25 
Q 44.96875 8.296875 48.78125 10.40625 
L 48.78125 2.09375 
Q 45.015625 0.34375 40.984375 -0.53125 
Q 36.96875 -1.421875 32.421875 -1.421875 
Q 20.0625 -1.421875 12.78125 6.34375 
Q 5.515625 14.109375 5.515625 27.296875 
Q 5.515625 40.671875 12.859375 48.328125 
Q 20.21875 56 33.015625 56 
Q 37.15625 56 41.109375 55.140625 
Q 45.0625 54.296875 48.78125 52.59375 
z
" id="DejaVuSans-99"/>
      <path d="M 54.890625 33.015625 
L 54.890625 0 
L 45.90625 0 
L 45.90625 32.71875 
Q 45.90625 40.484375 42.875 44.328125 
Q 39.84375 48.1875 33.796875 48.1875 
Q 26.515625 48.1875 22.3125 43.546875 
Q 18.109375 38.921875 18.109375 30.90625 
L 18.109375 0 
L 9.078125 0 
L 9.078125 75.984375 
L 18.109375 75.984375 
L 18.109375 46.1875 
Q 21.34375 51.125 25.703125 53.5625 
Q 30.078125 56 35.796875 56 
Q 45.21875 56 50.046875 50.171875 
Q 54.890625 44.34375 54.890625 33.015625 
z
" id="DejaVuSans-104"/>
     </defs>
     <g transform="translate(146.920312 303.130938)rotate(-90)scale(0.1 -0.1)">
      <use xlink:href="#DejaVuSans-69"/>
      <use x="63.183594" xlink:href="#DejaVuSans-112"/>
      <use x="126.660156" xlink:href="#DejaVuSans-111"/>
      <use x="187.841797" xlink:href="#DejaVuSans-99"/>
      <use x="242.822266" xlink:href="#DejaVuSans-104"/>
     </g>
    </g>
   </g>
   <g id="patch_23">
    <path d="M 153 315 
L 153 260.64 
" style="fill:none;stroke:#000000;stroke-linecap:square;stroke-linejoin:miter;stroke-width:0.8;"/>
   </g>
   <g id="patch_24">
    <path d="M 1101.6 315 
L 1101.6 260.64 
" style="fill:none;stroke:#000000;stroke-linecap:square;stroke-linejoin:miter;stroke-width:0.8;"/>
   </g>
   <g id="patch_25">
    <path d="M 153 315 
L 1101.6 315 
" style="fill:none;stroke:#000000;stroke-linecap:square;stroke-linejoin:miter;stroke-width:0.8;"/>
   </g>
   <g id="patch_26">
    <path d="M 153 260.64 
L 1101.6 260.64 
" style="fill:none;stroke:#000000;stroke-linecap:square;stroke-linejoin:miter;stroke-width:0.8;"/>
   </g>
  </g>
  <g id="text_11">
   <!-- Vectorized map -->
   <defs>
    <path d="M 28.609375 0 
L 0.78125 72.90625 
L 11.078125 72.90625 
L 34.1875 11.53125 
L 57.328125 72.90625 
L 67.578125 72.90625 
L 39.796875 0 
z
" id="DejaVuSans-86"/>
    <path d="M 5.515625 54.6875 
L 48.1875 54.6875 
L 48.1875 46.484375 
L 14.40625 7.171875 
L 48.1875 7.171875 
L 48.1875 0 
L 4.296875 0 
L 4.296875 8.203125 
L 38.09375 47.515625 
L 5.515625 47.515625 
z
" id="DejaVuSans-122"/>
   </defs>
   <g transform="translate(564.867188 16.318125)scale(0.12 -0.12)">
    <use xlink:href="#DejaVuSans-86"/>
    <use x="68.298828" xlink:href="#DejaVuSans-101"/>
    <use x="129.822266" xlink:href="#DejaVuSans-99"/>
    <use x="184.802734" xlink:href="#DejaVuSans-116"/>
    <use x="224.011719" xlink:href="#DejaVuSans-111"/>
    <use x="285.193359" xlink:href="#DejaVuSans-114"/>
    <use x="326.306641" xlink:href="#DejaVuSans-105"/>
    <use x="354.089844" xlink:href="#DejaVuSans-122"/>
    <use x="406.580078" xlink:href="#DejaVuSans-101"/>
    <use x="468.103516" xlink:href="#DejaVuSans-100"/>
    <use x="531.580078" xlink:href="#DejaVuSans-32"/>
    <use x="563.367188" xlink:href="#DejaVuSans-109"/>
    <use x="660.779297" xlink:href="#DejaVuSans-97"/>
    <use x="722.058594" xlink:href="#DejaVuSans-112"/>
   </g>
  </g>
 </g>
 <defs>
  <clipPath id="pbc880ddb1d">
   <rect height="54.36" width="948.6" x="153" y="43.2"/>
  </clipPath>
  <clipPath id="p547c7d0687">
   <rect height="54.36" width="948.6" x="153" y="97.56"/>
  </clipPath>
  <clipPath id="pf66fdb4ceb">
   <rect height="54.36" width="948.6" x="153" y="151.92"/>
  </clipPath>
  <clipPath id="p55d6d1fd23">
   <rect height="54.36" width="948.6" x="153" y="206.28"/>
  </clipPath>
  <clipPath id="pfe90d3cf5c">
   <rect height="54.36" width="948.6" x="153" y="260.64"/>
  </clipPath>
 </defs>
</svg>
