<?xml version="1.0" encoding="utf-8" standalone="no"?>
<!DOCTYPE svg PUBLIC "-//W3C//DTD SVG 1.1//EN"
  "http://www.w3.org/Graphics/SVG/1.1/DTD/svg11.dtd">
<!-- Created with matplotlib (https://matplotlib.org/) -->
<svg height="432pt" version="1.1" viewBox="0 0 1224 432" width="1224pt" xmlns="http://www.w3.org/2000/svg" xmlns:xlink="http://www.w3.org/1999/xlink">
 <defs>
  <style type="text/css">
*{stroke-linecap:butt;stroke-linejoin:round;}
  </style>
 </defs>
 <g id="figure_1">
  <g id="patch_1">
   <path d="M 0 432 
L 1224 432 
L 1224 0 
L 0 0 
z
" style="fill:#ffffff;"/>
  </g>
  <g id="axes_1">
   <g id="patch_2">
    <path d="M 153 106.2 
L 1101.6 106.2 
L 1101.6 51.84 
L 153 51.84 
z
" style="fill:#ffffff;"/>
   </g>
   <g id="BrokenBarHCollection_1">
    <defs>
     <path d="M 195.871931 -325.8 
L 195.871931 -380.16 
L 244.643574 -380.16 
L 244.643574 -325.8 
L 195.871931 -325.8 
z
" id="mac4ac3c8ae"/>
    </defs>
    <g clip-path="url(#pf250587fe1)">
     <use style="fill:#0d0887;fill-opacity:0.66;" x="0" xlink:href="#mac4ac3c8ae" y="432"/>
    </g>
   </g>
   <g id="matplotlib.axis_1">
    <g id="xtick_1">
     <g id="line2d_1">
      <path clip-path="url(#pf250587fe1)" d="M 169.116321 106.2 
L 169.116321 51.84 
" style="fill:none;stroke:#000000;stroke-dasharray:0.8,1.32;stroke-dashoffset:0;stroke-width:0.8;"/>
     </g>
     <g id="line2d_2">
      <defs>
       <path d="M 0 0 
L 0 3.5 
" id="m155efcefed" style="stroke:#000000;stroke-width:0.8;"/>
      </defs>
      <g>
       <use style="stroke:#000000;stroke-width:0.8;" x="169.116321" xlink:href="#m155efcefed" y="106.2"/>
      </g>
     </g>
    </g>
    <g id="xtick_2">
     <g id="line2d_3">
      <path clip-path="url(#pf250587fe1)" d="M 330.279526 106.2 
L 330.279526 51.84 
" style="fill:none;stroke:#000000;stroke-dasharray:0.8,1.32;stroke-dashoffset:0;stroke-width:0.8;"/>
     </g>
     <g id="line2d_4">
      <g>
       <use style="stroke:#000000;stroke-width:0.8;" x="330.279526" xlink:href="#m155efcefed" y="106.2"/>
      </g>
     </g>
    </g>
    <g id="xtick_3">
     <g id="line2d_5">
      <path clip-path="url(#pf250587fe1)" d="M 491.442732 106.2 
L 491.442732 51.84 
" style="fill:none;stroke:#000000;stroke-dasharray:0.8,1.32;stroke-dashoffset:0;stroke-width:0.8;"/>
     </g>
     <g id="line2d_6">
      <g>
       <use style="stroke:#000000;stroke-width:0.8;" x="491.442732" xlink:href="#m155efcefed" y="106.2"/>
      </g>
     </g>
    </g>
    <g id="xtick_4">
     <g id="line2d_7">
      <path clip-path="url(#pf250587fe1)" d="M 652.605938 106.2 
L 652.605938 51.84 
" style="fill:none;stroke:#000000;stroke-dasharray:0.8,1.32;stroke-dashoffset:0;stroke-width:0.8;"/>
     </g>
     <g id="line2d_8">
      <g>
       <use style="stroke:#000000;stroke-width:0.8;" x="652.605938" xlink:href="#m155efcefed" y="106.2"/>
      </g>
     </g>
    </g>
    <g id="xtick_5">
     <g id="line2d_9">
      <path clip-path="url(#pf250587fe1)" d="M 813.769144 106.2 
L 813.769144 51.84 
" style="fill:none;stroke:#000000;stroke-dasharray:0.8,1.32;stroke-dashoffset:0;stroke-width:0.8;"/>
     </g>
     <g id="line2d_10">
      <g>
       <use style="stroke:#000000;stroke-width:0.8;" x="813.769144" xlink:href="#m155efcefed" y="106.2"/>
      </g>
     </g>
    </g>
    <g id="xtick_6">
     <g id="line2d_11">
      <path clip-path="url(#pf250587fe1)" d="M 974.93235 106.2 
L 974.93235 51.84 
" style="fill:none;stroke:#000000;stroke-dasharray:0.8,1.32;stroke-dashoffset:0;stroke-width:0.8;"/>
     </g>
     <g id="line2d_12">
      <g>
       <use style="stroke:#000000;stroke-width:0.8;" x="974.93235" xlink:href="#m155efcefed" y="106.2"/>
      </g>
     </g>
    </g>
    <g id="text_1">
     <!-- time (s) -->
     <defs>
      <path d="M 18.3125 70.21875 
L 18.3125 54.6875 
L 36.8125 54.6875 
L 36.8125 47.703125 
L 18.3125 47.703125 
L 18.3125 18.015625 
Q 18.3125 11.328125 20.140625 9.421875 
Q 21.96875 7.515625 27.59375 7.515625 
L 36.8125 7.515625 
L 36.8125 0 
L 27.59375 0 
Q 17.1875 0 13.234375 3.875 
Q 9.28125 7.765625 9.28125 18.015625 
L 9.28125 47.703125 
L 2.6875 47.703125 
L 2.6875 54.6875 
L 9.28125 54.6875 
L 9.28125 70.21875 
z
" id="DejaVuSans-116"/>
      <path d="M 9.421875 54.6875 
L 18.40625 54.6875 
L 18.40625 0 
L 9.421875 0 
z
M 9.421875 75.984375 
L 18.40625 75.984375 
L 18.40625 64.59375 
L 9.421875 64.59375 
z
" id="DejaVuSans-105"/>
      <path d="M 52 44.1875 
Q 55.375 50.25 60.0625 53.125 
Q 64.75 56 71.09375 56 
Q 79.640625 56 84.28125 50.015625 
Q 88.921875 44.046875 88.921875 33.015625 
L 88.921875 0 
L 79.890625 0 
L 79.890625 32.71875 
Q 79.890625 40.578125 77.09375 44.375 
Q 74.3125 48.1875 68.609375 48.1875 
Q 61.625 48.1875 57.5625 43.546875 
Q 53.515625 38.921875 53.515625 30.90625 
L 53.515625 0 
L 44.484375 0 
L 44.484375 32.71875 
Q 44.484375 40.625 41.703125 44.40625 
Q 38.921875 48.1875 33.109375 48.1875 
Q 26.21875 48.1875 22.15625 43.53125 
Q 18.109375 38.875 18.109375 30.90625 
L 18.109375 0 
L 9.078125 0 
L 9.078125 54.6875 
L 18.109375 54.6875 
L 18.109375 46.1875 
Q 21.1875 51.21875 25.484375 53.609375 
Q 29.78125 56 35.6875 56 
Q 41.65625 56 45.828125 52.96875 
Q 50 49.953125 52 44.1875 
z
" id="DejaVuSans-109"/>
      <path d="M 56.203125 29.59375 
L 56.203125 25.203125 
L 14.890625 25.203125 
Q 15.484375 15.921875 20.484375 11.0625 
Q 25.484375 6.203125 34.421875 6.203125 
Q 39.59375 6.203125 44.453125 7.46875 
Q 49.3125 8.734375 54.109375 11.28125 
L 54.109375 2.78125 
Q 49.265625 0.734375 44.1875 -0.34375 
Q 39.109375 -1.421875 33.890625 -1.421875 
Q 20.796875 -1.421875 13.15625 6.1875 
Q 5.515625 13.8125 5.515625 26.8125 
Q 5.515625 40.234375 12.765625 48.109375 
Q 20.015625 56 32.328125 56 
Q 43.359375 56 49.78125 48.890625 
Q 56.203125 41.796875 56.203125 29.59375 
z
M 47.21875 32.234375 
Q 47.125 39.59375 43.09375 43.984375 
Q 39.0625 48.390625 32.421875 48.390625 
Q 24.90625 48.390625 20.390625 44.140625 
Q 15.875 39.890625 15.1875 32.171875 
z
" id="DejaVuSans-101"/>
      <path id="DejaVuSans-32"/>
      <path d="M 31 75.875 
Q 24.46875 64.65625 21.28125 53.65625 
Q 18.109375 42.671875 18.109375 31.390625 
Q 18.109375 20.125 21.3125 9.0625 
Q 24.515625 -2 31 -13.1875 
L 23.1875 -13.1875 
Q 15.875 -1.703125 12.234375 9.375 
Q 8.59375 20.453125 8.59375 31.390625 
Q 8.59375 42.28125 12.203125 53.3125 
Q 15.828125 64.359375 23.1875 75.875 
z
" id="DejaVuSans-40"/>
      <path d="M 44.28125 53.078125 
L 44.28125 44.578125 
Q 40.484375 46.53125 36.375 47.5 
Q 32.28125 48.484375 27.875 48.484375 
Q 21.1875 48.484375 17.84375 46.4375 
Q 14.5 44.390625 14.5 40.28125 
Q 14.5 37.15625 16.890625 35.375 
Q 19.28125 33.59375 26.515625 31.984375 
L 29.59375 31.296875 
Q 39.15625 29.25 43.1875 25.515625 
Q 47.21875 21.78125 47.21875 15.09375 
Q 47.21875 7.46875 41.1875 3.015625 
Q 35.15625 -1.421875 24.609375 -1.421875 
Q 20.21875 -1.421875 15.453125 -0.5625 
Q 10.6875 0.296875 5.421875 2 
L 5.421875 11.28125 
Q 10.40625 8.6875 15.234375 7.390625 
Q 20.0625 6.109375 24.8125 6.109375 
Q 31.15625 6.109375 34.5625 8.28125 
Q 37.984375 10.453125 37.984375 14.40625 
Q 37.984375 18.0625 35.515625 20.015625 
Q 33.0625 21.96875 24.703125 23.78125 
L 21.578125 24.515625 
Q 13.234375 26.265625 9.515625 29.90625 
Q 5.8125 33.546875 5.8125 39.890625 
Q 5.8125 47.609375 11.28125 51.796875 
Q 16.75 56 26.8125 56 
Q 31.78125 56 36.171875 55.265625 
Q 40.578125 54.546875 44.28125 53.078125 
z
" id="DejaVuSans-115"/>
      <path d="M 8.015625 75.875 
L 15.828125 75.875 
Q 23.140625 64.359375 26.78125 53.3125 
Q 30.421875 42.28125 30.421875 31.390625 
Q 30.421875 20.453125 26.78125 9.375 
Q 23.140625 -1.703125 15.828125 -13.1875 
L 8.015625 -13.1875 
Q 14.5 -2 17.703125 9.0625 
Q 20.90625 20.125 20.90625 31.390625 
Q 20.90625 42.671875 17.703125 53.65625 
Q 14.5 64.65625 8.015625 75.875 
z
" id="DejaVuSans-41"/>
     </defs>
     <g transform="translate(607.908594 117.798437)scale(0.1 -0.1)">
      <use xlink:href="#DejaVuSans-116"/>
      <use x="39.208984" xlink:href="#DejaVuSans-105"/>
      <use x="66.992188" xlink:href="#DejaVuSans-109"/>
      <use x="164.404297" xlink:href="#DejaVuSans-101"/>
      <use x="225.927734" xlink:href="#DejaVuSans-32"/>
      <use x="257.714844" xlink:href="#DejaVuSans-40"/>
      <use x="296.728516" xlink:href="#DejaVuSans-115"/>
      <use x="348.828125" xlink:href="#DejaVuSans-41"/>
     </g>
    </g>
   </g>
   <g id="matplotlib.axis_2">
    <g id="text_2">
     <!-- load -->
     <defs>
      <path d="M 9.421875 75.984375 
L 18.40625 75.984375 
L 18.40625 0 
L 9.421875 0 
z
" id="DejaVuSans-108"/>
      <path d="M 30.609375 48.390625 
Q 23.390625 48.390625 19.1875 42.75 
Q 14.984375 37.109375 14.984375 27.296875 
Q 14.984375 17.484375 19.15625 11.84375 
Q 23.34375 6.203125 30.609375 6.203125 
Q 37.796875 6.203125 41.984375 11.859375 
Q 46.1875 17.53125 46.1875 27.296875 
Q 46.1875 37.015625 41.984375 42.703125 
Q 37.796875 48.390625 30.609375 48.390625 
z
M 30.609375 56 
Q 42.328125 56 49.015625 48.375 
Q 55.71875 40.765625 55.71875 27.296875 
Q 55.71875 13.875 49.015625 6.21875 
Q 42.328125 -1.421875 30.609375 -1.421875 
Q 18.84375 -1.421875 12.171875 6.21875 
Q 5.515625 13.875 5.515625 27.296875 
Q 5.515625 40.765625 12.171875 48.375 
Q 18.84375 56 30.609375 56 
z
" id="DejaVuSans-111"/>
      <path d="M 34.28125 27.484375 
Q 23.390625 27.484375 19.1875 25 
Q 14.984375 22.515625 14.984375 16.5 
Q 14.984375 11.71875 18.140625 8.90625 
Q 21.296875 6.109375 26.703125 6.109375 
Q 34.1875 6.109375 38.703125 11.40625 
Q 43.21875 16.703125 43.21875 25.484375 
L 43.21875 27.484375 
z
M 52.203125 31.203125 
L 52.203125 0 
L 43.21875 0 
L 43.21875 8.296875 
Q 40.140625 3.328125 35.546875 0.953125 
Q 30.953125 -1.421875 24.3125 -1.421875 
Q 15.921875 -1.421875 10.953125 3.296875 
Q 6 8.015625 6 15.921875 
Q 6 25.140625 12.171875 29.828125 
Q 18.359375 34.515625 30.609375 34.515625 
L 43.21875 34.515625 
L 43.21875 35.40625 
Q 43.21875 41.609375 39.140625 45 
Q 35.0625 48.390625 27.6875 48.390625 
Q 23 48.390625 18.546875 47.265625 
Q 14.109375 46.140625 10.015625 43.890625 
L 10.015625 52.203125 
Q 14.9375 54.109375 19.578125 55.046875 
Q 24.21875 56 28.609375 56 
Q 40.484375 56 46.34375 49.84375 
Q 52.203125 43.703125 52.203125 31.203125 
z
" id="DejaVuSans-97"/>
      <path d="M 45.40625 46.390625 
L 45.40625 75.984375 
L 54.390625 75.984375 
L 54.390625 0 
L 45.40625 0 
L 45.40625 8.203125 
Q 42.578125 3.328125 38.25 0.953125 
Q 33.9375 -1.421875 27.875 -1.421875 
Q 17.96875 -1.421875 11.734375 6.484375 
Q 5.515625 14.40625 5.515625 27.296875 
Q 5.515625 40.1875 11.734375 48.09375 
Q 17.96875 56 27.875 56 
Q 33.9375 56 38.25 53.625 
Q 42.578125 51.265625 45.40625 46.390625 
z
M 14.796875 27.296875 
Q 14.796875 17.390625 18.875 11.75 
Q 22.953125 6.109375 30.078125 6.109375 
Q 37.203125 6.109375 41.296875 11.75 
Q 45.40625 17.390625 45.40625 27.296875 
Q 45.40625 37.203125 41.296875 42.84375 
Q 37.203125 48.484375 30.078125 48.484375 
Q 22.953125 48.484375 18.875 42.84375 
Q 14.796875 37.203125 14.796875 27.296875 
z
" id="DejaVuSans-100"/>
     </defs>
     <g transform="translate(146.920312 89.706719)rotate(-90)scale(0.1 -0.1)">
      <use xlink:href="#DejaVuSans-108"/>
      <use x="27.783203" xlink:href="#DejaVuSans-111"/>
      <use x="88.964844" xlink:href="#DejaVuSans-97"/>
      <use x="150.244141" xlink:href="#DejaVuSans-100"/>
     </g>
    </g>
   </g>
   <g id="patch_3">
    <path d="M 153 106.2 
L 153 51.84 
" style="fill:none;stroke:#000000;stroke-linecap:square;stroke-linejoin:miter;stroke-width:0.8;"/>
   </g>
   <g id="patch_4">
    <path d="M 1101.6 106.2 
L 1101.6 51.84 
" style="fill:none;stroke:#000000;stroke-linecap:square;stroke-linejoin:miter;stroke-width:0.8;"/>
   </g>
   <g id="patch_5">
    <path d="M 153 106.2 
L 1101.6 106.2 
" style="fill:none;stroke:#000000;stroke-linecap:square;stroke-linejoin:miter;stroke-width:0.8;"/>
   </g>
   <g id="patch_6">
    <path d="M 153 51.84 
L 1101.6 51.84 
" style="fill:none;stroke:#000000;stroke-linecap:square;stroke-linejoin:miter;stroke-width:0.8;"/>
   </g>
  </g>
  <g id="axes_2">
   <g id="patch_7">
    <path d="M 153 160.56 
L 1101.6 160.56 
L 1101.6 106.2 
L 153 106.2 
z
" style="fill:#ffffff;"/>
   </g>
   <g id="BrokenBarHCollection_2">
    <path clip-path="url(#p54a2e806e4)" d="M 244.661573 160.56 
L 244.661573 106.2 
L 269.072863 106.2 
L 269.072863 160.56 
L 244.661573 160.56 
z
" style="fill:#5c01a6;fill-opacity:0.66;"/>
    <path clip-path="url(#p54a2e806e4)" d="M 320.993756 160.56 
L 320.993756 106.2 
L 345.364562 106.2 
L 345.364562 160.56 
L 320.993756 160.56 
z
" style="fill:#5c01a6;fill-opacity:0.66;"/>
    <path clip-path="url(#p54a2e806e4)" d="M 400.473657 160.56 
L 400.473657 106.2 
L 425.097944 106.2 
L 425.097944 160.56 
L 400.473657 160.56 
z
" style="fill:#5c01a6;fill-opacity:0.66;"/>
   </g>
   <g id="matplotlib.axis_3">
    <g id="xtick_7">
     <g id="line2d_13">
      <path clip-path="url(#p54a2e806e4)" d="M 169.116321 160.56 
L 169.116321 106.2 
" style="fill:none;stroke:#000000;stroke-dasharray:0.8,1.32;stroke-dashoffset:0;stroke-width:0.8;"/>
     </g>
     <g id="line2d_14">
      <g>
       <use style="stroke:#000000;stroke-width:0.8;" x="169.116321" xlink:href="#m155efcefed" y="160.56"/>
      </g>
     </g>
    </g>
    <g id="xtick_8">
     <g id="line2d_15">
      <path clip-path="url(#p54a2e806e4)" d="M 330.279526 160.56 
L 330.279526 106.2 
" style="fill:none;stroke:#000000;stroke-dasharray:0.8,1.32;stroke-dashoffset:0;stroke-width:0.8;"/>
     </g>
     <g id="line2d_16">
      <g>
       <use style="stroke:#000000;stroke-width:0.8;" x="330.279526" xlink:href="#m155efcefed" y="160.56"/>
      </g>
     </g>
    </g>
    <g id="xtick_9">
     <g id="line2d_17">
      <path clip-path="url(#p54a2e806e4)" d="M 491.442732 160.56 
L 491.442732 106.2 
" style="fill:none;stroke:#000000;stroke-dasharray:0.8,1.32;stroke-dashoffset:0;stroke-width:0.8;"/>
     </g>
     <g id="line2d_18">
      <g>
       <use style="stroke:#000000;stroke-width:0.8;" x="491.442732" xlink:href="#m155efcefed" y="160.56"/>
      </g>
     </g>
    </g>
    <g id="xtick_10">
     <g id="line2d_19">
      <path clip-path="url(#p54a2e806e4)" d="M 652.605938 160.56 
L 652.605938 106.2 
" style="fill:none;stroke:#000000;stroke-dasharray:0.8,1.32;stroke-dashoffset:0;stroke-width:0.8;"/>
     </g>
     <g id="line2d_20">
      <g>
       <use style="stroke:#000000;stroke-width:0.8;" x="652.605938" xlink:href="#m155efcefed" y="160.56"/>
      </g>
     </g>
    </g>
    <g id="xtick_11">
     <g id="line2d_21">
      <path clip-path="url(#p54a2e806e4)" d="M 813.769144 160.56 
L 813.769144 106.2 
" style="fill:none;stroke:#000000;stroke-dasharray:0.8,1.32;stroke-dashoffset:0;stroke-width:0.8;"/>
     </g>
     <g id="line2d_22">
      <g>
       <use style="stroke:#000000;stroke-width:0.8;" x="813.769144" xlink:href="#m155efcefed" y="160.56"/>
      </g>
     </g>
    </g>
    <g id="xtick_12">
     <g id="line2d_23">
      <path clip-path="url(#p54a2e806e4)" d="M 974.93235 160.56 
L 974.93235 106.2 
" style="fill:none;stroke:#000000;stroke-dasharray:0.8,1.32;stroke-dashoffset:0;stroke-width:0.8;"/>
     </g>
     <g id="line2d_24">
      <g>
       <use style="stroke:#000000;stroke-width:0.8;" x="974.93235" xlink:href="#m155efcefed" y="160.56"/>
      </g>
     </g>
    </g>
    <g id="text_3">
     <!-- time (s) -->
     <g transform="translate(607.908594 172.158437)scale(0.1 -0.1)">
      <use xlink:href="#DejaVuSans-116"/>
      <use x="39.208984" xlink:href="#DejaVuSans-105"/>
      <use x="66.992188" xlink:href="#DejaVuSans-109"/>
      <use x="164.404297" xlink:href="#DejaVuSans-101"/>
      <use x="225.927734" xlink:href="#DejaVuSans-32"/>
      <use x="257.714844" xlink:href="#DejaVuSans-40"/>
      <use x="296.728516" xlink:href="#DejaVuSans-115"/>
      <use x="348.828125" xlink:href="#DejaVuSans-41"/>
     </g>
    </g>
   </g>
   <g id="matplotlib.axis_4">
    <g id="text_4">
     <!-- fetch -->
     <defs>
      <path d="M 37.109375 75.984375 
L 37.109375 68.5 
L 28.515625 68.5 
Q 23.6875 68.5 21.796875 66.546875 
Q 19.921875 64.59375 19.921875 59.515625 
L 19.921875 54.6875 
L 34.71875 54.6875 
L 34.71875 47.703125 
L 19.921875 47.703125 
L 19.921875 0 
L 10.890625 0 
L 10.890625 47.703125 
L 2.296875 47.703125 
L 2.296875 54.6875 
L 10.890625 54.6875 
L 10.890625 58.5 
Q 10.890625 67.625 15.140625 71.796875 
Q 19.390625 75.984375 28.609375 75.984375 
z
" id="DejaVuSans-102"/>
      <path d="M 48.78125 52.59375 
L 48.78125 44.1875 
Q 44.96875 46.296875 41.140625 47.34375 
Q 37.3125 48.390625 33.40625 48.390625 
Q 24.65625 48.390625 19.8125 42.84375 
Q 14.984375 37.3125 14.984375 27.296875 
Q 14.984375 17.28125 19.8125 11.734375 
Q 24.65625 6.203125 33.40625 6.203125 
Q 37.3125 6.203125 41.140625 7.25 
Q 44.96875 8.296875 48.78125 10.40625 
L 48.78125 2.09375 
Q 45.015625 0.34375 40.984375 -0.53125 
Q 36.96875 -1.421875 32.421875 -1.421875 
Q 20.0625 -1.421875 12.78125 6.34375 
Q 5.515625 14.109375 5.515625 27.296875 
Q 5.515625 40.671875 12.859375 48.328125 
Q 20.21875 56 33.015625 56 
Q 37.15625 56 41.109375 55.140625 
Q 45.0625 54.296875 48.78125 52.59375 
z
" id="DejaVuSans-99"/>
      <path d="M 54.890625 33.015625 
L 54.890625 0 
L 45.90625 0 
L 45.90625 32.71875 
Q 45.90625 40.484375 42.875 44.328125 
Q 39.84375 48.1875 33.796875 48.1875 
Q 26.515625 48.1875 22.3125 43.546875 
Q 18.109375 38.921875 18.109375 30.90625 
L 18.109375 0 
L 9.078125 0 
L 9.078125 75.984375 
L 18.109375 75.984375 
L 18.109375 46.1875 
Q 21.34375 51.125 25.703125 53.5625 
Q 30.078125 56 35.796875 56 
Q 45.21875 56 50.046875 50.171875 
Q 54.890625 44.34375 54.890625 33.015625 
z
" id="DejaVuSans-104"/>
     </defs>
     <g transform="translate(146.920312 146.094844)rotate(-90)scale(0.1 -0.1)">
      <use xlink:href="#DejaVuSans-102"/>
      <use x="35.205078" xlink:href="#DejaVuSans-101"/>
      <use x="96.728516" xlink:href="#DejaVuSans-116"/>
      <use x="135.9375" xlink:href="#DejaVuSans-99"/>
      <use x="190.917969" xlink:href="#DejaVuSans-104"/>
     </g>
    </g>
   </g>
   <g id="patch_8">
    <path d="M 153 160.56 
L 153 106.2 
" style="fill:none;stroke:#000000;stroke-linecap:square;stroke-linejoin:miter;stroke-width:0.8;"/>
   </g>
   <g id="patch_9">
    <path d="M 1101.6 160.56 
L 1101.6 106.2 
" style="fill:none;stroke:#000000;stroke-linecap:square;stroke-linejoin:miter;stroke-width:0.8;"/>
   </g>
   <g id="patch_10">
    <path d="M 153 160.56 
L 1101.6 160.56 
" style="fill:none;stroke:#000000;stroke-linecap:square;stroke-linejoin:miter;stroke-width:0.8;"/>
   </g>
   <g id="patch_11">
    <path d="M 153 106.2 
L 1101.6 106.2 
" style="fill:none;stroke:#000000;stroke-linecap:square;stroke-linejoin:miter;stroke-width:0.8;"/>
   </g>
  </g>
  <g id="axes_3">
   <g id="patch_12">
    <path d="M 153 214.92 
L 1101.6 214.92 
L 1101.6 160.56 
L 153 160.56 
z
" style="fill:#ffffff;"/>
   </g>
   <g id="BrokenBarHCollection_3">
    <path clip-path="url(#p6d04fdd447)" d="M 270.630254 214.92 
L 270.630254 160.56 
L 279.391139 160.56 
L 279.391139 214.92 
L 270.630254 214.92 
z
" style="fill:#9c179e;fill-opacity:0.66;"/>
    <path clip-path="url(#p6d04fdd447)" d="M 347.749366 214.92 
L 347.749366 160.56 
L 356.545097 160.56 
L 356.545097 214.92 
L 347.749366 214.92 
z
" style="fill:#9c179e;fill-opacity:0.66;"/>
    <path clip-path="url(#p6d04fdd447)" d="M 428.016197 214.92 
L 428.016197 160.56 
L 436.810055 160.56 
L 436.810055 214.92 
L 428.016197 214.92 
z
" style="fill:#9c179e;fill-opacity:0.66;"/>
   </g>
   <g id="matplotlib.axis_5">
    <g id="xtick_13">
     <g id="line2d_25">
      <path clip-path="url(#p6d04fdd447)" d="M 169.116321 214.92 
L 169.116321 160.56 
" style="fill:none;stroke:#000000;stroke-dasharray:0.8,1.32;stroke-dashoffset:0;stroke-width:0.8;"/>
     </g>
     <g id="line2d_26">
      <g>
       <use style="stroke:#000000;stroke-width:0.8;" x="169.116321" xlink:href="#m155efcefed" y="214.92"/>
      </g>
     </g>
    </g>
    <g id="xtick_14">
     <g id="line2d_27">
      <path clip-path="url(#p6d04fdd447)" d="M 330.279526 214.92 
L 330.279526 160.56 
" style="fill:none;stroke:#000000;stroke-dasharray:0.8,1.32;stroke-dashoffset:0;stroke-width:0.8;"/>
     </g>
     <g id="line2d_28">
      <g>
       <use style="stroke:#000000;stroke-width:0.8;" x="330.279526" xlink:href="#m155efcefed" y="214.92"/>
      </g>
     </g>
    </g>
    <g id="xtick_15">
     <g id="line2d_29">
      <path clip-path="url(#p6d04fdd447)" d="M 491.442732 214.92 
L 491.442732 160.56 
" style="fill:none;stroke:#000000;stroke-dasharray:0.8,1.32;stroke-dashoffset:0;stroke-width:0.8;"/>
     </g>
     <g id="line2d_30">
      <g>
       <use style="stroke:#000000;stroke-width:0.8;" x="491.442732" xlink:href="#m155efcefed" y="214.92"/>
      </g>
     </g>
    </g>
    <g id="xtick_16">
     <g id="line2d_31">
      <path clip-path="url(#p6d04fdd447)" d="M 652.605938 214.92 
L 652.605938 160.56 
" style="fill:none;stroke:#000000;stroke-dasharray:0.8,1.32;stroke-dashoffset:0;stroke-width:0.8;"/>
     </g>
     <g id="line2d_32">
      <g>
       <use style="stroke:#000000;stroke-width:0.8;" x="652.605938" xlink:href="#m155efcefed" y="214.92"/>
      </g>
     </g>
    </g>
    <g id="xtick_17">
     <g id="line2d_33">
      <path clip-path="url(#p6d04fdd447)" d="M 813.769144 214.92 
L 813.769144 160.56 
" style="fill:none;stroke:#000000;stroke-dasharray:0.8,1.32;stroke-dashoffset:0;stroke-width:0.8;"/>
     </g>
     <g id="line2d_34">
      <g>
       <use style="stroke:#000000;stroke-width:0.8;" x="813.769144" xlink:href="#m155efcefed" y="214.92"/>
      </g>
     </g>
    </g>
    <g id="xtick_18">
     <g id="line2d_35">
      <path clip-path="url(#p6d04fdd447)" d="M 974.93235 214.92 
L 974.93235 160.56 
" style="fill:none;stroke:#000000;stroke-dasharray:0.8,1.32;stroke-dashoffset:0;stroke-width:0.8;"/>
     </g>
     <g id="line2d_36">
      <g>
       <use style="stroke:#000000;stroke-width:0.8;" x="974.93235" xlink:href="#m155efcefed" y="214.92"/>
      </g>
     </g>
    </g>
    <g id="text_5">
     <!-- time (s) -->
     <g transform="translate(607.908594 226.518437)scale(0.1 -0.1)">
      <use xlink:href="#DejaVuSans-116"/>
      <use x="39.208984" xlink:href="#DejaVuSans-105"/>
      <use x="66.992188" xlink:href="#DejaVuSans-109"/>
      <use x="164.404297" xlink:href="#DejaVuSans-101"/>
      <use x="225.927734" xlink:href="#DejaVuSans-32"/>
      <use x="257.714844" xlink:href="#DejaVuSans-40"/>
      <use x="296.728516" xlink:href="#DejaVuSans-115"/>
      <use x="348.828125" xlink:href="#DejaVuSans-41"/>
     </g>
    </g>
   </g>
   <g id="matplotlib.axis_6">
    <g id="text_6">
     <!-- 1st map -->
     <defs>
      <path d="M 12.40625 8.296875 
L 28.515625 8.296875 
L 28.515625 63.921875 
L 10.984375 60.40625 
L 10.984375 69.390625 
L 28.421875 72.90625 
L 38.28125 72.90625 
L 38.28125 8.296875 
L 54.390625 8.296875 
L 54.390625 0 
L 12.40625 0 
z
" id="DejaVuSans-49"/>
      <path d="M 18.109375 8.203125 
L 18.109375 -20.796875 
L 9.078125 -20.796875 
L 9.078125 54.6875 
L 18.109375 54.6875 
L 18.109375 46.390625 
Q 20.953125 51.265625 25.265625 53.625 
Q 29.59375 56 35.59375 56 
Q 45.5625 56 51.78125 48.09375 
Q 58.015625 40.1875 58.015625 27.296875 
Q 58.015625 14.40625 51.78125 6.484375 
Q 45.5625 -1.421875 35.59375 -1.421875 
Q 29.59375 -1.421875 25.265625 0.953125 
Q 20.953125 3.328125 18.109375 8.203125 
z
M 48.6875 27.296875 
Q 48.6875 37.203125 44.609375 42.84375 
Q 40.53125 48.484375 33.40625 48.484375 
Q 26.265625 48.484375 22.1875 42.84375 
Q 18.109375 37.203125 18.109375 27.296875 
Q 18.109375 17.390625 22.1875 11.75 
Q 26.265625 6.109375 33.40625 6.109375 
Q 40.53125 6.109375 44.609375 11.75 
Q 48.6875 17.390625 48.6875 27.296875 
z
" id="DejaVuSans-112"/>
     </defs>
     <g transform="translate(146.920312 208.18375)rotate(-90)scale(0.1 -0.1)">
      <use xlink:href="#DejaVuSans-49"/>
      <use x="63.623047" xlink:href="#DejaVuSans-115"/>
      <use x="115.722656" xlink:href="#DejaVuSans-116"/>
      <use x="154.931641" xlink:href="#DejaVuSans-32"/>
      <use x="186.71875" xlink:href="#DejaVuSans-109"/>
      <use x="284.130859" xlink:href="#DejaVuSans-97"/>
      <use x="345.410156" xlink:href="#DejaVuSans-112"/>
     </g>
    </g>
   </g>
   <g id="patch_13">
    <path d="M 153 214.92 
L 153 160.56 
" style="fill:none;stroke:#000000;stroke-linecap:square;stroke-linejoin:miter;stroke-width:0.8;"/>
   </g>
   <g id="patch_14">
    <path d="M 1101.6 214.92 
L 1101.6 160.56 
" style="fill:none;stroke:#000000;stroke-linecap:square;stroke-linejoin:miter;stroke-width:0.8;"/>
   </g>
   <g id="patch_15">
    <path d="M 153 214.92 
L 1101.6 214.92 
" style="fill:none;stroke:#000000;stroke-linecap:square;stroke-linejoin:miter;stroke-width:0.8;"/>
   </g>
   <g id="patch_16">
    <path d="M 153 160.56 
L 1101.6 160.56 
" style="fill:none;stroke:#000000;stroke-linecap:square;stroke-linejoin:miter;stroke-width:0.8;"/>
   </g>
  </g>
  <g id="axes_4">
   <g id="patch_17">
    <path d="M 153 269.28 
L 1101.6 269.28 
L 1101.6 214.92 
L 153 214.92 
z
" style="fill:#ffffff;"/>
   </g>
   <g id="BrokenBarHCollection_4">
    <path clip-path="url(#p143a48e40b)" d="M 284.008059 269.28 
L 284.008059 214.92 
L 292.765126 214.92 
L 292.765126 269.28 
L 284.008059 269.28 
z
" style="fill:#cc4778;fill-opacity:0.66;"/>
    <path clip-path="url(#p143a48e40b)" d="M 363.487961 269.28 
L 363.487961 214.92 
L 372.278624 214.92 
L 372.278624 269.28 
L 363.487961 269.28 
z
" style="fill:#cc4778;fill-opacity:0.66;"/>
    <path clip-path="url(#p143a48e40b)" d="M 443.754792 269.28 
L 443.754792 214.92 
L 452.402085 214.92 
L 452.402085 269.28 
L 443.754792 269.28 
z
" style="fill:#cc4778;fill-opacity:0.66;"/>
    <path clip-path="url(#p143a48e40b)" d="M 545.268725 269.28 
L 545.268725 214.92 
L 553.974639 214.92 
L 553.974639 269.28 
L 545.268725 269.28 
z
" style="fill:#cc4778;fill-opacity:0.66;"/>
    <path clip-path="url(#p143a48e40b)" d="M 577.532843 269.28 
L 577.532843 214.92 
L 586.217985 214.92 
L 586.217985 269.28 
L 577.532843 269.28 
z
" style="fill:#cc4778;fill-opacity:0.66;"/>
    <path clip-path="url(#p143a48e40b)" d="M 610.583891 269.28 
L 610.583891 214.92 
L 619.489492 214.92 
L 619.489492 269.28 
L 610.583891 269.28 
z
" style="fill:#cc4778;fill-opacity:0.66;"/>
    <path clip-path="url(#p143a48e40b)" d="M 710.523965 269.28 
L 710.523965 214.92 
L 719.229279 214.92 
L 719.229279 269.28 
L 710.523965 269.28 
z
" style="fill:#cc4778;fill-opacity:0.66;"/>
    <path clip-path="url(#p143a48e40b)" d="M 742.788084 269.28 
L 742.788084 214.92 
L 751.32044 214.92 
L 751.32044 269.28 
L 742.788084 269.28 
z
" style="fill:#cc4778;fill-opacity:0.66;"/>
    <path clip-path="url(#p143a48e40b)" d="M 775.052202 269.28 
L 775.052202 214.92 
L 783.779754 214.92 
L 783.779754 269.28 
L 775.052202 269.28 
z
" style="fill:#cc4778;fill-opacity:0.66;"/>
    <path clip-path="url(#p143a48e40b)" d="M 841.941228 269.28 
L 841.941228 214.92 
L 850.435833 214.92 
L 850.435833 269.28 
L 841.941228 269.28 
z
" style="fill:#cc4778;fill-opacity:0.66;"/>
    <path clip-path="url(#p143a48e40b)" d="M 872.631487 269.28 
L 872.631487 214.92 
L 881.038196 214.92 
L 881.038196 269.28 
L 872.631487 269.28 
z
" style="fill:#cc4778;fill-opacity:0.66;"/>
    <path clip-path="url(#p143a48e40b)" d="M 905.682535 269.28 
L 905.682535 214.92 
L 914.536407 214.92 
L 914.536407 269.28 
L 905.682535 269.28 
z
" style="fill:#cc4778;fill-opacity:0.66;"/>
    <path clip-path="url(#p143a48e40b)" d="M 995.392523 269.28 
L 995.392523 214.92 
L 1003.793228 214.92 
L 1003.793228 269.28 
L 995.392523 269.28 
z
" style="fill:#cc4778;fill-opacity:0.66;"/>
    <path clip-path="url(#p143a48e40b)" d="M 1024.508922 269.28 
L 1024.508922 214.92 
L 1032.839983 214.92 
L 1032.839983 269.28 
L 1024.508922 269.28 
z
" style="fill:#cc4778;fill-opacity:0.66;"/>
    <path clip-path="url(#p143a48e40b)" d="M 1054.412251 269.28 
L 1054.412251 214.92 
L 1062.807769 214.92 
L 1062.807769 269.28 
L 1054.412251 269.28 
z
" style="fill:#cc4778;fill-opacity:0.66;"/>
   </g>
   <g id="matplotlib.axis_7">
    <g id="xtick_19">
     <g id="line2d_37">
      <path clip-path="url(#p143a48e40b)" d="M 169.116321 269.28 
L 169.116321 214.92 
" style="fill:none;stroke:#000000;stroke-dasharray:0.8,1.32;stroke-dashoffset:0;stroke-width:0.8;"/>
     </g>
     <g id="line2d_38">
      <g>
       <use style="stroke:#000000;stroke-width:0.8;" x="169.116321" xlink:href="#m155efcefed" y="269.28"/>
      </g>
     </g>
    </g>
    <g id="xtick_20">
     <g id="line2d_39">
      <path clip-path="url(#p143a48e40b)" d="M 330.279526 269.28 
L 330.279526 214.92 
" style="fill:none;stroke:#000000;stroke-dasharray:0.8,1.32;stroke-dashoffset:0;stroke-width:0.8;"/>
     </g>
     <g id="line2d_40">
      <g>
       <use style="stroke:#000000;stroke-width:0.8;" x="330.279526" xlink:href="#m155efcefed" y="269.28"/>
      </g>
     </g>
    </g>
    <g id="xtick_21">
     <g id="line2d_41">
      <path clip-path="url(#p143a48e40b)" d="M 491.442732 269.28 
L 491.442732 214.92 
" style="fill:none;stroke:#000000;stroke-dasharray:0.8,1.32;stroke-dashoffset:0;stroke-width:0.8;"/>
     </g>
     <g id="line2d_42">
      <g>
       <use style="stroke:#000000;stroke-width:0.8;" x="491.442732" xlink:href="#m155efcefed" y="269.28"/>
      </g>
     </g>
    </g>
    <g id="xtick_22">
     <g id="line2d_43">
      <path clip-path="url(#p143a48e40b)" d="M 652.605938 269.28 
L 652.605938 214.92 
" style="fill:none;stroke:#000000;stroke-dasharray:0.8,1.32;stroke-dashoffset:0;stroke-width:0.8;"/>
     </g>
     <g id="line2d_44">
      <g>
       <use style="stroke:#000000;stroke-width:0.8;" x="652.605938" xlink:href="#m155efcefed" y="269.28"/>
      </g>
     </g>
    </g>
    <g id="xtick_23">
     <g id="line2d_45">
      <path clip-path="url(#p143a48e40b)" d="M 813.769144 269.28 
L 813.769144 214.92 
" style="fill:none;stroke:#000000;stroke-dasharray:0.8,1.32;stroke-dashoffset:0;stroke-width:0.8;"/>
     </g>
     <g id="line2d_46">
      <g>
       <use style="stroke:#000000;stroke-width:0.8;" x="813.769144" xlink:href="#m155efcefed" y="269.28"/>
      </g>
     </g>
    </g>
    <g id="xtick_24">
     <g id="line2d_47">
      <path clip-path="url(#p143a48e40b)" d="M 974.93235 269.28 
L 974.93235 214.92 
" style="fill:none;stroke:#000000;stroke-dasharray:0.8,1.32;stroke-dashoffset:0;stroke-width:0.8;"/>
     </g>
     <g id="line2d_48">
      <g>
       <use style="stroke:#000000;stroke-width:0.8;" x="974.93235" xlink:href="#m155efcefed" y="269.28"/>
      </g>
     </g>
    </g>
    <g id="text_7">
     <!-- time (s) -->
     <g transform="translate(607.908594 280.878437)scale(0.1 -0.1)">
      <use xlink:href="#DejaVuSans-116"/>
      <use x="39.208984" xlink:href="#DejaVuSans-105"/>
      <use x="66.992188" xlink:href="#DejaVuSans-109"/>
      <use x="164.404297" xlink:href="#DejaVuSans-101"/>
      <use x="225.927734" xlink:href="#DejaVuSans-32"/>
      <use x="257.714844" xlink:href="#DejaVuSans-40"/>
      <use x="296.728516" xlink:href="#DejaVuSans-115"/>
      <use x="348.828125" xlink:href="#DejaVuSans-41"/>
     </g>
    </g>
   </g>
   <g id="matplotlib.axis_8">
    <g id="text_8">
     <!-- 2nd map -->
     <defs>
      <path d="M 19.1875 8.296875 
L 53.609375 8.296875 
L 53.609375 0 
L 7.328125 0 
L 7.328125 8.296875 
Q 12.9375 14.109375 22.625 23.890625 
Q 32.328125 33.6875 34.8125 36.53125 
Q 39.546875 41.84375 41.421875 45.53125 
Q 43.3125 49.21875 43.3125 52.78125 
Q 43.3125 58.59375 39.234375 62.25 
Q 35.15625 65.921875 28.609375 65.921875 
Q 23.96875 65.921875 18.8125 64.3125 
Q 13.671875 62.703125 7.8125 59.421875 
L 7.8125 69.390625 
Q 13.765625 71.78125 18.9375 73 
Q 24.125 74.21875 28.421875 74.21875 
Q 39.75 74.21875 46.484375 68.546875 
Q 53.21875 62.890625 53.21875 53.421875 
Q 53.21875 48.921875 51.53125 44.890625 
Q 49.859375 40.875 45.40625 35.40625 
Q 44.1875 33.984375 37.640625 27.21875 
Q 31.109375 20.453125 19.1875 8.296875 
z
" id="DejaVuSans-50"/>
      <path d="M 54.890625 33.015625 
L 54.890625 0 
L 45.90625 0 
L 45.90625 32.71875 
Q 45.90625 40.484375 42.875 44.328125 
Q 39.84375 48.1875 33.796875 48.1875 
Q 26.515625 48.1875 22.3125 43.546875 
Q 18.109375 38.921875 18.109375 30.90625 
L 18.109375 0 
L 9.078125 0 
L 9.078125 54.6875 
L 18.109375 54.6875 
L 18.109375 46.1875 
Q 21.34375 51.125 25.703125 53.5625 
Q 30.078125 56 35.796875 56 
Q 45.21875 56 50.046875 50.171875 
Q 54.890625 44.34375 54.890625 33.015625 
z
" id="DejaVuSans-110"/>
     </defs>
     <g transform="translate(146.920312 264.321875)rotate(-90)scale(0.1 -0.1)">
      <use xlink:href="#DejaVuSans-50"/>
      <use x="63.623047" xlink:href="#DejaVuSans-110"/>
      <use x="127.001953" xlink:href="#DejaVuSans-100"/>
      <use x="190.478516" xlink:href="#DejaVuSans-32"/>
      <use x="222.265625" xlink:href="#DejaVuSans-109"/>
      <use x="319.677734" xlink:href="#DejaVuSans-97"/>
      <use x="380.957031" xlink:href="#DejaVuSans-112"/>
     </g>
    </g>
   </g>
   <g id="patch_18">
    <path d="M 153 269.28 
L 153 214.92 
" style="fill:none;stroke:#000000;stroke-linecap:square;stroke-linejoin:miter;stroke-width:0.8;"/>
   </g>
   <g id="patch_19">
    <path d="M 1101.6 269.28 
L 1101.6 214.92 
" style="fill:none;stroke:#000000;stroke-linecap:square;stroke-linejoin:miter;stroke-width:0.8;"/>
   </g>
   <g id="patch_20">
    <path d="M 153 269.28 
L 1101.6 269.28 
" style="fill:none;stroke:#000000;stroke-linecap:square;stroke-linejoin:miter;stroke-width:0.8;"/>
   </g>
   <g id="patch_21">
    <path d="M 153 214.92 
L 1101.6 214.92 
" style="fill:none;stroke:#000000;stroke-linecap:square;stroke-linejoin:miter;stroke-width:0.8;"/>
   </g>
  </g>
  <g id="axes_5">
   <g id="patch_22">
    <path d="M 153 323.64 
L 1101.6 323.64 
L 1101.6 269.28 
L 153 269.28 
z
" style="fill:#ffffff;"/>
   </g>
   <g id="BrokenBarHCollection_5">
    <path clip-path="url(#pc34a1c00d8)" d="M 299.746653 323.64 
L 299.746653 269.28 
L 316.303986 269.28 
L 316.303986 323.64 
L 299.746653 323.64 
z
" style="fill:#ed7953;fill-opacity:0.66;"/>
    <path clip-path="url(#pc34a1c00d8)" d="M 379.226555 323.64 
L 379.226555 269.28 
L 395.782146 269.28 
L 395.782146 323.64 
L 379.226555 323.64 
z
" style="fill:#ed7953;fill-opacity:0.66;"/>
    <path clip-path="url(#pc34a1c00d8)" d="M 458.706456 323.64 
L 458.706456 269.28 
L 475.316562 269.28 
L 475.316562 323.64 
L 458.706456 323.64 
z
" style="fill:#ed7953;fill-opacity:0.66;"/>
    <path clip-path="url(#pc34a1c00d8)" d="M 557.8596 323.64 
L 557.8596 269.28 
L 574.373501 269.28 
L 574.373501 323.64 
L 557.8596 323.64 
z
" style="fill:#ed7953;fill-opacity:0.66;"/>
    <path clip-path="url(#pc34a1c00d8)" d="M 590.123719 323.64 
L 590.123719 269.28 
L 606.635698 269.28 
L 606.635698 323.64 
L 590.123719 323.64 
z
" style="fill:#ed7953;fill-opacity:0.66;"/>
    <path clip-path="url(#pc34a1c00d8)" d="M 626.322486 323.64 
L 626.322486 269.28 
L 642.854398 269.28 
L 642.854398 323.64 
L 626.322486 323.64 
z
" style="fill:#ed7953;fill-opacity:0.66;"/>
    <path clip-path="url(#pc34a1c00d8)" d="M 723.114841 323.64 
L 723.114841 269.28 
L 739.615341 269.28 
L 739.615341 323.64 
L 723.114841 323.64 
z
" style="fill:#ed7953;fill-opacity:0.66;"/>
    <path clip-path="url(#pc34a1c00d8)" d="M 754.592029 323.64 
L 754.592029 269.28 
L 770.947046 269.28 
L 770.947046 323.64 
L 754.592029 323.64 
z
" style="fill:#ed7953;fill-opacity:0.66;"/>
    <path clip-path="url(#pc34a1c00d8)" d="M 791.577726 323.64 
L 791.577726 269.28 
L 807.847921 269.28 
L 807.847921 323.64 
L 791.577726 323.64 
z
" style="fill:#ed7953;fill-opacity:0.66;"/>
    <path clip-path="url(#pc34a1c00d8)" d="M 853.745174 323.64 
L 853.745174 269.28 
L 870.290198 269.28 
L 870.290198 323.64 
L 853.745174 323.64 
z
" style="fill:#ed7953;fill-opacity:0.66;"/>
    <path clip-path="url(#pc34a1c00d8)" d="M 884.435433 323.64 
L 884.435433 269.28 
L 900.729258 269.28 
L 900.729258 323.64 
L 884.435433 323.64 
z
" style="fill:#ed7953;fill-opacity:0.66;"/>
    <path clip-path="url(#pc34a1c00d8)" d="M 921.421129 323.64 
L 921.421129 269.28 
L 937.829699 269.28 
L 937.829699 323.64 
L 921.421129 323.64 
z
" style="fill:#ed7953;fill-opacity:0.66;"/>
    <path clip-path="url(#pc34a1c00d8)" d="M 1006.409539 323.64 
L 1006.409539 269.28 
L 1022.652932 269.28 
L 1022.652932 323.64 
L 1006.409539 323.64 
z
" style="fill:#ed7953;fill-opacity:0.66;"/>
    <path clip-path="url(#pc34a1c00d8)" d="M 1035.525938 323.64 
L 1035.525938 269.28 
L 1052.075573 269.28 
L 1052.075573 323.64 
L 1035.525938 323.64 
z
" style="fill:#ed7953;fill-opacity:0.66;"/>
    <path clip-path="url(#pc34a1c00d8)" d="M 1066.216197 323.64 
L 1066.216197 269.28 
L 1082.563625 269.28 
L 1082.563625 323.64 
L 1066.216197 323.64 
z
" style="fill:#ed7953;fill-opacity:0.66;"/>
   </g>
   <g id="matplotlib.axis_9">
    <g id="xtick_25">
     <g id="line2d_49">
      <path clip-path="url(#pc34a1c00d8)" d="M 169.116321 323.64 
L 169.116321 269.28 
" style="fill:none;stroke:#000000;stroke-dasharray:0.8,1.32;stroke-dashoffset:0;stroke-width:0.8;"/>
     </g>
     <g id="line2d_50">
      <g>
       <use style="stroke:#000000;stroke-width:0.8;" x="169.116321" xlink:href="#m155efcefed" y="323.64"/>
      </g>
     </g>
    </g>
    <g id="xtick_26">
     <g id="line2d_51">
      <path clip-path="url(#pc34a1c00d8)" d="M 330.279526 323.64 
L 330.279526 269.28 
" style="fill:none;stroke:#000000;stroke-dasharray:0.8,1.32;stroke-dashoffset:0;stroke-width:0.8;"/>
     </g>
     <g id="line2d_52">
      <g>
       <use style="stroke:#000000;stroke-width:0.8;" x="330.279526" xlink:href="#m155efcefed" y="323.64"/>
      </g>
     </g>
    </g>
    <g id="xtick_27">
     <g id="line2d_53">
      <path clip-path="url(#pc34a1c00d8)" d="M 491.442732 323.64 
L 491.442732 269.28 
" style="fill:none;stroke:#000000;stroke-dasharray:0.8,1.32;stroke-dashoffset:0;stroke-width:0.8;"/>
     </g>
     <g id="line2d_54">
      <g>
       <use style="stroke:#000000;stroke-width:0.8;" x="491.442732" xlink:href="#m155efcefed" y="323.64"/>
      </g>
     </g>
    </g>
    <g id="xtick_28">
     <g id="line2d_55">
      <path clip-path="url(#pc34a1c00d8)" d="M 652.605938 323.64 
L 652.605938 269.28 
" style="fill:none;stroke:#000000;stroke-dasharray:0.8,1.32;stroke-dashoffset:0;stroke-width:0.8;"/>
     </g>
     <g id="line2d_56">
      <g>
       <use style="stroke:#000000;stroke-width:0.8;" x="652.605938" xlink:href="#m155efcefed" y="323.64"/>
      </g>
     </g>
    </g>
    <g id="xtick_29">
     <g id="line2d_57">
      <path clip-path="url(#pc34a1c00d8)" d="M 813.769144 323.64 
L 813.769144 269.28 
" style="fill:none;stroke:#000000;stroke-dasharray:0.8,1.32;stroke-dashoffset:0;stroke-width:0.8;"/>
     </g>
     <g id="line2d_58">
      <g>
       <use style="stroke:#000000;stroke-width:0.8;" x="813.769144" xlink:href="#m155efcefed" y="323.64"/>
      </g>
     </g>
    </g>
    <g id="xtick_30">
     <g id="line2d_59">
      <path clip-path="url(#pc34a1c00d8)" d="M 974.93235 323.64 
L 974.93235 269.28 
" style="fill:none;stroke:#000000;stroke-dasharray:0.8,1.32;stroke-dashoffset:0;stroke-width:0.8;"/>
     </g>
     <g id="line2d_60">
      <g>
       <use style="stroke:#000000;stroke-width:0.8;" x="974.93235" xlink:href="#m155efcefed" y="323.64"/>
      </g>
     </g>
    </g>
    <g id="text_9">
     <!-- time (s) -->
     <g transform="translate(607.908594 335.238437)scale(0.1 -0.1)">
      <use xlink:href="#DejaVuSans-116"/>
      <use x="39.208984" xlink:href="#DejaVuSans-105"/>
      <use x="66.992188" xlink:href="#DejaVuSans-109"/>
      <use x="164.404297" xlink:href="#DejaVuSans-101"/>
      <use x="225.927734" xlink:href="#DejaVuSans-32"/>
      <use x="257.714844" xlink:href="#DejaVuSans-40"/>
      <use x="296.728516" xlink:href="#DejaVuSans-115"/>
      <use x="348.828125" xlink:href="#DejaVuSans-41"/>
     </g>
    </g>
   </g>
   <g id="matplotlib.axis_10">
    <g id="text_10">
     <!-- train -->
     <defs>
      <path d="M 41.109375 46.296875 
Q 39.59375 47.171875 37.8125 47.578125 
Q 36.03125 48 33.890625 48 
Q 26.265625 48 22.1875 43.046875 
Q 18.109375 38.09375 18.109375 28.8125 
L 18.109375 0 
L 9.078125 0 
L 9.078125 54.6875 
L 18.109375 54.6875 
L 18.109375 46.1875 
Q 20.953125 51.171875 25.484375 53.578125 
Q 30.03125 56 36.53125 56 
Q 37.453125 56 38.578125 55.875 
Q 39.703125 55.765625 41.0625 55.515625 
z
" id="DejaVuSans-114"/>
     </defs>
     <g transform="translate(146.920312 308.0975)rotate(-90)scale(0.1 -0.1)">
      <use xlink:href="#DejaVuSans-116"/>
      <use x="39.208984" xlink:href="#DejaVuSans-114"/>
      <use x="80.322266" xlink:href="#DejaVuSans-97"/>
      <use x="141.601562" xlink:href="#DejaVuSans-105"/>
      <use x="169.384766" xlink:href="#DejaVuSans-110"/>
     </g>
    </g>
   </g>
   <g id="patch_23">
    <path d="M 153 323.64 
L 153 269.28 
" style="fill:none;stroke:#000000;stroke-linecap:square;stroke-linejoin:miter;stroke-width:0.8;"/>
   </g>
   <g id="patch_24">
    <path d="M 1101.6 323.64 
L 1101.6 269.28 
" style="fill:none;stroke:#000000;stroke-linecap:square;stroke-linejoin:miter;stroke-width:0.8;"/>
   </g>
   <g id="patch_25">
    <path d="M 153 323.64 
L 1101.6 323.64 
" style="fill:none;stroke:#000000;stroke-linecap:square;stroke-linejoin:miter;stroke-width:0.8;"/>
   </g>
   <g id="patch_26">
    <path d="M 153 269.28 
L 1101.6 269.28 
" style="fill:none;stroke:#000000;stroke-linecap:square;stroke-linejoin:miter;stroke-width:0.8;"/>
   </g>
  </g>
  <g id="axes_6">
   <g id="patch_27">
    <path d="M 153 378 
L 1101.6 378 
L 1101.6 323.64 
L 153 323.64 
z
" style="fill:#ffffff;"/>
   </g>
   <g id="BrokenBarHCollection_6">
    <path clip-path="url(#p0d58df3ad6)" d="M 169.116321 378 
L 169.116321 323.64 
L 485.041657 323.64 
L 485.041657 378 
L 169.116321 378 
z
" style="fill:#fdb42f;fill-opacity:0.66;"/>
    <path clip-path="url(#p0d58df3ad6)" d="M 486.248996 378 
L 486.248996 323.64 
L 650.279798 323.64 
L 650.279798 378 
L 486.248996 378 
z
" style="fill:#fdb42f;fill-opacity:0.66;"/>
    <path clip-path="url(#p0d58df3ad6)" d="M 652.291166 378 
L 652.291166 323.64 
L 815.133217 323.64 
L 815.133217 378 
L 652.291166 378 
z
" style="fill:#fdb42f;fill-opacity:0.66;"/>
    <path clip-path="url(#p0d58df3ad6)" d="M 815.972547 378 
L 815.972547 323.64 
L 945.370469 323.64 
L 945.370469 378 
L 815.972547 378 
z
" style="fill:#fdb42f;fill-opacity:0.66;"/>
    <path clip-path="url(#p0d58df3ad6)" d="M 947.38981 378 
L 947.38981 323.64 
L 1085.483679 323.64 
L 1085.483679 378 
L 947.38981 378 
z
" style="fill:#fdb42f;fill-opacity:0.66;"/>
   </g>
   <g id="matplotlib.axis_11">
    <g id="xtick_31">
     <g id="line2d_61">
      <path clip-path="url(#p0d58df3ad6)" d="M 169.116321 378 
L 169.116321 323.64 
" style="fill:none;stroke:#000000;stroke-dasharray:0.8,1.32;stroke-dashoffset:0;stroke-width:0.8;"/>
     </g>
     <g id="line2d_62">
      <g>
       <use style="stroke:#000000;stroke-width:0.8;" x="169.116321" xlink:href="#m155efcefed" y="378"/>
      </g>
     </g>
    </g>
    <g id="xtick_32">
     <g id="line2d_63">
      <path clip-path="url(#p0d58df3ad6)" d="M 330.279526 378 
L 330.279526 323.64 
" style="fill:none;stroke:#000000;stroke-dasharray:0.8,1.32;stroke-dashoffset:0;stroke-width:0.8;"/>
     </g>
     <g id="line2d_64">
      <g>
       <use style="stroke:#000000;stroke-width:0.8;" x="330.279526" xlink:href="#m155efcefed" y="378"/>
      </g>
     </g>
    </g>
    <g id="xtick_33">
     <g id="line2d_65">
      <path clip-path="url(#p0d58df3ad6)" d="M 491.442732 378 
L 491.442732 323.64 
" style="fill:none;stroke:#000000;stroke-dasharray:0.8,1.32;stroke-dashoffset:0;stroke-width:0.8;"/>
     </g>
     <g id="line2d_66">
      <g>
       <use style="stroke:#000000;stroke-width:0.8;" x="491.442732" xlink:href="#m155efcefed" y="378"/>
      </g>
     </g>
    </g>
    <g id="xtick_34">
     <g id="line2d_67">
      <path clip-path="url(#p0d58df3ad6)" d="M 652.605938 378 
L 652.605938 323.64 
" style="fill:none;stroke:#000000;stroke-dasharray:0.8,1.32;stroke-dashoffset:0;stroke-width:0.8;"/>
     </g>
     <g id="line2d_68">
      <g>
       <use style="stroke:#000000;stroke-width:0.8;" x="652.605938" xlink:href="#m155efcefed" y="378"/>
      </g>
     </g>
    </g>
    <g id="xtick_35">
     <g id="line2d_69">
      <path clip-path="url(#p0d58df3ad6)" d="M 813.769144 378 
L 813.769144 323.64 
" style="fill:none;stroke:#000000;stroke-dasharray:0.8,1.32;stroke-dashoffset:0;stroke-width:0.8;"/>
     </g>
     <g id="line2d_70">
      <g>
       <use style="stroke:#000000;stroke-width:0.8;" x="813.769144" xlink:href="#m155efcefed" y="378"/>
      </g>
     </g>
    </g>
    <g id="xtick_36">
     <g id="line2d_71">
      <path clip-path="url(#p0d58df3ad6)" d="M 974.93235 378 
L 974.93235 323.64 
" style="fill:none;stroke:#000000;stroke-dasharray:0.8,1.32;stroke-dashoffset:0;stroke-width:0.8;"/>
     </g>
     <g id="line2d_72">
      <g>
       <use style="stroke:#000000;stroke-width:0.8;" x="974.93235" xlink:href="#m155efcefed" y="378"/>
      </g>
     </g>
    </g>
    <g id="text_11">
     <!-- time (s) -->
     <g transform="translate(607.908594 396.598437)scale(0.1 -0.1)">
      <use xlink:href="#DejaVuSans-116"/>
      <use x="39.208984" xlink:href="#DejaVuSans-105"/>
      <use x="66.992188" xlink:href="#DejaVuSans-109"/>
      <use x="164.404297" xlink:href="#DejaVuSans-101"/>
      <use x="225.927734" xlink:href="#DejaVuSans-32"/>
      <use x="257.714844" xlink:href="#DejaVuSans-40"/>
      <use x="296.728516" xlink:href="#DejaVuSans-115"/>
      <use x="348.828125" xlink:href="#DejaVuSans-41"/>
     </g>
    </g>
   </g>
   <g id="matplotlib.axis_12">
    <g id="text_12">
     <!-- epoch -->
     <g transform="translate(146.920312 366.048125)rotate(-90)scale(0.1 -0.1)">
      <use xlink:href="#DejaVuSans-101"/>
      <use x="61.523438" xlink:href="#DejaVuSans-112"/>
      <use x="125" xlink:href="#DejaVuSans-111"/>
      <use x="186.181641" xlink:href="#DejaVuSans-99"/>
      <use x="241.162109" xlink:href="#DejaVuSans-104"/>
     </g>
    </g>
   </g>
   <g id="patch_28">
    <path d="M 153 378 
L 153 323.64 
" style="fill:none;stroke:#000000;stroke-linecap:square;stroke-linejoin:miter;stroke-width:0.8;"/>
   </g>
   <g id="patch_29">
    <path d="M 1101.6 378 
L 1101.6 323.64 
" style="fill:none;stroke:#000000;stroke-linecap:square;stroke-linejoin:miter;stroke-width:0.8;"/>
   </g>
   <g id="patch_30">
    <path d="M 153 378 
L 1101.6 378 
" style="fill:none;stroke:#000000;stroke-linecap:square;stroke-linejoin:miter;stroke-width:0.8;"/>
   </g>
   <g id="patch_31">
    <path d="M 153 323.64 
L 1101.6 323.64 
" style="fill:none;stroke:#000000;stroke-linecap:square;stroke-linejoin:miter;stroke-width:0.8;"/>
   </g>
  </g>
  <g id="text_13">
   <!-- Cached dataset -->
   <defs>
    <path d="M 64.40625 67.28125 
L 64.40625 56.890625 
Q 59.421875 61.53125 53.78125 63.8125 
Q 48.140625 66.109375 41.796875 66.109375 
Q 29.296875 66.109375 22.65625 58.46875 
Q 16.015625 50.828125 16.015625 36.375 
Q 16.015625 21.96875 22.65625 14.328125 
Q 29.296875 6.6875 41.796875 6.6875 
Q 48.140625 6.6875 53.78125 8.984375 
Q 59.421875 11.28125 64.40625 15.921875 
L 64.40625 5.609375 
Q 59.234375 2.09375 53.4375 0.328125 
Q 47.65625 -1.421875 41.21875 -1.421875 
Q 24.65625 -1.421875 15.125 8.703125 
Q 5.609375 18.84375 5.609375 36.375 
Q 5.609375 53.953125 15.125 64.078125 
Q 24.65625 74.21875 41.21875 74.21875 
Q 47.75 74.21875 53.53125 72.484375 
Q 59.328125 70.75 64.40625 67.28125 
z
" id="DejaVuSans-67"/>
   </defs>
   <g transform="translate(564.939375 17.758125)scale(0.12 -0.12)">
    <use xlink:href="#DejaVuSans-67"/>
    <use x="69.824219" xlink:href="#DejaVuSans-97"/>
    <use x="131.103516" xlink:href="#DejaVuSans-99"/>
    <use x="186.083984" xlink:href="#DejaVuSans-104"/>
    <use x="249.462891" xlink:href="#DejaVuSans-101"/>
    <use x="310.986328" xlink:href="#DejaVuSans-100"/>
    <use x="374.462891" xlink:href="#DejaVuSans-32"/>
    <use x="406.25" xlink:href="#DejaVuSans-100"/>
    <use x="469.726562" xlink:href="#DejaVuSans-97"/>
    <use x="531.005859" xlink:href="#DejaVuSans-116"/>
    <use x="570.214844" xlink:href="#DejaVuSans-97"/>
    <use x="631.494141" xlink:href="#DejaVuSans-115"/>
    <use x="683.59375" xlink:href="#DejaVuSans-101"/>
    <use x="745.117188" xlink:href="#DejaVuSans-116"/>
   </g>
  </g>
 </g>
 <defs>
  <clipPath id="pf250587fe1">
   <rect height="54.36" width="948.6" x="153" y="51.84"/>
  </clipPath>
  <clipPath id="p54a2e806e4">
   <rect height="54.36" width="948.6" x="153" y="106.2"/>
  </clipPath>
  <clipPath id="p6d04fdd447">
   <rect height="54.36" width="948.6" x="153" y="160.56"/>
  </clipPath>
  <clipPath id="p143a48e40b">
   <rect height="54.36" width="948.6" x="153" y="214.92"/>
  </clipPath>
  <clipPath id="pc34a1c00d8">
   <rect height="54.36" width="948.6" x="153" y="269.28"/>
  </clipPath>
  <clipPath id="p0d58df3ad6">
   <rect height="54.36" width="948.6" x="153" y="323.64"/>
  </clipPath>
 </defs>
</svg>
