<?xml version="1.0" encoding="utf-8" standalone="no"?>
<!DOCTYPE svg PUBLIC "-//W3C//DTD SVG 1.1//EN"
  "http://www.w3.org/Graphics/SVG/1.1/DTD/svg11.dtd">
<!-- Created with matplotlib (https://matplotlib.org/) -->
<svg height="360pt" version="1.1" viewBox="0 0 1224 360" width="1224pt" xmlns="http://www.w3.org/2000/svg" xmlns:xlink="http://www.w3.org/1999/xlink">
 <defs>
  <style type="text/css">
*{stroke-linecap:butt;stroke-linejoin:round;}
  </style>
 </defs>
 <g id="figure_1">
  <g id="patch_1">
   <path d="M 0 360 
L 1224 360 
L 1224 0 
L 0 0 
z
" style="fill:#ffffff;"/>
  </g>
  <g id="axes_1">
   <g id="patch_2">
    <path d="M 153 97.56 
L 1101.6 97.56 
L 1101.6 43.2 
L 153 43.2 
z
" style="fill:#ffffff;"/>
   </g>
   <g id="BrokenBarHCollection_1">
    <path clip-path="url(#p9a6aa1ea7d)" d="M 165.09347 97.56 
L 165.09347 43.2 
L 179.305576 43.2 
L 179.305576 97.56 
L 165.09347 97.56 
z
" style="fill:#0d0887;fill-opacity:0.66;stroke:#0d0887;stroke-opacity:0.66;"/>
    <path clip-path="url(#p9a6aa1ea7d)" d="M 589.102332 97.56 
L 589.102332 43.2 
L 603.327223 43.2 
L 603.327223 97.56 
L 589.102332 97.56 
z
" style="fill:#0d0887;fill-opacity:0.66;stroke:#0d0887;stroke-opacity:0.66;"/>
   </g>
   <g id="matplotlib.axis_1">
    <g id="xtick_1">
     <g id="line2d_1">
      <path clip-path="url(#p9a6aa1ea7d)" d="M 157.719403 97.56 
L 157.719403 43.2 
" style="fill:none;stroke:#000000;stroke-dasharray:0.8,1.32;stroke-dashoffset:0;stroke-width:0.8;"/>
     </g>
     <g id="line2d_2">
      <defs>
       <path d="M 0 0 
L 0 3.5 
" id="me197a61211" style="stroke:#000000;stroke-width:0.8;"/>
      </defs>
      <g>
       <use style="stroke:#000000;stroke-width:0.8;" x="157.719403" xlink:href="#me197a61211" y="97.56"/>
      </g>
     </g>
    </g>
    <g id="xtick_2">
     <g id="line2d_3">
      <path clip-path="url(#p9a6aa1ea7d)" d="M 275.704478 97.56 
L 275.704478 43.2 
" style="fill:none;stroke:#000000;stroke-dasharray:0.8,1.32;stroke-dashoffset:0;stroke-width:0.8;"/>
     </g>
     <g id="line2d_4">
      <g>
       <use style="stroke:#000000;stroke-width:0.8;" x="275.704478" xlink:href="#me197a61211" y="97.56"/>
      </g>
     </g>
    </g>
    <g id="xtick_3">
     <g id="line2d_5">
      <path clip-path="url(#p9a6aa1ea7d)" d="M 393.689552 97.56 
L 393.689552 43.2 
" style="fill:none;stroke:#000000;stroke-dasharray:0.8,1.32;stroke-dashoffset:0;stroke-width:0.8;"/>
     </g>
     <g id="line2d_6">
      <g>
       <use style="stroke:#000000;stroke-width:0.8;" x="393.689552" xlink:href="#me197a61211" y="97.56"/>
      </g>
     </g>
    </g>
    <g id="xtick_4">
     <g id="line2d_7">
      <path clip-path="url(#p9a6aa1ea7d)" d="M 511.674627 97.56 
L 511.674627 43.2 
" style="fill:none;stroke:#000000;stroke-dasharray:0.8,1.32;stroke-dashoffset:0;stroke-width:0.8;"/>
     </g>
     <g id="line2d_8">
      <g>
       <use style="stroke:#000000;stroke-width:0.8;" x="511.674627" xlink:href="#me197a61211" y="97.56"/>
      </g>
     </g>
    </g>
    <g id="xtick_5">
     <g id="line2d_9">
      <path clip-path="url(#p9a6aa1ea7d)" d="M 629.659701 97.56 
L 629.659701 43.2 
" style="fill:none;stroke:#000000;stroke-dasharray:0.8,1.32;stroke-dashoffset:0;stroke-width:0.8;"/>
     </g>
     <g id="line2d_10">
      <g>
       <use style="stroke:#000000;stroke-width:0.8;" x="629.659701" xlink:href="#me197a61211" y="97.56"/>
      </g>
     </g>
    </g>
    <g id="xtick_6">
     <g id="line2d_11">
      <path clip-path="url(#p9a6aa1ea7d)" d="M 747.644776 97.56 
L 747.644776 43.2 
" style="fill:none;stroke:#000000;stroke-dasharray:0.8,1.32;stroke-dashoffset:0;stroke-width:0.8;"/>
     </g>
     <g id="line2d_12">
      <g>
       <use style="stroke:#000000;stroke-width:0.8;" x="747.644776" xlink:href="#me197a61211" y="97.56"/>
      </g>
     </g>
    </g>
    <g id="xtick_7">
     <g id="line2d_13">
      <path clip-path="url(#p9a6aa1ea7d)" d="M 865.629851 97.56 
L 865.629851 43.2 
" style="fill:none;stroke:#000000;stroke-dasharray:0.8,1.32;stroke-dashoffset:0;stroke-width:0.8;"/>
     </g>
     <g id="line2d_14">
      <g>
       <use style="stroke:#000000;stroke-width:0.8;" x="865.629851" xlink:href="#me197a61211" y="97.56"/>
      </g>
     </g>
    </g>
    <g id="xtick_8">
     <g id="line2d_15">
      <path clip-path="url(#p9a6aa1ea7d)" d="M 983.614925 97.56 
L 983.614925 43.2 
" style="fill:none;stroke:#000000;stroke-dasharray:0.8,1.32;stroke-dashoffset:0;stroke-width:0.8;"/>
     </g>
     <g id="line2d_16">
      <g>
       <use style="stroke:#000000;stroke-width:0.8;" x="983.614925" xlink:href="#me197a61211" y="97.56"/>
      </g>
     </g>
    </g>
    <g id="xtick_9">
     <g id="line2d_17">
      <path clip-path="url(#p9a6aa1ea7d)" d="M 1101.6 97.56 
L 1101.6 43.2 
" style="fill:none;stroke:#000000;stroke-dasharray:0.8,1.32;stroke-dashoffset:0;stroke-width:0.8;"/>
     </g>
     <g id="line2d_18">
      <g>
       <use style="stroke:#000000;stroke-width:0.8;" x="1101.6" xlink:href="#me197a61211" y="97.56"/>
      </g>
     </g>
    </g>
    <g id="text_1">
     <!-- time (s) -->
     <defs>
      <path d="M 18.3125 70.21875 
L 18.3125 54.6875 
L 36.8125 54.6875 
L 36.8125 47.703125 
L 18.3125 47.703125 
L 18.3125 18.015625 
Q 18.3125 11.328125 20.140625 9.421875 
Q 21.96875 7.515625 27.59375 7.515625 
L 36.8125 7.515625 
L 36.8125 0 
L 27.59375 0 
Q 17.1875 0 13.234375 3.875 
Q 9.28125 7.765625 9.28125 18.015625 
L 9.28125 47.703125 
L 2.6875 47.703125 
L 2.6875 54.6875 
L 9.28125 54.6875 
L 9.28125 70.21875 
z
" id="DejaVuSans-116"/>
      <path d="M 9.421875 54.6875 
L 18.40625 54.6875 
L 18.40625 0 
L 9.421875 0 
z
M 9.421875 75.984375 
L 18.40625 75.984375 
L 18.40625 64.59375 
L 9.421875 64.59375 
z
" id="DejaVuSans-105"/>
      <path d="M 52 44.1875 
Q 55.375 50.25 60.0625 53.125 
Q 64.75 56 71.09375 56 
Q 79.640625 56 84.28125 50.015625 
Q 88.921875 44.046875 88.921875 33.015625 
L 88.921875 0 
L 79.890625 0 
L 79.890625 32.71875 
Q 79.890625 40.578125 77.09375 44.375 
Q 74.3125 48.1875 68.609375 48.1875 
Q 61.625 48.1875 57.5625 43.546875 
Q 53.515625 38.921875 53.515625 30.90625 
L 53.515625 0 
L 44.484375 0 
L 44.484375 32.71875 
Q 44.484375 40.625 41.703125 44.40625 
Q 38.921875 48.1875 33.109375 48.1875 
Q 26.21875 48.1875 22.15625 43.53125 
Q 18.109375 38.875 18.109375 30.90625 
L 18.109375 0 
L 9.078125 0 
L 9.078125 54.6875 
L 18.109375 54.6875 
L 18.109375 46.1875 
Q 21.1875 51.21875 25.484375 53.609375 
Q 29.78125 56 35.6875 56 
Q 41.65625 56 45.828125 52.96875 
Q 50 49.953125 52 44.1875 
z
" id="DejaVuSans-109"/>
      <path d="M 56.203125 29.59375 
L 56.203125 25.203125 
L 14.890625 25.203125 
Q 15.484375 15.921875 20.484375 11.0625 
Q 25.484375 6.203125 34.421875 6.203125 
Q 39.59375 6.203125 44.453125 7.46875 
Q 49.3125 8.734375 54.109375 11.28125 
L 54.109375 2.78125 
Q 49.265625 0.734375 44.1875 -0.34375 
Q 39.109375 -1.421875 33.890625 -1.421875 
Q 20.796875 -1.421875 13.15625 6.1875 
Q 5.515625 13.8125 5.515625 26.8125 
Q 5.515625 40.234375 12.765625 48.109375 
Q 20.015625 56 32.328125 56 
Q 43.359375 56 49.78125 48.890625 
Q 56.203125 41.796875 56.203125 29.59375 
z
M 47.21875 32.234375 
Q 47.125 39.59375 43.09375 43.984375 
Q 39.0625 48.390625 32.421875 48.390625 
Q 24.90625 48.390625 20.390625 44.140625 
Q 15.875 39.890625 15.1875 32.171875 
z
" id="DejaVuSans-101"/>
      <path id="DejaVuSans-32"/>
      <path d="M 31 75.875 
Q 24.46875 64.65625 21.28125 53.65625 
Q 18.109375 42.671875 18.109375 31.390625 
Q 18.109375 20.125 21.3125 9.0625 
Q 24.515625 -2 31 -13.1875 
L 23.1875 -13.1875 
Q 15.875 -1.703125 12.234375 9.375 
Q 8.59375 20.453125 8.59375 31.390625 
Q 8.59375 42.28125 12.203125 53.3125 
Q 15.828125 64.359375 23.1875 75.875 
z
" id="DejaVuSans-40"/>
      <path d="M 44.28125 53.078125 
L 44.28125 44.578125 
Q 40.484375 46.53125 36.375 47.5 
Q 32.28125 48.484375 27.875 48.484375 
Q 21.1875 48.484375 17.84375 46.4375 
Q 14.5 44.390625 14.5 40.28125 
Q 14.5 37.15625 16.890625 35.375 
Q 19.28125 33.59375 26.515625 31.984375 
L 29.59375 31.296875 
Q 39.15625 29.25 43.1875 25.515625 
Q 47.21875 21.78125 47.21875 15.09375 
Q 47.21875 7.46875 41.1875 3.015625 
Q 35.15625 -1.421875 24.609375 -1.421875 
Q 20.21875 -1.421875 15.453125 -0.5625 
Q 10.6875 0.296875 5.421875 2 
L 5.421875 11.28125 
Q 10.40625 8.6875 15.234375 7.390625 
Q 20.0625 6.109375 24.8125 6.109375 
Q 31.15625 6.109375 34.5625 8.28125 
Q 37.984375 10.453125 37.984375 14.40625 
Q 37.984375 18.0625 35.515625 20.015625 
Q 33.0625 21.96875 24.703125 23.78125 
L 21.578125 24.515625 
Q 13.234375 26.265625 9.515625 29.90625 
Q 5.8125 33.546875 5.8125 39.890625 
Q 5.8125 47.609375 11.28125 51.796875 
Q 16.75 56 26.8125 56 
Q 31.78125 56 36.171875 55.265625 
Q 40.578125 54.546875 44.28125 53.078125 
z
" id="DejaVuSans-115"/>
      <path d="M 8.015625 75.875 
L 15.828125 75.875 
Q 23.140625 64.359375 26.78125 53.3125 
Q 30.421875 42.28125 30.421875 31.390625 
Q 30.421875 20.453125 26.78125 9.375 
Q 23.140625 -1.703125 15.828125 -13.1875 
L 8.015625 -13.1875 
Q 14.5 -2 17.703125 9.0625 
Q 20.90625 20.125 20.90625 31.390625 
Q 20.90625 42.671875 17.703125 53.65625 
Q 14.5 64.65625 8.015625 75.875 
z
" id="DejaVuSans-41"/>
     </defs>
     <g transform="translate(607.908594 109.158437)scale(0.1 -0.1)">
      <use xlink:href="#DejaVuSans-116"/>
      <use x="39.208984" xlink:href="#DejaVuSans-105"/>
      <use x="66.992188" xlink:href="#DejaVuSans-109"/>
      <use x="164.404297" xlink:href="#DejaVuSans-101"/>
      <use x="225.927734" xlink:href="#DejaVuSans-32"/>
      <use x="257.714844" xlink:href="#DejaVuSans-40"/>
      <use x="296.728516" xlink:href="#DejaVuSans-115"/>
      <use x="348.828125" xlink:href="#DejaVuSans-41"/>
     </g>
    </g>
   </g>
   <g id="matplotlib.axis_2">
    <g id="text_2">
     <!-- Open -->
     <defs>
      <path d="M 39.40625 66.21875 
Q 28.65625 66.21875 22.328125 58.203125 
Q 16.015625 50.203125 16.015625 36.375 
Q 16.015625 22.609375 22.328125 14.59375 
Q 28.65625 6.59375 39.40625 6.59375 
Q 50.140625 6.59375 56.421875 14.59375 
Q 62.703125 22.609375 62.703125 36.375 
Q 62.703125 50.203125 56.421875 58.203125 
Q 50.140625 66.21875 39.40625 66.21875 
z
M 39.40625 74.21875 
Q 54.734375 74.21875 63.90625 63.9375 
Q 73.09375 53.65625 73.09375 36.375 
Q 73.09375 19.140625 63.90625 8.859375 
Q 54.734375 -1.421875 39.40625 -1.421875 
Q 24.03125 -1.421875 14.8125 8.828125 
Q 5.609375 19.09375 5.609375 36.375 
Q 5.609375 53.65625 14.8125 63.9375 
Q 24.03125 74.21875 39.40625 74.21875 
z
" id="DejaVuSans-79"/>
      <path d="M 18.109375 8.203125 
L 18.109375 -20.796875 
L 9.078125 -20.796875 
L 9.078125 54.6875 
L 18.109375 54.6875 
L 18.109375 46.390625 
Q 20.953125 51.265625 25.265625 53.625 
Q 29.59375 56 35.59375 56 
Q 45.5625 56 51.78125 48.09375 
Q 58.015625 40.1875 58.015625 27.296875 
Q 58.015625 14.40625 51.78125 6.484375 
Q 45.5625 -1.421875 35.59375 -1.421875 
Q 29.59375 -1.421875 25.265625 0.953125 
Q 20.953125 3.328125 18.109375 8.203125 
z
M 48.6875 27.296875 
Q 48.6875 37.203125 44.609375 42.84375 
Q 40.53125 48.484375 33.40625 48.484375 
Q 26.265625 48.484375 22.1875 42.84375 
Q 18.109375 37.203125 18.109375 27.296875 
Q 18.109375 17.390625 22.1875 11.75 
Q 26.265625 6.109375 33.40625 6.109375 
Q 40.53125 6.109375 44.609375 11.75 
Q 48.6875 17.390625 48.6875 27.296875 
z
" id="DejaVuSans-112"/>
      <path d="M 54.890625 33.015625 
L 54.890625 0 
L 45.90625 0 
L 45.90625 32.71875 
Q 45.90625 40.484375 42.875 44.328125 
Q 39.84375 48.1875 33.796875 48.1875 
Q 26.515625 48.1875 22.3125 43.546875 
Q 18.109375 38.921875 18.109375 30.90625 
L 18.109375 0 
L 9.078125 0 
L 9.078125 54.6875 
L 18.109375 54.6875 
L 18.109375 46.1875 
Q 21.34375 51.125 25.703125 53.5625 
Q 30.078125 56 35.796875 56 
Q 45.21875 56 50.046875 50.171875 
Q 54.890625 44.34375 54.890625 33.015625 
z
" id="DejaVuSans-110"/>
     </defs>
     <g transform="translate(146.920312 83.735469)rotate(-90)scale(0.1 -0.1)">
      <use xlink:href="#DejaVuSans-79"/>
      <use x="78.710938" xlink:href="#DejaVuSans-112"/>
      <use x="142.1875" xlink:href="#DejaVuSans-101"/>
      <use x="203.710938" xlink:href="#DejaVuSans-110"/>
     </g>
    </g>
   </g>
   <g id="patch_3">
    <path d="M 153 97.56 
L 153 43.2 
" style="fill:none;stroke:#000000;stroke-linecap:square;stroke-linejoin:miter;stroke-width:0.8;"/>
   </g>
   <g id="patch_4">
    <path d="M 1101.6 97.56 
L 1101.6 43.2 
" style="fill:none;stroke:#000000;stroke-linecap:square;stroke-linejoin:miter;stroke-width:0.8;"/>
   </g>
   <g id="patch_5">
    <path d="M 153 97.56 
L 1101.6 97.56 
" style="fill:none;stroke:#000000;stroke-linecap:square;stroke-linejoin:miter;stroke-width:0.8;"/>
   </g>
   <g id="patch_6">
    <path d="M 153 43.2 
L 1101.6 43.2 
" style="fill:none;stroke:#000000;stroke-linecap:square;stroke-linejoin:miter;stroke-width:0.8;"/>
   </g>
  </g>
  <g id="axes_2">
   <g id="patch_7">
    <path d="M 153 151.92 
L 1101.6 151.92 
L 1101.6 97.56 
L 153 97.56 
z
" style="fill:#ffffff;"/>
   </g>
   <g id="BrokenBarHCollection_2">
    <path clip-path="url(#pc021573f2b)" d="M 178.919846 151.92 
L 178.919846 97.56 
L 186.084406 97.56 
L 186.084406 151.92 
L 178.919846 151.92 
z
" style="fill:#6a00a8;fill-opacity:0.66;stroke:#6a00a8;stroke-opacity:0.66;"/>
    <path clip-path="url(#pc021573f2b)" d="M 189.980947 151.92 
L 189.980947 97.56 
L 197.192445 97.56 
L 197.192445 151.92 
L 189.980947 151.92 
z
" style="fill:#6a00a8;fill-opacity:0.66;stroke:#6a00a8;stroke-opacity:0.66;"/>
    <path clip-path="url(#pc021573f2b)" d="M 200.120289 151.92 
L 200.120289 97.56 
L 207.252957 97.56 
L 207.252957 151.92 
L 200.120289 151.92 
z
" style="fill:#6a00a8;fill-opacity:0.66;stroke:#6a00a8;stroke-opacity:0.66;"/>
    <path clip-path="url(#pc021573f2b)" d="M 209.337873 151.92 
L 209.337873 97.56 
L 216.551259 97.56 
L 216.551259 151.92 
L 209.337873 151.92 
z
" style="fill:#6a00a8;fill-opacity:0.66;stroke:#6a00a8;stroke-opacity:0.66;"/>
    <path clip-path="url(#pc021573f2b)" d="M 218.555457 151.92 
L 218.555457 97.56 
L 225.764782 97.56 
L 225.764782 151.92 
L 218.555457 151.92 
z
" style="fill:#6a00a8;fill-opacity:0.66;stroke:#6a00a8;stroke-opacity:0.66;"/>
    <path clip-path="url(#pc021573f2b)" d="M 228.694799 151.92 
L 228.694799 97.56 
L 235.905467 97.56 
L 235.905467 151.92 
L 228.694799 151.92 
z
" style="fill:#6a00a8;fill-opacity:0.66;stroke:#6a00a8;stroke-opacity:0.66;"/>
    <path clip-path="url(#pc021573f2b)" d="M 237.912383 151.92 
L 237.912383 97.56 
L 245.118572 97.56 
L 245.118572 151.92 
L 237.912383 151.92 
z
" style="fill:#6a00a8;fill-opacity:0.66;stroke:#6a00a8;stroke-opacity:0.66;"/>
    <path clip-path="url(#pc021573f2b)" d="M 248.051726 151.92 
L 248.051726 97.56 
L 255.189453 97.56 
L 255.189453 151.92 
L 248.051726 151.92 
z
" style="fill:#6a00a8;fill-opacity:0.66;stroke:#6a00a8;stroke-opacity:0.66;"/>
    <path clip-path="url(#pc021573f2b)" d="M 257.26931 151.92 
L 257.26931 97.56 
L 264.469647 97.56 
L 264.469647 151.92 
L 257.26931 151.92 
z
" style="fill:#6a00a8;fill-opacity:0.66;stroke:#6a00a8;stroke-opacity:0.66;"/>
    <path clip-path="url(#pc021573f2b)" d="M 266.486894 151.92 
L 266.486894 97.56 
L 273.64716 97.56 
L 273.64716 151.92 
L 266.486894 151.92 
z
" style="fill:#6a00a8;fill-opacity:0.66;stroke:#6a00a8;stroke-opacity:0.66;"/>
    <path clip-path="url(#pc021573f2b)" d="M 276.626236 151.92 
L 276.626236 97.56 
L 283.822959 97.56 
L 283.822959 151.92 
L 276.626236 151.92 
z
" style="fill:#6a00a8;fill-opacity:0.66;stroke:#6a00a8;stroke-opacity:0.66;"/>
    <path clip-path="url(#pc021573f2b)" d="M 285.84382 151.92 
L 285.84382 97.56 
L 293.052835 97.56 
L 293.052835 151.92 
L 285.84382 151.92 
z
" style="fill:#6a00a8;fill-opacity:0.66;stroke:#6a00a8;stroke-opacity:0.66;"/>
    <path clip-path="url(#pc021573f2b)" d="M 295.983162 151.92 
L 295.983162 97.56 
L 303.141052 97.56 
L 303.141052 151.92 
L 295.983162 151.92 
z
" style="fill:#6a00a8;fill-opacity:0.66;stroke:#6a00a8;stroke-opacity:0.66;"/>
    <path clip-path="url(#pc021573f2b)" d="M 305.200746 151.92 
L 305.200746 97.56 
L 312.412772 97.56 
L 312.412772 151.92 
L 305.200746 151.92 
z
" style="fill:#6a00a8;fill-opacity:0.66;stroke:#6a00a8;stroke-opacity:0.66;"/>
    <path clip-path="url(#pc021573f2b)" d="M 315.340089 151.92 
L 315.340089 97.56 
L 322.503576 97.56 
L 322.503576 151.92 
L 315.340089 151.92 
z
" style="fill:#6a00a8;fill-opacity:0.66;stroke:#6a00a8;stroke-opacity:0.66;"/>
    <path clip-path="url(#pc021573f2b)" d="M 324.557673 151.92 
L 324.557673 97.56 
L 331.714479 97.56 
L 331.714479 151.92 
L 324.557673 151.92 
z
" style="fill:#6a00a8;fill-opacity:0.66;stroke:#6a00a8;stroke-opacity:0.66;"/>
    <path clip-path="url(#pc021573f2b)" d="M 333.775257 151.92 
L 333.775257 97.56 
L 340.998041 97.56 
L 340.998041 151.92 
L 333.775257 151.92 
z
" style="fill:#6a00a8;fill-opacity:0.66;stroke:#6a00a8;stroke-opacity:0.66;"/>
    <path clip-path="url(#pc021573f2b)" d="M 343.914599 151.92 
L 343.914599 97.56 
L 351.050055 97.56 
L 351.050055 151.92 
L 343.914599 151.92 
z
" style="fill:#6a00a8;fill-opacity:0.66;stroke:#6a00a8;stroke-opacity:0.66;"/>
    <path clip-path="url(#pc021573f2b)" d="M 353.132183 151.92 
L 353.132183 97.56 
L 360.294067 97.56 
L 360.294067 151.92 
L 353.132183 151.92 
z
" style="fill:#6a00a8;fill-opacity:0.66;stroke:#6a00a8;stroke-opacity:0.66;"/>
    <path clip-path="url(#pc021573f2b)" d="M 362.349767 151.92 
L 362.349767 97.56 
L 369.509935 97.56 
L 369.509935 151.92 
L 362.349767 151.92 
z
" style="fill:#6a00a8;fill-opacity:0.66;stroke:#6a00a8;stroke-opacity:0.66;"/>
    <path clip-path="url(#pc021573f2b)" d="M 372.489109 151.92 
L 372.489109 97.56 
L 379.694918 97.56 
L 379.694918 151.92 
L 372.489109 151.92 
z
" style="fill:#6a00a8;fill-opacity:0.66;stroke:#6a00a8;stroke-opacity:0.66;"/>
    <path clip-path="url(#pc021573f2b)" d="M 381.706693 151.92 
L 381.706693 97.56 
L 388.91831 97.56 
L 388.91831 151.92 
L 381.706693 151.92 
z
" style="fill:#6a00a8;fill-opacity:0.66;stroke:#6a00a8;stroke-opacity:0.66;"/>
    <path clip-path="url(#pc021573f2b)" d="M 391.846035 151.92 
L 391.846035 97.56 
L 398.980633 97.56 
L 398.980633 151.92 
L 391.846035 151.92 
z
" style="fill:#6a00a8;fill-opacity:0.66;stroke:#6a00a8;stroke-opacity:0.66;"/>
    <path clip-path="url(#pc021573f2b)" d="M 401.063619 151.92 
L 401.063619 97.56 
L 408.213267 97.56 
L 408.213267 151.92 
L 401.063619 151.92 
z
" style="fill:#6a00a8;fill-opacity:0.66;stroke:#6a00a8;stroke-opacity:0.66;"/>
    <path clip-path="url(#pc021573f2b)" d="M 410.281203 151.92 
L 410.281203 97.56 
L 417.605509 97.56 
L 417.605509 151.92 
L 410.281203 151.92 
z
" style="fill:#6a00a8;fill-opacity:0.66;stroke:#6a00a8;stroke-opacity:0.66;"/>
    <path clip-path="url(#pc021573f2b)" d="M 602.928708 151.92 
L 602.928708 97.56 
L 610.074924 97.56 
L 610.074924 151.92 
L 602.928708 151.92 
z
" style="fill:#6a00a8;fill-opacity:0.66;stroke:#6a00a8;stroke-opacity:0.66;"/>
    <path clip-path="url(#pc021573f2b)" d="M 613.06805 151.92 
L 613.06805 97.56 
L 620.219329 97.56 
L 620.219329 151.92 
L 613.06805 151.92 
z
" style="fill:#6a00a8;fill-opacity:0.66;stroke:#6a00a8;stroke-opacity:0.66;"/>
    <path clip-path="url(#pc021573f2b)" d="M 622.285634 151.92 
L 622.285634 97.56 
L 629.441836 97.56 
L 629.441836 151.92 
L 622.285634 151.92 
z
" style="fill:#6a00a8;fill-opacity:0.66;stroke:#6a00a8;stroke-opacity:0.66;"/>
    <path clip-path="url(#pc021573f2b)" d="M 631.503218 151.92 
L 631.503218 97.56 
L 638.660236 97.56 
L 638.660236 151.92 
L 631.503218 151.92 
z
" style="fill:#6a00a8;fill-opacity:0.66;stroke:#6a00a8;stroke-opacity:0.66;"/>
    <path clip-path="url(#pc021573f2b)" d="M 641.642561 151.92 
L 641.642561 97.56 
L 648.780956 97.56 
L 648.780956 151.92 
L 641.642561 151.92 
z
" style="fill:#6a00a8;fill-opacity:0.66;stroke:#6a00a8;stroke-opacity:0.66;"/>
    <path clip-path="url(#pc021573f2b)" d="M 651.781903 151.92 
L 651.781903 97.56 
L 658.906852 97.56 
L 658.906852 151.92 
L 651.781903 151.92 
z
" style="fill:#6a00a8;fill-opacity:0.66;stroke:#6a00a8;stroke-opacity:0.66;"/>
    <path clip-path="url(#pc021573f2b)" d="M 660.077729 151.92 
L 660.077729 97.56 
L 667.221581 97.56 
L 667.221581 151.92 
L 660.077729 151.92 
z
" style="fill:#6a00a8;fill-opacity:0.66;stroke:#6a00a8;stroke-opacity:0.66;"/>
    <path clip-path="url(#pc021573f2b)" d="M 668.373554 151.92 
L 668.373554 97.56 
L 675.519713 97.56 
L 675.519713 151.92 
L 668.373554 151.92 
z
" style="fill:#6a00a8;fill-opacity:0.66;stroke:#6a00a8;stroke-opacity:0.66;"/>
    <path clip-path="url(#pc021573f2b)" d="M 676.66938 151.92 
L 676.66938 97.56 
L 683.819702 97.56 
L 683.819702 151.92 
L 676.66938 151.92 
z
" style="fill:#6a00a8;fill-opacity:0.66;stroke:#6a00a8;stroke-opacity:0.66;"/>
    <path clip-path="url(#pc021573f2b)" d="M 685.886964 151.92 
L 685.886964 97.56 
L 693.057933 97.56 
L 693.057933 151.92 
L 685.886964 151.92 
z
" style="fill:#6a00a8;fill-opacity:0.66;stroke:#6a00a8;stroke-opacity:0.66;"/>
    <path clip-path="url(#pc021573f2b)" d="M 696.026306 151.92 
L 696.026306 97.56 
L 703.182592 97.56 
L 703.182592 151.92 
L 696.026306 151.92 
z
" style="fill:#6a00a8;fill-opacity:0.66;stroke:#6a00a8;stroke-opacity:0.66;"/>
    <path clip-path="url(#pc021573f2b)" d="M 705.24389 151.92 
L 705.24389 97.56 
L 712.405239 97.56 
L 712.405239 151.92 
L 705.24389 151.92 
z
" style="fill:#6a00a8;fill-opacity:0.66;stroke:#6a00a8;stroke-opacity:0.66;"/>
    <path clip-path="url(#pc021573f2b)" d="M 715.383232 151.92 
L 715.383232 97.56 
L 722.526466 97.56 
L 722.526466 151.92 
L 715.383232 151.92 
z
" style="fill:#6a00a8;fill-opacity:0.66;stroke:#6a00a8;stroke-opacity:0.66;"/>
    <path clip-path="url(#pc021573f2b)" d="M 724.600816 151.92 
L 724.600816 97.56 
L 731.757496 97.56 
L 731.757496 151.92 
L 724.600816 151.92 
z
" style="fill:#6a00a8;fill-opacity:0.66;stroke:#6a00a8;stroke-opacity:0.66;"/>
    <path clip-path="url(#pc021573f2b)" d="M 733.8184 151.92 
L 733.8184 97.56 
L 741.062114 97.56 
L 741.062114 151.92 
L 733.8184 151.92 
z
" style="fill:#6a00a8;fill-opacity:0.66;stroke:#6a00a8;stroke-opacity:0.66;"/>
    <path clip-path="url(#pc021573f2b)" d="M 743.957743 151.92 
L 743.957743 97.56 
L 751.118135 97.56 
L 751.118135 151.92 
L 743.957743 151.92 
z
" style="fill:#6a00a8;fill-opacity:0.66;stroke:#6a00a8;stroke-opacity:0.66;"/>
    <path clip-path="url(#pc021573f2b)" d="M 753.175326 151.92 
L 753.175326 97.56 
L 760.377914 97.56 
L 760.377914 151.92 
L 753.175326 151.92 
z
" style="fill:#6a00a8;fill-opacity:0.66;stroke:#6a00a8;stroke-opacity:0.66;"/>
    <path clip-path="url(#pc021573f2b)" d="M 764.236427 151.92 
L 764.236427 97.56 
L 771.43834 97.56 
L 771.43834 151.92 
L 764.236427 151.92 
z
" style="fill:#6a00a8;fill-opacity:0.66;stroke:#6a00a8;stroke-opacity:0.66;"/>
    <path clip-path="url(#pc021573f2b)" d="M 774.37577 151.92 
L 774.37577 97.56 
L 781.515909 97.56 
L 781.515909 151.92 
L 774.37577 151.92 
z
" style="fill:#6a00a8;fill-opacity:0.66;stroke:#6a00a8;stroke-opacity:0.66;"/>
    <path clip-path="url(#pc021573f2b)" d="M 783.593354 151.92 
L 783.593354 97.56 
L 790.785927 97.56 
L 790.785927 151.92 
L 783.593354 151.92 
z
" style="fill:#6a00a8;fill-opacity:0.66;stroke:#6a00a8;stroke-opacity:0.66;"/>
    <path clip-path="url(#pc021573f2b)" d="M 793.732696 151.92 
L 793.732696 97.56 
L 800.871823 97.56 
L 800.871823 151.92 
L 793.732696 151.92 
z
" style="fill:#6a00a8;fill-opacity:0.66;stroke:#6a00a8;stroke-opacity:0.66;"/>
    <path clip-path="url(#pc021573f2b)" d="M 802.95028 151.92 
L 802.95028 97.56 
L 810.076579 97.56 
L 810.076579 151.92 
L 802.95028 151.92 
z
" style="fill:#6a00a8;fill-opacity:0.66;stroke:#6a00a8;stroke-opacity:0.66;"/>
    <path clip-path="url(#pc021573f2b)" d="M 812.167864 151.92 
L 812.167864 97.56 
L 819.303052 97.56 
L 819.303052 151.92 
L 812.167864 151.92 
z
" style="fill:#6a00a8;fill-opacity:0.66;stroke:#6a00a8;stroke-opacity:0.66;"/>
    <path clip-path="url(#pc021573f2b)" d="M 822.307206 151.92 
L 822.307206 97.56 
L 829.441551 97.56 
L 829.441551 151.92 
L 822.307206 151.92 
z
" style="fill:#6a00a8;fill-opacity:0.66;stroke:#6a00a8;stroke-opacity:0.66;"/>
    <path clip-path="url(#pc021573f2b)" d="M 831.52479 151.92 
L 831.52479 97.56 
L 838.656491 97.56 
L 838.656491 151.92 
L 831.52479 151.92 
z
" style="fill:#6a00a8;fill-opacity:0.66;stroke:#6a00a8;stroke-opacity:0.66;"/>
   </g>
   <g id="matplotlib.axis_3">
    <g id="xtick_10">
     <g id="line2d_19">
      <path clip-path="url(#pc021573f2b)" d="M 157.719403 151.92 
L 157.719403 97.56 
" style="fill:none;stroke:#000000;stroke-dasharray:0.8,1.32;stroke-dashoffset:0;stroke-width:0.8;"/>
     </g>
     <g id="line2d_20">
      <g>
       <use style="stroke:#000000;stroke-width:0.8;" x="157.719403" xlink:href="#me197a61211" y="151.92"/>
      </g>
     </g>
    </g>
    <g id="xtick_11">
     <g id="line2d_21">
      <path clip-path="url(#pc021573f2b)" d="M 275.704478 151.92 
L 275.704478 97.56 
" style="fill:none;stroke:#000000;stroke-dasharray:0.8,1.32;stroke-dashoffset:0;stroke-width:0.8;"/>
     </g>
     <g id="line2d_22">
      <g>
       <use style="stroke:#000000;stroke-width:0.8;" x="275.704478" xlink:href="#me197a61211" y="151.92"/>
      </g>
     </g>
    </g>
    <g id="xtick_12">
     <g id="line2d_23">
      <path clip-path="url(#pc021573f2b)" d="M 393.689552 151.92 
L 393.689552 97.56 
" style="fill:none;stroke:#000000;stroke-dasharray:0.8,1.32;stroke-dashoffset:0;stroke-width:0.8;"/>
     </g>
     <g id="line2d_24">
      <g>
       <use style="stroke:#000000;stroke-width:0.8;" x="393.689552" xlink:href="#me197a61211" y="151.92"/>
      </g>
     </g>
    </g>
    <g id="xtick_13">
     <g id="line2d_25">
      <path clip-path="url(#pc021573f2b)" d="M 511.674627 151.92 
L 511.674627 97.56 
" style="fill:none;stroke:#000000;stroke-dasharray:0.8,1.32;stroke-dashoffset:0;stroke-width:0.8;"/>
     </g>
     <g id="line2d_26">
      <g>
       <use style="stroke:#000000;stroke-width:0.8;" x="511.674627" xlink:href="#me197a61211" y="151.92"/>
      </g>
     </g>
    </g>
    <g id="xtick_14">
     <g id="line2d_27">
      <path clip-path="url(#pc021573f2b)" d="M 629.659701 151.92 
L 629.659701 97.56 
" style="fill:none;stroke:#000000;stroke-dasharray:0.8,1.32;stroke-dashoffset:0;stroke-width:0.8;"/>
     </g>
     <g id="line2d_28">
      <g>
       <use style="stroke:#000000;stroke-width:0.8;" x="629.659701" xlink:href="#me197a61211" y="151.92"/>
      </g>
     </g>
    </g>
    <g id="xtick_15">
     <g id="line2d_29">
      <path clip-path="url(#pc021573f2b)" d="M 747.644776 151.92 
L 747.644776 97.56 
" style="fill:none;stroke:#000000;stroke-dasharray:0.8,1.32;stroke-dashoffset:0;stroke-width:0.8;"/>
     </g>
     <g id="line2d_30">
      <g>
       <use style="stroke:#000000;stroke-width:0.8;" x="747.644776" xlink:href="#me197a61211" y="151.92"/>
      </g>
     </g>
    </g>
    <g id="xtick_16">
     <g id="line2d_31">
      <path clip-path="url(#pc021573f2b)" d="M 865.629851 151.92 
L 865.629851 97.56 
" style="fill:none;stroke:#000000;stroke-dasharray:0.8,1.32;stroke-dashoffset:0;stroke-width:0.8;"/>
     </g>
     <g id="line2d_32">
      <g>
       <use style="stroke:#000000;stroke-width:0.8;" x="865.629851" xlink:href="#me197a61211" y="151.92"/>
      </g>
     </g>
    </g>
    <g id="xtick_17">
     <g id="line2d_33">
      <path clip-path="url(#pc021573f2b)" d="M 983.614925 151.92 
L 983.614925 97.56 
" style="fill:none;stroke:#000000;stroke-dasharray:0.8,1.32;stroke-dashoffset:0;stroke-width:0.8;"/>
     </g>
     <g id="line2d_34">
      <g>
       <use style="stroke:#000000;stroke-width:0.8;" x="983.614925" xlink:href="#me197a61211" y="151.92"/>
      </g>
     </g>
    </g>
    <g id="xtick_18">
     <g id="line2d_35">
      <path clip-path="url(#pc021573f2b)" d="M 1101.6 151.92 
L 1101.6 97.56 
" style="fill:none;stroke:#000000;stroke-dasharray:0.8,1.32;stroke-dashoffset:0;stroke-width:0.8;"/>
     </g>
     <g id="line2d_36">
      <g>
       <use style="stroke:#000000;stroke-width:0.8;" x="1101.6" xlink:href="#me197a61211" y="151.92"/>
      </g>
     </g>
    </g>
    <g id="text_3">
     <!-- time (s) -->
     <g transform="translate(607.908594 163.518437)scale(0.1 -0.1)">
      <use xlink:href="#DejaVuSans-116"/>
      <use x="39.208984" xlink:href="#DejaVuSans-105"/>
      <use x="66.992188" xlink:href="#DejaVuSans-109"/>
      <use x="164.404297" xlink:href="#DejaVuSans-101"/>
      <use x="225.927734" xlink:href="#DejaVuSans-32"/>
      <use x="257.714844" xlink:href="#DejaVuSans-40"/>
      <use x="296.728516" xlink:href="#DejaVuSans-115"/>
      <use x="348.828125" xlink:href="#DejaVuSans-41"/>
     </g>
    </g>
   </g>
   <g id="matplotlib.axis_4">
    <g id="text_4">
     <!-- Read -->
     <defs>
      <path d="M 44.390625 34.1875 
Q 47.5625 33.109375 50.5625 29.59375 
Q 53.5625 26.078125 56.59375 19.921875 
L 66.609375 0 
L 56 0 
L 46.6875 18.703125 
Q 43.0625 26.03125 39.671875 28.421875 
Q 36.28125 30.8125 30.421875 30.8125 
L 19.671875 30.8125 
L 19.671875 0 
L 9.8125 0 
L 9.8125 72.90625 
L 32.078125 72.90625 
Q 44.578125 72.90625 50.734375 67.671875 
Q 56.890625 62.453125 56.890625 51.90625 
Q 56.890625 45.015625 53.6875 40.46875 
Q 50.484375 35.9375 44.390625 34.1875 
z
M 19.671875 64.796875 
L 19.671875 38.921875 
L 32.078125 38.921875 
Q 39.203125 38.921875 42.84375 42.21875 
Q 46.484375 45.515625 46.484375 51.90625 
Q 46.484375 58.296875 42.84375 61.546875 
Q 39.203125 64.796875 32.078125 64.796875 
z
" id="DejaVuSans-82"/>
      <path d="M 34.28125 27.484375 
Q 23.390625 27.484375 19.1875 25 
Q 14.984375 22.515625 14.984375 16.5 
Q 14.984375 11.71875 18.140625 8.90625 
Q 21.296875 6.109375 26.703125 6.109375 
Q 34.1875 6.109375 38.703125 11.40625 
Q 43.21875 16.703125 43.21875 25.484375 
L 43.21875 27.484375 
z
M 52.203125 31.203125 
L 52.203125 0 
L 43.21875 0 
L 43.21875 8.296875 
Q 40.140625 3.328125 35.546875 0.953125 
Q 30.953125 -1.421875 24.3125 -1.421875 
Q 15.921875 -1.421875 10.953125 3.296875 
Q 6 8.015625 6 15.921875 
Q 6 25.140625 12.171875 29.828125 
Q 18.359375 34.515625 30.609375 34.515625 
L 43.21875 34.515625 
L 43.21875 35.40625 
Q 43.21875 41.609375 39.140625 45 
Q 35.0625 48.390625 27.6875 48.390625 
Q 23 48.390625 18.546875 47.265625 
Q 14.109375 46.140625 10.015625 43.890625 
L 10.015625 52.203125 
Q 14.9375 54.109375 19.578125 55.046875 
Q 24.21875 56 28.609375 56 
Q 40.484375 56 46.34375 49.84375 
Q 52.203125 43.703125 52.203125 31.203125 
z
" id="DejaVuSans-97"/>
      <path d="M 45.40625 46.390625 
L 45.40625 75.984375 
L 54.390625 75.984375 
L 54.390625 0 
L 45.40625 0 
L 45.40625 8.203125 
Q 42.578125 3.328125 38.25 0.953125 
Q 33.9375 -1.421875 27.875 -1.421875 
Q 17.96875 -1.421875 11.734375 6.484375 
Q 5.515625 14.40625 5.515625 27.296875 
Q 5.515625 40.1875 11.734375 48.09375 
Q 17.96875 56 27.875 56 
Q 33.9375 56 38.25 53.625 
Q 42.578125 51.265625 45.40625 46.390625 
z
M 14.796875 27.296875 
Q 14.796875 17.390625 18.875 11.75 
Q 22.953125 6.109375 30.078125 6.109375 
Q 37.203125 6.109375 41.296875 11.75 
Q 45.40625 17.390625 45.40625 27.296875 
Q 45.40625 37.203125 41.296875 42.84375 
Q 37.203125 48.484375 30.078125 48.484375 
Q 22.953125 48.484375 18.875 42.84375 
Q 14.796875 37.203125 14.796875 27.296875 
z
" id="DejaVuSans-100"/>
     </defs>
     <g transform="translate(146.920312 137.525937)rotate(-90)scale(0.1 -0.1)">
      <use xlink:href="#DejaVuSans-82"/>
      <use x="69.419922" xlink:href="#DejaVuSans-101"/>
      <use x="130.943359" xlink:href="#DejaVuSans-97"/>
      <use x="192.222656" xlink:href="#DejaVuSans-100"/>
     </g>
    </g>
   </g>
   <g id="patch_8">
    <path d="M 153 151.92 
L 153 97.56 
" style="fill:none;stroke:#000000;stroke-linecap:square;stroke-linejoin:miter;stroke-width:0.8;"/>
   </g>
   <g id="patch_9">
    <path d="M 1101.6 151.92 
L 1101.6 97.56 
" style="fill:none;stroke:#000000;stroke-linecap:square;stroke-linejoin:miter;stroke-width:0.8;"/>
   </g>
   <g id="patch_10">
    <path d="M 153 151.92 
L 1101.6 151.92 
" style="fill:none;stroke:#000000;stroke-linecap:square;stroke-linejoin:miter;stroke-width:0.8;"/>
   </g>
   <g id="patch_11">
    <path d="M 153 97.56 
L 1101.6 97.56 
" style="fill:none;stroke:#000000;stroke-linecap:square;stroke-linejoin:miter;stroke-width:0.8;"/>
   </g>
  </g>
  <g id="axes_3">
   <g id="patch_12">
    <path d="M 153 206.28 
L 1101.6 206.28 
L 1101.6 151.92 
L 153 151.92 
z
" style="fill:#ffffff;"/>
   </g>
   <g id="BrokenBarHCollection_3">
    <path clip-path="url(#p7be5324fc9)" d="M 187.215672 206.28 
L 187.215672 151.92 
L 187.570529 151.92 
L 187.570529 206.28 
L 187.215672 206.28 
z
" style="fill:#b12a90;fill-opacity:0.66;stroke:#b12a90;stroke-opacity:0.66;"/>
    <path clip-path="url(#p7be5324fc9)" d="M 198.276772 206.28 
L 198.276772 151.92 
L 198.504687 151.92 
L 198.504687 206.28 
L 198.276772 206.28 
z
" style="fill:#b12a90;fill-opacity:0.66;stroke:#b12a90;stroke-opacity:0.66;"/>
    <path clip-path="url(#p7be5324fc9)" d="M 207.494356 206.28 
L 207.494356 151.92 
L 207.68989 151.92 
L 207.68989 206.28 
L 207.494356 206.28 
z
" style="fill:#b12a90;fill-opacity:0.66;stroke:#b12a90;stroke-opacity:0.66;"/>
    <path clip-path="url(#p7be5324fc9)" d="M 217.633699 206.28 
L 217.633699 151.92 
L 217.857493 151.92 
L 217.857493 206.28 
L 217.633699 206.28 
z
" style="fill:#b12a90;fill-opacity:0.66;stroke:#b12a90;stroke-opacity:0.66;"/>
    <path clip-path="url(#p7be5324fc9)" d="M 226.851283 206.28 
L 226.851283 151.92 
L 227.04701 151.92 
L 227.04701 206.28 
L 226.851283 206.28 
z
" style="fill:#b12a90;fill-opacity:0.66;stroke:#b12a90;stroke-opacity:0.66;"/>
    <path clip-path="url(#p7be5324fc9)" d="M 236.068867 206.28 
L 236.068867 151.92 
L 236.261436 151.92 
L 236.261436 206.28 
L 236.068867 206.28 
z
" style="fill:#b12a90;fill-opacity:0.66;stroke:#b12a90;stroke-opacity:0.66;"/>
    <path clip-path="url(#p7be5324fc9)" d="M 246.208209 206.28 
L 246.208209 151.92 
L 246.402256 151.92 
L 246.402256 206.28 
L 246.208209 206.28 
z
" style="fill:#b12a90;fill-opacity:0.66;stroke:#b12a90;stroke-opacity:0.66;"/>
    <path clip-path="url(#p7be5324fc9)" d="M 255.425793 206.28 
L 255.425793 151.92 
L 255.617027 151.92 
L 255.617027 206.28 
L 255.425793 206.28 
z
" style="fill:#b12a90;fill-opacity:0.66;stroke:#b12a90;stroke-opacity:0.66;"/>
    <path clip-path="url(#p7be5324fc9)" d="M 265.565135 206.28 
L 265.565135 151.92 
L 265.758725 151.92 
L 265.758725 206.28 
L 265.565135 206.28 
z
" style="fill:#b12a90;fill-opacity:0.66;stroke:#b12a90;stroke-opacity:0.66;"/>
    <path clip-path="url(#p7be5324fc9)" d="M 274.782719 206.28 
L 274.782719 151.92 
L 274.974973 151.92 
L 274.974973 206.28 
L 274.782719 206.28 
z
" style="fill:#b12a90;fill-opacity:0.66;stroke:#b12a90;stroke-opacity:0.66;"/>
    <path clip-path="url(#p7be5324fc9)" d="M 284.000303 206.28 
L 284.000303 151.92 
L 284.191445 151.92 
L 284.191445 206.28 
L 284.000303 206.28 
z
" style="fill:#b12a90;fill-opacity:0.66;stroke:#b12a90;stroke-opacity:0.66;"/>
    <path clip-path="url(#p7be5324fc9)" d="M 294.139646 206.28 
L 294.139646 151.92 
L 294.359241 151.92 
L 294.359241 206.28 
L 294.139646 206.28 
z
" style="fill:#b12a90;fill-opacity:0.66;stroke:#b12a90;stroke-opacity:0.66;"/>
    <path clip-path="url(#p7be5324fc9)" d="M 303.357229 206.28 
L 303.357229 151.92 
L 303.550608 151.92 
L 303.550608 206.28 
L 303.357229 206.28 
z
" style="fill:#b12a90;fill-opacity:0.66;stroke:#b12a90;stroke-opacity:0.66;"/>
    <path clip-path="url(#p7be5324fc9)" d="M 313.496572 206.28 
L 313.496572 151.92 
L 313.687644 151.92 
L 313.687644 206.28 
L 313.496572 206.28 
z
" style="fill:#b12a90;fill-opacity:0.66;stroke:#b12a90;stroke-opacity:0.66;"/>
    <path clip-path="url(#p7be5324fc9)" d="M 322.714156 206.28 
L 322.714156 151.92 
L 322.903863 151.92 
L 322.903863 206.28 
L 322.714156 206.28 
z
" style="fill:#b12a90;fill-opacity:0.66;stroke:#b12a90;stroke-opacity:0.66;"/>
    <path clip-path="url(#p7be5324fc9)" d="M 331.93174 206.28 
L 331.93174 151.92 
L 332.124317 151.92 
L 332.124317 206.28 
L 331.93174 206.28 
z
" style="fill:#b12a90;fill-opacity:0.66;stroke:#b12a90;stroke-opacity:0.66;"/>
    <path clip-path="url(#p7be5324fc9)" d="M 342.071082 206.28 
L 342.071082 151.92 
L 342.263645 151.92 
L 342.263645 206.28 
L 342.071082 206.28 
z
" style="fill:#b12a90;fill-opacity:0.66;stroke:#b12a90;stroke-opacity:0.66;"/>
    <path clip-path="url(#p7be5324fc9)" d="M 351.288666 206.28 
L 351.288666 151.92 
L 351.48054 151.92 
L 351.48054 206.28 
L 351.288666 206.28 
z
" style="fill:#b12a90;fill-opacity:0.66;stroke:#b12a90;stroke-opacity:0.66;"/>
    <path clip-path="url(#p7be5324fc9)" d="M 361.428008 206.28 
L 361.428008 151.92 
L 361.621063 151.92 
L 361.621063 206.28 
L 361.428008 206.28 
z
" style="fill:#b12a90;fill-opacity:0.66;stroke:#b12a90;stroke-opacity:0.66;"/>
    <path clip-path="url(#p7be5324fc9)" d="M 370.645592 206.28 
L 370.645592 151.92 
L 370.838113 151.92 
L 370.838113 206.28 
L 370.645592 206.28 
z
" style="fill:#b12a90;fill-opacity:0.66;stroke:#b12a90;stroke-opacity:0.66;"/>
    <path clip-path="url(#p7be5324fc9)" d="M 379.863176 206.28 
L 379.863176 151.92 
L 380.055655 151.92 
L 380.055655 206.28 
L 379.863176 206.28 
z
" style="fill:#b12a90;fill-opacity:0.66;stroke:#b12a90;stroke-opacity:0.66;"/>
    <path clip-path="url(#p7be5324fc9)" d="M 390.002519 206.28 
L 390.002519 151.92 
L 390.216404 151.92 
L 390.216404 206.28 
L 390.002519 206.28 
z
" style="fill:#b12a90;fill-opacity:0.66;stroke:#b12a90;stroke-opacity:0.66;"/>
    <path clip-path="url(#p7be5324fc9)" d="M 399.220103 206.28 
L 399.220103 151.92 
L 399.417011 151.92 
L 399.417011 206.28 
L 399.220103 206.28 
z
" style="fill:#b12a90;fill-opacity:0.66;stroke:#b12a90;stroke-opacity:0.66;"/>
    <path clip-path="url(#p7be5324fc9)" d="M 408.437687 206.28 
L 408.437687 151.92 
L 408.612992 151.92 
L 408.612992 206.28 
L 408.437687 206.28 
z
" style="fill:#b12a90;fill-opacity:0.66;stroke:#b12a90;stroke-opacity:0.66;"/>
    <path clip-path="url(#p7be5324fc9)" d="M 418.577029 206.28 
L 418.577029 151.92 
L 418.687354 151.92 
L 418.687354 206.28 
L 418.577029 206.28 
z
" style="fill:#b12a90;fill-opacity:0.66;stroke:#b12a90;stroke-opacity:0.66;"/>
    <path clip-path="url(#p7be5324fc9)" d="M 611.224534 206.28 
L 611.224534 151.92 
L 611.437139 151.92 
L 611.437139 206.28 
L 611.224534 206.28 
z
" style="fill:#b12a90;fill-opacity:0.66;stroke:#b12a90;stroke-opacity:0.66;"/>
    <path clip-path="url(#p7be5324fc9)" d="M 620.442118 206.28 
L 620.442118 151.92 
L 620.63807 151.92 
L 620.63807 206.28 
L 620.442118 206.28 
z
" style="fill:#b12a90;fill-opacity:0.66;stroke:#b12a90;stroke-opacity:0.66;"/>
    <path clip-path="url(#p7be5324fc9)" d="M 630.58146 206.28 
L 630.58146 151.92 
L 630.778425 151.92 
L 630.778425 206.28 
L 630.58146 206.28 
z
" style="fill:#b12a90;fill-opacity:0.66;stroke:#b12a90;stroke-opacity:0.66;"/>
    <path clip-path="url(#p7be5324fc9)" d="M 639.799044 206.28 
L 639.799044 151.92 
L 639.992802 151.92 
L 639.992802 206.28 
L 639.799044 206.28 
z
" style="fill:#b12a90;fill-opacity:0.66;stroke:#b12a90;stroke-opacity:0.66;"/>
    <path clip-path="url(#p7be5324fc9)" d="M 649.016628 206.28 
L 649.016628 151.92 
L 649.247911 151.92 
L 649.247911 206.28 
L 649.016628 206.28 
z
" style="fill:#b12a90;fill-opacity:0.66;stroke:#b12a90;stroke-opacity:0.66;"/>
    <path clip-path="url(#p7be5324fc9)" d="M 659.15597 206.28 
L 659.15597 151.92 
L 659.291837 151.92 
L 659.291837 206.28 
L 659.15597 206.28 
z
" style="fill:#b12a90;fill-opacity:0.66;stroke:#b12a90;stroke-opacity:0.66;"/>
    <path clip-path="url(#p7be5324fc9)" d="M 667.451796 206.28 
L 667.451796 151.92 
L 667.522177 151.92 
L 667.522177 206.28 
L 667.451796 206.28 
z
" style="fill:#b12a90;fill-opacity:0.66;stroke:#b12a90;stroke-opacity:0.66;"/>
    <path clip-path="url(#p7be5324fc9)" d="M 675.747621 206.28 
L 675.747621 151.92 
L 675.84405 151.92 
L 675.84405 206.28 
L 675.747621 206.28 
z
" style="fill:#b12a90;fill-opacity:0.66;stroke:#b12a90;stroke-opacity:0.66;"/>
    <path clip-path="url(#p7be5324fc9)" d="M 684.043447 206.28 
L 684.043447 151.92 
L 684.233942 151.92 
L 684.233942 206.28 
L 684.043447 206.28 
z
" style="fill:#b12a90;fill-opacity:0.66;stroke:#b12a90;stroke-opacity:0.66;"/>
    <path clip-path="url(#p7be5324fc9)" d="M 694.182789 206.28 
L 694.182789 151.92 
L 694.377785 151.92 
L 694.377785 206.28 
L 694.182789 206.28 
z
" style="fill:#b12a90;fill-opacity:0.66;stroke:#b12a90;stroke-opacity:0.66;"/>
    <path clip-path="url(#p7be5324fc9)" d="M 703.400373 206.28 
L 703.400373 151.92 
L 703.594131 151.92 
L 703.594131 206.28 
L 703.400373 206.28 
z
" style="fill:#b12a90;fill-opacity:0.66;stroke:#b12a90;stroke-opacity:0.66;"/>
    <path clip-path="url(#p7be5324fc9)" d="M 713.539715 206.28 
L 713.539715 151.92 
L 713.73398 151.92 
L 713.73398 206.28 
L 713.539715 206.28 
z
" style="fill:#b12a90;fill-opacity:0.66;stroke:#b12a90;stroke-opacity:0.66;"/>
    <path clip-path="url(#p7be5324fc9)" d="M 722.757299 206.28 
L 722.757299 151.92 
L 722.949933 151.92 
L 722.949933 206.28 
L 722.757299 206.28 
z
" style="fill:#b12a90;fill-opacity:0.66;stroke:#b12a90;stroke-opacity:0.66;"/>
    <path clip-path="url(#p7be5324fc9)" d="M 731.974883 206.28 
L 731.974883 151.92 
L 732.176349 151.92 
L 732.176349 206.28 
L 731.974883 206.28 
z
" style="fill:#b12a90;fill-opacity:0.66;stroke:#b12a90;stroke-opacity:0.66;"/>
    <path clip-path="url(#p7be5324fc9)" d="M 742.114226 206.28 
L 742.114226 151.92 
L 742.323062 151.92 
L 742.323062 206.28 
L 742.114226 206.28 
z
" style="fill:#b12a90;fill-opacity:0.66;stroke:#b12a90;stroke-opacity:0.66;"/>
    <path clip-path="url(#p7be5324fc9)" d="M 751.33181 206.28 
L 751.33181 151.92 
L 751.568775 151.92 
L 751.568775 206.28 
L 751.33181 206.28 
z
" style="fill:#b12a90;fill-opacity:0.66;stroke:#b12a90;stroke-opacity:0.66;"/>
    <path clip-path="url(#p7be5324fc9)" d="M 761.471152 206.28 
L 761.471152 151.92 
L 761.716163 151.92 
L 761.716163 206.28 
L 761.471152 206.28 
z
" style="fill:#b12a90;fill-opacity:0.66;stroke:#b12a90;stroke-opacity:0.66;"/>
    <path clip-path="url(#p7be5324fc9)" d="M 772.532253 206.28 
L 772.532253 151.92 
L 772.724436 151.92 
L 772.724436 206.28 
L 772.532253 206.28 
z
" style="fill:#b12a90;fill-opacity:0.66;stroke:#b12a90;stroke-opacity:0.66;"/>
    <path clip-path="url(#p7be5324fc9)" d="M 781.749837 206.28 
L 781.749837 151.92 
L 781.940557 151.92 
L 781.940557 206.28 
L 781.749837 206.28 
z
" style="fill:#b12a90;fill-opacity:0.66;stroke:#b12a90;stroke-opacity:0.66;"/>
    <path clip-path="url(#p7be5324fc9)" d="M 791.889179 206.28 
L 791.889179 151.92 
L 792.08215 151.92 
L 792.08215 206.28 
L 791.889179 206.28 
z
" style="fill:#b12a90;fill-opacity:0.66;stroke:#b12a90;stroke-opacity:0.66;"/>
    <path clip-path="url(#p7be5324fc9)" d="M 801.106763 206.28 
L 801.106763 151.92 
L 801.34913 151.92 
L 801.34913 206.28 
L 801.106763 206.28 
z
" style="fill:#b12a90;fill-opacity:0.66;stroke:#b12a90;stroke-opacity:0.66;"/>
    <path clip-path="url(#p7be5324fc9)" d="M 811.246105 206.28 
L 811.246105 151.92 
L 811.43992 151.92 
L 811.43992 206.28 
L 811.246105 206.28 
z
" style="fill:#b12a90;fill-opacity:0.66;stroke:#b12a90;stroke-opacity:0.66;"/>
    <path clip-path="url(#p7be5324fc9)" d="M 820.463689 206.28 
L 820.463689 151.92 
L 820.655479 151.92 
L 820.655479 206.28 
L 820.463689 206.28 
z
" style="fill:#b12a90;fill-opacity:0.66;stroke:#b12a90;stroke-opacity:0.66;"/>
    <path clip-path="url(#p7be5324fc9)" d="M 829.681273 206.28 
L 829.681273 151.92 
L 829.876438 151.92 
L 829.876438 206.28 
L 829.681273 206.28 
z
" style="fill:#b12a90;fill-opacity:0.66;stroke:#b12a90;stroke-opacity:0.66;"/>
    <path clip-path="url(#p7be5324fc9)" d="M 839.820616 206.28 
L 839.820616 151.92 
L 840.016962 151.92 
L 840.016962 206.28 
L 839.820616 206.28 
z
" style="fill:#b12a90;fill-opacity:0.66;stroke:#b12a90;stroke-opacity:0.66;"/>
   </g>
   <g id="matplotlib.axis_5">
    <g id="xtick_19">
     <g id="line2d_37">
      <path clip-path="url(#p7be5324fc9)" d="M 157.719403 206.28 
L 157.719403 151.92 
" style="fill:none;stroke:#000000;stroke-dasharray:0.8,1.32;stroke-dashoffset:0;stroke-width:0.8;"/>
     </g>
     <g id="line2d_38">
      <g>
       <use style="stroke:#000000;stroke-width:0.8;" x="157.719403" xlink:href="#me197a61211" y="206.28"/>
      </g>
     </g>
    </g>
    <g id="xtick_20">
     <g id="line2d_39">
      <path clip-path="url(#p7be5324fc9)" d="M 275.704478 206.28 
L 275.704478 151.92 
" style="fill:none;stroke:#000000;stroke-dasharray:0.8,1.32;stroke-dashoffset:0;stroke-width:0.8;"/>
     </g>
     <g id="line2d_40">
      <g>
       <use style="stroke:#000000;stroke-width:0.8;" x="275.704478" xlink:href="#me197a61211" y="206.28"/>
      </g>
     </g>
    </g>
    <g id="xtick_21">
     <g id="line2d_41">
      <path clip-path="url(#p7be5324fc9)" d="M 393.689552 206.28 
L 393.689552 151.92 
" style="fill:none;stroke:#000000;stroke-dasharray:0.8,1.32;stroke-dashoffset:0;stroke-width:0.8;"/>
     </g>
     <g id="line2d_42">
      <g>
       <use style="stroke:#000000;stroke-width:0.8;" x="393.689552" xlink:href="#me197a61211" y="206.28"/>
      </g>
     </g>
    </g>
    <g id="xtick_22">
     <g id="line2d_43">
      <path clip-path="url(#p7be5324fc9)" d="M 511.674627 206.28 
L 511.674627 151.92 
" style="fill:none;stroke:#000000;stroke-dasharray:0.8,1.32;stroke-dashoffset:0;stroke-width:0.8;"/>
     </g>
     <g id="line2d_44">
      <g>
       <use style="stroke:#000000;stroke-width:0.8;" x="511.674627" xlink:href="#me197a61211" y="206.28"/>
      </g>
     </g>
    </g>
    <g id="xtick_23">
     <g id="line2d_45">
      <path clip-path="url(#p7be5324fc9)" d="M 629.659701 206.28 
L 629.659701 151.92 
" style="fill:none;stroke:#000000;stroke-dasharray:0.8,1.32;stroke-dashoffset:0;stroke-width:0.8;"/>
     </g>
     <g id="line2d_46">
      <g>
       <use style="stroke:#000000;stroke-width:0.8;" x="629.659701" xlink:href="#me197a61211" y="206.28"/>
      </g>
     </g>
    </g>
    <g id="xtick_24">
     <g id="line2d_47">
      <path clip-path="url(#p7be5324fc9)" d="M 747.644776 206.28 
L 747.644776 151.92 
" style="fill:none;stroke:#000000;stroke-dasharray:0.8,1.32;stroke-dashoffset:0;stroke-width:0.8;"/>
     </g>
     <g id="line2d_48">
      <g>
       <use style="stroke:#000000;stroke-width:0.8;" x="747.644776" xlink:href="#me197a61211" y="206.28"/>
      </g>
     </g>
    </g>
    <g id="xtick_25">
     <g id="line2d_49">
      <path clip-path="url(#p7be5324fc9)" d="M 865.629851 206.28 
L 865.629851 151.92 
" style="fill:none;stroke:#000000;stroke-dasharray:0.8,1.32;stroke-dashoffset:0;stroke-width:0.8;"/>
     </g>
     <g id="line2d_50">
      <g>
       <use style="stroke:#000000;stroke-width:0.8;" x="865.629851" xlink:href="#me197a61211" y="206.28"/>
      </g>
     </g>
    </g>
    <g id="xtick_26">
     <g id="line2d_51">
      <path clip-path="url(#p7be5324fc9)" d="M 983.614925 206.28 
L 983.614925 151.92 
" style="fill:none;stroke:#000000;stroke-dasharray:0.8,1.32;stroke-dashoffset:0;stroke-width:0.8;"/>
     </g>
     <g id="line2d_52">
      <g>
       <use style="stroke:#000000;stroke-width:0.8;" x="983.614925" xlink:href="#me197a61211" y="206.28"/>
      </g>
     </g>
    </g>
    <g id="xtick_27">
     <g id="line2d_53">
      <path clip-path="url(#p7be5324fc9)" d="M 1101.6 206.28 
L 1101.6 151.92 
" style="fill:none;stroke:#000000;stroke-dasharray:0.8,1.32;stroke-dashoffset:0;stroke-width:0.8;"/>
     </g>
     <g id="line2d_54">
      <g>
       <use style="stroke:#000000;stroke-width:0.8;" x="1101.6" xlink:href="#me197a61211" y="206.28"/>
      </g>
     </g>
    </g>
    <g id="text_5">
     <!-- time (s) -->
     <g transform="translate(607.908594 217.878437)scale(0.1 -0.1)">
      <use xlink:href="#DejaVuSans-116"/>
      <use x="39.208984" xlink:href="#DejaVuSans-105"/>
      <use x="66.992188" xlink:href="#DejaVuSans-109"/>
      <use x="164.404297" xlink:href="#DejaVuSans-101"/>
      <use x="225.927734" xlink:href="#DejaVuSans-32"/>
      <use x="257.714844" xlink:href="#DejaVuSans-40"/>
      <use x="296.728516" xlink:href="#DejaVuSans-115"/>
      <use x="348.828125" xlink:href="#DejaVuSans-41"/>
     </g>
    </g>
   </g>
   <g id="matplotlib.axis_6">
    <g id="text_6">
     <!-- Map -->
     <defs>
      <path d="M 9.8125 72.90625 
L 24.515625 72.90625 
L 43.109375 23.296875 
L 61.8125 72.90625 
L 76.515625 72.90625 
L 76.515625 0 
L 66.890625 0 
L 66.890625 64.015625 
L 48.09375 14.015625 
L 38.1875 14.015625 
L 19.390625 64.015625 
L 19.390625 0 
L 9.8125 0 
z
" id="DejaVuSans-77"/>
     </defs>
     <g transform="translate(146.920312 189.652344)rotate(-90)scale(0.1 -0.1)">
      <use xlink:href="#DejaVuSans-77"/>
      <use x="86.279297" xlink:href="#DejaVuSans-97"/>
      <use x="147.558594" xlink:href="#DejaVuSans-112"/>
     </g>
    </g>
   </g>
   <g id="patch_13">
    <path d="M 153 206.28 
L 153 151.92 
" style="fill:none;stroke:#000000;stroke-linecap:square;stroke-linejoin:miter;stroke-width:0.8;"/>
   </g>
   <g id="patch_14">
    <path d="M 1101.6 206.28 
L 1101.6 151.92 
" style="fill:none;stroke:#000000;stroke-linecap:square;stroke-linejoin:miter;stroke-width:0.8;"/>
   </g>
   <g id="patch_15">
    <path d="M 153 206.28 
L 1101.6 206.28 
" style="fill:none;stroke:#000000;stroke-linecap:square;stroke-linejoin:miter;stroke-width:0.8;"/>
   </g>
   <g id="patch_16">
    <path d="M 153 151.92 
L 1101.6 151.92 
" style="fill:none;stroke:#000000;stroke-linecap:square;stroke-linejoin:miter;stroke-width:0.8;"/>
   </g>
  </g>
  <g id="axes_4">
   <g id="patch_17">
    <path d="M 153 260.64 
L 1101.6 260.64 
L 1101.6 206.28 
L 153 206.28 
z
" style="fill:#ffffff;"/>
   </g>
   <g id="BrokenBarHCollection_4">
    <path clip-path="url(#pcb62b049ec)" d="M 419.498787 260.64 
L 419.498787 206.28 
L 424.265528 206.28 
L 424.265528 260.64 
L 419.498787 260.64 
z
" style="fill:#e16462;fill-opacity:0.66;stroke:#e16462;stroke-opacity:0.66;"/>
    <path clip-path="url(#pcb62b049ec)" d="M 425.029338 260.64 
L 425.029338 206.28 
L 429.793997 206.28 
L 429.793997 260.64 
L 425.029338 260.64 
z
" style="fill:#e16462;fill-opacity:0.66;stroke:#e16462;stroke-opacity:0.66;"/>
    <path clip-path="url(#pcb62b049ec)" d="M 430.559888 260.64 
L 430.559888 206.28 
L 435.310426 206.28 
L 435.310426 260.64 
L 430.559888 260.64 
z
" style="fill:#e16462;fill-opacity:0.66;stroke:#e16462;stroke-opacity:0.66;"/>
    <path clip-path="url(#pcb62b049ec)" d="M 435.16868 260.64 
L 435.16868 206.28 
L 439.925182 206.28 
L 439.925182 260.64 
L 435.16868 260.64 
z
" style="fill:#e16462;fill-opacity:0.66;stroke:#e16462;stroke-opacity:0.66;"/>
    <path clip-path="url(#pcb62b049ec)" d="M 440.69923 260.64 
L 440.69923 206.28 
L 445.456351 206.28 
L 445.456351 260.64 
L 440.69923 260.64 
z
" style="fill:#e16462;fill-opacity:0.66;stroke:#e16462;stroke-opacity:0.66;"/>
    <path clip-path="url(#pcb62b049ec)" d="M 446.229781 260.64 
L 446.229781 206.28 
L 451.002035 206.28 
L 451.002035 260.64 
L 446.229781 260.64 
z
" style="fill:#e16462;fill-opacity:0.66;stroke:#e16462;stroke-opacity:0.66;"/>
    <path clip-path="url(#pcb62b049ec)" d="M 451.760331 260.64 
L 451.760331 206.28 
L 456.572699 206.28 
L 456.572699 260.64 
L 451.760331 260.64 
z
" style="fill:#e16462;fill-opacity:0.66;stroke:#e16462;stroke-opacity:0.66;"/>
    <path clip-path="url(#pcb62b049ec)" d="M 457.290882 260.64 
L 457.290882 206.28 
L 462.039844 206.28 
L 462.039844 260.64 
L 457.290882 260.64 
z
" style="fill:#e16462;fill-opacity:0.66;stroke:#e16462;stroke-opacity:0.66;"/>
    <path clip-path="url(#pcb62b049ec)" d="M 462.821432 260.64 
L 462.821432 206.28 
L 467.570085 206.28 
L 467.570085 260.64 
L 462.821432 260.64 
z
" style="fill:#e16462;fill-opacity:0.66;stroke:#e16462;stroke-opacity:0.66;"/>
    <path clip-path="url(#pcb62b049ec)" d="M 467.430224 260.64 
L 467.430224 206.28 
L 472.184053 206.28 
L 472.184053 260.64 
L 467.430224 260.64 
z
" style="fill:#e16462;fill-opacity:0.66;stroke:#e16462;stroke-opacity:0.66;"/>
    <path clip-path="url(#pcb62b049ec)" d="M 472.960774 260.64 
L 472.960774 206.28 
L 477.747178 206.28 
L 477.747178 260.64 
L 472.960774 260.64 
z
" style="fill:#e16462;fill-opacity:0.66;stroke:#e16462;stroke-opacity:0.66;"/>
    <path clip-path="url(#pcb62b049ec)" d="M 478.491325 260.64 
L 478.491325 206.28 
L 483.276209 206.28 
L 483.276209 260.64 
L 478.491325 260.64 
z
" style="fill:#e16462;fill-opacity:0.66;stroke:#e16462;stroke-opacity:0.66;"/>
    <path clip-path="url(#pcb62b049ec)" d="M 484.943633 260.64 
L 484.943633 206.28 
L 489.709305 206.28 
L 489.709305 260.64 
L 484.943633 260.64 
z
" style="fill:#e16462;fill-opacity:0.66;stroke:#e16462;stroke-opacity:0.66;"/>
    <path clip-path="url(#pcb62b049ec)" d="M 491.395942 260.64 
L 491.395942 206.28 
L 496.162064 206.28 
L 496.162064 260.64 
L 491.395942 260.64 
z
" style="fill:#e16462;fill-opacity:0.66;stroke:#e16462;stroke-opacity:0.66;"/>
    <path clip-path="url(#pcb62b049ec)" d="M 497.848251 260.64 
L 497.848251 206.28 
L 502.644556 206.28 
L 502.644556 260.64 
L 497.848251 260.64 
z
" style="fill:#e16462;fill-opacity:0.66;stroke:#e16462;stroke-opacity:0.66;"/>
    <path clip-path="url(#pcb62b049ec)" d="M 504.30056 260.64 
L 504.30056 206.28 
L 509.075571 206.28 
L 509.075571 260.64 
L 504.30056 260.64 
z
" style="fill:#e16462;fill-opacity:0.66;stroke:#e16462;stroke-opacity:0.66;"/>
    <path clip-path="url(#pcb62b049ec)" d="M 511.674627 260.64 
L 511.674627 206.28 
L 516.470482 206.28 
L 516.470482 260.64 
L 511.674627 260.64 
z
" style="fill:#e16462;fill-opacity:0.66;stroke:#e16462;stroke-opacity:0.66;"/>
    <path clip-path="url(#pcb62b049ec)" d="M 518.126936 260.64 
L 518.126936 206.28 
L 522.90867 206.28 
L 522.90867 260.64 
L 518.126936 260.64 
z
" style="fill:#e16462;fill-opacity:0.66;stroke:#e16462;stroke-opacity:0.66;"/>
    <path clip-path="url(#pcb62b049ec)" d="M 524.579244 260.64 
L 524.579244 206.28 
L 529.374847 206.28 
L 529.374847 260.64 
L 524.579244 260.64 
z
" style="fill:#e16462;fill-opacity:0.66;stroke:#e16462;stroke-opacity:0.66;"/>
    <path clip-path="url(#pcb62b049ec)" d="M 531.031553 260.64 
L 531.031553 206.28 
L 535.820545 206.28 
L 535.820545 260.64 
L 531.031553 260.64 
z
" style="fill:#e16462;fill-opacity:0.66;stroke:#e16462;stroke-opacity:0.66;"/>
    <path clip-path="url(#pcb62b049ec)" d="M 537.483862 260.64 
L 537.483862 206.28 
L 542.280674 206.28 
L 542.280674 260.64 
L 537.483862 260.64 
z
" style="fill:#e16462;fill-opacity:0.66;stroke:#e16462;stroke-opacity:0.66;"/>
    <path clip-path="url(#pcb62b049ec)" d="M 543.936171 260.64 
L 543.936171 206.28 
L 548.708791 206.28 
L 548.708791 260.64 
L 543.936171 260.64 
z
" style="fill:#e16462;fill-opacity:0.66;stroke:#e16462;stroke-opacity:0.66;"/>
    <path clip-path="url(#pcb62b049ec)" d="M 550.388479 260.64 
L 550.388479 206.28 
L 555.15809 206.28 
L 555.15809 260.64 
L 550.388479 260.64 
z
" style="fill:#e16462;fill-opacity:0.66;stroke:#e16462;stroke-opacity:0.66;"/>
    <path clip-path="url(#pcb62b049ec)" d="M 557.762547 260.64 
L 557.762547 206.28 
L 562.546053 206.28 
L 562.546053 260.64 
L 557.762547 260.64 
z
" style="fill:#e16462;fill-opacity:0.66;stroke:#e16462;stroke-opacity:0.66;"/>
    <path clip-path="url(#pcb62b049ec)" d="M 564.214855 260.64 
L 564.214855 206.28 
L 569.047814 206.28 
L 569.047814 260.64 
L 564.214855 260.64 
z
" style="fill:#e16462;fill-opacity:0.66;stroke:#e16462;stroke-opacity:0.66;"/>
    <path clip-path="url(#pcb62b049ec)" d="M 841.664132 260.64 
L 841.664132 206.28 
L 846.461732 206.28 
L 846.461732 260.64 
L 841.664132 260.64 
z
" style="fill:#e16462;fill-opacity:0.66;stroke:#e16462;stroke-opacity:0.66;"/>
    <path clip-path="url(#pcb62b049ec)" d="M 848.116441 260.64 
L 848.116441 206.28 
L 852.966643 206.28 
L 852.966643 260.64 
L 848.116441 260.64 
z
" style="fill:#e16462;fill-opacity:0.66;stroke:#e16462;stroke-opacity:0.66;"/>
    <path clip-path="url(#pcb62b049ec)" d="M 855.490508 260.64 
L 855.490508 206.28 
L 860.35652 206.28 
L 860.35652 260.64 
L 855.490508 260.64 
z
" style="fill:#e16462;fill-opacity:0.66;stroke:#e16462;stroke-opacity:0.66;"/>
    <path clip-path="url(#pcb62b049ec)" d="M 861.942817 260.64 
L 861.942817 206.28 
L 866.747449 206.28 
L 866.747449 260.64 
L 861.942817 260.64 
z
" style="fill:#e16462;fill-opacity:0.66;stroke:#e16462;stroke-opacity:0.66;"/>
    <path clip-path="url(#pcb62b049ec)" d="M 868.395126 260.64 
L 868.395126 206.28 
L 873.197958 206.28 
L 873.197958 260.64 
L 868.395126 260.64 
z
" style="fill:#e16462;fill-opacity:0.66;stroke:#e16462;stroke-opacity:0.66;"/>
    <path clip-path="url(#pcb62b049ec)" d="M 875.769193 260.64 
L 875.769193 206.28 
L 880.556216 206.28 
L 880.556216 260.64 
L 875.769193 260.64 
z
" style="fill:#e16462;fill-opacity:0.66;stroke:#e16462;stroke-opacity:0.66;"/>
    <path clip-path="url(#pcb62b049ec)" d="M 882.221502 260.64 
L 882.221502 206.28 
L 887.027653 206.28 
L 887.027653 260.64 
L 882.221502 260.64 
z
" style="fill:#e16462;fill-opacity:0.66;stroke:#e16462;stroke-opacity:0.66;"/>
    <path clip-path="url(#pcb62b049ec)" d="M 888.673811 260.64 
L 888.673811 206.28 
L 893.471579 206.28 
L 893.471579 260.64 
L 888.673811 260.64 
z
" style="fill:#e16462;fill-opacity:0.66;stroke:#e16462;stroke-opacity:0.66;"/>
    <path clip-path="url(#pcb62b049ec)" d="M 896.047878 260.64 
L 896.047878 206.28 
L 900.901231 206.28 
L 900.901231 260.64 
L 896.047878 260.64 
z
" style="fill:#e16462;fill-opacity:0.66;stroke:#e16462;stroke-opacity:0.66;"/>
    <path clip-path="url(#pcb62b049ec)" d="M 902.500187 260.64 
L 902.500187 206.28 
L 907.35579 206.28 
L 907.35579 260.64 
L 902.500187 260.64 
z
" style="fill:#e16462;fill-opacity:0.66;stroke:#e16462;stroke-opacity:0.66;"/>
    <path clip-path="url(#pcb62b049ec)" d="M 908.952495 260.64 
L 908.952495 206.28 
L 913.726634 206.28 
L 913.726634 260.64 
L 908.952495 260.64 
z
" style="fill:#e16462;fill-opacity:0.66;stroke:#e16462;stroke-opacity:0.66;"/>
    <path clip-path="url(#pcb62b049ec)" d="M 916.326563 260.64 
L 916.326563 206.28 
L 921.129057 206.28 
L 921.129057 260.64 
L 916.326563 260.64 
z
" style="fill:#e16462;fill-opacity:0.66;stroke:#e16462;stroke-opacity:0.66;"/>
    <path clip-path="url(#pcb62b049ec)" d="M 922.778871 260.64 
L 922.778871 206.28 
L 927.633462 206.28 
L 927.633462 260.64 
L 922.778871 260.64 
z
" style="fill:#e16462;fill-opacity:0.66;stroke:#e16462;stroke-opacity:0.66;"/>
    <path clip-path="url(#pcb62b049ec)" d="M 930.152938 260.64 
L 930.152938 206.28 
L 934.940411 206.28 
L 934.940411 260.64 
L 930.152938 260.64 
z
" style="fill:#e16462;fill-opacity:0.66;stroke:#e16462;stroke-opacity:0.66;"/>
    <path clip-path="url(#pcb62b049ec)" d="M 936.605247 260.64 
L 936.605247 206.28 
L 941.464057 206.28 
L 941.464057 260.64 
L 936.605247 260.64 
z
" style="fill:#e16462;fill-opacity:0.66;stroke:#e16462;stroke-opacity:0.66;"/>
    <path clip-path="url(#pcb62b049ec)" d="M 943.057556 260.64 
L 943.057556 206.28 
L 947.905395 206.28 
L 947.905395 260.64 
L 943.057556 260.64 
z
" style="fill:#e16462;fill-opacity:0.66;stroke:#e16462;stroke-opacity:0.66;"/>
    <path clip-path="url(#pcb62b049ec)" d="M 950.431623 260.64 
L 950.431623 206.28 
L 955.209532 206.28 
L 955.209532 260.64 
L 950.431623 260.64 
z
" style="fill:#e16462;fill-opacity:0.66;stroke:#e16462;stroke-opacity:0.66;"/>
    <path clip-path="url(#pcb62b049ec)" d="M 956.883932 260.64 
L 956.883932 206.28 
L 961.727045 206.28 
L 961.727045 260.64 
L 956.883932 260.64 
z
" style="fill:#e16462;fill-opacity:0.66;stroke:#e16462;stroke-opacity:0.66;"/>
    <path clip-path="url(#pcb62b049ec)" d="M 963.336241 260.64 
L 963.336241 206.28 
L 968.184811 206.28 
L 968.184811 260.64 
L 963.336241 260.64 
z
" style="fill:#e16462;fill-opacity:0.66;stroke:#e16462;stroke-opacity:0.66;"/>
    <path clip-path="url(#pcb62b049ec)" d="M 970.710308 260.64 
L 970.710308 206.28 
L 975.517528 206.28 
L 975.517528 260.64 
L 970.710308 260.64 
z
" style="fill:#e16462;fill-opacity:0.66;stroke:#e16462;stroke-opacity:0.66;"/>
    <path clip-path="url(#pcb62b049ec)" d="M 977.162617 260.64 
L 977.162617 206.28 
L 982.008374 206.28 
L 982.008374 260.64 
L 977.162617 260.64 
z
" style="fill:#e16462;fill-opacity:0.66;stroke:#e16462;stroke-opacity:0.66;"/>
    <path clip-path="url(#pcb62b049ec)" d="M 983.614925 260.64 
L 983.614925 206.28 
L 988.464396 206.28 
L 988.464396 260.64 
L 983.614925 260.64 
z
" style="fill:#e16462;fill-opacity:0.66;stroke:#e16462;stroke-opacity:0.66;"/>
    <path clip-path="url(#pcb62b049ec)" d="M 990.988993 260.64 
L 990.988993 206.28 
L 995.78451 206.28 
L 995.78451 260.64 
L 990.988993 260.64 
z
" style="fill:#e16462;fill-opacity:0.66;stroke:#e16462;stroke-opacity:0.66;"/>
    <path clip-path="url(#pcb62b049ec)" d="M 997.441301 260.64 
L 997.441301 206.28 
L 1002.230912 206.28 
L 1002.230912 260.64 
L 997.441301 260.64 
z
" style="fill:#e16462;fill-opacity:0.66;stroke:#e16462;stroke-opacity:0.66;"/>
    <path clip-path="url(#pcb62b049ec)" d="M 1003.89361 260.64 
L 1003.89361 206.28 
L 1008.693066 206.28 
L 1008.693066 260.64 
L 1003.89361 260.64 
z
" style="fill:#e16462;fill-opacity:0.66;stroke:#e16462;stroke-opacity:0.66;"/>
   </g>
   <g id="matplotlib.axis_7">
    <g id="xtick_28">
     <g id="line2d_55">
      <path clip-path="url(#pcb62b049ec)" d="M 157.719403 260.64 
L 157.719403 206.28 
" style="fill:none;stroke:#000000;stroke-dasharray:0.8,1.32;stroke-dashoffset:0;stroke-width:0.8;"/>
     </g>
     <g id="line2d_56">
      <g>
       <use style="stroke:#000000;stroke-width:0.8;" x="157.719403" xlink:href="#me197a61211" y="260.64"/>
      </g>
     </g>
    </g>
    <g id="xtick_29">
     <g id="line2d_57">
      <path clip-path="url(#pcb62b049ec)" d="M 275.704478 260.64 
L 275.704478 206.28 
" style="fill:none;stroke:#000000;stroke-dasharray:0.8,1.32;stroke-dashoffset:0;stroke-width:0.8;"/>
     </g>
     <g id="line2d_58">
      <g>
       <use style="stroke:#000000;stroke-width:0.8;" x="275.704478" xlink:href="#me197a61211" y="260.64"/>
      </g>
     </g>
    </g>
    <g id="xtick_30">
     <g id="line2d_59">
      <path clip-path="url(#pcb62b049ec)" d="M 393.689552 260.64 
L 393.689552 206.28 
" style="fill:none;stroke:#000000;stroke-dasharray:0.8,1.32;stroke-dashoffset:0;stroke-width:0.8;"/>
     </g>
     <g id="line2d_60">
      <g>
       <use style="stroke:#000000;stroke-width:0.8;" x="393.689552" xlink:href="#me197a61211" y="260.64"/>
      </g>
     </g>
    </g>
    <g id="xtick_31">
     <g id="line2d_61">
      <path clip-path="url(#pcb62b049ec)" d="M 511.674627 260.64 
L 511.674627 206.28 
" style="fill:none;stroke:#000000;stroke-dasharray:0.8,1.32;stroke-dashoffset:0;stroke-width:0.8;"/>
     </g>
     <g id="line2d_62">
      <g>
       <use style="stroke:#000000;stroke-width:0.8;" x="511.674627" xlink:href="#me197a61211" y="260.64"/>
      </g>
     </g>
    </g>
    <g id="xtick_32">
     <g id="line2d_63">
      <path clip-path="url(#pcb62b049ec)" d="M 629.659701 260.64 
L 629.659701 206.28 
" style="fill:none;stroke:#000000;stroke-dasharray:0.8,1.32;stroke-dashoffset:0;stroke-width:0.8;"/>
     </g>
     <g id="line2d_64">
      <g>
       <use style="stroke:#000000;stroke-width:0.8;" x="629.659701" xlink:href="#me197a61211" y="260.64"/>
      </g>
     </g>
    </g>
    <g id="xtick_33">
     <g id="line2d_65">
      <path clip-path="url(#pcb62b049ec)" d="M 747.644776 260.64 
L 747.644776 206.28 
" style="fill:none;stroke:#000000;stroke-dasharray:0.8,1.32;stroke-dashoffset:0;stroke-width:0.8;"/>
     </g>
     <g id="line2d_66">
      <g>
       <use style="stroke:#000000;stroke-width:0.8;" x="747.644776" xlink:href="#me197a61211" y="260.64"/>
      </g>
     </g>
    </g>
    <g id="xtick_34">
     <g id="line2d_67">
      <path clip-path="url(#pcb62b049ec)" d="M 865.629851 260.64 
L 865.629851 206.28 
" style="fill:none;stroke:#000000;stroke-dasharray:0.8,1.32;stroke-dashoffset:0;stroke-width:0.8;"/>
     </g>
     <g id="line2d_68">
      <g>
       <use style="stroke:#000000;stroke-width:0.8;" x="865.629851" xlink:href="#me197a61211" y="260.64"/>
      </g>
     </g>
    </g>
    <g id="xtick_35">
     <g id="line2d_69">
      <path clip-path="url(#pcb62b049ec)" d="M 983.614925 260.64 
L 983.614925 206.28 
" style="fill:none;stroke:#000000;stroke-dasharray:0.8,1.32;stroke-dashoffset:0;stroke-width:0.8;"/>
     </g>
     <g id="line2d_70">
      <g>
       <use style="stroke:#000000;stroke-width:0.8;" x="983.614925" xlink:href="#me197a61211" y="260.64"/>
      </g>
     </g>
    </g>
    <g id="xtick_36">
     <g id="line2d_71">
      <path clip-path="url(#pcb62b049ec)" d="M 1101.6 260.64 
L 1101.6 206.28 
" style="fill:none;stroke:#000000;stroke-dasharray:0.8,1.32;stroke-dashoffset:0;stroke-width:0.8;"/>
     </g>
     <g id="line2d_72">
      <g>
       <use style="stroke:#000000;stroke-width:0.8;" x="1101.6" xlink:href="#me197a61211" y="260.64"/>
      </g>
     </g>
    </g>
    <g id="text_7">
     <!-- time (s) -->
     <g transform="translate(607.908594 272.238437)scale(0.1 -0.1)">
      <use xlink:href="#DejaVuSans-116"/>
      <use x="39.208984" xlink:href="#DejaVuSans-105"/>
      <use x="66.992188" xlink:href="#DejaVuSans-109"/>
      <use x="164.404297" xlink:href="#DejaVuSans-101"/>
      <use x="225.927734" xlink:href="#DejaVuSans-32"/>
      <use x="257.714844" xlink:href="#DejaVuSans-40"/>
      <use x="296.728516" xlink:href="#DejaVuSans-115"/>
      <use x="348.828125" xlink:href="#DejaVuSans-41"/>
     </g>
    </g>
   </g>
   <g id="matplotlib.axis_8">
    <g id="text_8">
     <!-- Train -->
     <defs>
      <path d="M -0.296875 72.90625 
L 61.375 72.90625 
L 61.375 64.59375 
L 35.5 64.59375 
L 35.5 0 
L 25.59375 0 
L 25.59375 64.59375 
L -0.296875 64.59375 
z
" id="DejaVuSans-84"/>
      <path d="M 41.109375 46.296875 
Q 39.59375 47.171875 37.8125 47.578125 
Q 36.03125 48 33.890625 48 
Q 26.265625 48 22.1875 43.046875 
Q 18.109375 38.09375 18.109375 28.8125 
L 18.109375 0 
L 9.078125 0 
L 9.078125 54.6875 
L 18.109375 54.6875 
L 18.109375 46.1875 
Q 20.953125 51.171875 25.484375 53.578125 
Q 30.03125 56 36.53125 56 
Q 37.453125 56 38.578125 55.875 
Q 39.703125 55.765625 41.0625 55.515625 
z
" id="DejaVuSans-114"/>
     </defs>
     <g transform="translate(146.920312 246.180312)rotate(-90)scale(0.1 -0.1)">
      <use xlink:href="#DejaVuSans-84"/>
      <use x="60.865234" xlink:href="#DejaVuSans-114"/>
      <use x="101.978516" xlink:href="#DejaVuSans-97"/>
      <use x="163.257812" xlink:href="#DejaVuSans-105"/>
      <use x="191.041016" xlink:href="#DejaVuSans-110"/>
     </g>
    </g>
   </g>
   <g id="patch_18">
    <path d="M 153 260.64 
L 153 206.28 
" style="fill:none;stroke:#000000;stroke-linecap:square;stroke-linejoin:miter;stroke-width:0.8;"/>
   </g>
   <g id="patch_19">
    <path d="M 1101.6 260.64 
L 1101.6 206.28 
" style="fill:none;stroke:#000000;stroke-linecap:square;stroke-linejoin:miter;stroke-width:0.8;"/>
   </g>
   <g id="patch_20">
    <path d="M 153 260.64 
L 1101.6 260.64 
" style="fill:none;stroke:#000000;stroke-linecap:square;stroke-linejoin:miter;stroke-width:0.8;"/>
   </g>
   <g id="patch_21">
    <path d="M 153 206.28 
L 1101.6 206.28 
" style="fill:none;stroke:#000000;stroke-linecap:square;stroke-linejoin:miter;stroke-width:0.8;"/>
   </g>
  </g>
  <g id="axes_5">
   <g id="patch_22">
    <path d="M 153 315 
L 1101.6 315 
L 1101.6 260.64 
L 153 260.64 
z
" style="fill:#ffffff;"/>
   </g>
   <g id="BrokenBarHCollection_5">
    <path clip-path="url(#pc7018be9a1)" d="M 157.719403 315 
L 157.719403 260.64 
L 571.439047 260.64 
L 571.439047 315 
L 157.719403 315 
z
" style="fill:#fca636;fill-opacity:0.66;stroke:#fca636;stroke-opacity:0.66;"/>
    <path clip-path="url(#pc7018be9a1)" d="M 572.510681 315 
L 572.510681 260.64 
L 1011.035887 260.64 
L 1011.035887 315 
L 572.510681 315 
z
" style="fill:#fca636;fill-opacity:0.66;stroke:#fca636;stroke-opacity:0.66;"/>
   </g>
   <g id="matplotlib.axis_9">
    <g id="xtick_37">
     <g id="line2d_73">
      <path clip-path="url(#pc7018be9a1)" d="M 157.719403 315 
L 157.719403 260.64 
" style="fill:none;stroke:#000000;stroke-dasharray:0.8,1.32;stroke-dashoffset:0;stroke-width:0.8;"/>
     </g>
     <g id="line2d_74">
      <g>
       <use style="stroke:#000000;stroke-width:0.8;" x="157.719403" xlink:href="#me197a61211" y="315"/>
      </g>
     </g>
    </g>
    <g id="xtick_38">
     <g id="line2d_75">
      <path clip-path="url(#pc7018be9a1)" d="M 275.704478 315 
L 275.704478 260.64 
" style="fill:none;stroke:#000000;stroke-dasharray:0.8,1.32;stroke-dashoffset:0;stroke-width:0.8;"/>
     </g>
     <g id="line2d_76">
      <g>
       <use style="stroke:#000000;stroke-width:0.8;" x="275.704478" xlink:href="#me197a61211" y="315"/>
      </g>
     </g>
    </g>
    <g id="xtick_39">
     <g id="line2d_77">
      <path clip-path="url(#pc7018be9a1)" d="M 393.689552 315 
L 393.689552 260.64 
" style="fill:none;stroke:#000000;stroke-dasharray:0.8,1.32;stroke-dashoffset:0;stroke-width:0.8;"/>
     </g>
     <g id="line2d_78">
      <g>
       <use style="stroke:#000000;stroke-width:0.8;" x="393.689552" xlink:href="#me197a61211" y="315"/>
      </g>
     </g>
    </g>
    <g id="xtick_40">
     <g id="line2d_79">
      <path clip-path="url(#pc7018be9a1)" d="M 511.674627 315 
L 511.674627 260.64 
" style="fill:none;stroke:#000000;stroke-dasharray:0.8,1.32;stroke-dashoffset:0;stroke-width:0.8;"/>
     </g>
     <g id="line2d_80">
      <g>
       <use style="stroke:#000000;stroke-width:0.8;" x="511.674627" xlink:href="#me197a61211" y="315"/>
      </g>
     </g>
    </g>
    <g id="xtick_41">
     <g id="line2d_81">
      <path clip-path="url(#pc7018be9a1)" d="M 629.659701 315 
L 629.659701 260.64 
" style="fill:none;stroke:#000000;stroke-dasharray:0.8,1.32;stroke-dashoffset:0;stroke-width:0.8;"/>
     </g>
     <g id="line2d_82">
      <g>
       <use style="stroke:#000000;stroke-width:0.8;" x="629.659701" xlink:href="#me197a61211" y="315"/>
      </g>
     </g>
    </g>
    <g id="xtick_42">
     <g id="line2d_83">
      <path clip-path="url(#pc7018be9a1)" d="M 747.644776 315 
L 747.644776 260.64 
" style="fill:none;stroke:#000000;stroke-dasharray:0.8,1.32;stroke-dashoffset:0;stroke-width:0.8;"/>
     </g>
     <g id="line2d_84">
      <g>
       <use style="stroke:#000000;stroke-width:0.8;" x="747.644776" xlink:href="#me197a61211" y="315"/>
      </g>
     </g>
    </g>
    <g id="xtick_43">
     <g id="line2d_85">
      <path clip-path="url(#pc7018be9a1)" d="M 865.629851 315 
L 865.629851 260.64 
" style="fill:none;stroke:#000000;stroke-dasharray:0.8,1.32;stroke-dashoffset:0;stroke-width:0.8;"/>
     </g>
     <g id="line2d_86">
      <g>
       <use style="stroke:#000000;stroke-width:0.8;" x="865.629851" xlink:href="#me197a61211" y="315"/>
      </g>
     </g>
    </g>
    <g id="xtick_44">
     <g id="line2d_87">
      <path clip-path="url(#pc7018be9a1)" d="M 983.614925 315 
L 983.614925 260.64 
" style="fill:none;stroke:#000000;stroke-dasharray:0.8,1.32;stroke-dashoffset:0;stroke-width:0.8;"/>
     </g>
     <g id="line2d_88">
      <g>
       <use style="stroke:#000000;stroke-width:0.8;" x="983.614925" xlink:href="#me197a61211" y="315"/>
      </g>
     </g>
    </g>
    <g id="xtick_45">
     <g id="line2d_89">
      <path clip-path="url(#pc7018be9a1)" d="M 1101.6 315 
L 1101.6 260.64 
" style="fill:none;stroke:#000000;stroke-dasharray:0.8,1.32;stroke-dashoffset:0;stroke-width:0.8;"/>
     </g>
     <g id="line2d_90">
      <g>
       <use style="stroke:#000000;stroke-width:0.8;" x="1101.6" xlink:href="#me197a61211" y="315"/>
      </g>
     </g>
    </g>
    <g id="text_9">
     <!-- time (s) -->
     <g transform="translate(607.908594 333.598437)scale(0.1 -0.1)">
      <use xlink:href="#DejaVuSans-116"/>
      <use x="39.208984" xlink:href="#DejaVuSans-105"/>
      <use x="66.992188" xlink:href="#DejaVuSans-109"/>
      <use x="164.404297" xlink:href="#DejaVuSans-101"/>
      <use x="225.927734" xlink:href="#DejaVuSans-32"/>
      <use x="257.714844" xlink:href="#DejaVuSans-40"/>
      <use x="296.728516" xlink:href="#DejaVuSans-115"/>
      <use x="348.828125" xlink:href="#DejaVuSans-41"/>
     </g>
    </g>
   </g>
   <g id="matplotlib.axis_10">
    <g id="text_10">
     <!-- Epoch -->
     <defs>
      <path d="M 9.8125 72.90625 
L 55.90625 72.90625 
L 55.90625 64.59375 
L 19.671875 64.59375 
L 19.671875 43.015625 
L 54.390625 43.015625 
L 54.390625 34.71875 
L 19.671875 34.71875 
L 19.671875 8.296875 
L 56.78125 8.296875 
L 56.78125 0 
L 9.8125 0 
z
" id="DejaVuSans-69"/>
      <path d="M 30.609375 48.390625 
Q 23.390625 48.390625 19.1875 42.75 
Q 14.984375 37.109375 14.984375 27.296875 
Q 14.984375 17.484375 19.15625 11.84375 
Q 23.34375 6.203125 30.609375 6.203125 
Q 37.796875 6.203125 41.984375 11.859375 
Q 46.1875 17.53125 46.1875 27.296875 
Q 46.1875 37.015625 41.984375 42.703125 
Q 37.796875 48.390625 30.609375 48.390625 
z
M 30.609375 56 
Q 42.328125 56 49.015625 48.375 
Q 55.71875 40.765625 55.71875 27.296875 
Q 55.71875 13.875 49.015625 6.21875 
Q 42.328125 -1.421875 30.609375 -1.421875 
Q 18.84375 -1.421875 12.171875 6.21875 
Q 5.515625 13.875 5.515625 27.296875 
Q 5.515625 40.765625 12.171875 48.375 
Q 18.84375 56 30.609375 56 
z
" id="DejaVuSans-111"/>
      <path d="M 48.78125 52.59375 
L 48.78125 44.1875 
Q 44.96875 46.296875 41.140625 47.34375 
Q 37.3125 48.390625 33.40625 48.390625 
Q 24.65625 48.390625 19.8125 42.84375 
Q 14.984375 37.3125 14.984375 27.296875 
Q 14.984375 17.28125 19.8125 11.734375 
Q 24.65625 6.203125 33.40625 6.203125 
Q 37.3125 6.203125 41.140625 7.25 
Q 44.96875 8.296875 48.78125 10.40625 
L 48.78125 2.09375 
Q 45.015625 0.34375 40.984375 -0.53125 
Q 36.96875 -1.421875 32.421875 -1.421875 
Q 20.0625 -1.421875 12.78125 6.34375 
Q 5.515625 14.109375 5.515625 27.296875 
Q 5.515625 40.671875 12.859375 48.328125 
Q 20.21875 56 33.015625 56 
Q 37.15625 56 41.109375 55.140625 
Q 45.0625 54.296875 48.78125 52.59375 
z
" id="DejaVuSans-99"/>
      <path d="M 54.890625 33.015625 
L 54.890625 0 
L 45.90625 0 
L 45.90625 32.71875 
Q 45.90625 40.484375 42.875 44.328125 
Q 39.84375 48.1875 33.796875 48.1875 
Q 26.515625 48.1875 22.3125 43.546875 
Q 18.109375 38.921875 18.109375 30.90625 
L 18.109375 0 
L 9.078125 0 
L 9.078125 75.984375 
L 18.109375 75.984375 
L 18.109375 46.1875 
Q 21.34375 51.125 25.703125 53.5625 
Q 30.078125 56 35.796875 56 
Q 45.21875 56 50.046875 50.171875 
Q 54.890625 44.34375 54.890625 33.015625 
z
" id="DejaVuSans-104"/>
     </defs>
     <g transform="translate(146.920312 303.130938)rotate(-90)scale(0.1 -0.1)">
      <use xlink:href="#DejaVuSans-69"/>
      <use x="63.183594" xlink:href="#DejaVuSans-112"/>
      <use x="126.660156" xlink:href="#DejaVuSans-111"/>
      <use x="187.841797" xlink:href="#DejaVuSans-99"/>
      <use x="242.822266" xlink:href="#DejaVuSans-104"/>
     </g>
    </g>
   </g>
   <g id="patch_23">
    <path d="M 153 315 
L 153 260.64 
" style="fill:none;stroke:#000000;stroke-linecap:square;stroke-linejoin:miter;stroke-width:0.8;"/>
   </g>
   <g id="patch_24">
    <path d="M 1101.6 315 
L 1101.6 260.64 
" style="fill:none;stroke:#000000;stroke-linecap:square;stroke-linejoin:miter;stroke-width:0.8;"/>
   </g>
   <g id="patch_25">
    <path d="M 153 315 
L 1101.6 315 
" style="fill:none;stroke:#000000;stroke-linecap:square;stroke-linejoin:miter;stroke-width:0.8;"/>
   </g>
   <g id="patch_26">
    <path d="M 153 260.64 
L 1101.6 260.64 
" style="fill:none;stroke:#000000;stroke-linecap:square;stroke-linejoin:miter;stroke-width:0.8;"/>
   </g>
  </g>
  <g id="text_11">
   <!-- Naive map -->
   <defs>
    <path d="M 9.8125 72.90625 
L 23.09375 72.90625 
L 55.421875 11.921875 
L 55.421875 72.90625 
L 64.984375 72.90625 
L 64.984375 0 
L 51.703125 0 
L 19.390625 60.984375 
L 19.390625 0 
L 9.8125 0 
z
" id="DejaVuSans-78"/>
    <path d="M 2.984375 54.6875 
L 12.5 54.6875 
L 29.59375 8.796875 
L 46.6875 54.6875 
L 56.203125 54.6875 
L 35.6875 0 
L 23.484375 0 
z
" id="DejaVuSans-118"/>
   </defs>
   <g transform="translate(579.687188 16.318125)scale(0.12 -0.12)">
    <use xlink:href="#DejaVuSans-78"/>
    <use x="74.804688" xlink:href="#DejaVuSans-97"/>
    <use x="136.083984" xlink:href="#DejaVuSans-105"/>
    <use x="163.867188" xlink:href="#DejaVuSans-118"/>
    <use x="223.046875" xlink:href="#DejaVuSans-101"/>
    <use x="284.570312" xlink:href="#DejaVuSans-32"/>
    <use x="316.357422" xlink:href="#DejaVuSans-109"/>
    <use x="413.769531" xlink:href="#DejaVuSans-97"/>
    <use x="475.048828" xlink:href="#DejaVuSans-112"/>
   </g>
  </g>
 </g>
 <defs>
  <clipPath id="p9a6aa1ea7d">
   <rect height="54.36" width="948.6" x="153" y="43.2"/>
  </clipPath>
  <clipPath id="pc021573f2b">
   <rect height="54.36" width="948.6" x="153" y="97.56"/>
  </clipPath>
  <clipPath id="p7be5324fc9">
   <rect height="54.36" width="948.6" x="153" y="151.92"/>
  </clipPath>
  <clipPath id="pcb62b049ec">
   <rect height="54.36" width="948.6" x="153" y="206.28"/>
  </clipPath>
  <clipPath id="pc7018be9a1">
   <rect height="54.36" width="948.6" x="153" y="260.64"/>
  </clipPath>
 </defs>
</svg>
