<?xml version="1.0" encoding="utf-8" standalone="no"?>
<!DOCTYPE svg PUBLIC "-//W3C//DTD SVG 1.1//EN"
  "http://www.w3.org/Graphics/SVG/1.1/DTD/svg11.dtd">
<!-- Created with matplotlib (https://matplotlib.org/) -->
<svg height="360pt" version="1.1" viewBox="0 0 1224 360" width="1224pt" xmlns="http://www.w3.org/2000/svg" xmlns:xlink="http://www.w3.org/1999/xlink">
 <defs>
  <style type="text/css">
*{stroke-linecap:butt;stroke-linejoin:round;}
  </style>
 </defs>
 <g id="figure_1">
  <g id="patch_1">
   <path d="M 0 360 
L 1224 360 
L 1224 0 
L 0 0 
z
" style="fill:#ffffff;"/>
  </g>
  <g id="axes_1">
   <g id="patch_2">
    <path d="M 153 97.56 
L 1101.6 97.56 
L 1101.6 43.2 
L 153 43.2 
z
" style="fill:#ffffff;"/>
   </g>
   <g id="BrokenBarHCollection_1">
    <defs>
     <path d="M 173.398422 -262.44 
L 173.398422 -316.8 
L 201.827409 -316.8 
L 201.827409 -262.44 
L 173.398422 -262.44 
z
" id="mbbe8478bd7"/>
    </defs>
    <g clip-path="url(#p9adf0be449)">
     <use style="fill:#0d0887;fill-opacity:0.66;" x="0" xlink:href="#mbbe8478bd7" y="360"/>
    </g>
   </g>
   <g id="matplotlib.axis_1">
    <g id="xtick_1">
     <g id="line2d_1">
      <path clip-path="url(#p9adf0be449)" d="M 162.392079 97.56 
L 162.392079 43.2 
" style="fill:none;stroke:#000000;stroke-dasharray:0.8,1.32;stroke-dashoffset:0;stroke-width:0.8;"/>
     </g>
     <g id="line2d_2">
      <defs>
       <path d="M 0 0 
L 0 3.5 
" id="m32d128bd34" style="stroke:#000000;stroke-width:0.8;"/>
      </defs>
      <g>
       <use style="stroke:#000000;stroke-width:0.8;" x="162.392079" xlink:href="#m32d128bd34" y="97.56"/>
      </g>
     </g>
    </g>
    <g id="xtick_2">
     <g id="line2d_3">
      <path clip-path="url(#p9adf0be449)" d="M 350.233663 97.56 
L 350.233663 43.2 
" style="fill:none;stroke:#000000;stroke-dasharray:0.8,1.32;stroke-dashoffset:0;stroke-width:0.8;"/>
     </g>
     <g id="line2d_4">
      <g>
       <use style="stroke:#000000;stroke-width:0.8;" x="350.233663" xlink:href="#m32d128bd34" y="97.56"/>
      </g>
     </g>
    </g>
    <g id="xtick_3">
     <g id="line2d_5">
      <path clip-path="url(#p9adf0be449)" d="M 538.075248 97.56 
L 538.075248 43.2 
" style="fill:none;stroke:#000000;stroke-dasharray:0.8,1.32;stroke-dashoffset:0;stroke-width:0.8;"/>
     </g>
     <g id="line2d_6">
      <g>
       <use style="stroke:#000000;stroke-width:0.8;" x="538.075248" xlink:href="#m32d128bd34" y="97.56"/>
      </g>
     </g>
    </g>
    <g id="xtick_4">
     <g id="line2d_7">
      <path clip-path="url(#p9adf0be449)" d="M 725.916832 97.56 
L 725.916832 43.2 
" style="fill:none;stroke:#000000;stroke-dasharray:0.8,1.32;stroke-dashoffset:0;stroke-width:0.8;"/>
     </g>
     <g id="line2d_8">
      <g>
       <use style="stroke:#000000;stroke-width:0.8;" x="725.916832" xlink:href="#m32d128bd34" y="97.56"/>
      </g>
     </g>
    </g>
    <g id="xtick_5">
     <g id="line2d_9">
      <path clip-path="url(#p9adf0be449)" d="M 913.758416 97.56 
L 913.758416 43.2 
" style="fill:none;stroke:#000000;stroke-dasharray:0.8,1.32;stroke-dashoffset:0;stroke-width:0.8;"/>
     </g>
     <g id="line2d_10">
      <g>
       <use style="stroke:#000000;stroke-width:0.8;" x="913.758416" xlink:href="#m32d128bd34" y="97.56"/>
      </g>
     </g>
    </g>
    <g id="xtick_6">
     <g id="line2d_11">
      <path clip-path="url(#p9adf0be449)" d="M 1101.6 97.56 
L 1101.6 43.2 
" style="fill:none;stroke:#000000;stroke-dasharray:0.8,1.32;stroke-dashoffset:0;stroke-width:0.8;"/>
     </g>
     <g id="line2d_12">
      <g>
       <use style="stroke:#000000;stroke-width:0.8;" x="1101.6" xlink:href="#m32d128bd34" y="97.56"/>
      </g>
     </g>
    </g>
    <g id="text_1">
     <!-- time (s) -->
     <defs>
      <path d="M 18.3125 70.21875 
L 18.3125 54.6875 
L 36.8125 54.6875 
L 36.8125 47.703125 
L 18.3125 47.703125 
L 18.3125 18.015625 
Q 18.3125 11.328125 20.140625 9.421875 
Q 21.96875 7.515625 27.59375 7.515625 
L 36.8125 7.515625 
L 36.8125 0 
L 27.59375 0 
Q 17.1875 0 13.234375 3.875 
Q 9.28125 7.765625 9.28125 18.015625 
L 9.28125 47.703125 
L 2.6875 47.703125 
L 2.6875 54.6875 
L 9.28125 54.6875 
L 9.28125 70.21875 
z
" id="DejaVuSans-116"/>
      <path d="M 9.421875 54.6875 
L 18.40625 54.6875 
L 18.40625 0 
L 9.421875 0 
z
M 9.421875 75.984375 
L 18.40625 75.984375 
L 18.40625 64.59375 
L 9.421875 64.59375 
z
" id="DejaVuSans-105"/>
      <path d="M 52 44.1875 
Q 55.375 50.25 60.0625 53.125 
Q 64.75 56 71.09375 56 
Q 79.640625 56 84.28125 50.015625 
Q 88.921875 44.046875 88.921875 33.015625 
L 88.921875 0 
L 79.890625 0 
L 79.890625 32.71875 
Q 79.890625 40.578125 77.09375 44.375 
Q 74.3125 48.1875 68.609375 48.1875 
Q 61.625 48.1875 57.5625 43.546875 
Q 53.515625 38.921875 53.515625 30.90625 
L 53.515625 0 
L 44.484375 0 
L 44.484375 32.71875 
Q 44.484375 40.625 41.703125 44.40625 
Q 38.921875 48.1875 33.109375 48.1875 
Q 26.21875 48.1875 22.15625 43.53125 
Q 18.109375 38.875 18.109375 30.90625 
L 18.109375 0 
L 9.078125 0 
L 9.078125 54.6875 
L 18.109375 54.6875 
L 18.109375 46.1875 
Q 21.1875 51.21875 25.484375 53.609375 
Q 29.78125 56 35.6875 56 
Q 41.65625 56 45.828125 52.96875 
Q 50 49.953125 52 44.1875 
z
" id="DejaVuSans-109"/>
      <path d="M 56.203125 29.59375 
L 56.203125 25.203125 
L 14.890625 25.203125 
Q 15.484375 15.921875 20.484375 11.0625 
Q 25.484375 6.203125 34.421875 6.203125 
Q 39.59375 6.203125 44.453125 7.46875 
Q 49.3125 8.734375 54.109375 11.28125 
L 54.109375 2.78125 
Q 49.265625 0.734375 44.1875 -0.34375 
Q 39.109375 -1.421875 33.890625 -1.421875 
Q 20.796875 -1.421875 13.15625 6.1875 
Q 5.515625 13.8125 5.515625 26.8125 
Q 5.515625 40.234375 12.765625 48.109375 
Q 20.015625 56 32.328125 56 
Q 43.359375 56 49.78125 48.890625 
Q 56.203125 41.796875 56.203125 29.59375 
z
M 47.21875 32.234375 
Q 47.125 39.59375 43.09375 43.984375 
Q 39.0625 48.390625 32.421875 48.390625 
Q 24.90625 48.390625 20.390625 44.140625 
Q 15.875 39.890625 15.1875 32.171875 
z
" id="DejaVuSans-101"/>
      <path id="DejaVuSans-32"/>
      <path d="M 31 75.875 
Q 24.46875 64.65625 21.28125 53.65625 
Q 18.109375 42.671875 18.109375 31.390625 
Q 18.109375 20.125 21.3125 9.0625 
Q 24.515625 -2 31 -13.1875 
L 23.1875 -13.1875 
Q 15.875 -1.703125 12.234375 9.375 
Q 8.59375 20.453125 8.59375 31.390625 
Q 8.59375 42.28125 12.203125 53.3125 
Q 15.828125 64.359375 23.1875 75.875 
z
" id="DejaVuSans-40"/>
      <path d="M 44.28125 53.078125 
L 44.28125 44.578125 
Q 40.484375 46.53125 36.375 47.5 
Q 32.28125 48.484375 27.875 48.484375 
Q 21.1875 48.484375 17.84375 46.4375 
Q 14.5 44.390625 14.5 40.28125 
Q 14.5 37.15625 16.890625 35.375 
Q 19.28125 33.59375 26.515625 31.984375 
L 29.59375 31.296875 
Q 39.15625 29.25 43.1875 25.515625 
Q 47.21875 21.78125 47.21875 15.09375 
Q 47.21875 7.46875 41.1875 3.015625 
Q 35.15625 -1.421875 24.609375 -1.421875 
Q 20.21875 -1.421875 15.453125 -0.5625 
Q 10.6875 0.296875 5.421875 2 
L 5.421875 11.28125 
Q 10.40625 8.6875 15.234375 7.390625 
Q 20.0625 6.109375 24.8125 6.109375 
Q 31.15625 6.109375 34.5625 8.28125 
Q 37.984375 10.453125 37.984375 14.40625 
Q 37.984375 18.0625 35.515625 20.015625 
Q 33.0625 21.96875 24.703125 23.78125 
L 21.578125 24.515625 
Q 13.234375 26.265625 9.515625 29.90625 
Q 5.8125 33.546875 5.8125 39.890625 
Q 5.8125 47.609375 11.28125 51.796875 
Q 16.75 56 26.8125 56 
Q 31.78125 56 36.171875 55.265625 
Q 40.578125 54.546875 44.28125 53.078125 
z
" id="DejaVuSans-115"/>
      <path d="M 8.015625 75.875 
L 15.828125 75.875 
Q 23.140625 64.359375 26.78125 53.3125 
Q 30.421875 42.28125 30.421875 31.390625 
Q 30.421875 20.453125 26.78125 9.375 
Q 23.140625 -1.703125 15.828125 -13.1875 
L 8.015625 -13.1875 
Q 14.5 -2 17.703125 9.0625 
Q 20.90625 20.125 20.90625 31.390625 
Q 20.90625 42.671875 17.703125 53.65625 
Q 14.5 64.65625 8.015625 75.875 
z
" id="DejaVuSans-41"/>
     </defs>
     <g transform="translate(607.908594 109.158437)scale(0.1 -0.1)">
      <use xlink:href="#DejaVuSans-116"/>
      <use x="39.208984" xlink:href="#DejaVuSans-105"/>
      <use x="66.992188" xlink:href="#DejaVuSans-109"/>
      <use x="164.404297" xlink:href="#DejaVuSans-101"/>
      <use x="225.927734" xlink:href="#DejaVuSans-32"/>
      <use x="257.714844" xlink:href="#DejaVuSans-40"/>
      <use x="296.728516" xlink:href="#DejaVuSans-115"/>
      <use x="348.828125" xlink:href="#DejaVuSans-41"/>
     </g>
    </g>
   </g>
   <g id="matplotlib.axis_2">
    <g id="text_2">
     <!-- load -->
     <defs>
      <path d="M 9.421875 75.984375 
L 18.40625 75.984375 
L 18.40625 0 
L 9.421875 0 
z
" id="DejaVuSans-108"/>
      <path d="M 30.609375 48.390625 
Q 23.390625 48.390625 19.1875 42.75 
Q 14.984375 37.109375 14.984375 27.296875 
Q 14.984375 17.484375 19.15625 11.84375 
Q 23.34375 6.203125 30.609375 6.203125 
Q 37.796875 6.203125 41.984375 11.859375 
Q 46.1875 17.53125 46.1875 27.296875 
Q 46.1875 37.015625 41.984375 42.703125 
Q 37.796875 48.390625 30.609375 48.390625 
z
M 30.609375 56 
Q 42.328125 56 49.015625 48.375 
Q 55.71875 40.765625 55.71875 27.296875 
Q 55.71875 13.875 49.015625 6.21875 
Q 42.328125 -1.421875 30.609375 -1.421875 
Q 18.84375 -1.421875 12.171875 6.21875 
Q 5.515625 13.875 5.515625 27.296875 
Q 5.515625 40.765625 12.171875 48.375 
Q 18.84375 56 30.609375 56 
z
" id="DejaVuSans-111"/>
      <path d="M 34.28125 27.484375 
Q 23.390625 27.484375 19.1875 25 
Q 14.984375 22.515625 14.984375 16.5 
Q 14.984375 11.71875 18.140625 8.90625 
Q 21.296875 6.109375 26.703125 6.109375 
Q 34.1875 6.109375 38.703125 11.40625 
Q 43.21875 16.703125 43.21875 25.484375 
L 43.21875 27.484375 
z
M 52.203125 31.203125 
L 52.203125 0 
L 43.21875 0 
L 43.21875 8.296875 
Q 40.140625 3.328125 35.546875 0.953125 
Q 30.953125 -1.421875 24.3125 -1.421875 
Q 15.921875 -1.421875 10.953125 3.296875 
Q 6 8.015625 6 15.921875 
Q 6 25.140625 12.171875 29.828125 
Q 18.359375 34.515625 30.609375 34.515625 
L 43.21875 34.515625 
L 43.21875 35.40625 
Q 43.21875 41.609375 39.140625 45 
Q 35.0625 48.390625 27.6875 48.390625 
Q 23 48.390625 18.546875 47.265625 
Q 14.109375 46.140625 10.015625 43.890625 
L 10.015625 52.203125 
Q 14.9375 54.109375 19.578125 55.046875 
Q 24.21875 56 28.609375 56 
Q 40.484375 56 46.34375 49.84375 
Q 52.203125 43.703125 52.203125 31.203125 
z
" id="DejaVuSans-97"/>
      <path d="M 45.40625 46.390625 
L 45.40625 75.984375 
L 54.390625 75.984375 
L 54.390625 0 
L 45.40625 0 
L 45.40625 8.203125 
Q 42.578125 3.328125 38.25 0.953125 
Q 33.9375 -1.421875 27.875 -1.421875 
Q 17.96875 -1.421875 11.734375 6.484375 
Q 5.515625 14.40625 5.515625 27.296875 
Q 5.515625 40.1875 11.734375 48.09375 
Q 17.96875 56 27.875 56 
Q 33.9375 56 38.25 53.625 
Q 42.578125 51.265625 45.40625 46.390625 
z
M 14.796875 27.296875 
Q 14.796875 17.390625 18.875 11.75 
Q 22.953125 6.109375 30.078125 6.109375 
Q 37.203125 6.109375 41.296875 11.75 
Q 45.40625 17.390625 45.40625 27.296875 
Q 45.40625 37.203125 41.296875 42.84375 
Q 37.203125 48.484375 30.078125 48.484375 
Q 22.953125 48.484375 18.875 42.84375 
Q 14.796875 37.203125 14.796875 27.296875 
z
" id="DejaVuSans-100"/>
     </defs>
     <g transform="translate(146.920312 81.066719)rotate(-90)scale(0.1 -0.1)">
      <use xlink:href="#DejaVuSans-108"/>
      <use x="27.783203" xlink:href="#DejaVuSans-111"/>
      <use x="88.964844" xlink:href="#DejaVuSans-97"/>
      <use x="150.244141" xlink:href="#DejaVuSans-100"/>
     </g>
    </g>
   </g>
   <g id="patch_3">
    <path d="M 153 97.56 
L 153 43.2 
" style="fill:none;stroke:#000000;stroke-linecap:square;stroke-linejoin:miter;stroke-width:0.8;"/>
   </g>
   <g id="patch_4">
    <path d="M 1101.6 97.56 
L 1101.6 43.2 
" style="fill:none;stroke:#000000;stroke-linecap:square;stroke-linejoin:miter;stroke-width:0.8;"/>
   </g>
   <g id="patch_5">
    <path d="M 153 97.56 
L 1101.6 97.56 
" style="fill:none;stroke:#000000;stroke-linecap:square;stroke-linejoin:miter;stroke-width:0.8;"/>
   </g>
   <g id="patch_6">
    <path d="M 153 43.2 
L 1101.6 43.2 
" style="fill:none;stroke:#000000;stroke-linecap:square;stroke-linejoin:miter;stroke-width:0.8;"/>
   </g>
  </g>
  <g id="axes_2">
   <g id="patch_7">
    <path d="M 153 151.92 
L 1101.6 151.92 
L 1101.6 97.56 
L 153 97.56 
z
" style="fill:#ffffff;"/>
   </g>
   <g id="BrokenBarHCollection_2">
    <path clip-path="url(#pda5111bbe6)" d="M 201.831474 151.92 
L 201.831474 97.56 
L 216.061814 97.56 
L 216.061814 151.92 
L 201.831474 151.92 
z
" style="fill:#6a00a8;fill-opacity:0.66;"/>
    <path clip-path="url(#pda5111bbe6)" d="M 219.258184 151.92 
L 219.258184 97.56 
L 233.589982 97.56 
L 233.589982 151.92 
L 219.258184 151.92 
z
" style="fill:#6a00a8;fill-opacity:0.66;"/>
    <path clip-path="url(#pda5111bbe6)" d="M 239.895077 151.92 
L 239.895077 97.56 
L 254.239674 97.56 
L 254.239674 151.92 
L 239.895077 151.92 
z
" style="fill:#6a00a8;fill-opacity:0.66;"/>
    <path clip-path="url(#pda5111bbe6)" d="M 260.531969 151.92 
L 260.531969 97.56 
L 274.722744 97.56 
L 274.722744 151.92 
L 260.531969 151.92 
z
" style="fill:#6a00a8;fill-opacity:0.66;"/>
    <path clip-path="url(#pda5111bbe6)" d="M 280.710265 151.92 
L 280.710265 97.56 
L 295.045121 97.56 
L 295.045121 151.92 
L 280.710265 151.92 
z
" style="fill:#6a00a8;fill-opacity:0.66;"/>
    <path clip-path="url(#pda5111bbe6)" d="M 301.347157 151.92 
L 301.347157 97.56 
L 315.555496 97.56 
L 315.555496 151.92 
L 301.347157 151.92 
z
" style="fill:#6a00a8;fill-opacity:0.66;"/>
    <path clip-path="url(#pda5111bbe6)" d="M 321.525453 151.92 
L 321.525453 97.56 
L 335.836657 97.56 
L 335.836657 151.92 
L 321.525453 151.92 
z
" style="fill:#6a00a8;fill-opacity:0.66;"/>
    <path clip-path="url(#pda5111bbe6)" d="M 342.162345 151.92 
L 342.162345 97.56 
L 356.487279 97.56 
L 356.487279 151.92 
L 342.162345 151.92 
z
" style="fill:#6a00a8;fill-opacity:0.66;"/>
    <path clip-path="url(#pda5111bbe6)" d="M 362.34064 151.92 
L 362.34064 97.56 
L 376.551806 97.56 
L 376.551806 151.92 
L 362.34064 151.92 
z
" style="fill:#6a00a8;fill-opacity:0.66;"/>
    <path clip-path="url(#pda5111bbe6)" d="M 382.518936 151.92 
L 382.518936 97.56 
L 396.75868 97.56 
L 396.75868 151.92 
L 382.518936 151.92 
z
" style="fill:#6a00a8;fill-opacity:0.66;"/>
    <path clip-path="url(#pda5111bbe6)" d="M 402.697231 151.92 
L 402.697231 97.56 
L 417.036804 97.56 
L 417.036804 151.92 
L 402.697231 151.92 
z
" style="fill:#6a00a8;fill-opacity:0.66;"/>
    <path clip-path="url(#pda5111bbe6)" d="M 423.334124 151.92 
L 423.334124 97.56 
L 437.546479 97.56 
L 437.546479 151.92 
L 423.334124 151.92 
z
" style="fill:#6a00a8;fill-opacity:0.66;"/>
    <path clip-path="url(#pda5111bbe6)" d="M 443.512419 151.92 
L 443.512419 97.56 
L 457.748986 97.56 
L 457.748986 151.92 
L 443.512419 151.92 
z
" style="fill:#6a00a8;fill-opacity:0.66;"/>
    <path clip-path="url(#pda5111bbe6)" d="M 463.690714 151.92 
L 463.690714 97.56 
L 477.918828 97.56 
L 477.918828 151.92 
L 463.690714 151.92 
z
" style="fill:#6a00a8;fill-opacity:0.66;"/>
    <path clip-path="url(#pda5111bbe6)" d="M 483.869009 151.92 
L 483.869009 97.56 
L 498.193579 97.56 
L 498.193579 151.92 
L 483.869009 151.92 
z
" style="fill:#6a00a8;fill-opacity:0.66;"/>
    <path clip-path="url(#pda5111bbe6)" d="M 504.047304 151.92 
L 504.047304 97.56 
L 518.399725 97.56 
L 518.399725 151.92 
L 504.047304 151.92 
z
" style="fill:#6a00a8;fill-opacity:0.66;"/>
    <path clip-path="url(#pda5111bbe6)" d="M 524.225599 151.92 
L 524.225599 97.56 
L 538.462083 97.56 
L 538.462083 151.92 
L 524.225599 151.92 
z
" style="fill:#6a00a8;fill-opacity:0.66;"/>
    <path clip-path="url(#pda5111bbe6)" d="M 544.862492 151.92 
L 544.862492 97.56 
L 559.106393 97.56 
L 559.106393 151.92 
L 544.862492 151.92 
z
" style="fill:#6a00a8;fill-opacity:0.66;"/>
    <path clip-path="url(#pda5111bbe6)" d="M 565.040787 151.92 
L 565.040787 97.56 
L 579.281385 97.56 
L 579.281385 151.92 
L 565.040787 151.92 
z
" style="fill:#6a00a8;fill-opacity:0.66;"/>
    <path clip-path="url(#pda5111bbe6)" d="M 585.67768 151.92 
L 585.67768 97.56 
L 599.913772 97.56 
L 599.913772 151.92 
L 585.67768 151.92 
z
" style="fill:#6a00a8;fill-opacity:0.66;"/>
    <path clip-path="url(#pda5111bbe6)" d="M 607.690366 151.92 
L 607.690366 97.56 
L 622.007882 97.56 
L 622.007882 151.92 
L 607.690366 151.92 
z
" style="fill:#6a00a8;fill-opacity:0.66;"/>
    <path clip-path="url(#pda5111bbe6)" d="M 627.868661 151.92 
L 627.868661 97.56 
L 642.104557 97.56 
L 642.104557 151.92 
L 627.868661 151.92 
z
" style="fill:#6a00a8;fill-opacity:0.66;"/>
    <path clip-path="url(#pda5111bbe6)" d="M 648.046956 151.92 
L 648.046956 97.56 
L 662.259788 97.56 
L 662.259788 151.92 
L 648.046956 151.92 
z
" style="fill:#6a00a8;fill-opacity:0.66;"/>
    <path clip-path="url(#pda5111bbe6)" d="M 674.645618 151.92 
L 674.645618 97.56 
L 688.817863 97.56 
L 688.817863 151.92 
L 674.645618 151.92 
z
" style="fill:#6a00a8;fill-opacity:0.66;"/>
    <path clip-path="url(#pda5111bbe6)" d="M 691.61373 151.92 
L 691.61373 97.56 
L 705.775339 97.56 
L 705.775339 151.92 
L 691.61373 151.92 
z
" style="fill:#6a00a8;fill-opacity:0.66;"/>
   </g>
   <g id="matplotlib.axis_3">
    <g id="xtick_7">
     <g id="line2d_13">
      <path clip-path="url(#pda5111bbe6)" d="M 162.392079 151.92 
L 162.392079 97.56 
" style="fill:none;stroke:#000000;stroke-dasharray:0.8,1.32;stroke-dashoffset:0;stroke-width:0.8;"/>
     </g>
     <g id="line2d_14">
      <g>
       <use style="stroke:#000000;stroke-width:0.8;" x="162.392079" xlink:href="#m32d128bd34" y="151.92"/>
      </g>
     </g>
    </g>
    <g id="xtick_8">
     <g id="line2d_15">
      <path clip-path="url(#pda5111bbe6)" d="M 350.233663 151.92 
L 350.233663 97.56 
" style="fill:none;stroke:#000000;stroke-dasharray:0.8,1.32;stroke-dashoffset:0;stroke-width:0.8;"/>
     </g>
     <g id="line2d_16">
      <g>
       <use style="stroke:#000000;stroke-width:0.8;" x="350.233663" xlink:href="#m32d128bd34" y="151.92"/>
      </g>
     </g>
    </g>
    <g id="xtick_9">
     <g id="line2d_17">
      <path clip-path="url(#pda5111bbe6)" d="M 538.075248 151.92 
L 538.075248 97.56 
" style="fill:none;stroke:#000000;stroke-dasharray:0.8,1.32;stroke-dashoffset:0;stroke-width:0.8;"/>
     </g>
     <g id="line2d_18">
      <g>
       <use style="stroke:#000000;stroke-width:0.8;" x="538.075248" xlink:href="#m32d128bd34" y="151.92"/>
      </g>
     </g>
    </g>
    <g id="xtick_10">
     <g id="line2d_19">
      <path clip-path="url(#pda5111bbe6)" d="M 725.916832 151.92 
L 725.916832 97.56 
" style="fill:none;stroke:#000000;stroke-dasharray:0.8,1.32;stroke-dashoffset:0;stroke-width:0.8;"/>
     </g>
     <g id="line2d_20">
      <g>
       <use style="stroke:#000000;stroke-width:0.8;" x="725.916832" xlink:href="#m32d128bd34" y="151.92"/>
      </g>
     </g>
    </g>
    <g id="xtick_11">
     <g id="line2d_21">
      <path clip-path="url(#pda5111bbe6)" d="M 913.758416 151.92 
L 913.758416 97.56 
" style="fill:none;stroke:#000000;stroke-dasharray:0.8,1.32;stroke-dashoffset:0;stroke-width:0.8;"/>
     </g>
     <g id="line2d_22">
      <g>
       <use style="stroke:#000000;stroke-width:0.8;" x="913.758416" xlink:href="#m32d128bd34" y="151.92"/>
      </g>
     </g>
    </g>
    <g id="xtick_12">
     <g id="line2d_23">
      <path clip-path="url(#pda5111bbe6)" d="M 1101.6 151.92 
L 1101.6 97.56 
" style="fill:none;stroke:#000000;stroke-dasharray:0.8,1.32;stroke-dashoffset:0;stroke-width:0.8;"/>
     </g>
     <g id="line2d_24">
      <g>
       <use style="stroke:#000000;stroke-width:0.8;" x="1101.6" xlink:href="#m32d128bd34" y="151.92"/>
      </g>
     </g>
    </g>
    <g id="text_3">
     <!-- time (s) -->
     <g transform="translate(607.908594 163.518437)scale(0.1 -0.1)">
      <use xlink:href="#DejaVuSans-116"/>
      <use x="39.208984" xlink:href="#DejaVuSans-105"/>
      <use x="66.992188" xlink:href="#DejaVuSans-109"/>
      <use x="164.404297" xlink:href="#DejaVuSans-101"/>
      <use x="225.927734" xlink:href="#DejaVuSans-32"/>
      <use x="257.714844" xlink:href="#DejaVuSans-40"/>
      <use x="296.728516" xlink:href="#DejaVuSans-115"/>
      <use x="348.828125" xlink:href="#DejaVuSans-41"/>
     </g>
    </g>
   </g>
   <g id="matplotlib.axis_4">
    <g id="text_4">
     <!-- fetch -->
     <defs>
      <path d="M 37.109375 75.984375 
L 37.109375 68.5 
L 28.515625 68.5 
Q 23.6875 68.5 21.796875 66.546875 
Q 19.921875 64.59375 19.921875 59.515625 
L 19.921875 54.6875 
L 34.71875 54.6875 
L 34.71875 47.703125 
L 19.921875 47.703125 
L 19.921875 0 
L 10.890625 0 
L 10.890625 47.703125 
L 2.296875 47.703125 
L 2.296875 54.6875 
L 10.890625 54.6875 
L 10.890625 58.5 
Q 10.890625 67.625 15.140625 71.796875 
Q 19.390625 75.984375 28.609375 75.984375 
z
" id="DejaVuSans-102"/>
      <path d="M 48.78125 52.59375 
L 48.78125 44.1875 
Q 44.96875 46.296875 41.140625 47.34375 
Q 37.3125 48.390625 33.40625 48.390625 
Q 24.65625 48.390625 19.8125 42.84375 
Q 14.984375 37.3125 14.984375 27.296875 
Q 14.984375 17.28125 19.8125 11.734375 
Q 24.65625 6.203125 33.40625 6.203125 
Q 37.3125 6.203125 41.140625 7.25 
Q 44.96875 8.296875 48.78125 10.40625 
L 48.78125 2.09375 
Q 45.015625 0.34375 40.984375 -0.53125 
Q 36.96875 -1.421875 32.421875 -1.421875 
Q 20.0625 -1.421875 12.78125 6.34375 
Q 5.515625 14.109375 5.515625 27.296875 
Q 5.515625 40.671875 12.859375 48.328125 
Q 20.21875 56 33.015625 56 
Q 37.15625 56 41.109375 55.140625 
Q 45.0625 54.296875 48.78125 52.59375 
z
" id="DejaVuSans-99"/>
      <path d="M 54.890625 33.015625 
L 54.890625 0 
L 45.90625 0 
L 45.90625 32.71875 
Q 45.90625 40.484375 42.875 44.328125 
Q 39.84375 48.1875 33.796875 48.1875 
Q 26.515625 48.1875 22.3125 43.546875 
Q 18.109375 38.921875 18.109375 30.90625 
L 18.109375 0 
L 9.078125 0 
L 9.078125 75.984375 
L 18.109375 75.984375 
L 18.109375 46.1875 
Q 21.34375 51.125 25.703125 53.5625 
Q 30.078125 56 35.796875 56 
Q 45.21875 56 50.046875 50.171875 
Q 54.890625 44.34375 54.890625 33.015625 
z
" id="DejaVuSans-104"/>
     </defs>
     <g transform="translate(146.920312 137.454844)rotate(-90)scale(0.1 -0.1)">
      <use xlink:href="#DejaVuSans-102"/>
      <use x="35.205078" xlink:href="#DejaVuSans-101"/>
      <use x="96.728516" xlink:href="#DejaVuSans-116"/>
      <use x="135.9375" xlink:href="#DejaVuSans-99"/>
      <use x="190.917969" xlink:href="#DejaVuSans-104"/>
     </g>
    </g>
   </g>
   <g id="patch_8">
    <path d="M 153 151.92 
L 153 97.56 
" style="fill:none;stroke:#000000;stroke-linecap:square;stroke-linejoin:miter;stroke-width:0.8;"/>
   </g>
   <g id="patch_9">
    <path d="M 1101.6 151.92 
L 1101.6 97.56 
" style="fill:none;stroke:#000000;stroke-linecap:square;stroke-linejoin:miter;stroke-width:0.8;"/>
   </g>
   <g id="patch_10">
    <path d="M 153 151.92 
L 1101.6 151.92 
" style="fill:none;stroke:#000000;stroke-linecap:square;stroke-linejoin:miter;stroke-width:0.8;"/>
   </g>
   <g id="patch_11">
    <path d="M 153 97.56 
L 1101.6 97.56 
" style="fill:none;stroke:#000000;stroke-linecap:square;stroke-linejoin:miter;stroke-width:0.8;"/>
   </g>
  </g>
  <g id="axes_3">
   <g id="patch_12">
    <path d="M 153 206.28 
L 1101.6 206.28 
L 1101.6 151.92 
L 153 151.92 
z
" style="fill:#ffffff;"/>
   </g>
   <g id="BrokenBarHCollection_3">
    <path clip-path="url(#p0b29a6a35e)" d="M 216.965196 206.28 
L 216.965196 151.92 
L 217.64924 151.92 
L 217.64924 206.28 
L 216.965196 206.28 
z
" style="fill:#b12a90;fill-opacity:0.66;"/>
    <path clip-path="url(#p0b29a6a35e)" d="M 235.3091 206.28 
L 235.3091 151.92 
L 236.763827 151.92 
L 236.763827 206.28 
L 235.3091 206.28 
z
" style="fill:#b12a90;fill-opacity:0.66;"/>
    <path clip-path="url(#p0b29a6a35e)" d="M 255.487396 206.28 
L 255.487396 151.92 
L 256.836877 151.92 
L 256.836877 206.28 
L 255.487396 206.28 
z
" style="fill:#b12a90;fill-opacity:0.66;"/>
    <path clip-path="url(#p0b29a6a35e)" d="M 276.124288 206.28 
L 276.124288 151.92 
L 277.492426 151.92 
L 277.492426 206.28 
L 276.124288 206.28 
z
" style="fill:#b12a90;fill-opacity:0.66;"/>
    <path clip-path="url(#p0b29a6a35e)" d="M 296.761181 206.28 
L 296.761181 151.92 
L 298.086143 151.92 
L 298.086143 206.28 
L 296.761181 206.28 
z
" style="fill:#b12a90;fill-opacity:0.66;"/>
    <path clip-path="url(#p0b29a6a35e)" d="M 317.398074 206.28 
L 317.398074 151.92 
L 318.742867 151.92 
L 318.742867 206.28 
L 317.398074 206.28 
z
" style="fill:#b12a90;fill-opacity:0.66;"/>
    <path clip-path="url(#p0b29a6a35e)" d="M 337.576369 206.28 
L 337.576369 151.92 
L 338.90977 151.92 
L 338.90977 206.28 
L 337.576369 206.28 
z
" style="fill:#b12a90;fill-opacity:0.66;"/>
    <path clip-path="url(#p0b29a6a35e)" d="M 357.754664 206.28 
L 357.754664 151.92 
L 359.194276 151.92 
L 359.194276 206.28 
L 357.754664 206.28 
z
" style="fill:#b12a90;fill-opacity:0.66;"/>
    <path clip-path="url(#p0b29a6a35e)" d="M 378.391557 206.28 
L 378.391557 151.92 
L 379.807516 151.92 
L 379.807516 206.28 
L 378.391557 206.28 
z
" style="fill:#b12a90;fill-opacity:0.66;"/>
    <path clip-path="url(#p0b29a6a35e)" d="M 398.569852 206.28 
L 398.569852 151.92 
L 399.954882 151.92 
L 399.954882 206.28 
L 398.569852 206.28 
z
" style="fill:#b12a90;fill-opacity:0.66;"/>
    <path clip-path="url(#p0b29a6a35e)" d="M 418.748147 206.28 
L 418.748147 151.92 
L 420.07616 151.92 
L 420.07616 206.28 
L 418.748147 206.28 
z
" style="fill:#b12a90;fill-opacity:0.66;"/>
    <path clip-path="url(#p0b29a6a35e)" d="M 438.926443 206.28 
L 438.926443 151.92 
L 440.304923 151.92 
L 440.304923 206.28 
L 438.926443 206.28 
z
" style="fill:#b12a90;fill-opacity:0.66;"/>
    <path clip-path="url(#p0b29a6a35e)" d="M 459.104738 206.28 
L 459.104738 151.92 
L 460.442687 151.92 
L 460.442687 206.28 
L 459.104738 206.28 
z
" style="fill:#b12a90;fill-opacity:0.66;"/>
    <path clip-path="url(#p0b29a6a35e)" d="M 479.283033 206.28 
L 479.283033 151.92 
L 480.608891 151.92 
L 480.608891 206.28 
L 479.283033 206.28 
z
" style="fill:#b12a90;fill-opacity:0.66;"/>
    <path clip-path="url(#p0b29a6a35e)" d="M 499.919926 206.28 
L 499.919926 151.92 
L 501.319511 151.92 
L 501.319511 206.28 
L 499.919926 206.28 
z
" style="fill:#b12a90;fill-opacity:0.66;"/>
    <path clip-path="url(#p0b29a6a35e)" d="M 520.098221 206.28 
L 520.098221 151.92 
L 521.488149 151.92 
L 521.488149 206.28 
L 520.098221 206.28 
z
" style="fill:#b12a90;fill-opacity:0.66;"/>
    <path clip-path="url(#p0b29a6a35e)" d="M 540.276516 206.28 
L 540.276516 151.92 
L 541.643856 151.92 
L 541.643856 206.28 
L 540.276516 206.28 
z
" style="fill:#b12a90;fill-opacity:0.66;"/>
    <path clip-path="url(#p0b29a6a35e)" d="M 560.454811 206.28 
L 560.454811 151.92 
L 561.784 151.92 
L 561.784 206.28 
L 560.454811 206.28 
z
" style="fill:#b12a90;fill-opacity:0.66;"/>
    <path clip-path="url(#p0b29a6a35e)" d="M 581.091704 206.28 
L 581.091704 151.92 
L 582.597261 151.92 
L 582.597261 206.28 
L 581.091704 206.28 
z
" style="fill:#b12a90;fill-opacity:0.66;"/>
    <path clip-path="url(#p0b29a6a35e)" d="M 601.269999 206.28 
L 601.269999 151.92 
L 602.498702 151.92 
L 602.498702 206.28 
L 601.269999 206.28 
z
" style="fill:#b12a90;fill-opacity:0.66;"/>
    <path clip-path="url(#p0b29a6a35e)" d="M 623.741282 206.28 
L 623.741282 151.92 
L 625.117663 151.92 
L 625.117663 206.28 
L 623.741282 206.28 
z
" style="fill:#b12a90;fill-opacity:0.66;"/>
    <path clip-path="url(#p0b29a6a35e)" d="M 643.919578 206.28 
L 643.919578 151.92 
L 645.250306 151.92 
L 645.250306 206.28 
L 643.919578 206.28 
z
" style="fill:#b12a90;fill-opacity:0.66;"/>
    <path clip-path="url(#p0b29a6a35e)" d="M 664.55647 206.28 
L 664.55647 151.92 
L 666.4165 151.92 
L 666.4165 206.28 
L 664.55647 206.28 
z
" style="fill:#b12a90;fill-opacity:0.66;"/>
    <path clip-path="url(#p0b29a6a35e)" d="M 689.779339 206.28 
L 689.779339 151.92 
L 690.415565 151.92 
L 690.415565 206.28 
L 689.779339 206.28 
z
" style="fill:#b12a90;fill-opacity:0.66;"/>
    <path clip-path="url(#p0b29a6a35e)" d="M 706.288854 206.28 
L 706.288854 151.92 
L 706.738158 151.92 
L 706.738158 206.28 
L 706.288854 206.28 
z
" style="fill:#b12a90;fill-opacity:0.66;"/>
   </g>
   <g id="matplotlib.axis_5">
    <g id="xtick_13">
     <g id="line2d_25">
      <path clip-path="url(#p0b29a6a35e)" d="M 162.392079 206.28 
L 162.392079 151.92 
" style="fill:none;stroke:#000000;stroke-dasharray:0.8,1.32;stroke-dashoffset:0;stroke-width:0.8;"/>
     </g>
     <g id="line2d_26">
      <g>
       <use style="stroke:#000000;stroke-width:0.8;" x="162.392079" xlink:href="#m32d128bd34" y="206.28"/>
      </g>
     </g>
    </g>
    <g id="xtick_14">
     <g id="line2d_27">
      <path clip-path="url(#p0b29a6a35e)" d="M 350.233663 206.28 
L 350.233663 151.92 
" style="fill:none;stroke:#000000;stroke-dasharray:0.8,1.32;stroke-dashoffset:0;stroke-width:0.8;"/>
     </g>
     <g id="line2d_28">
      <g>
       <use style="stroke:#000000;stroke-width:0.8;" x="350.233663" xlink:href="#m32d128bd34" y="206.28"/>
      </g>
     </g>
    </g>
    <g id="xtick_15">
     <g id="line2d_29">
      <path clip-path="url(#p0b29a6a35e)" d="M 538.075248 206.28 
L 538.075248 151.92 
" style="fill:none;stroke:#000000;stroke-dasharray:0.8,1.32;stroke-dashoffset:0;stroke-width:0.8;"/>
     </g>
     <g id="line2d_30">
      <g>
       <use style="stroke:#000000;stroke-width:0.8;" x="538.075248" xlink:href="#m32d128bd34" y="206.28"/>
      </g>
     </g>
    </g>
    <g id="xtick_16">
     <g id="line2d_31">
      <path clip-path="url(#p0b29a6a35e)" d="M 725.916832 206.28 
L 725.916832 151.92 
" style="fill:none;stroke:#000000;stroke-dasharray:0.8,1.32;stroke-dashoffset:0;stroke-width:0.8;"/>
     </g>
     <g id="line2d_32">
      <g>
       <use style="stroke:#000000;stroke-width:0.8;" x="725.916832" xlink:href="#m32d128bd34" y="206.28"/>
      </g>
     </g>
    </g>
    <g id="xtick_17">
     <g id="line2d_33">
      <path clip-path="url(#p0b29a6a35e)" d="M 913.758416 206.28 
L 913.758416 151.92 
" style="fill:none;stroke:#000000;stroke-dasharray:0.8,1.32;stroke-dashoffset:0;stroke-width:0.8;"/>
     </g>
     <g id="line2d_34">
      <g>
       <use style="stroke:#000000;stroke-width:0.8;" x="913.758416" xlink:href="#m32d128bd34" y="206.28"/>
      </g>
     </g>
    </g>
    <g id="xtick_18">
     <g id="line2d_35">
      <path clip-path="url(#p0b29a6a35e)" d="M 1101.6 206.28 
L 1101.6 151.92 
" style="fill:none;stroke:#000000;stroke-dasharray:0.8,1.32;stroke-dashoffset:0;stroke-width:0.8;"/>
     </g>
     <g id="line2d_36">
      <g>
       <use style="stroke:#000000;stroke-width:0.8;" x="1101.6" xlink:href="#m32d128bd34" y="206.28"/>
      </g>
     </g>
    </g>
    <g id="text_5">
     <!-- time (s) -->
     <g transform="translate(607.908594 217.878437)scale(0.1 -0.1)">
      <use xlink:href="#DejaVuSans-116"/>
      <use x="39.208984" xlink:href="#DejaVuSans-105"/>
      <use x="66.992188" xlink:href="#DejaVuSans-109"/>
      <use x="164.404297" xlink:href="#DejaVuSans-101"/>
      <use x="225.927734" xlink:href="#DejaVuSans-32"/>
      <use x="257.714844" xlink:href="#DejaVuSans-40"/>
      <use x="296.728516" xlink:href="#DejaVuSans-115"/>
      <use x="348.828125" xlink:href="#DejaVuSans-41"/>
     </g>
    </g>
   </g>
   <g id="matplotlib.axis_6">
    <g id="text_6">
     <!-- map -->
     <defs>
      <path d="M 18.109375 8.203125 
L 18.109375 -20.796875 
L 9.078125 -20.796875 
L 9.078125 54.6875 
L 18.109375 54.6875 
L 18.109375 46.390625 
Q 20.953125 51.265625 25.265625 53.625 
Q 29.59375 56 35.59375 56 
Q 45.5625 56 51.78125 48.09375 
Q 58.015625 40.1875 58.015625 27.296875 
Q 58.015625 14.40625 51.78125 6.484375 
Q 45.5625 -1.421875 35.59375 -1.421875 
Q 29.59375 -1.421875 25.265625 0.953125 
Q 20.953125 3.328125 18.109375 8.203125 
z
M 48.6875 27.296875 
Q 48.6875 37.203125 44.609375 42.84375 
Q 40.53125 48.484375 33.40625 48.484375 
Q 26.265625 48.484375 22.1875 42.84375 
Q 18.109375 37.203125 18.109375 27.296875 
Q 18.109375 17.390625 22.1875 11.75 
Q 26.265625 6.109375 33.40625 6.109375 
Q 40.53125 6.109375 44.609375 11.75 
Q 48.6875 17.390625 48.6875 27.296875 
z
" id="DejaVuSans-112"/>
     </defs>
     <g transform="translate(146.920312 190.208594)rotate(-90)scale(0.1 -0.1)">
      <use xlink:href="#DejaVuSans-109"/>
      <use x="97.412109" xlink:href="#DejaVuSans-97"/>
      <use x="158.691406" xlink:href="#DejaVuSans-112"/>
     </g>
    </g>
   </g>
   <g id="patch_13">
    <path d="M 153 206.28 
L 153 151.92 
" style="fill:none;stroke:#000000;stroke-linecap:square;stroke-linejoin:miter;stroke-width:0.8;"/>
   </g>
   <g id="patch_14">
    <path d="M 1101.6 206.28 
L 1101.6 151.92 
" style="fill:none;stroke:#000000;stroke-linecap:square;stroke-linejoin:miter;stroke-width:0.8;"/>
   </g>
   <g id="patch_15">
    <path d="M 153 206.28 
L 1101.6 206.28 
" style="fill:none;stroke:#000000;stroke-linecap:square;stroke-linejoin:miter;stroke-width:0.8;"/>
   </g>
   <g id="patch_16">
    <path d="M 153 151.92 
L 1101.6 151.92 
" style="fill:none;stroke:#000000;stroke-linecap:square;stroke-linejoin:miter;stroke-width:0.8;"/>
   </g>
  </g>
  <g id="axes_4">
   <g id="patch_17">
    <path d="M 153 260.64 
L 1101.6 260.64 
L 1101.6 206.28 
L 153 206.28 
z
" style="fill:#ffffff;"/>
   </g>
   <g id="BrokenBarHCollection_4">
    <path clip-path="url(#p248f6e467d)" d="M 708.123244 260.64 
L 708.123244 206.28 
L 717.617032 206.28 
L 717.617032 260.64 
L 708.123244 260.64 
z
" style="fill:#e16462;fill-opacity:0.66;"/>
    <path clip-path="url(#p248f6e467d)" d="M 718.670989 260.64 
L 718.670989 206.28 
L 728.13326 206.28 
L 728.13326 260.64 
L 718.670989 260.64 
z
" style="fill:#e16462;fill-opacity:0.66;"/>
    <path clip-path="url(#p248f6e467d)" d="M 729.677332 260.64 
L 729.677332 206.28 
L 739.145313 206.28 
L 739.145313 260.64 
L 729.677332 260.64 
z
" style="fill:#e16462;fill-opacity:0.66;"/>
    <path clip-path="url(#p248f6e467d)" d="M 740.225077 260.64 
L 740.225077 206.28 
L 749.860666 206.28 
L 749.860666 260.64 
L 740.225077 260.64 
z
" style="fill:#e16462;fill-opacity:0.66;"/>
    <path clip-path="url(#p248f6e467d)" d="M 751.23142 260.64 
L 751.23142 206.28 
L 760.781861 206.28 
L 760.781861 260.64 
L 751.23142 260.64 
z
" style="fill:#e16462;fill-opacity:0.66;"/>
    <path clip-path="url(#p248f6e467d)" d="M 761.779165 260.64 
L 761.779165 206.28 
L 771.324512 206.28 
L 771.324512 260.64 
L 761.779165 260.64 
z
" style="fill:#e16462;fill-opacity:0.66;"/>
    <path clip-path="url(#p248f6e467d)" d="M 772.785508 260.64 
L 772.785508 206.28 
L 782.308966 206.28 
L 782.308966 260.64 
L 772.785508 260.64 
z
" style="fill:#e16462;fill-opacity:0.66;"/>
    <path clip-path="url(#p248f6e467d)" d="M 784.709046 260.64 
L 784.709046 206.28 
L 794.196005 206.28 
L 794.196005 260.64 
L 784.709046 260.64 
z
" style="fill:#e16462;fill-opacity:0.66;"/>
    <path clip-path="url(#p248f6e467d)" d="M 797.54978 260.64 
L 797.54978 206.28 
L 807.055156 206.28 
L 807.055156 260.64 
L 797.54978 260.64 
z
" style="fill:#e16462;fill-opacity:0.66;"/>
    <path clip-path="url(#p248f6e467d)" d="M 810.390513 260.64 
L 810.390513 206.28 
L 819.936587 206.28 
L 819.936587 260.64 
L 810.390513 260.64 
z
" style="fill:#e16462;fill-opacity:0.66;"/>
    <path clip-path="url(#p248f6e467d)" d="M 823.231246 260.64 
L 823.231246 206.28 
L 832.879542 206.28 
L 832.879542 260.64 
L 823.231246 260.64 
z
" style="fill:#e16462;fill-opacity:0.66;"/>
    <path clip-path="url(#p248f6e467d)" d="M 836.530577 260.64 
L 836.530577 206.28 
L 846.157432 206.28 
L 846.157432 260.64 
L 836.530577 260.64 
z
" style="fill:#e16462;fill-opacity:0.66;"/>
    <path clip-path="url(#p248f6e467d)" d="M 849.37131 260.64 
L 849.37131 206.28 
L 858.912178 206.28 
L 858.912178 260.64 
L 849.37131 260.64 
z
" style="fill:#e16462;fill-opacity:0.66;"/>
    <path clip-path="url(#p248f6e467d)" d="M 862.212044 260.64 
L 862.212044 206.28 
L 871.859276 206.28 
L 871.859276 260.64 
L 862.212044 260.64 
z
" style="fill:#e16462;fill-opacity:0.66;"/>
    <path clip-path="url(#p248f6e467d)" d="M 875.511375 260.64 
L 875.511375 206.28 
L 885.035728 206.28 
L 885.035728 260.64 
L 875.511375 260.64 
z
" style="fill:#e16462;fill-opacity:0.66;"/>
    <path clip-path="url(#p248f6e467d)" d="M 888.352108 260.64 
L 888.352108 206.28 
L 897.897678 206.28 
L 897.897678 260.64 
L 888.352108 260.64 
z
" style="fill:#e16462;fill-opacity:0.66;"/>
    <path clip-path="url(#p248f6e467d)" d="M 901.651439 260.64 
L 901.651439 206.28 
L 911.211956 206.28 
L 911.211956 260.64 
L 901.651439 260.64 
z
" style="fill:#e16462;fill-opacity:0.66;"/>
    <path clip-path="url(#p248f6e467d)" d="M 914.492172 260.64 
L 914.492172 206.28 
L 924.07497 206.28 
L 924.07497 260.64 
L 914.492172 260.64 
z
" style="fill:#e16462;fill-opacity:0.66;"/>
    <path clip-path="url(#p248f6e467d)" d="M 928.250101 260.64 
L 928.250101 206.28 
L 937.802389 206.28 
L 937.802389 260.64 
L 928.250101 260.64 
z
" style="fill:#e16462;fill-opacity:0.66;"/>
    <path clip-path="url(#p248f6e467d)" d="M 941.549431 260.64 
L 941.549431 206.28 
L 951.097577 206.28 
L 951.097577 260.64 
L 941.549431 260.64 
z
" style="fill:#e16462;fill-opacity:0.66;"/>
    <path clip-path="url(#p248f6e467d)" d="M 954.390165 260.64 
L 954.390165 206.28 
L 963.931593 206.28 
L 963.931593 260.64 
L 954.390165 260.64 
z
" style="fill:#e16462;fill-opacity:0.66;"/>
    <path clip-path="url(#p248f6e467d)" d="M 967.230898 260.64 
L 967.230898 206.28 
L 976.855122 206.28 
L 976.855122 260.64 
L 967.230898 260.64 
z
" style="fill:#e16462;fill-opacity:0.66;"/>
    <path clip-path="url(#p248f6e467d)" d="M 980.530229 260.64 
L 980.530229 206.28 
L 990.055646 206.28 
L 990.055646 260.64 
L 980.530229 260.64 
z
" style="fill:#e16462;fill-opacity:0.66;"/>
    <path clip-path="url(#p248f6e467d)" d="M 993.82956 260.64 
L 993.82956 206.28 
L 1003.378489 206.28 
L 1003.378489 260.64 
L 993.82956 260.64 
z
" style="fill:#e16462;fill-opacity:0.66;"/>
    <path clip-path="url(#p248f6e467d)" d="M 1006.670293 260.64 
L 1006.670293 206.28 
L 1016.160107 206.28 
L 1016.160107 260.64 
L 1006.670293 260.64 
z
" style="fill:#e16462;fill-opacity:0.66;"/>
   </g>
   <g id="matplotlib.axis_7">
    <g id="xtick_19">
     <g id="line2d_37">
      <path clip-path="url(#p248f6e467d)" d="M 162.392079 260.64 
L 162.392079 206.28 
" style="fill:none;stroke:#000000;stroke-dasharray:0.8,1.32;stroke-dashoffset:0;stroke-width:0.8;"/>
     </g>
     <g id="line2d_38">
      <g>
       <use style="stroke:#000000;stroke-width:0.8;" x="162.392079" xlink:href="#m32d128bd34" y="260.64"/>
      </g>
     </g>
    </g>
    <g id="xtick_20">
     <g id="line2d_39">
      <path clip-path="url(#p248f6e467d)" d="M 350.233663 260.64 
L 350.233663 206.28 
" style="fill:none;stroke:#000000;stroke-dasharray:0.8,1.32;stroke-dashoffset:0;stroke-width:0.8;"/>
     </g>
     <g id="line2d_40">
      <g>
       <use style="stroke:#000000;stroke-width:0.8;" x="350.233663" xlink:href="#m32d128bd34" y="260.64"/>
      </g>
     </g>
    </g>
    <g id="xtick_21">
     <g id="line2d_41">
      <path clip-path="url(#p248f6e467d)" d="M 538.075248 260.64 
L 538.075248 206.28 
" style="fill:none;stroke:#000000;stroke-dasharray:0.8,1.32;stroke-dashoffset:0;stroke-width:0.8;"/>
     </g>
     <g id="line2d_42">
      <g>
       <use style="stroke:#000000;stroke-width:0.8;" x="538.075248" xlink:href="#m32d128bd34" y="260.64"/>
      </g>
     </g>
    </g>
    <g id="xtick_22">
     <g id="line2d_43">
      <path clip-path="url(#p248f6e467d)" d="M 725.916832 260.64 
L 725.916832 206.28 
" style="fill:none;stroke:#000000;stroke-dasharray:0.8,1.32;stroke-dashoffset:0;stroke-width:0.8;"/>
     </g>
     <g id="line2d_44">
      <g>
       <use style="stroke:#000000;stroke-width:0.8;" x="725.916832" xlink:href="#m32d128bd34" y="260.64"/>
      </g>
     </g>
    </g>
    <g id="xtick_23">
     <g id="line2d_45">
      <path clip-path="url(#p248f6e467d)" d="M 913.758416 260.64 
L 913.758416 206.28 
" style="fill:none;stroke:#000000;stroke-dasharray:0.8,1.32;stroke-dashoffset:0;stroke-width:0.8;"/>
     </g>
     <g id="line2d_46">
      <g>
       <use style="stroke:#000000;stroke-width:0.8;" x="913.758416" xlink:href="#m32d128bd34" y="260.64"/>
      </g>
     </g>
    </g>
    <g id="xtick_24">
     <g id="line2d_47">
      <path clip-path="url(#p248f6e467d)" d="M 1101.6 260.64 
L 1101.6 206.28 
" style="fill:none;stroke:#000000;stroke-dasharray:0.8,1.32;stroke-dashoffset:0;stroke-width:0.8;"/>
     </g>
     <g id="line2d_48">
      <g>
       <use style="stroke:#000000;stroke-width:0.8;" x="1101.6" xlink:href="#m32d128bd34" y="260.64"/>
      </g>
     </g>
    </g>
    <g id="text_7">
     <!-- time (s) -->
     <g transform="translate(607.908594 272.238437)scale(0.1 -0.1)">
      <use xlink:href="#DejaVuSans-116"/>
      <use x="39.208984" xlink:href="#DejaVuSans-105"/>
      <use x="66.992188" xlink:href="#DejaVuSans-109"/>
      <use x="164.404297" xlink:href="#DejaVuSans-101"/>
      <use x="225.927734" xlink:href="#DejaVuSans-32"/>
      <use x="257.714844" xlink:href="#DejaVuSans-40"/>
      <use x="296.728516" xlink:href="#DejaVuSans-115"/>
      <use x="348.828125" xlink:href="#DejaVuSans-41"/>
     </g>
    </g>
   </g>
   <g id="matplotlib.axis_8">
    <g id="text_8">
     <!-- train -->
     <defs>
      <path d="M 41.109375 46.296875 
Q 39.59375 47.171875 37.8125 47.578125 
Q 36.03125 48 33.890625 48 
Q 26.265625 48 22.1875 43.046875 
Q 18.109375 38.09375 18.109375 28.8125 
L 18.109375 0 
L 9.078125 0 
L 9.078125 54.6875 
L 18.109375 54.6875 
L 18.109375 46.1875 
Q 20.953125 51.171875 25.484375 53.578125 
Q 30.03125 56 36.53125 56 
Q 37.453125 56 38.578125 55.875 
Q 39.703125 55.765625 41.0625 55.515625 
z
" id="DejaVuSans-114"/>
      <path d="M 54.890625 33.015625 
L 54.890625 0 
L 45.90625 0 
L 45.90625 32.71875 
Q 45.90625 40.484375 42.875 44.328125 
Q 39.84375 48.1875 33.796875 48.1875 
Q 26.515625 48.1875 22.3125 43.546875 
Q 18.109375 38.921875 18.109375 30.90625 
L 18.109375 0 
L 9.078125 0 
L 9.078125 54.6875 
L 18.109375 54.6875 
L 18.109375 46.1875 
Q 21.34375 51.125 25.703125 53.5625 
Q 30.078125 56 35.796875 56 
Q 45.21875 56 50.046875 50.171875 
Q 54.890625 44.34375 54.890625 33.015625 
z
" id="DejaVuSans-110"/>
     </defs>
     <g transform="translate(146.920312 245.0975)rotate(-90)scale(0.1 -0.1)">
      <use xlink:href="#DejaVuSans-116"/>
      <use x="39.208984" xlink:href="#DejaVuSans-114"/>
      <use x="80.322266" xlink:href="#DejaVuSans-97"/>
      <use x="141.601562" xlink:href="#DejaVuSans-105"/>
      <use x="169.384766" xlink:href="#DejaVuSans-110"/>
     </g>
    </g>
   </g>
   <g id="patch_18">
    <path d="M 153 260.64 
L 153 206.28 
" style="fill:none;stroke:#000000;stroke-linecap:square;stroke-linejoin:miter;stroke-width:0.8;"/>
   </g>
   <g id="patch_19">
    <path d="M 1101.6 260.64 
L 1101.6 206.28 
" style="fill:none;stroke:#000000;stroke-linecap:square;stroke-linejoin:miter;stroke-width:0.8;"/>
   </g>
   <g id="patch_20">
    <path d="M 153 260.64 
L 1101.6 260.64 
" style="fill:none;stroke:#000000;stroke-linecap:square;stroke-linejoin:miter;stroke-width:0.8;"/>
   </g>
   <g id="patch_21">
    <path d="M 153 206.28 
L 1101.6 206.28 
" style="fill:none;stroke:#000000;stroke-linecap:square;stroke-linejoin:miter;stroke-width:0.8;"/>
   </g>
  </g>
  <g id="axes_5">
   <g id="patch_22">
    <path d="M 153 315 
L 1101.6 315 
L 1101.6 260.64 
L 153 260.64 
z
" style="fill:#ffffff;"/>
   </g>
   <g id="BrokenBarHCollection_5">
    <defs>
     <path d="M 162.392079 -45 
L 162.392079 -99.36 
L 1021.166109 -99.36 
L 1021.166109 -45 
L 162.392079 -45 
z
" id="m3938cb5e21"/>
    </defs>
    <g clip-path="url(#pc3efc05792)">
     <use style="fill:#fca636;fill-opacity:0.66;" x="0" xlink:href="#m3938cb5e21" y="360"/>
    </g>
   </g>
   <g id="matplotlib.axis_9">
    <g id="xtick_25">
     <g id="line2d_49">
      <path clip-path="url(#pc3efc05792)" d="M 162.392079 315 
L 162.392079 260.64 
" style="fill:none;stroke:#000000;stroke-dasharray:0.8,1.32;stroke-dashoffset:0;stroke-width:0.8;"/>
     </g>
     <g id="line2d_50">
      <g>
       <use style="stroke:#000000;stroke-width:0.8;" x="162.392079" xlink:href="#m32d128bd34" y="315"/>
      </g>
     </g>
    </g>
    <g id="xtick_26">
     <g id="line2d_51">
      <path clip-path="url(#pc3efc05792)" d="M 350.233663 315 
L 350.233663 260.64 
" style="fill:none;stroke:#000000;stroke-dasharray:0.8,1.32;stroke-dashoffset:0;stroke-width:0.8;"/>
     </g>
     <g id="line2d_52">
      <g>
       <use style="stroke:#000000;stroke-width:0.8;" x="350.233663" xlink:href="#m32d128bd34" y="315"/>
      </g>
     </g>
    </g>
    <g id="xtick_27">
     <g id="line2d_53">
      <path clip-path="url(#pc3efc05792)" d="M 538.075248 315 
L 538.075248 260.64 
" style="fill:none;stroke:#000000;stroke-dasharray:0.8,1.32;stroke-dashoffset:0;stroke-width:0.8;"/>
     </g>
     <g id="line2d_54">
      <g>
       <use style="stroke:#000000;stroke-width:0.8;" x="538.075248" xlink:href="#m32d128bd34" y="315"/>
      </g>
     </g>
    </g>
    <g id="xtick_28">
     <g id="line2d_55">
      <path clip-path="url(#pc3efc05792)" d="M 725.916832 315 
L 725.916832 260.64 
" style="fill:none;stroke:#000000;stroke-dasharray:0.8,1.32;stroke-dashoffset:0;stroke-width:0.8;"/>
     </g>
     <g id="line2d_56">
      <g>
       <use style="stroke:#000000;stroke-width:0.8;" x="725.916832" xlink:href="#m32d128bd34" y="315"/>
      </g>
     </g>
    </g>
    <g id="xtick_29">
     <g id="line2d_57">
      <path clip-path="url(#pc3efc05792)" d="M 913.758416 315 
L 913.758416 260.64 
" style="fill:none;stroke:#000000;stroke-dasharray:0.8,1.32;stroke-dashoffset:0;stroke-width:0.8;"/>
     </g>
     <g id="line2d_58">
      <g>
       <use style="stroke:#000000;stroke-width:0.8;" x="913.758416" xlink:href="#m32d128bd34" y="315"/>
      </g>
     </g>
    </g>
    <g id="xtick_30">
     <g id="line2d_59">
      <path clip-path="url(#pc3efc05792)" d="M 1101.6 315 
L 1101.6 260.64 
" style="fill:none;stroke:#000000;stroke-dasharray:0.8,1.32;stroke-dashoffset:0;stroke-width:0.8;"/>
     </g>
     <g id="line2d_60">
      <g>
       <use style="stroke:#000000;stroke-width:0.8;" x="1101.6" xlink:href="#m32d128bd34" y="315"/>
      </g>
     </g>
    </g>
    <g id="text_9">
     <!-- time (s) -->
     <g transform="translate(607.908594 333.598437)scale(0.1 -0.1)">
      <use xlink:href="#DejaVuSans-116"/>
      <use x="39.208984" xlink:href="#DejaVuSans-105"/>
      <use x="66.992188" xlink:href="#DejaVuSans-109"/>
      <use x="164.404297" xlink:href="#DejaVuSans-101"/>
      <use x="225.927734" xlink:href="#DejaVuSans-32"/>
      <use x="257.714844" xlink:href="#DejaVuSans-40"/>
      <use x="296.728516" xlink:href="#DejaVuSans-115"/>
      <use x="348.828125" xlink:href="#DejaVuSans-41"/>
     </g>
    </g>
   </g>
   <g id="matplotlib.axis_10">
    <g id="text_10">
     <!-- epoch -->
     <g transform="translate(146.920312 303.048125)rotate(-90)scale(0.1 -0.1)">
      <use xlink:href="#DejaVuSans-101"/>
      <use x="61.523438" xlink:href="#DejaVuSans-112"/>
      <use x="125" xlink:href="#DejaVuSans-111"/>
      <use x="186.181641" xlink:href="#DejaVuSans-99"/>
      <use x="241.162109" xlink:href="#DejaVuSans-104"/>
     </g>
    </g>
   </g>
   <g id="patch_23">
    <path d="M 153 315 
L 153 260.64 
" style="fill:none;stroke:#000000;stroke-linecap:square;stroke-linejoin:miter;stroke-width:0.8;"/>
   </g>
   <g id="patch_24">
    <path d="M 1101.6 315 
L 1101.6 260.64 
" style="fill:none;stroke:#000000;stroke-linecap:square;stroke-linejoin:miter;stroke-width:0.8;"/>
   </g>
   <g id="patch_25">
    <path d="M 153 315 
L 1101.6 315 
" style="fill:none;stroke:#000000;stroke-linecap:square;stroke-linejoin:miter;stroke-width:0.8;"/>
   </g>
   <g id="patch_26">
    <path d="M 153 260.64 
L 1101.6 260.64 
" style="fill:none;stroke:#000000;stroke-linecap:square;stroke-linejoin:miter;stroke-width:0.8;"/>
   </g>
  </g>
  <g id="text_11">
   <!-- Scalar map -->
   <defs>
    <path d="M 53.515625 70.515625 
L 53.515625 60.890625 
Q 47.90625 63.578125 42.921875 64.890625 
Q 37.9375 66.21875 33.296875 66.21875 
Q 25.25 66.21875 20.875 63.09375 
Q 16.5 59.96875 16.5 54.203125 
Q 16.5 49.359375 19.40625 46.890625 
Q 22.3125 44.4375 30.421875 42.921875 
L 36.375 41.703125 
Q 47.40625 39.59375 52.65625 34.296875 
Q 57.90625 29 57.90625 20.125 
Q 57.90625 9.515625 50.796875 4.046875 
Q 43.703125 -1.421875 29.984375 -1.421875 
Q 24.8125 -1.421875 18.96875 -0.25 
Q 13.140625 0.921875 6.890625 3.21875 
L 6.890625 13.375 
Q 12.890625 10.015625 18.65625 8.296875 
Q 24.421875 6.59375 29.984375 6.59375 
Q 38.421875 6.59375 43.015625 9.90625 
Q 47.609375 13.234375 47.609375 19.390625 
Q 47.609375 24.75 44.3125 27.78125 
Q 41.015625 30.8125 33.5 32.328125 
L 27.484375 33.5 
Q 16.453125 35.6875 11.515625 40.375 
Q 6.59375 45.0625 6.59375 53.421875 
Q 6.59375 63.09375 13.40625 68.65625 
Q 20.21875 74.21875 32.171875 74.21875 
Q 37.3125 74.21875 42.625 73.28125 
Q 47.953125 72.359375 53.515625 70.515625 
z
" id="DejaVuSans-83"/>
   </defs>
   <g transform="translate(578.1675 16.318125)scale(0.12 -0.12)">
    <use xlink:href="#DejaVuSans-83"/>
    <use x="63.476562" xlink:href="#DejaVuSans-99"/>
    <use x="118.457031" xlink:href="#DejaVuSans-97"/>
    <use x="179.736328" xlink:href="#DejaVuSans-108"/>
    <use x="207.519531" xlink:href="#DejaVuSans-97"/>
    <use x="268.798828" xlink:href="#DejaVuSans-114"/>
    <use x="309.912109" xlink:href="#DejaVuSans-32"/>
    <use x="341.699219" xlink:href="#DejaVuSans-109"/>
    <use x="439.111328" xlink:href="#DejaVuSans-97"/>
    <use x="500.390625" xlink:href="#DejaVuSans-112"/>
   </g>
  </g>
 </g>
 <defs>
  <clipPath id="p9adf0be449">
   <rect height="54.36" width="948.6" x="153" y="43.2"/>
  </clipPath>
  <clipPath id="pda5111bbe6">
   <rect height="54.36" width="948.6" x="153" y="97.56"/>
  </clipPath>
  <clipPath id="p0b29a6a35e">
   <rect height="54.36" width="948.6" x="153" y="151.92"/>
  </clipPath>
  <clipPath id="p248f6e467d">
   <rect height="54.36" width="948.6" x="153" y="206.28"/>
  </clipPath>
  <clipPath id="pc3efc05792">
   <rect height="54.36" width="948.6" x="153" y="260.64"/>
  </clipPath>
 </defs>
</svg>
