<?xml version="1.0" encoding="utf-8" standalone="no"?>
<!DOCTYPE svg PUBLIC "-//W3C//DTD SVG 1.1//EN"
  "http://www.w3.org/Graphics/SVG/1.1/DTD/svg11.dtd">
<!-- Created with matplotlib (https://matplotlib.org/) -->
<svg height="360pt" version="1.1" viewBox="0 0 1224 360" width="1224pt" xmlns="http://www.w3.org/2000/svg" xmlns:xlink="http://www.w3.org/1999/xlink">
 <defs>
  <style type="text/css">
*{stroke-linecap:butt;stroke-linejoin:round;}
  </style>
 </defs>
 <g id="figure_1">
  <g id="patch_1">
   <path d="M 0 360 
L 1224 360 
L 1224 0 
L 0 0 
z
" style="fill:#ffffff;"/>
  </g>
  <g id="axes_1">
   <g id="patch_2">
    <path d="M 153 97.56 
L 1101.6 97.56 
L 1101.6 43.2 
L 153 43.2 
z
" style="fill:#ffffff;"/>
   </g>
   <g id="BrokenBarHCollection_1">
    <defs>
     <path d="M 172.022629 -262.44 
L 172.022629 -316.8 
L 200.455353 -316.8 
L 200.455353 -262.44 
L 172.022629 -262.44 
z
" id="mb4faea8e0a"/>
    </defs>
    <g clip-path="url(#pbca9793e5a)">
     <use style="fill:#0d0887;fill-opacity:0.66;" x="0" xlink:href="#mb4faea8e0a" y="360"/>
    </g>
   </g>
   <g id="matplotlib.axis_1">
    <g id="xtick_1">
     <g id="line2d_1">
      <path clip-path="url(#pbca9793e5a)" d="M 162.392079 97.56 
L 162.392079 43.2 
" style="fill:none;stroke:#000000;stroke-dasharray:0.8,1.32;stroke-dashoffset:0;stroke-width:0.8;"/>
     </g>
     <g id="line2d_2">
      <defs>
       <path d="M 0 0 
L 0 3.5 
" id="m300c8f1bcf" style="stroke:#000000;stroke-width:0.8;"/>
      </defs>
      <g>
       <use style="stroke:#000000;stroke-width:0.8;" x="162.392079" xlink:href="#m300c8f1bcf" y="97.56"/>
      </g>
     </g>
    </g>
    <g id="xtick_2">
     <g id="line2d_3">
      <path clip-path="url(#pbca9793e5a)" d="M 350.233663 97.56 
L 350.233663 43.2 
" style="fill:none;stroke:#000000;stroke-dasharray:0.8,1.32;stroke-dashoffset:0;stroke-width:0.8;"/>
     </g>
     <g id="line2d_4">
      <g>
       <use style="stroke:#000000;stroke-width:0.8;" x="350.233663" xlink:href="#m300c8f1bcf" y="97.56"/>
      </g>
     </g>
    </g>
    <g id="xtick_3">
     <g id="line2d_5">
      <path clip-path="url(#pbca9793e5a)" d="M 538.075248 97.56 
L 538.075248 43.2 
" style="fill:none;stroke:#000000;stroke-dasharray:0.8,1.32;stroke-dashoffset:0;stroke-width:0.8;"/>
     </g>
     <g id="line2d_6">
      <g>
       <use style="stroke:#000000;stroke-width:0.8;" x="538.075248" xlink:href="#m300c8f1bcf" y="97.56"/>
      </g>
     </g>
    </g>
    <g id="xtick_4">
     <g id="line2d_7">
      <path clip-path="url(#pbca9793e5a)" d="M 725.916832 97.56 
L 725.916832 43.2 
" style="fill:none;stroke:#000000;stroke-dasharray:0.8,1.32;stroke-dashoffset:0;stroke-width:0.8;"/>
     </g>
     <g id="line2d_8">
      <g>
       <use style="stroke:#000000;stroke-width:0.8;" x="725.916832" xlink:href="#m300c8f1bcf" y="97.56"/>
      </g>
     </g>
    </g>
    <g id="xtick_5">
     <g id="line2d_9">
      <path clip-path="url(#pbca9793e5a)" d="M 913.758416 97.56 
L 913.758416 43.2 
" style="fill:none;stroke:#000000;stroke-dasharray:0.8,1.32;stroke-dashoffset:0;stroke-width:0.8;"/>
     </g>
     <g id="line2d_10">
      <g>
       <use style="stroke:#000000;stroke-width:0.8;" x="913.758416" xlink:href="#m300c8f1bcf" y="97.56"/>
      </g>
     </g>
    </g>
    <g id="xtick_6">
     <g id="line2d_11">
      <path clip-path="url(#pbca9793e5a)" d="M 1101.6 97.56 
L 1101.6 43.2 
" style="fill:none;stroke:#000000;stroke-dasharray:0.8,1.32;stroke-dashoffset:0;stroke-width:0.8;"/>
     </g>
     <g id="line2d_12">
      <g>
       <use style="stroke:#000000;stroke-width:0.8;" x="1101.6" xlink:href="#m300c8f1bcf" y="97.56"/>
      </g>
     </g>
    </g>
    <g id="text_1">
     <!-- time (s) -->
     <defs>
      <path d="M 18.3125 70.21875 
L 18.3125 54.6875 
L 36.8125 54.6875 
L 36.8125 47.703125 
L 18.3125 47.703125 
L 18.3125 18.015625 
Q 18.3125 11.328125 20.140625 9.421875 
Q 21.96875 7.515625 27.59375 7.515625 
L 36.8125 7.515625 
L 36.8125 0 
L 27.59375 0 
Q 17.1875 0 13.234375 3.875 
Q 9.28125 7.765625 9.28125 18.015625 
L 9.28125 47.703125 
L 2.6875 47.703125 
L 2.6875 54.6875 
L 9.28125 54.6875 
L 9.28125 70.21875 
z
" id="DejaVuSans-116"/>
      <path d="M 9.421875 54.6875 
L 18.40625 54.6875 
L 18.40625 0 
L 9.421875 0 
z
M 9.421875 75.984375 
L 18.40625 75.984375 
L 18.40625 64.59375 
L 9.421875 64.59375 
z
" id="DejaVuSans-105"/>
      <path d="M 52 44.1875 
Q 55.375 50.25 60.0625 53.125 
Q 64.75 56 71.09375 56 
Q 79.640625 56 84.28125 50.015625 
Q 88.921875 44.046875 88.921875 33.015625 
L 88.921875 0 
L 79.890625 0 
L 79.890625 32.71875 
Q 79.890625 40.578125 77.09375 44.375 
Q 74.3125 48.1875 68.609375 48.1875 
Q 61.625 48.1875 57.5625 43.546875 
Q 53.515625 38.921875 53.515625 30.90625 
L 53.515625 0 
L 44.484375 0 
L 44.484375 32.71875 
Q 44.484375 40.625 41.703125 44.40625 
Q 38.921875 48.1875 33.109375 48.1875 
Q 26.21875 48.1875 22.15625 43.53125 
Q 18.109375 38.875 18.109375 30.90625 
L 18.109375 0 
L 9.078125 0 
L 9.078125 54.6875 
L 18.109375 54.6875 
L 18.109375 46.1875 
Q 21.1875 51.21875 25.484375 53.609375 
Q 29.78125 56 35.6875 56 
Q 41.65625 56 45.828125 52.96875 
Q 50 49.953125 52 44.1875 
z
" id="DejaVuSans-109"/>
      <path d="M 56.203125 29.59375 
L 56.203125 25.203125 
L 14.890625 25.203125 
Q 15.484375 15.921875 20.484375 11.0625 
Q 25.484375 6.203125 34.421875 6.203125 
Q 39.59375 6.203125 44.453125 7.46875 
Q 49.3125 8.734375 54.109375 11.28125 
L 54.109375 2.78125 
Q 49.265625 0.734375 44.1875 -0.34375 
Q 39.109375 -1.421875 33.890625 -1.421875 
Q 20.796875 -1.421875 13.15625 6.1875 
Q 5.515625 13.8125 5.515625 26.8125 
Q 5.515625 40.234375 12.765625 48.109375 
Q 20.015625 56 32.328125 56 
Q 43.359375 56 49.78125 48.890625 
Q 56.203125 41.796875 56.203125 29.59375 
z
M 47.21875 32.234375 
Q 47.125 39.59375 43.09375 43.984375 
Q 39.0625 48.390625 32.421875 48.390625 
Q 24.90625 48.390625 20.390625 44.140625 
Q 15.875 39.890625 15.1875 32.171875 
z
" id="DejaVuSans-101"/>
      <path id="DejaVuSans-32"/>
      <path d="M 31 75.875 
Q 24.46875 64.65625 21.28125 53.65625 
Q 18.109375 42.671875 18.109375 31.390625 
Q 18.109375 20.125 21.3125 9.0625 
Q 24.515625 -2 31 -13.1875 
L 23.1875 -13.1875 
Q 15.875 -1.703125 12.234375 9.375 
Q 8.59375 20.453125 8.59375 31.390625 
Q 8.59375 42.28125 12.203125 53.3125 
Q 15.828125 64.359375 23.1875 75.875 
z
" id="DejaVuSans-40"/>
      <path d="M 44.28125 53.078125 
L 44.28125 44.578125 
Q 40.484375 46.53125 36.375 47.5 
Q 32.28125 48.484375 27.875 48.484375 
Q 21.1875 48.484375 17.84375 46.4375 
Q 14.5 44.390625 14.5 40.28125 
Q 14.5 37.15625 16.890625 35.375 
Q 19.28125 33.59375 26.515625 31.984375 
L 29.59375 31.296875 
Q 39.15625 29.25 43.1875 25.515625 
Q 47.21875 21.78125 47.21875 15.09375 
Q 47.21875 7.46875 41.1875 3.015625 
Q 35.15625 -1.421875 24.609375 -1.421875 
Q 20.21875 -1.421875 15.453125 -0.5625 
Q 10.6875 0.296875 5.421875 2 
L 5.421875 11.28125 
Q 10.40625 8.6875 15.234375 7.390625 
Q 20.0625 6.109375 24.8125 6.109375 
Q 31.15625 6.109375 34.5625 8.28125 
Q 37.984375 10.453125 37.984375 14.40625 
Q 37.984375 18.0625 35.515625 20.015625 
Q 33.0625 21.96875 24.703125 23.78125 
L 21.578125 24.515625 
Q 13.234375 26.265625 9.515625 29.90625 
Q 5.8125 33.546875 5.8125 39.890625 
Q 5.8125 47.609375 11.28125 51.796875 
Q 16.75 56 26.8125 56 
Q 31.78125 56 36.171875 55.265625 
Q 40.578125 54.546875 44.28125 53.078125 
z
" id="DejaVuSans-115"/>
      <path d="M 8.015625 75.875 
L 15.828125 75.875 
Q 23.140625 64.359375 26.78125 53.3125 
Q 30.421875 42.28125 30.421875 31.390625 
Q 30.421875 20.453125 26.78125 9.375 
Q 23.140625 -1.703125 15.828125 -13.1875 
L 8.015625 -13.1875 
Q 14.5 -2 17.703125 9.0625 
Q 20.90625 20.125 20.90625 31.390625 
Q 20.90625 42.671875 17.703125 53.65625 
Q 14.5 64.65625 8.015625 75.875 
z
" id="DejaVuSans-41"/>
     </defs>
     <g transform="translate(607.908594 109.158437)scale(0.1 -0.1)">
      <use xlink:href="#DejaVuSans-116"/>
      <use x="39.208984" xlink:href="#DejaVuSans-105"/>
      <use x="66.992188" xlink:href="#DejaVuSans-109"/>
      <use x="164.404297" xlink:href="#DejaVuSans-101"/>
      <use x="225.927734" xlink:href="#DejaVuSans-32"/>
      <use x="257.714844" xlink:href="#DejaVuSans-40"/>
      <use x="296.728516" xlink:href="#DejaVuSans-115"/>
      <use x="348.828125" xlink:href="#DejaVuSans-41"/>
     </g>
    </g>
   </g>
   <g id="matplotlib.axis_2">
    <g id="text_2">
     <!-- load -->
     <defs>
      <path d="M 9.421875 75.984375 
L 18.40625 75.984375 
L 18.40625 0 
L 9.421875 0 
z
" id="DejaVuSans-108"/>
      <path d="M 30.609375 48.390625 
Q 23.390625 48.390625 19.1875 42.75 
Q 14.984375 37.109375 14.984375 27.296875 
Q 14.984375 17.484375 19.15625 11.84375 
Q 23.34375 6.203125 30.609375 6.203125 
Q 37.796875 6.203125 41.984375 11.859375 
Q 46.1875 17.53125 46.1875 27.296875 
Q 46.1875 37.015625 41.984375 42.703125 
Q 37.796875 48.390625 30.609375 48.390625 
z
M 30.609375 56 
Q 42.328125 56 49.015625 48.375 
Q 55.71875 40.765625 55.71875 27.296875 
Q 55.71875 13.875 49.015625 6.21875 
Q 42.328125 -1.421875 30.609375 -1.421875 
Q 18.84375 -1.421875 12.171875 6.21875 
Q 5.515625 13.875 5.515625 27.296875 
Q 5.515625 40.765625 12.171875 48.375 
Q 18.84375 56 30.609375 56 
z
" id="DejaVuSans-111"/>
      <path d="M 34.28125 27.484375 
Q 23.390625 27.484375 19.1875 25 
Q 14.984375 22.515625 14.984375 16.5 
Q 14.984375 11.71875 18.140625 8.90625 
Q 21.296875 6.109375 26.703125 6.109375 
Q 34.1875 6.109375 38.703125 11.40625 
Q 43.21875 16.703125 43.21875 25.484375 
L 43.21875 27.484375 
z
M 52.203125 31.203125 
L 52.203125 0 
L 43.21875 0 
L 43.21875 8.296875 
Q 40.140625 3.328125 35.546875 0.953125 
Q 30.953125 -1.421875 24.3125 -1.421875 
Q 15.921875 -1.421875 10.953125 3.296875 
Q 6 8.015625 6 15.921875 
Q 6 25.140625 12.171875 29.828125 
Q 18.359375 34.515625 30.609375 34.515625 
L 43.21875 34.515625 
L 43.21875 35.40625 
Q 43.21875 41.609375 39.140625 45 
Q 35.0625 48.390625 27.6875 48.390625 
Q 23 48.390625 18.546875 47.265625 
Q 14.109375 46.140625 10.015625 43.890625 
L 10.015625 52.203125 
Q 14.9375 54.109375 19.578125 55.046875 
Q 24.21875 56 28.609375 56 
Q 40.484375 56 46.34375 49.84375 
Q 52.203125 43.703125 52.203125 31.203125 
z
" id="DejaVuSans-97"/>
      <path d="M 45.40625 46.390625 
L 45.40625 75.984375 
L 54.390625 75.984375 
L 54.390625 0 
L 45.40625 0 
L 45.40625 8.203125 
Q 42.578125 3.328125 38.25 0.953125 
Q 33.9375 -1.421875 27.875 -1.421875 
Q 17.96875 -1.421875 11.734375 6.484375 
Q 5.515625 14.40625 5.515625 27.296875 
Q 5.515625 40.1875 11.734375 48.09375 
Q 17.96875 56 27.875 56 
Q 33.9375 56 38.25 53.625 
Q 42.578125 51.265625 45.40625 46.390625 
z
M 14.796875 27.296875 
Q 14.796875 17.390625 18.875 11.75 
Q 22.953125 6.109375 30.078125 6.109375 
Q 37.203125 6.109375 41.296875 11.75 
Q 45.40625 17.390625 45.40625 27.296875 
Q 45.40625 37.203125 41.296875 42.84375 
Q 37.203125 48.484375 30.078125 48.484375 
Q 22.953125 48.484375 18.875 42.84375 
Q 14.796875 37.203125 14.796875 27.296875 
z
" id="DejaVuSans-100"/>
     </defs>
     <g transform="translate(146.920312 81.066719)rotate(-90)scale(0.1 -0.1)">
      <use xlink:href="#DejaVuSans-108"/>
      <use x="27.783203" xlink:href="#DejaVuSans-111"/>
      <use x="88.964844" xlink:href="#DejaVuSans-97"/>
      <use x="150.244141" xlink:href="#DejaVuSans-100"/>
     </g>
    </g>
   </g>
   <g id="patch_3">
    <path d="M 153 97.56 
L 153 43.2 
" style="fill:none;stroke:#000000;stroke-linecap:square;stroke-linejoin:miter;stroke-width:0.8;"/>
   </g>
   <g id="patch_4">
    <path d="M 1101.6 97.56 
L 1101.6 43.2 
" style="fill:none;stroke:#000000;stroke-linecap:square;stroke-linejoin:miter;stroke-width:0.8;"/>
   </g>
   <g id="patch_5">
    <path d="M 153 97.56 
L 1101.6 97.56 
" style="fill:none;stroke:#000000;stroke-linecap:square;stroke-linejoin:miter;stroke-width:0.8;"/>
   </g>
   <g id="patch_6">
    <path d="M 153 43.2 
L 1101.6 43.2 
" style="fill:none;stroke:#000000;stroke-linecap:square;stroke-linejoin:miter;stroke-width:0.8;"/>
   </g>
  </g>
  <g id="axes_2">
   <g id="patch_7">
    <path d="M 153 151.92 
L 1101.6 151.92 
L 1101.6 97.56 
L 153 97.56 
z
" style="fill:#ffffff;"/>
   </g>
   <g id="BrokenBarHCollection_2">
    <path clip-path="url(#pdfcad41685)" d="M 200.455681 151.92 
L 200.455681 97.56 
L 214.797833 97.56 
L 214.797833 151.92 
L 200.455681 151.92 
z
" style="fill:#6a00a8;fill-opacity:0.66;"/>
    <path clip-path="url(#pdfcad41685)" d="M 215.130805 151.92 
L 215.130805 97.56 
L 229.449896 97.56 
L 229.449896 151.92 
L 215.130805 151.92 
z
" style="fill:#6a00a8;fill-opacity:0.66;"/>
    <path clip-path="url(#pdfcad41685)" d="M 230.264527 151.92 
L 230.264527 97.56 
L 244.60729 97.56 
L 244.60729 151.92 
L 230.264527 151.92 
z
" style="fill:#6a00a8;fill-opacity:0.66;"/>
    <path clip-path="url(#pdfcad41685)" d="M 245.398248 151.92 
L 245.398248 97.56 
L 259.742481 97.56 
L 259.742481 151.92 
L 245.398248 151.92 
z
" style="fill:#6a00a8;fill-opacity:0.66;"/>
    <path clip-path="url(#pdfcad41685)" d="M 260.990567 151.92 
L 260.990567 97.56 
L 275.233712 97.56 
L 275.233712 151.92 
L 260.990567 151.92 
z
" style="fill:#6a00a8;fill-opacity:0.66;"/>
    <path clip-path="url(#pdfcad41685)" d="M 276.124288 151.92 
L 276.124288 97.56 
L 290.332347 97.56 
L 290.332347 151.92 
L 276.124288 151.92 
z
" style="fill:#6a00a8;fill-opacity:0.66;"/>
    <path clip-path="url(#pdfcad41685)" d="M 290.799412 151.92 
L 290.799412 97.56 
L 305.134954 97.56 
L 305.134954 151.92 
L 290.799412 151.92 
z
" style="fill:#6a00a8;fill-opacity:0.66;"/>
    <path clip-path="url(#pdfcad41685)" d="M 306.391731 151.92 
L 306.391731 97.56 
L 320.602841 97.56 
L 320.602841 151.92 
L 306.391731 151.92 
z
" style="fill:#6a00a8;fill-opacity:0.66;"/>
    <path clip-path="url(#pdfcad41685)" d="M 321.525453 151.92 
L 321.525453 97.56 
L 335.856362 97.56 
L 335.856362 151.92 
L 321.525453 151.92 
z
" style="fill:#6a00a8;fill-opacity:0.66;"/>
    <path clip-path="url(#pdfcad41685)" d="M 336.659174 151.92 
L 336.659174 97.56 
L 351.010223 97.56 
L 351.010223 151.92 
L 336.659174 151.92 
z
" style="fill:#6a00a8;fill-opacity:0.66;"/>
    <path clip-path="url(#pdfcad41685)" d="M 351.792895 151.92 
L 351.792895 97.56 
L 366.035831 97.56 
L 366.035831 151.92 
L 351.792895 151.92 
z
" style="fill:#6a00a8;fill-opacity:0.66;"/>
    <path clip-path="url(#pdfcad41685)" d="M 366.926617 151.92 
L 366.926617 97.56 
L 381.155879 97.56 
L 381.155879 151.92 
L 366.926617 151.92 
z
" style="fill:#6a00a8;fill-opacity:0.66;"/>
    <path clip-path="url(#pdfcad41685)" d="M 382.060338 151.92 
L 382.060338 97.56 
L 396.397476 97.56 
L 396.397476 151.92 
L 382.060338 151.92 
z
" style="fill:#6a00a8;fill-opacity:0.66;"/>
    <path clip-path="url(#pdfcad41685)" d="M 397.652657 151.92 
L 397.652657 97.56 
L 412.001579 97.56 
L 412.001579 151.92 
L 397.652657 151.92 
z
" style="fill:#6a00a8;fill-opacity:0.66;"/>
    <path clip-path="url(#pdfcad41685)" d="M 412.786378 151.92 
L 412.786378 97.56 
L 427.033498 97.56 
L 427.033498 151.92 
L 412.786378 151.92 
z
" style="fill:#6a00a8;fill-opacity:0.66;"/>
    <path clip-path="url(#pdfcad41685)" d="M 427.9201 151.92 
L 427.9201 97.56 
L 442.253571 97.56 
L 442.253571 151.92 
L 427.9201 151.92 
z
" style="fill:#6a00a8;fill-opacity:0.66;"/>
    <path clip-path="url(#pdfcad41685)" d="M 443.512419 151.92 
L 443.512419 97.56 
L 457.862768 97.56 
L 457.862768 151.92 
L 443.512419 151.92 
z
" style="fill:#6a00a8;fill-opacity:0.66;"/>
    <path clip-path="url(#pdfcad41685)" d="M 458.64614 151.92 
L 458.64614 97.56 
L 472.989939 97.56 
L 472.989939 151.92 
L 458.64614 151.92 
z
" style="fill:#6a00a8;fill-opacity:0.66;"/>
    <path clip-path="url(#pdfcad41685)" d="M 473.779862 151.92 
L 473.779862 97.56 
L 488.034847 97.56 
L 488.034847 151.92 
L 473.779862 151.92 
z
" style="fill:#6a00a8;fill-opacity:0.66;"/>
    <path clip-path="url(#pdfcad41685)" d="M 488.913583 151.92 
L 488.913583 97.56 
L 503.118549 97.56 
L 503.118549 151.92 
L 488.913583 151.92 
z
" style="fill:#6a00a8;fill-opacity:0.66;"/>
    <path clip-path="url(#pdfcad41685)" d="M 504.047304 151.92 
L 504.047304 97.56 
L 518.292017 97.56 
L 518.292017 151.92 
L 504.047304 151.92 
z
" style="fill:#6a00a8;fill-opacity:0.66;"/>
    <path clip-path="url(#pdfcad41685)" d="M 519.181026 151.92 
L 519.181026 97.56 
L 533.531823 97.56 
L 533.531823 151.92 
L 519.181026 151.92 
z
" style="fill:#6a00a8;fill-opacity:0.66;"/>
    <path clip-path="url(#pdfcad41685)" d="M 534.773345 151.92 
L 534.773345 97.56 
L 549.086522 97.56 
L 549.086522 151.92 
L 534.773345 151.92 
z
" style="fill:#6a00a8;fill-opacity:0.66;"/>
    <path clip-path="url(#pdfcad41685)" d="M 549.907066 151.92 
L 549.907066 97.56 
L 564.247283 97.56 
L 564.247283 151.92 
L 549.907066 151.92 
z
" style="fill:#6a00a8;fill-opacity:0.66;"/>
    <path clip-path="url(#pdfcad41685)" d="M 565.040787 151.92 
L 565.040787 97.56 
L 579.389625 97.56 
L 579.389625 151.92 
L 565.040787 151.92 
z
" style="fill:#6a00a8;fill-opacity:0.66;"/>
   </g>
   <g id="matplotlib.axis_3">
    <g id="xtick_7">
     <g id="line2d_13">
      <path clip-path="url(#pdfcad41685)" d="M 162.392079 151.92 
L 162.392079 97.56 
" style="fill:none;stroke:#000000;stroke-dasharray:0.8,1.32;stroke-dashoffset:0;stroke-width:0.8;"/>
     </g>
     <g id="line2d_14">
      <g>
       <use style="stroke:#000000;stroke-width:0.8;" x="162.392079" xlink:href="#m300c8f1bcf" y="151.92"/>
      </g>
     </g>
    </g>
    <g id="xtick_8">
     <g id="line2d_15">
      <path clip-path="url(#pdfcad41685)" d="M 350.233663 151.92 
L 350.233663 97.56 
" style="fill:none;stroke:#000000;stroke-dasharray:0.8,1.32;stroke-dashoffset:0;stroke-width:0.8;"/>
     </g>
     <g id="line2d_16">
      <g>
       <use style="stroke:#000000;stroke-width:0.8;" x="350.233663" xlink:href="#m300c8f1bcf" y="151.92"/>
      </g>
     </g>
    </g>
    <g id="xtick_9">
     <g id="line2d_17">
      <path clip-path="url(#pdfcad41685)" d="M 538.075248 151.92 
L 538.075248 97.56 
" style="fill:none;stroke:#000000;stroke-dasharray:0.8,1.32;stroke-dashoffset:0;stroke-width:0.8;"/>
     </g>
     <g id="line2d_18">
      <g>
       <use style="stroke:#000000;stroke-width:0.8;" x="538.075248" xlink:href="#m300c8f1bcf" y="151.92"/>
      </g>
     </g>
    </g>
    <g id="xtick_10">
     <g id="line2d_19">
      <path clip-path="url(#pdfcad41685)" d="M 725.916832 151.92 
L 725.916832 97.56 
" style="fill:none;stroke:#000000;stroke-dasharray:0.8,1.32;stroke-dashoffset:0;stroke-width:0.8;"/>
     </g>
     <g id="line2d_20">
      <g>
       <use style="stroke:#000000;stroke-width:0.8;" x="725.916832" xlink:href="#m300c8f1bcf" y="151.92"/>
      </g>
     </g>
    </g>
    <g id="xtick_11">
     <g id="line2d_21">
      <path clip-path="url(#pdfcad41685)" d="M 913.758416 151.92 
L 913.758416 97.56 
" style="fill:none;stroke:#000000;stroke-dasharray:0.8,1.32;stroke-dashoffset:0;stroke-width:0.8;"/>
     </g>
     <g id="line2d_22">
      <g>
       <use style="stroke:#000000;stroke-width:0.8;" x="913.758416" xlink:href="#m300c8f1bcf" y="151.92"/>
      </g>
     </g>
    </g>
    <g id="xtick_12">
     <g id="line2d_23">
      <path clip-path="url(#pdfcad41685)" d="M 1101.6 151.92 
L 1101.6 97.56 
" style="fill:none;stroke:#000000;stroke-dasharray:0.8,1.32;stroke-dashoffset:0;stroke-width:0.8;"/>
     </g>
     <g id="line2d_24">
      <g>
       <use style="stroke:#000000;stroke-width:0.8;" x="1101.6" xlink:href="#m300c8f1bcf" y="151.92"/>
      </g>
     </g>
    </g>
    <g id="text_3">
     <!-- time (s) -->
     <g transform="translate(607.908594 163.518437)scale(0.1 -0.1)">
      <use xlink:href="#DejaVuSans-116"/>
      <use x="39.208984" xlink:href="#DejaVuSans-105"/>
      <use x="66.992188" xlink:href="#DejaVuSans-109"/>
      <use x="164.404297" xlink:href="#DejaVuSans-101"/>
      <use x="225.927734" xlink:href="#DejaVuSans-32"/>
      <use x="257.714844" xlink:href="#DejaVuSans-40"/>
      <use x="296.728516" xlink:href="#DejaVuSans-115"/>
      <use x="348.828125" xlink:href="#DejaVuSans-41"/>
     </g>
    </g>
   </g>
   <g id="matplotlib.axis_4">
    <g id="text_4">
     <!-- fetch -->
     <defs>
      <path d="M 37.109375 75.984375 
L 37.109375 68.5 
L 28.515625 68.5 
Q 23.6875 68.5 21.796875 66.546875 
Q 19.921875 64.59375 19.921875 59.515625 
L 19.921875 54.6875 
L 34.71875 54.6875 
L 34.71875 47.703125 
L 19.921875 47.703125 
L 19.921875 0 
L 10.890625 0 
L 10.890625 47.703125 
L 2.296875 47.703125 
L 2.296875 54.6875 
L 10.890625 54.6875 
L 10.890625 58.5 
Q 10.890625 67.625 15.140625 71.796875 
Q 19.390625 75.984375 28.609375 75.984375 
z
" id="DejaVuSans-102"/>
      <path d="M 48.78125 52.59375 
L 48.78125 44.1875 
Q 44.96875 46.296875 41.140625 47.34375 
Q 37.3125 48.390625 33.40625 48.390625 
Q 24.65625 48.390625 19.8125 42.84375 
Q 14.984375 37.3125 14.984375 27.296875 
Q 14.984375 17.28125 19.8125 11.734375 
Q 24.65625 6.203125 33.40625 6.203125 
Q 37.3125 6.203125 41.140625 7.25 
Q 44.96875 8.296875 48.78125 10.40625 
L 48.78125 2.09375 
Q 45.015625 0.34375 40.984375 -0.53125 
Q 36.96875 -1.421875 32.421875 -1.421875 
Q 20.0625 -1.421875 12.78125 6.34375 
Q 5.515625 14.109375 5.515625 27.296875 
Q 5.515625 40.671875 12.859375 48.328125 
Q 20.21875 56 33.015625 56 
Q 37.15625 56 41.109375 55.140625 
Q 45.0625 54.296875 48.78125 52.59375 
z
" id="DejaVuSans-99"/>
      <path d="M 54.890625 33.015625 
L 54.890625 0 
L 45.90625 0 
L 45.90625 32.71875 
Q 45.90625 40.484375 42.875 44.328125 
Q 39.84375 48.1875 33.796875 48.1875 
Q 26.515625 48.1875 22.3125 43.546875 
Q 18.109375 38.921875 18.109375 30.90625 
L 18.109375 0 
L 9.078125 0 
L 9.078125 75.984375 
L 18.109375 75.984375 
L 18.109375 46.1875 
Q 21.34375 51.125 25.703125 53.5625 
Q 30.078125 56 35.796875 56 
Q 45.21875 56 50.046875 50.171875 
Q 54.890625 44.34375 54.890625 33.015625 
z
" id="DejaVuSans-104"/>
     </defs>
     <g transform="translate(146.920312 137.454844)rotate(-90)scale(0.1 -0.1)">
      <use xlink:href="#DejaVuSans-102"/>
      <use x="35.205078" xlink:href="#DejaVuSans-101"/>
      <use x="96.728516" xlink:href="#DejaVuSans-116"/>
      <use x="135.9375" xlink:href="#DejaVuSans-99"/>
      <use x="190.917969" xlink:href="#DejaVuSans-104"/>
     </g>
    </g>
   </g>
   <g id="patch_8">
    <path d="M 153 151.92 
L 153 97.56 
" style="fill:none;stroke:#000000;stroke-linecap:square;stroke-linejoin:miter;stroke-width:0.8;"/>
   </g>
   <g id="patch_9">
    <path d="M 1101.6 151.92 
L 1101.6 97.56 
" style="fill:none;stroke:#000000;stroke-linecap:square;stroke-linejoin:miter;stroke-width:0.8;"/>
   </g>
   <g id="patch_10">
    <path d="M 153 151.92 
L 1101.6 151.92 
" style="fill:none;stroke:#000000;stroke-linecap:square;stroke-linejoin:miter;stroke-width:0.8;"/>
   </g>
   <g id="patch_11">
    <path d="M 153 97.56 
L 1101.6 97.56 
" style="fill:none;stroke:#000000;stroke-linecap:square;stroke-linejoin:miter;stroke-width:0.8;"/>
   </g>
  </g>
  <g id="axes_3">
   <g id="patch_12">
    <path d="M 153 206.28 
L 1101.6 206.28 
L 1101.6 151.92 
L 153 151.92 
z
" style="fill:#ffffff;"/>
   </g>
   <g id="BrokenBarHCollection_3">
    <defs>
     <path d="M 581.091704 -153.72 
L 581.091704 -208.08 
L 582.517936 -208.08 
L 582.517936 -153.72 
L 581.091704 -153.72 
z
" id="m8c3d3cfdcd"/>
    </defs>
    <g clip-path="url(#pd9f9e6919c)">
     <use style="fill:#b12a90;fill-opacity:0.66;" x="0" xlink:href="#m8c3d3cfdcd" y="360"/>
    </g>
   </g>
   <g id="matplotlib.axis_5">
    <g id="xtick_13">
     <g id="line2d_25">
      <path clip-path="url(#pd9f9e6919c)" d="M 162.392079 206.28 
L 162.392079 151.92 
" style="fill:none;stroke:#000000;stroke-dasharray:0.8,1.32;stroke-dashoffset:0;stroke-width:0.8;"/>
     </g>
     <g id="line2d_26">
      <g>
       <use style="stroke:#000000;stroke-width:0.8;" x="162.392079" xlink:href="#m300c8f1bcf" y="206.28"/>
      </g>
     </g>
    </g>
    <g id="xtick_14">
     <g id="line2d_27">
      <path clip-path="url(#pd9f9e6919c)" d="M 350.233663 206.28 
L 350.233663 151.92 
" style="fill:none;stroke:#000000;stroke-dasharray:0.8,1.32;stroke-dashoffset:0;stroke-width:0.8;"/>
     </g>
     <g id="line2d_28">
      <g>
       <use style="stroke:#000000;stroke-width:0.8;" x="350.233663" xlink:href="#m300c8f1bcf" y="206.28"/>
      </g>
     </g>
    </g>
    <g id="xtick_15">
     <g id="line2d_29">
      <path clip-path="url(#pd9f9e6919c)" d="M 538.075248 206.28 
L 538.075248 151.92 
" style="fill:none;stroke:#000000;stroke-dasharray:0.8,1.32;stroke-dashoffset:0;stroke-width:0.8;"/>
     </g>
     <g id="line2d_30">
      <g>
       <use style="stroke:#000000;stroke-width:0.8;" x="538.075248" xlink:href="#m300c8f1bcf" y="206.28"/>
      </g>
     </g>
    </g>
    <g id="xtick_16">
     <g id="line2d_31">
      <path clip-path="url(#pd9f9e6919c)" d="M 725.916832 206.28 
L 725.916832 151.92 
" style="fill:none;stroke:#000000;stroke-dasharray:0.8,1.32;stroke-dashoffset:0;stroke-width:0.8;"/>
     </g>
     <g id="line2d_32">
      <g>
       <use style="stroke:#000000;stroke-width:0.8;" x="725.916832" xlink:href="#m300c8f1bcf" y="206.28"/>
      </g>
     </g>
    </g>
    <g id="xtick_17">
     <g id="line2d_33">
      <path clip-path="url(#pd9f9e6919c)" d="M 913.758416 206.28 
L 913.758416 151.92 
" style="fill:none;stroke:#000000;stroke-dasharray:0.8,1.32;stroke-dashoffset:0;stroke-width:0.8;"/>
     </g>
     <g id="line2d_34">
      <g>
       <use style="stroke:#000000;stroke-width:0.8;" x="913.758416" xlink:href="#m300c8f1bcf" y="206.28"/>
      </g>
     </g>
    </g>
    <g id="xtick_18">
     <g id="line2d_35">
      <path clip-path="url(#pd9f9e6919c)" d="M 1101.6 206.28 
L 1101.6 151.92 
" style="fill:none;stroke:#000000;stroke-dasharray:0.8,1.32;stroke-dashoffset:0;stroke-width:0.8;"/>
     </g>
     <g id="line2d_36">
      <g>
       <use style="stroke:#000000;stroke-width:0.8;" x="1101.6" xlink:href="#m300c8f1bcf" y="206.28"/>
      </g>
     </g>
    </g>
    <g id="text_5">
     <!-- time (s) -->
     <g transform="translate(607.908594 217.878437)scale(0.1 -0.1)">
      <use xlink:href="#DejaVuSans-116"/>
      <use x="39.208984" xlink:href="#DejaVuSans-105"/>
      <use x="66.992188" xlink:href="#DejaVuSans-109"/>
      <use x="164.404297" xlink:href="#DejaVuSans-101"/>
      <use x="225.927734" xlink:href="#DejaVuSans-32"/>
      <use x="257.714844" xlink:href="#DejaVuSans-40"/>
      <use x="296.728516" xlink:href="#DejaVuSans-115"/>
      <use x="348.828125" xlink:href="#DejaVuSans-41"/>
     </g>
    </g>
   </g>
   <g id="matplotlib.axis_6">
    <g id="text_6">
     <!-- map -->
     <defs>
      <path d="M 18.109375 8.203125 
L 18.109375 -20.796875 
L 9.078125 -20.796875 
L 9.078125 54.6875 
L 18.109375 54.6875 
L 18.109375 46.390625 
Q 20.953125 51.265625 25.265625 53.625 
Q 29.59375 56 35.59375 56 
Q 45.5625 56 51.78125 48.09375 
Q 58.015625 40.1875 58.015625 27.296875 
Q 58.015625 14.40625 51.78125 6.484375 
Q 45.5625 -1.421875 35.59375 -1.421875 
Q 29.59375 -1.421875 25.265625 0.953125 
Q 20.953125 3.328125 18.109375 8.203125 
z
M 48.6875 27.296875 
Q 48.6875 37.203125 44.609375 42.84375 
Q 40.53125 48.484375 33.40625 48.484375 
Q 26.265625 48.484375 22.1875 42.84375 
Q 18.109375 37.203125 18.109375 27.296875 
Q 18.109375 17.390625 22.1875 11.75 
Q 26.265625 6.109375 33.40625 6.109375 
Q 40.53125 6.109375 44.609375 11.75 
Q 48.6875 17.390625 48.6875 27.296875 
z
" id="DejaVuSans-112"/>
     </defs>
     <g transform="translate(146.920312 190.208594)rotate(-90)scale(0.1 -0.1)">
      <use xlink:href="#DejaVuSans-109"/>
      <use x="97.412109" xlink:href="#DejaVuSans-97"/>
      <use x="158.691406" xlink:href="#DejaVuSans-112"/>
     </g>
    </g>
   </g>
   <g id="patch_13">
    <path d="M 153 206.28 
L 153 151.92 
" style="fill:none;stroke:#000000;stroke-linecap:square;stroke-linejoin:miter;stroke-width:0.8;"/>
   </g>
   <g id="patch_14">
    <path d="M 1101.6 206.28 
L 1101.6 151.92 
" style="fill:none;stroke:#000000;stroke-linecap:square;stroke-linejoin:miter;stroke-width:0.8;"/>
   </g>
   <g id="patch_15">
    <path d="M 153 206.28 
L 1101.6 206.28 
" style="fill:none;stroke:#000000;stroke-linecap:square;stroke-linejoin:miter;stroke-width:0.8;"/>
   </g>
   <g id="patch_16">
    <path d="M 153 151.92 
L 1101.6 151.92 
" style="fill:none;stroke:#000000;stroke-linecap:square;stroke-linejoin:miter;stroke-width:0.8;"/>
   </g>
  </g>
  <g id="axes_4">
   <g id="patch_17">
    <path d="M 153 260.64 
L 1101.6 260.64 
L 1101.6 206.28 
L 153 206.28 
z
" style="fill:#ffffff;"/>
   </g>
   <g id="BrokenBarHCollection_4">
    <path clip-path="url(#p3985ab395d)" d="M 587.970668 260.64 
L 587.970668 206.28 
L 597.517247 206.28 
L 597.517247 260.64 
L 587.970668 260.64 
z
" style="fill:#e16462;fill-opacity:0.66;"/>
    <path clip-path="url(#p3985ab395d)" d="M 600.811402 260.64 
L 600.811402 206.28 
L 610.358848 206.28 
L 610.358848 260.64 
L 600.811402 260.64 
z
" style="fill:#e16462;fill-opacity:0.66;"/>
    <path clip-path="url(#p3985ab395d)" d="M 614.110733 260.64 
L 614.110733 206.28 
L 623.757265 206.28 
L 623.757265 260.64 
L 614.110733 260.64 
z
" style="fill:#e16462;fill-opacity:0.66;"/>
    <path clip-path="url(#p3985ab395d)" d="M 626.492868 260.64 
L 626.492868 206.28 
L 636.119611 206.28 
L 636.119611 260.64 
L 626.492868 260.64 
z
" style="fill:#e16462;fill-opacity:0.66;"/>
    <path clip-path="url(#p3985ab395d)" d="M 639.792199 260.64 
L 639.792199 206.28 
L 649.334859 206.28 
L 649.334859 260.64 
L 639.792199 260.64 
z
" style="fill:#e16462;fill-opacity:0.66;"/>
    <path clip-path="url(#p3985ab395d)" d="M 652.632932 260.64 
L 652.632932 206.28 
L 662.286547 206.28 
L 662.286547 260.64 
L 652.632932 260.64 
z
" style="fill:#e16462;fill-opacity:0.66;"/>
    <path clip-path="url(#p3985ab395d)" d="M 665.932263 260.64 
L 665.932263 206.28 
L 675.476378 206.28 
L 675.476378 260.64 
L 665.932263 260.64 
z
" style="fill:#e16462;fill-opacity:0.66;"/>
    <path clip-path="url(#p3985ab395d)" d="M 678.772997 260.64 
L 678.772997 206.28 
L 688.326964 206.28 
L 688.326964 260.64 
L 678.772997 260.64 
z
" style="fill:#e16462;fill-opacity:0.66;"/>
    <path clip-path="url(#p3985ab395d)" d="M 692.072328 260.64 
L 692.072328 206.28 
L 701.71245 206.28 
L 701.71245 260.64 
L 692.072328 260.64 
z
" style="fill:#e16462;fill-opacity:0.66;"/>
    <path clip-path="url(#p3985ab395d)" d="M 704.913061 260.64 
L 704.913061 206.28 
L 714.547753 206.28 
L 714.547753 260.64 
L 704.913061 260.64 
z
" style="fill:#e16462;fill-opacity:0.66;"/>
    <path clip-path="url(#p3985ab395d)" d="M 718.212392 260.64 
L 718.212392 206.28 
L 727.761601 206.28 
L 727.761601 260.64 
L 718.212392 260.64 
z
" style="fill:#e16462;fill-opacity:0.66;"/>
    <path clip-path="url(#p3985ab395d)" d="M 731.053125 260.64 
L 731.053125 206.28 
L 740.598864 206.28 
L 740.598864 260.64 
L 731.053125 260.64 
z
" style="fill:#e16462;fill-opacity:0.66;"/>
    <path clip-path="url(#p3985ab395d)" d="M 744.352456 260.64 
L 744.352456 206.28 
L 753.892596 206.28 
L 753.892596 260.64 
L 744.352456 260.64 
z
" style="fill:#e16462;fill-opacity:0.66;"/>
    <path clip-path="url(#p3985ab395d)" d="M 757.651787 260.64 
L 757.651787 206.28 
L 767.188121 206.28 
L 767.188121 260.64 
L 757.651787 260.64 
z
" style="fill:#e16462;fill-opacity:0.66;"/>
    <path clip-path="url(#p3985ab395d)" d="M 770.49252 260.64 
L 770.49252 206.28 
L 780.038371 206.28 
L 780.038371 260.64 
L 770.49252 260.64 
z
" style="fill:#e16462;fill-opacity:0.66;"/>
    <path clip-path="url(#p3985ab395d)" d="M 783.333253 260.64 
L 783.333253 206.28 
L 792.96929 206.28 
L 792.96929 260.64 
L 783.333253 260.64 
z
" style="fill:#e16462;fill-opacity:0.66;"/>
    <path clip-path="url(#p3985ab395d)" d="M 796.173987 260.64 
L 796.173987 206.28 
L 805.816573 206.28 
L 805.816573 260.64 
L 796.173987 260.64 
z
" style="fill:#e16462;fill-opacity:0.66;"/>
    <path clip-path="url(#p3985ab395d)" d="M 809.473318 260.64 
L 809.473318 206.28 
L 819.034003 206.28 
L 819.034003 260.64 
L 809.473318 260.64 
z
" style="fill:#e16462;fill-opacity:0.66;"/>
    <path clip-path="url(#p3985ab395d)" d="M 822.314051 260.64 
L 822.314051 206.28 
L 831.819931 206.28 
L 831.819931 260.64 
L 822.314051 260.64 
z
" style="fill:#e16462;fill-opacity:0.66;"/>
    <path clip-path="url(#p3985ab395d)" d="M 834.696187 260.64 
L 834.696187 206.28 
L 844.189359 206.28 
L 844.189359 260.64 
L 834.696187 260.64 
z
" style="fill:#e16462;fill-opacity:0.66;"/>
    <path clip-path="url(#p3985ab395d)" d="M 847.995517 260.64 
L 847.995517 206.28 
L 857.540752 206.28 
L 857.540752 260.64 
L 847.995517 260.64 
z
" style="fill:#e16462;fill-opacity:0.66;"/>
    <path clip-path="url(#p3985ab395d)" d="M 861.294848 260.64 
L 861.294848 206.28 
L 870.82676 206.28 
L 870.82676 260.64 
L 861.294848 260.64 
z
" style="fill:#e16462;fill-opacity:0.66;"/>
    <path clip-path="url(#p3985ab395d)" d="M 873.676984 260.64 
L 873.676984 206.28 
L 883.220539 206.28 
L 883.220539 260.64 
L 873.676984 260.64 
z
" style="fill:#e16462;fill-opacity:0.66;"/>
    <path clip-path="url(#p3985ab395d)" d="M 886.976315 260.64 
L 886.976315 206.28 
L 896.619741 206.28 
L 896.619741 260.64 
L 886.976315 260.64 
z
" style="fill:#e16462;fill-opacity:0.66;"/>
    <path clip-path="url(#p3985ab395d)" d="M 900.275646 260.64 
L 900.275646 206.28 
L 909.919631 206.28 
L 909.919631 260.64 
L 900.275646 260.64 
z
" style="fill:#e16462;fill-opacity:0.66;"/>
   </g>
   <g id="matplotlib.axis_7">
    <g id="xtick_19">
     <g id="line2d_37">
      <path clip-path="url(#p3985ab395d)" d="M 162.392079 260.64 
L 162.392079 206.28 
" style="fill:none;stroke:#000000;stroke-dasharray:0.8,1.32;stroke-dashoffset:0;stroke-width:0.8;"/>
     </g>
     <g id="line2d_38">
      <g>
       <use style="stroke:#000000;stroke-width:0.8;" x="162.392079" xlink:href="#m300c8f1bcf" y="260.64"/>
      </g>
     </g>
    </g>
    <g id="xtick_20">
     <g id="line2d_39">
      <path clip-path="url(#p3985ab395d)" d="M 350.233663 260.64 
L 350.233663 206.28 
" style="fill:none;stroke:#000000;stroke-dasharray:0.8,1.32;stroke-dashoffset:0;stroke-width:0.8;"/>
     </g>
     <g id="line2d_40">
      <g>
       <use style="stroke:#000000;stroke-width:0.8;" x="350.233663" xlink:href="#m300c8f1bcf" y="260.64"/>
      </g>
     </g>
    </g>
    <g id="xtick_21">
     <g id="line2d_41">
      <path clip-path="url(#p3985ab395d)" d="M 538.075248 260.64 
L 538.075248 206.28 
" style="fill:none;stroke:#000000;stroke-dasharray:0.8,1.32;stroke-dashoffset:0;stroke-width:0.8;"/>
     </g>
     <g id="line2d_42">
      <g>
       <use style="stroke:#000000;stroke-width:0.8;" x="538.075248" xlink:href="#m300c8f1bcf" y="260.64"/>
      </g>
     </g>
    </g>
    <g id="xtick_22">
     <g id="line2d_43">
      <path clip-path="url(#p3985ab395d)" d="M 725.916832 260.64 
L 725.916832 206.28 
" style="fill:none;stroke:#000000;stroke-dasharray:0.8,1.32;stroke-dashoffset:0;stroke-width:0.8;"/>
     </g>
     <g id="line2d_44">
      <g>
       <use style="stroke:#000000;stroke-width:0.8;" x="725.916832" xlink:href="#m300c8f1bcf" y="260.64"/>
      </g>
     </g>
    </g>
    <g id="xtick_23">
     <g id="line2d_45">
      <path clip-path="url(#p3985ab395d)" d="M 913.758416 260.64 
L 913.758416 206.28 
" style="fill:none;stroke:#000000;stroke-dasharray:0.8,1.32;stroke-dashoffset:0;stroke-width:0.8;"/>
     </g>
     <g id="line2d_46">
      <g>
       <use style="stroke:#000000;stroke-width:0.8;" x="913.758416" xlink:href="#m300c8f1bcf" y="260.64"/>
      </g>
     </g>
    </g>
    <g id="xtick_24">
     <g id="line2d_47">
      <path clip-path="url(#p3985ab395d)" d="M 1101.6 260.64 
L 1101.6 206.28 
" style="fill:none;stroke:#000000;stroke-dasharray:0.8,1.32;stroke-dashoffset:0;stroke-width:0.8;"/>
     </g>
     <g id="line2d_48">
      <g>
       <use style="stroke:#000000;stroke-width:0.8;" x="1101.6" xlink:href="#m300c8f1bcf" y="260.64"/>
      </g>
     </g>
    </g>
    <g id="text_7">
     <!-- time (s) -->
     <g transform="translate(607.908594 272.238437)scale(0.1 -0.1)">
      <use xlink:href="#DejaVuSans-116"/>
      <use x="39.208984" xlink:href="#DejaVuSans-105"/>
      <use x="66.992188" xlink:href="#DejaVuSans-109"/>
      <use x="164.404297" xlink:href="#DejaVuSans-101"/>
      <use x="225.927734" xlink:href="#DejaVuSans-32"/>
      <use x="257.714844" xlink:href="#DejaVuSans-40"/>
      <use x="296.728516" xlink:href="#DejaVuSans-115"/>
      <use x="348.828125" xlink:href="#DejaVuSans-41"/>
     </g>
    </g>
   </g>
   <g id="matplotlib.axis_8">
    <g id="text_8">
     <!-- train -->
     <defs>
      <path d="M 41.109375 46.296875 
Q 39.59375 47.171875 37.8125 47.578125 
Q 36.03125 48 33.890625 48 
Q 26.265625 48 22.1875 43.046875 
Q 18.109375 38.09375 18.109375 28.8125 
L 18.109375 0 
L 9.078125 0 
L 9.078125 54.6875 
L 18.109375 54.6875 
L 18.109375 46.1875 
Q 20.953125 51.171875 25.484375 53.578125 
Q 30.03125 56 36.53125 56 
Q 37.453125 56 38.578125 55.875 
Q 39.703125 55.765625 41.0625 55.515625 
z
" id="DejaVuSans-114"/>
      <path d="M 54.890625 33.015625 
L 54.890625 0 
L 45.90625 0 
L 45.90625 32.71875 
Q 45.90625 40.484375 42.875 44.328125 
Q 39.84375 48.1875 33.796875 48.1875 
Q 26.515625 48.1875 22.3125 43.546875 
Q 18.109375 38.921875 18.109375 30.90625 
L 18.109375 0 
L 9.078125 0 
L 9.078125 54.6875 
L 18.109375 54.6875 
L 18.109375 46.1875 
Q 21.34375 51.125 25.703125 53.5625 
Q 30.078125 56 35.796875 56 
Q 45.21875 56 50.046875 50.171875 
Q 54.890625 44.34375 54.890625 33.015625 
z
" id="DejaVuSans-110"/>
     </defs>
     <g transform="translate(146.920312 245.0975)rotate(-90)scale(0.1 -0.1)">
      <use xlink:href="#DejaVuSans-116"/>
      <use x="39.208984" xlink:href="#DejaVuSans-114"/>
      <use x="80.322266" xlink:href="#DejaVuSans-97"/>
      <use x="141.601562" xlink:href="#DejaVuSans-105"/>
      <use x="169.384766" xlink:href="#DejaVuSans-110"/>
     </g>
    </g>
   </g>
   <g id="patch_18">
    <path d="M 153 260.64 
L 153 206.28 
" style="fill:none;stroke:#000000;stroke-linecap:square;stroke-linejoin:miter;stroke-width:0.8;"/>
   </g>
   <g id="patch_19">
    <path d="M 1101.6 260.64 
L 1101.6 206.28 
" style="fill:none;stroke:#000000;stroke-linecap:square;stroke-linejoin:miter;stroke-width:0.8;"/>
   </g>
   <g id="patch_20">
    <path d="M 153 260.64 
L 1101.6 260.64 
" style="fill:none;stroke:#000000;stroke-linecap:square;stroke-linejoin:miter;stroke-width:0.8;"/>
   </g>
   <g id="patch_21">
    <path d="M 153 206.28 
L 1101.6 206.28 
" style="fill:none;stroke:#000000;stroke-linecap:square;stroke-linejoin:miter;stroke-width:0.8;"/>
   </g>
  </g>
  <g id="axes_5">
   <g id="patch_22">
    <path d="M 153 315 
L 1101.6 315 
L 1101.6 260.64 
L 153 260.64 
z
" style="fill:#ffffff;"/>
   </g>
   <g id="BrokenBarHCollection_5">
    <defs>
     <path d="M 162.392079 -45 
L 162.392079 -99.36 
L 915.887782 -99.36 
L 915.887782 -45 
L 162.392079 -45 
z
" id="mb3837fbc4e"/>
    </defs>
    <g clip-path="url(#pdaccb51224)">
     <use style="fill:#fca636;fill-opacity:0.66;" x="0" xlink:href="#mb3837fbc4e" y="360"/>
    </g>
   </g>
   <g id="matplotlib.axis_9">
    <g id="xtick_25">
     <g id="line2d_49">
      <path clip-path="url(#pdaccb51224)" d="M 162.392079 315 
L 162.392079 260.64 
" style="fill:none;stroke:#000000;stroke-dasharray:0.8,1.32;stroke-dashoffset:0;stroke-width:0.8;"/>
     </g>
     <g id="line2d_50">
      <g>
       <use style="stroke:#000000;stroke-width:0.8;" x="162.392079" xlink:href="#m300c8f1bcf" y="315"/>
      </g>
     </g>
    </g>
    <g id="xtick_26">
     <g id="line2d_51">
      <path clip-path="url(#pdaccb51224)" d="M 350.233663 315 
L 350.233663 260.64 
" style="fill:none;stroke:#000000;stroke-dasharray:0.8,1.32;stroke-dashoffset:0;stroke-width:0.8;"/>
     </g>
     <g id="line2d_52">
      <g>
       <use style="stroke:#000000;stroke-width:0.8;" x="350.233663" xlink:href="#m300c8f1bcf" y="315"/>
      </g>
     </g>
    </g>
    <g id="xtick_27">
     <g id="line2d_53">
      <path clip-path="url(#pdaccb51224)" d="M 538.075248 315 
L 538.075248 260.64 
" style="fill:none;stroke:#000000;stroke-dasharray:0.8,1.32;stroke-dashoffset:0;stroke-width:0.8;"/>
     </g>
     <g id="line2d_54">
      <g>
       <use style="stroke:#000000;stroke-width:0.8;" x="538.075248" xlink:href="#m300c8f1bcf" y="315"/>
      </g>
     </g>
    </g>
    <g id="xtick_28">
     <g id="line2d_55">
      <path clip-path="url(#pdaccb51224)" d="M 725.916832 315 
L 725.916832 260.64 
" style="fill:none;stroke:#000000;stroke-dasharray:0.8,1.32;stroke-dashoffset:0;stroke-width:0.8;"/>
     </g>
     <g id="line2d_56">
      <g>
       <use style="stroke:#000000;stroke-width:0.8;" x="725.916832" xlink:href="#m300c8f1bcf" y="315"/>
      </g>
     </g>
    </g>
    <g id="xtick_29">
     <g id="line2d_57">
      <path clip-path="url(#pdaccb51224)" d="M 913.758416 315 
L 913.758416 260.64 
" style="fill:none;stroke:#000000;stroke-dasharray:0.8,1.32;stroke-dashoffset:0;stroke-width:0.8;"/>
     </g>
     <g id="line2d_58">
      <g>
       <use style="stroke:#000000;stroke-width:0.8;" x="913.758416" xlink:href="#m300c8f1bcf" y="315"/>
      </g>
     </g>
    </g>
    <g id="xtick_30">
     <g id="line2d_59">
      <path clip-path="url(#pdaccb51224)" d="M 1101.6 315 
L 1101.6 260.64 
" style="fill:none;stroke:#000000;stroke-dasharray:0.8,1.32;stroke-dashoffset:0;stroke-width:0.8;"/>
     </g>
     <g id="line2d_60">
      <g>
       <use style="stroke:#000000;stroke-width:0.8;" x="1101.6" xlink:href="#m300c8f1bcf" y="315"/>
      </g>
     </g>
    </g>
    <g id="text_9">
     <!-- time (s) -->
     <g transform="translate(607.908594 333.598437)scale(0.1 -0.1)">
      <use xlink:href="#DejaVuSans-116"/>
      <use x="39.208984" xlink:href="#DejaVuSans-105"/>
      <use x="66.992188" xlink:href="#DejaVuSans-109"/>
      <use x="164.404297" xlink:href="#DejaVuSans-101"/>
      <use x="225.927734" xlink:href="#DejaVuSans-32"/>
      <use x="257.714844" xlink:href="#DejaVuSans-40"/>
      <use x="296.728516" xlink:href="#DejaVuSans-115"/>
      <use x="348.828125" xlink:href="#DejaVuSans-41"/>
     </g>
    </g>
   </g>
   <g id="matplotlib.axis_10">
    <g id="text_10">
     <!-- epoch -->
     <g transform="translate(146.920312 303.048125)rotate(-90)scale(0.1 -0.1)">
      <use xlink:href="#DejaVuSans-101"/>
      <use x="61.523438" xlink:href="#DejaVuSans-112"/>
      <use x="125" xlink:href="#DejaVuSans-111"/>
      <use x="186.181641" xlink:href="#DejaVuSans-99"/>
      <use x="241.162109" xlink:href="#DejaVuSans-104"/>
     </g>
    </g>
   </g>
   <g id="patch_23">
    <path d="M 153 315 
L 153 260.64 
" style="fill:none;stroke:#000000;stroke-linecap:square;stroke-linejoin:miter;stroke-width:0.8;"/>
   </g>
   <g id="patch_24">
    <path d="M 1101.6 315 
L 1101.6 260.64 
" style="fill:none;stroke:#000000;stroke-linecap:square;stroke-linejoin:miter;stroke-width:0.8;"/>
   </g>
   <g id="patch_25">
    <path d="M 153 315 
L 1101.6 315 
" style="fill:none;stroke:#000000;stroke-linecap:square;stroke-linejoin:miter;stroke-width:0.8;"/>
   </g>
   <g id="patch_26">
    <path d="M 153 260.64 
L 1101.6 260.64 
" style="fill:none;stroke:#000000;stroke-linecap:square;stroke-linejoin:miter;stroke-width:0.8;"/>
   </g>
  </g>
  <g id="text_11">
   <!-- Vectorized map -->
   <defs>
    <path d="M 28.609375 0 
L 0.78125 72.90625 
L 11.078125 72.90625 
L 34.1875 11.53125 
L 57.328125 72.90625 
L 67.578125 72.90625 
L 39.796875 0 
z
" id="DejaVuSans-86"/>
    <path d="M 5.515625 54.6875 
L 48.1875 54.6875 
L 48.1875 46.484375 
L 14.40625 7.171875 
L 48.1875 7.171875 
L 48.1875 0 
L 4.296875 0 
L 4.296875 8.203125 
L 38.09375 47.515625 
L 5.515625 47.515625 
z
" id="DejaVuSans-122"/>
   </defs>
   <g transform="translate(564.867188 16.318125)scale(0.12 -0.12)">
    <use xlink:href="#DejaVuSans-86"/>
    <use x="68.298828" xlink:href="#DejaVuSans-101"/>
    <use x="129.822266" xlink:href="#DejaVuSans-99"/>
    <use x="184.802734" xlink:href="#DejaVuSans-116"/>
    <use x="224.011719" xlink:href="#DejaVuSans-111"/>
    <use x="285.193359" xlink:href="#DejaVuSans-114"/>
    <use x="326.306641" xlink:href="#DejaVuSans-105"/>
    <use x="354.089844" xlink:href="#DejaVuSans-122"/>
    <use x="406.580078" xlink:href="#DejaVuSans-101"/>
    <use x="468.103516" xlink:href="#DejaVuSans-100"/>
    <use x="531.580078" xlink:href="#DejaVuSans-32"/>
    <use x="563.367188" xlink:href="#DejaVuSans-109"/>
    <use x="660.779297" xlink:href="#DejaVuSans-97"/>
    <use x="722.058594" xlink:href="#DejaVuSans-112"/>
   </g>
  </g>
 </g>
 <defs>
  <clipPath id="pbca9793e5a">
   <rect height="54.36" width="948.6" x="153" y="43.2"/>
  </clipPath>
  <clipPath id="pdfcad41685">
   <rect height="54.36" width="948.6" x="153" y="97.56"/>
  </clipPath>
  <clipPath id="pd9f9e6919c">
   <rect height="54.36" width="948.6" x="153" y="151.92"/>
  </clipPath>
  <clipPath id="p3985ab395d">
   <rect height="54.36" width="948.6" x="153" y="206.28"/>
  </clipPath>
  <clipPath id="pdaccb51224">
   <rect height="54.36" width="948.6" x="153" y="260.64"/>
  </clipPath>
 </defs>
</svg>
